<svg width="512" height="512" viewBox="0 0 512 512" fill="none" xmlns="http://www.w3.org/2000/svg">
<path d="M472.746 215.738H291.762L268.8 394.55H495.709L472.746 215.738Z" fill="#1C8FC7"/>
<path d="M495.709 394.551H268.8L268.179 399.36C267.333 405.918 267.895 412.581 269.828 418.903C271.762 425.226 275.021 431.064 279.39 436.027C283.758 440.991 289.135 444.965 295.161 447.685C301.188 450.405 307.725 451.809 314.337 451.802H450.172C478.254 451.802 499.898 427.133 496.33 399.36L495.709 394.551Z" fill="#49A5D2"/>
<path d="M361.736 238.08C361.026 237.002 360.058 236.118 358.92 235.508C357.782 234.899 356.51 234.583 355.219 234.589H289.357L268.8 394.55L268.179 399.36C264.611 427.132 286.332 451.801 314.337 451.801H366.545V340.17C366.545 335.903 370.036 332.412 374.303 332.412H408.979C415.108 332.412 418.831 325.585 415.496 320.388L361.736 238.08Z" fill="black" fill-opacity="0.0313726"/>
<path d="M334.507 281.135C343.075 281.135 350.022 274.188 350.022 265.62C350.022 257.051 343.075 250.104 334.507 250.104C325.938 250.104 318.991 257.051 318.991 265.62C318.991 274.188 325.938 281.135 334.507 281.135Z" fill="white"/>
<path d="M430.002 281.135C438.571 281.135 445.518 274.188 445.518 265.62C445.518 257.051 438.571 250.104 430.002 250.104C421.434 250.104 414.487 257.051 414.487 265.62C414.487 274.188 421.434 281.135 430.002 281.135Z" fill="white"/>
<path d="M242.502 197.819C280.504 197.819 311.311 167.011 311.311 129.009C311.311 91.0064 280.504 60.1992 242.502 60.1992C204.499 60.1992 173.692 91.0064 173.692 129.009C173.692 167.011 204.499 197.819 242.502 197.819Z" fill="#FF7146"/>
<path d="M394.628 316.897H203.016L159.418 250.104H351.03L394.628 316.897Z" fill="#FFD683"/>
<path d="M203.016 316.897L159.418 250.104V451.801H351.03V316.897H203.016Z" fill="#FFC040"/>
<path d="M15.2822 316.897H115.898L159.418 250.104H58.8798L15.2822 316.897Z" fill="#FFD683"/>
<path d="M115.898 316.897H58.8799V451.801H159.418V250.104L115.898 316.897Z" fill="#E5AC39"/>
<path d="M394.628 322.715C396.8 322.715 398.739 321.552 399.748 319.69C400.756 317.828 400.679 315.501 399.515 313.717L394.783 306.502L355.917 246.924C355.393 246.107 354.669 245.436 353.814 244.975C352.959 244.513 352.001 244.277 351.03 244.286H58.8799C56.9405 244.286 55.0787 245.295 53.9926 246.924L10.395 313.717C9.23139 315.501 9.15381 317.751 10.1623 319.69C11.1708 321.552 13.1102 322.715 15.2823 322.715H53.0617V451.802C53.0617 454.982 55.6993 457.62 58.8799 457.62H351.03C354.211 457.62 356.848 454.982 356.848 451.802V322.715H394.628ZM345.212 445.983H165.314V269.731L198.206 320.078C199.292 321.707 201.076 322.715 203.093 322.715H345.212V445.983ZM206.196 311.079L170.201 255.923H347.85L383.845 311.079H350.953H206.196ZM62.0605 255.923H148.713L112.717 311.079H26.0653L62.0605 255.923ZM64.6981 322.715H115.898C117.837 322.715 119.699 321.707 120.785 320.078L153.677 269.654V445.983H64.6981V322.715ZM242.502 203.637C283.617 203.637 317.13 170.124 317.13 129.009C317.13 87.8936 283.617 54.3809 242.502 54.3809C201.387 54.3809 167.874 87.8936 167.874 129.009C167.874 170.124 201.387 203.637 242.502 203.637ZM242.502 66.0172C277.256 66.0172 305.493 94.2548 305.493 129.009C305.493 163.763 277.256 192 242.502 192C207.748 192 179.51 163.763 179.51 129.009C179.51 94.2548 207.748 66.0172 242.502 66.0172Z" fill="#2B2A3A"/>
<path d="M203.791 134.827H236.761V167.796C236.761 170.977 239.399 173.614 242.579 173.614C245.76 173.614 248.397 170.977 248.397 167.796V134.827H281.367C284.548 134.827 287.185 132.189 287.185 129.008C287.185 125.828 284.548 123.19 281.367 123.19H248.397V90.2205C248.397 87.0399 245.76 84.4023 242.579 84.4023C239.399 84.4023 236.761 87.0399 236.761 90.2205V123.19H203.791C202.248 123.19 200.768 123.803 199.677 124.894C198.586 125.985 197.973 127.465 197.973 129.008C197.973 130.551 198.586 132.031 199.677 133.122C200.768 134.214 202.248 134.827 203.791 134.827ZM502.07 398.584L501.45 393.774L478.487 214.962C478.295 213.573 477.61 212.298 476.556 211.372C475.501 210.447 474.149 209.931 472.746 209.92H435.82V193.319C435.82 163.762 411.772 139.714 382.216 139.714C352.659 139.714 328.611 163.762 328.611 193.319V209.92H291.685C288.737 209.92 286.254 212.092 285.944 214.962L284.548 226.056C284.16 229.236 286.41 232.184 289.59 232.572C292.771 232.96 295.719 230.71 296.106 227.53L296.882 221.479H328.688V226.754C328.688 229.934 331.326 232.572 334.506 232.572C337.687 232.572 340.325 229.934 340.325 226.754V221.479H424.262V245.139C415.34 247.699 408.746 255.845 408.746 265.542C408.746 277.333 418.288 286.875 430.08 286.875C441.871 286.875 451.413 277.333 451.413 265.542C451.413 255.845 444.819 247.699 435.898 245.139V221.479H467.704L489.193 388.654H374.38C371.2 388.654 368.562 391.292 368.562 394.473C368.562 397.653 371.2 400.291 374.38 400.291H490.666C491.363 406.01 490.837 411.811 489.124 417.312C487.41 422.812 484.549 427.886 480.728 432.198C476.908 436.51 472.215 439.962 466.961 442.325C461.707 444.688 456.011 445.908 450.25 445.905H374.38C371.2 445.905 368.562 448.543 368.562 451.724C368.562 454.904 371.2 457.542 374.38 457.542H450.25C465.299 457.542 479.651 451.103 489.58 439.777C494.463 434.188 498.101 427.625 500.254 420.523C502.408 413.422 503.027 405.943 502.07 398.584ZM439.699 265.619C439.699 268.191 438.678 270.658 436.859 272.476C435.041 274.295 432.574 275.316 430.002 275.316C427.43 275.316 424.964 274.295 423.145 272.476C421.327 270.658 420.305 268.191 420.305 265.619C420.305 263.048 421.327 260.581 423.145 258.763C424.964 256.944 427.43 255.922 430.002 255.922C432.574 255.922 435.041 256.944 436.859 258.763C438.678 260.581 439.699 263.048 439.699 265.619ZM340.325 209.92V193.319C340.325 170.201 359.176 151.35 382.293 151.35C405.411 151.35 424.262 170.201 424.262 193.319V209.92H340.325Z" fill="#2B2A3A"/>
</svg>
