<svg width="104" height="101" viewBox="0 0 104 101" fill="none" xmlns="http://www.w3.org/2000/svg">
<g filter="url(#filter0_d_374_8706)">
<path d="M45.819 24.5417C46.0516 23.9215 46.4392 23.689 47.1368 23.689C48.3772 23.689 49.6175 23.689 50.9353 23.689C51.4004 23.689 51.633 23.6114 51.633 23.0688C51.5554 22.6812 51.633 22.2936 51.633 21.9835C51.7105 20.7432 52.4082 20.0455 53.6485 20.0455C56.5167 20.0455 57.0593 20.0455 60.0051 20.0455C60.3927 20.0455 60.6252 20.0455 60.7027 19.5804C61.1679 17.1773 62.4857 15.3169 64.4237 13.9215C64.6562 13.7665 64.8888 13.6114 65.1213 13.3789C65.4314 13.1463 65.4314 12.8362 65.1213 12.6037C64.5012 12.1386 64.2686 11.5184 64.3462 10.7432C64.3462 9.81298 64.3462 8.88275 64.3462 8.03003C64.3462 6.7122 65.0438 6.01453 66.4392 5.93701C68.0671 5.93701 69.695 5.93701 71.3229 5.93701C72.5632 5.93701 73.2609 6.63469 73.3384 7.875C73.3384 8.88275 73.3384 9.96802 73.3384 10.9758C73.3384 11.5959 73.1058 12.1386 72.6407 12.5262C72.1756 12.8362 72.2531 13.1463 72.6407 13.4564C72.7958 13.5339 72.9508 13.6889 73.0283 13.7665C75.8965 15.782 77.2919 18.4951 77.1369 21.9835C77.0593 24.1541 77.1369 28.5727 77.1369 30.7432C77.1369 31.2083 77.2144 31.4409 77.757 31.4409C78.8423 31.5184 79.5399 32.061 80.0051 33.0688C80.6252 34.3091 81.1679 35.5494 81.7105 36.7897C81.8655 37.0998 82.0206 37.3324 82.4082 37.3324C83.0283 37.3324 83.4159 37.72 83.4159 38.3401C83.4159 38.9603 83.1058 39.4254 82.4857 39.4254C82.0206 39.4254 81.788 39.6579 81.633 40.0455C81.1679 41.0533 80.7027 42.061 80.2376 43.1463C80.8578 43.1463 81.4004 43.1463 81.943 43.1463C82.6407 43.1463 83.1058 43.4564 83.4934 43.999C85.1213 46.3246 86.7493 48.6502 88.3772 51.0533C88.7648 51.5959 88.8423 52.1386 88.5322 52.7587C88.2221 53.3789 87.6795 53.6114 86.9818 53.6114C86.0516 53.6114 85.0438 53.6114 84.1136 53.6114C83.4934 53.6114 83.4159 53.7665 83.4159 54.3091C83.4159 60.7432 83.4159 67.1773 83.4159 73.6114C83.4159 73.999 83.4934 74.3866 83.3384 74.7742C83.1058 75.4719 82.5632 75.8595 81.8655 75.937C81.633 75.937 81.4004 75.937 81.0903 75.937C61.0128 75.937 43.2609 75.937 23.2609 75.937C22.6407 75.937 22.0981 75.937 21.5554 75.5494C20.9353 75.0843 20.8578 74.3866 20.8578 73.6889C20.8578 67.3324 20.8578 60.8983 20.8578 54.5417C20.8578 53.6114 20.8578 53.6114 19.85 53.6114C18.9973 53.6114 18.1446 53.6114 17.2919 53.6114C16.3616 53.6889 15.664 53.3013 15.2764 52.4486C15.2764 52.1386 15.2764 51.8285 15.2764 51.5959C17.0593 49.1153 18.9198 46.6347 20.7027 44.1541C21.0903 43.6114 21.5554 43.2238 22.2531 43.3014C22.7957 43.3014 22.7958 43.0688 22.7958 42.6812C22.7958 40.9758 22.7958 39.2703 22.7958 37.5649C22.7958 36.6347 23.0283 35.937 23.881 35.6269C24.1136 35.5494 24.1911 35.3944 24.1911 35.0843C24.1911 34.6967 24.1911 34.3091 24.1911 33.999C24.1911 33.6114 24.1136 33.3789 23.726 33.2238C23.1058 32.9138 22.7958 32.3711 22.7958 31.6734C22.7958 29.4254 22.7958 24.8517 22.7958 22.6037C22.7958 21.5184 23.3384 20.7432 24.1911 20.1231C25.1988 19.3479 26.2066 18.6502 27.2143 17.875C27.6795 17.4874 27.8345 17.1773 27.2919 16.7897C26.8268 16.4796 26.6717 16.0145 26.6717 15.4719C26.6717 14.3866 26.6717 13.2238 26.6717 12.1386C26.6717 10.9758 27.4469 10.2781 28.6097 10.2781C30.3151 10.2781 31.943 10.2781 33.6485 10.2781C34.8113 10.2781 35.5865 11.0533 35.5865 12.2161C35.5865 13.2238 35.5865 14.3091 35.5865 15.3169C35.5865 15.937 35.4314 16.4796 34.8888 16.8672C34.3462 17.2548 34.5012 17.5649 34.9663 17.875C35.974 18.5727 36.9043 19.3479 37.912 20.0455C38.9973 20.8207 39.5399 21.8285 39.4624 23.1463C39.4624 23.6114 39.6175 23.7665 40.0826 23.7665C40.6252 23.6889 41.0903 23.7665 41.633 23.7665C42.2531 23.7665 42.7182 23.999 42.9508 24.6192C43.1058 25.4719 42.7958 26.0145 41.8655 26.1696C41.4004 26.2471 40.8578 26.2471 40.3926 26.1696C39.9275 26.1696 39.695 26.3246 39.695 26.8672C39.695 27.5649 39.695 30.5882 39.695 31.3634C39.695 32.2161 39.3849 32.9138 38.6872 33.3789C37.9896 33.9215 37.9896 35.0068 38.6097 35.6269C39.2299 36.2471 39.85 36.5572 40.7802 36.4021C42.1756 36.2471 43.571 36.5572 44.8888 37.2548C45.5865 37.5649 46.1291 37.5649 46.7492 37.2548C47.5244 36.8672 48.2996 36.6347 49.1523 36.5572C49.695 36.4021 50.3151 36.3246 50.9353 36.4021C51.3229 36.4021 51.4004 36.3246 51.4004 35.937C51.4004 33.7665 51.4004 29.1928 51.4004 27.0223C51.4004 26.4796 51.1678 26.2471 50.6252 26.2471C50.1601 26.2471 49.6175 26.2471 49.1523 26.2471C48.4547 26.2471 47.757 26.3246 47.0593 26.2471C46.0516 25.937 45.664 25.3944 45.819 24.5417Z" fill="#2E2E30"/>
<path d="M48.9967 36.6348C47.9889 36.8673 46.9812 37.0999 46.1285 37.6425C45.8959 37.7976 45.6633 37.7976 45.3533 37.6425C43.6478 36.7123 41.7874 36.3247 39.7719 36.6348C39.4618 36.7123 39.2292 36.6348 39.0742 36.3247C38.9967 36.1697 38.7641 36.0146 38.6091 35.8596C38.3765 35.627 37.9114 35.7045 37.9114 35.3169C37.8339 34.7743 37.9114 34.1542 37.9114 33.6115C37.9114 33.379 38.144 33.379 38.299 33.3014C39.0742 32.9138 39.3843 32.2937 39.3843 31.441C39.3843 30.5883 39.3843 27.41 39.3843 26.6348C39.3843 26.0921 39.4618 25.8596 40.0819 25.9371C40.5471 26.0146 41.0122 25.9371 41.4773 25.9371C42.4851 25.9371 42.8726 25.5495 42.8726 24.5417C43.6478 25.0069 44.423 24.6193 45.1982 24.7743C45.4308 24.7743 45.6633 24.7743 45.8184 24.5417C45.8184 25.5495 46.206 25.8596 47.2137 25.9371C47.8339 25.9371 48.3765 25.9371 48.9967 25.9371C49.2292 26.2472 49.2292 26.5573 49.2292 26.9448C49.2292 29.1154 49.2292 33.6115 49.2292 35.7045C49.2292 36.0146 49.2292 36.3247 48.9967 36.6348Z" fill="#FEE077"/>
<path d="M64.2682 31.441C63.2605 31.6735 62.5628 32.2937 62.1752 33.2239C61.6326 34.3867 61.0899 35.627 60.5473 36.7898C60.3922 37.1774 60.2372 37.41 59.7721 37.41C59.1519 37.41 58.8419 37.7976 58.7643 38.4177C58.7643 39.0379 59.0744 39.503 59.6946 39.5805C60.1597 39.658 60.3922 39.8906 60.5473 40.2782C60.9349 41.1309 61.3225 42.0611 61.7101 42.9139C61.8651 43.2239 61.7876 43.379 61.4775 43.379C60.0822 43.379 61.0124 43.379 59.6171 43.379C59.307 43.379 59.1519 43.3015 59.0744 42.9914C58.2217 40.3557 56.5163 38.4953 54.0357 37.41C53.7256 37.2549 53.7256 37.0999 53.7256 36.8673C53.7256 32.9139 53.7256 26.7123 53.7256 22.7588C53.7256 22.3712 53.8806 22.2937 54.1907 22.2937C58.8419 22.2937 61.1675 22.2937 65.8186 22.2937C66.0512 22.6038 66.0512 22.9139 66.0512 23.3015C66.0512 24.9294 66.0512 28.8053 66.0512 30.4332C66.0512 31.5185 65.9736 31.5185 64.9659 31.5185C64.7333 31.3635 64.5008 31.3635 64.2682 31.441Z" fill="#2790B7"/>
<path d="M86.5164 51.0533L85.7412 49.8905C84.6559 48.4176 83.6482 46.8672 82.6404 45.3944C82.3303 45.0068 81.9427 45.0068 81.7102 45.0068C81.2451 45.0068 80.7024 45.0068 80.1598 45.0068H78.997H78.842C78.7644 45.0068 78.6094 45.0068 78.5319 45.0068C64.8885 45.0068 53.4931 45.0068 39.7722 45.0068C39.6171 45.0068 39.152 44.9292 38.9195 45.4719C38.8419 45.6269 38.8419 45.782 38.9195 45.937L41.4776 49.5029C41.5551 49.6579 41.7102 49.813 41.7877 49.968C42.0203 50.2781 42.2528 50.5882 42.4078 50.9757C42.7954 51.6734 43.3381 51.9835 44.1908 51.9835C54.811 51.9835 64.3458 51.9835 74.4234 51.9835H85.3536C85.4311 51.9835 85.4311 51.9835 85.5086 51.9835C85.7412 51.9835 86.0513 51.9835 86.3613 51.8285C86.4389 51.7509 86.5164 51.6734 86.5939 51.5184C86.6714 51.3633 86.5939 51.1308 86.5164 51.0533Z" fill="#83E0FE"/>
<path d="M64.4242 43.1461C63.8815 41.9833 63.3389 40.8205 62.7188 39.5802C64.1916 39.5802 65.5094 39.5802 66.9048 39.5802C67.1374 39.5802 67.4474 39.5802 67.68 39.5802C68.3001 39.5027 68.6102 39.0376 68.6102 38.4174C68.6102 37.7973 68.2226 37.4097 67.6025 37.4097C66.2846 37.4097 65.0443 37.4097 63.7265 37.4097C63.4164 37.4097 63.1063 37.4097 62.7188 37.4097C63.2614 36.2469 63.804 35.0841 64.2691 33.9213C64.3467 33.6887 64.5792 33.6887 64.8118 33.6887C68.0676 33.6887 71.3234 33.6887 74.5792 33.7662C75.3544 34.619 75.6645 35.7817 76.1296 36.867C76.2846 37.2546 76.1296 37.4097 75.6645 37.4872C74.5792 37.4872 73.4939 37.4097 72.3311 37.4872C71.711 37.7197 71.4009 38.1848 71.556 38.805C71.711 39.5027 72.2536 39.6577 72.8738 39.6577C73.9591 39.6577 74.9668 39.6577 76.0521 39.7352C76.2071 39.9678 76.2071 40.2003 76.0521 40.4329C75.6645 41.2856 75.3544 42.1383 74.8893 42.9135C74.7342 43.2236 74.5017 43.3786 74.1141 43.3786C70.9358 43.3786 67.7575 43.3786 64.5792 43.3786C64.5792 43.2236 64.5017 43.2236 64.4242 43.1461Z" fill="#EEECEE"/>
<path d="M34.9658 31.1308C31.7875 31.1308 28.6092 31.1308 25.4309 31.1308C25.0433 31.1308 24.9658 30.9758 24.9658 30.6657C24.9658 28.8052 24.9658 24.6967 24.9658 22.8362C24.9658 22.2936 25.1984 21.9835 25.586 21.6734C26.3612 21.1308 27.0589 20.5882 27.834 20.0455C28.8418 19.3479 29.9271 18.7277 29.8496 17.2548C30.3147 17.0998 30.3922 17.4874 30.3147 17.72C30.1596 18.8827 30.8573 19.4254 31.6325 19.968C32.4077 20.5107 33.1829 21.1308 34.0356 21.751C34.7333 22.2936 35.1209 22.9913 35.1209 23.9215C35.1209 25.2393 35.1209 28.8827 35.1209 30.2006C35.1209 30.5882 35.1984 30.8983 34.9658 31.1308Z" fill="#C7EEFD"/>
<path d="M35.2766 45.3168C35.1991 45.1618 35.044 45.0842 34.889 45.0842H32.6409C29.2301 45.0842 25.7417 45.0842 22.4859 45.0842C22.0208 45.0842 21.7107 45.2393 21.4781 45.5493C20.7029 46.6346 19.9277 47.6424 19.1525 48.7276L17.5246 50.9757C17.3696 51.1307 17.4471 51.2858 17.4471 51.4408C17.4471 51.5959 17.4471 51.6734 17.6021 51.8284C17.6797 51.9059 17.8347 51.9835 17.9122 51.9835H20.0053C23.3386 51.9835 26.9045 51.9835 30.0828 51.9835C30.3929 51.9835 30.7805 51.9059 31.013 51.5183C32.0983 50.123 33.106 48.6501 34.1913 47.1773L35.1991 45.8594C35.3541 45.6269 35.3541 45.4718 35.2766 45.3168Z" fill="#83E0FE"/>
<path d="M71.5556 31.3632C71.4005 30.433 71.4781 27.1772 71.4781 26.2469C71.4781 24.8516 71.4781 23.4562 71.4781 22.0609C71.4781 20.743 70.7029 20.0454 69.385 20.0454C67.2145 20.0454 65.1215 20.0454 62.9509 20.0454C62.8734 20.0454 62.8734 20.0454 62.7959 19.9679C63.106 18.4175 63.8812 17.1772 65.044 16.1694C65.4316 15.8593 65.8967 15.4717 66.3618 15.1617C67.0594 14.6965 67.6021 14.0764 67.5246 13.1461C67.5246 12.9136 67.6021 12.8361 67.8347 12.9136C68.1447 13.6888 68.7649 14.1539 69.4625 14.6965C71.7881 16.402 72.9509 18.65 72.9509 21.5958C72.9509 23.6888 72.9509 28.1849 72.9509 30.2779C72.8734 31.4407 72.8734 31.5182 71.5556 31.3632Z" fill="#C7EEFD"/>
<path d="M25.0433 43.1462C24.8883 41.4408 25.0433 39.6578 24.9658 37.9524C24.9658 37.6423 25.1209 37.6423 25.3534 37.6423C28.2216 37.6423 31.0899 37.6423 33.8805 37.7198C34.1131 37.9524 34.1131 38.2625 34.1131 38.5726C34.1131 39.8904 34.1131 41.1307 34.1131 42.4485C34.1131 43.2237 34.0356 43.3013 33.1829 43.3013C30.7023 43.3013 28.1441 43.3013 25.6635 43.3013C25.5085 43.2237 25.2759 43.3012 25.0433 43.1462Z" fill="#C7EEFD"/>
<path d="M28.6096 59.4252C28.6096 59.2702 28.6096 58.9601 28.3771 58.8051C28.1445 58.5725 27.9119 58.5725 27.6794 58.5725C26.4391 58.5725 24.9662 58.5725 23.5709 58.5725C23.4158 58.5725 23.1058 58.5725 22.8732 58.8051C22.6406 59.0376 22.6406 59.2702 22.6406 59.5027C22.6406 60.2779 22.6406 61.1307 22.6406 61.9058V62.8361V63.8438C22.6406 64.6965 22.6406 65.5492 22.6406 66.402C22.6406 66.6345 22.6406 66.9446 22.8732 67.1772C23.1058 67.4097 23.3383 67.4097 23.5709 67.4097C23.5709 67.4097 23.5709 67.4097 23.6484 67.4097C25.0437 67.4097 26.5166 67.4097 27.6794 67.4097C27.9119 67.4097 28.222 67.4097 28.3771 67.1772C28.6096 66.9446 28.6096 66.712 28.6096 66.4795C28.6096 64.2314 28.6096 61.8283 28.6096 59.4252Z" fill="white"/>
<path d="M71.5551 31.3635C72.7179 31.286 72.7179 31.286 72.7179 30.1232C72.7179 28.0302 72.7179 23.6891 72.7179 21.5961C72.7954 18.5728 71.4775 16.3247 69.0744 14.6193C68.8419 14.4643 68.6869 14.3092 68.4543 14.1542C67.9117 13.8441 67.7566 13.4565 67.8341 12.8364C68.1442 12.8364 68.4543 12.8364 68.7644 12.8364C69.5396 12.7589 70.1597 12.7589 70.0822 13.8441C70.0822 14.3092 70.4698 14.6968 70.8574 14.9294C73.9582 16.7899 75.1209 19.503 74.8884 23.0689C74.7334 24.8519 74.8109 28.9604 74.8884 30.8209C74.8884 31.286 74.7334 31.5186 74.2682 31.441C73.338 31.3635 72.4078 31.5185 71.5551 31.3635Z" fill="#83E0FE"/>
<path d="M43.3386 43.3011C42.1758 43.3011 41.0906 43.3011 39.9278 43.3011C39.5402 43.3011 39.3076 43.2236 39.3076 42.7585C39.3076 41.6732 39.3076 40.5105 39.3076 39.4252C39.3076 39.0376 39.4627 38.9601 39.7727 38.8825C42.7185 38.3399 45.8193 39.9678 47.1371 42.681C47.3696 43.2236 47.2921 43.3787 46.672 43.3011C45.6642 43.2236 44.5014 43.3011 43.3386 43.3011Z" fill="#00D991"/>
<path d="M47.6025 39.4255C51.0134 37.8751 55.2769 39.503 56.6723 42.7588C56.8273 43.1464 56.8273 43.3015 56.2847 43.3015C54.2692 43.3015 52.2537 43.3015 50.2382 43.3015C49.9281 43.3015 49.6956 43.3015 49.618 42.9139C49.308 41.596 48.6103 40.4332 47.6025 39.4255Z" fill="#00D991"/>
<path d="M34.9665 31.1307C34.9665 29.4252 34.9665 25.3942 34.9665 23.6888C34.9665 22.9911 34.6564 22.4485 34.1138 21.9834C33.0285 21.2082 32.0208 20.3555 30.9355 19.6578C30.3929 19.2702 30.1603 18.8051 30.2378 18.1849C30.2378 17.8749 30.4704 17.4097 29.9277 17.2547C30.6254 17.0221 31.3231 17.2547 32.0208 17.1772C32.3308 17.1772 32.3308 17.3322 32.3308 17.5648C32.3308 18.34 32.7184 18.9601 33.4161 19.4252C34.4239 20.2004 35.4316 20.9756 36.5169 21.6733C36.982 22.0609 37.2921 22.4485 37.2146 23.0687C37.2146 24.8516 37.2146 28.8826 37.2146 30.6656C37.2146 31.0532 37.137 31.2082 36.6719 31.2082C36.0518 31.1307 35.5091 31.2082 34.9665 31.1307Z" fill="#83E0FE"/>
<path d="M64.2686 31.4409C64.4236 31.3634 64.5011 31.3633 64.6562 31.3633C65.8189 31.2858 65.8189 31.2858 65.8189 30.0455C65.8189 28.1851 65.8189 24.0765 65.8189 22.2161C66.7492 22.2161 67.7569 22.2161 68.6871 22.2161C69.0747 22.2161 69.2298 22.2936 69.2298 22.6812C69.2298 24.6192 69.2298 28.9602 69.2298 30.8982C69.2298 31.3633 69.0747 31.4409 68.6871 31.4409C67.2143 31.4409 65.7414 31.4409 64.2686 31.4409Z" fill="#2790B7"/>
<path d="M48.9971 36.6348C48.9971 33.8441 48.9971 28.7278 48.9971 25.9371C49.6947 25.9371 50.3924 25.9371 51.1676 25.8596C51.5552 25.8596 51.6327 26.0147 51.6327 26.3247C51.6327 28.8054 51.6327 33.6116 51.6327 36.0922C51.6327 36.3247 51.7102 36.6348 51.2451 36.5573C50.4699 36.4798 49.6947 36.5573 48.9971 36.6348Z" fill="#FED05B"/>
<path d="M25.0439 43.1461C27.7571 43.1461 30.3928 43.1461 33.106 43.1461C33.8036 43.1461 33.9587 42.9135 33.8812 42.2934C33.8036 40.743 33.8812 39.1926 33.8812 37.6422C34.8114 37.6422 35.8191 37.6422 36.7494 37.5647C37.137 37.5647 37.137 37.7197 37.137 38.0298C37.137 39.5802 37.137 41.2081 37.137 42.7585C37.137 43.0686 37.0595 43.2236 36.6719 43.2236C32.8734 43.2236 28.9974 43.2236 25.199 43.2236C25.1215 43.3011 25.1215 43.2236 25.0439 43.1461Z" fill="#83E0FE"/>
<path d="M33.4164 35.3943C31.2459 35.3943 28.9978 35.3943 26.8273 35.4718C26.5172 35.4718 26.3622 35.3943 26.3622 35.0842C26.3622 35.0067 26.3622 35.0067 26.3622 34.9292C26.2847 33.4563 26.2846 33.4563 27.7575 33.4563C29.618 33.4563 31.556 33.4563 33.4164 33.4563C33.804 34.0765 33.804 34.6966 33.4164 35.3943Z" fill="#83E0FE"/>
<path d="M64.4238 43.1462C67.6021 43.1462 70.7029 43.1462 73.8812 43.1462C74.3463 43.1462 74.6564 42.9912 74.8114 42.5261C75.2766 41.5183 75.8192 40.5881 76.0517 39.5803C77.137 39.5803 78.2223 39.5803 79.3851 39.5803C78.8424 40.7431 78.3773 41.8284 77.8347 42.9912C77.7572 43.2237 77.6021 43.3013 77.3696 43.3013C73.106 43.3013 68.7649 43.3013 64.5014 43.3013C64.5014 43.2237 64.5013 43.2237 64.4238 43.1462Z" fill="#E4E0E4"/>
<path d="M72.4082 37.3324C73.416 37.0223 74.4237 37.2549 75.3539 37.1773C76.1291 37.0998 76.2066 37.0998 75.8191 36.4022C75.4315 35.4719 74.9663 34.5417 74.5787 33.6115C75.509 33.6115 76.3617 33.6115 77.2919 33.5339C77.602 33.5339 77.757 33.6115 77.8346 33.9215C78.2997 34.9293 78.6873 35.8595 79.1524 36.8673C79.3849 37.3324 78.9973 37.2549 78.7648 37.2549C76.7493 37.3324 74.5787 37.3324 72.4082 37.3324Z" fill="#E3DFE3"/>
<path d="M69.4625 8.10747C71.0129 7.95243 71.0129 7.95243 71.0129 9.58034C71.0129 9.8129 71.0129 9.96794 71.0129 10.2005C71.0905 10.5881 70.8579 10.6656 70.4703 10.6656C69.3075 10.6656 68.1447 10.6656 66.9044 10.6656C66.7494 10.6656 66.4393 10.7431 66.4393 10.4331C66.4393 9.65786 66.2843 8.88266 66.5168 8.10747C66.5943 8.18499 66.6719 8.34003 66.6719 8.41755C66.7494 8.72763 66.5168 9.19274 66.9819 9.27026C67.5246 9.4253 68.1447 9.4253 68.6874 9.19274C69.3075 9.03771 69.1525 8.49507 69.4625 8.10747Z" fill="#2790B7"/>
<path d="M31.5556 12.4488C33.3385 12.3712 33.261 12.3712 33.3385 14.1542C33.3385 14.9294 33.106 15.0844 32.4083 15.0069C31.4781 14.9294 30.4703 14.9294 29.5401 15.0069C28.9199 15.0069 28.6874 14.8519 28.8424 14.2317C29.3075 13.9216 29.7727 13.9991 30.2378 13.9991C31.0905 13.9991 31.168 13.9216 31.323 13.0689C31.323 12.8364 31.4006 12.6038 31.5556 12.4488Z" fill="#83E0FE"/>
<path d="M31.5546 12.4485C31.5546 14.309 31.6322 14.2314 29.8492 14.2314C29.5391 14.2314 29.2291 14.2314 28.919 14.2314C28.7639 12.4485 28.7639 12.4485 30.4694 12.4485C30.7794 12.4485 31.167 12.4485 31.5546 12.4485Z" fill="#83E0FE"/>
<path d="M33.416 35.3943C33.416 34.7741 33.416 34.0765 33.416 33.4563C34.0362 33.4563 34.6563 33.4563 35.2765 33.4563C35.5866 33.4563 35.6641 33.5338 35.7416 33.8439C35.8966 35.4718 35.8966 35.4718 34.2687 35.3943C33.9587 35.3943 33.7261 35.3943 33.416 35.3943Z" fill="#83E0FE"/>
<path d="M69.4626 8.10745C69.4626 9.5028 69.385 9.58032 67.9897 9.58032C66.6719 9.58032 66.6719 9.58032 66.6719 8.10745C67.5246 8.02993 68.5323 8.10745 69.4626 8.10745Z" fill="#2790B7"/>
<path d="M70.4701 70.4331C69.8499 70.9758 69.3073 70.8982 68.6871 70.3556C68.2995 69.1928 68.5321 68.1075 68.5321 66.9448C68.5321 66.4796 68.9972 66.1696 69.5398 66.092C70.0825 66.092 70.5476 66.3246 70.6251 66.7897C70.7801 68.03 71.0127 69.1928 70.4701 70.4331Z" fill="#2E2E30"/>
<path d="M74.4237 70.3556C73.881 70.8983 73.2609 70.8983 72.6407 70.4332C72.0981 69.2704 72.3306 68.03 72.4857 66.8673C72.5632 66.4021 73.0283 66.0921 73.571 66.1696C74.1136 66.1696 74.5012 66.4797 74.5787 67.0223C74.6562 68.03 74.8113 69.1928 74.4237 70.3556Z" fill="#2E2E30"/>
<path d="M66.5945 70.3556C65.9743 70.8982 65.4317 70.8982 64.8115 70.3556C64.4239 69.1928 64.579 67.9525 64.6565 66.7897C64.734 66.3246 65.1216 66.092 65.6642 66.092C66.2069 66.092 66.672 66.3246 66.672 66.8672C66.9045 68.03 67.0596 69.1928 66.5945 70.3556Z" fill="#2E2E30"/>
<path d="M77.834 66.092C78.2991 66.4021 78.5316 66.7897 78.4541 67.4099C78.4541 68.03 78.4541 68.6502 78.4541 69.3478C78.4541 69.8905 78.3766 70.3556 77.9115 70.5882C77.3689 70.8982 76.9037 70.6657 76.5161 70.3556C76.051 69.1928 76.2061 68.03 76.3611 66.8672C76.5161 66.092 77.2138 66.0145 77.834 66.092Z" fill="#2E2E30"/>
<path d="M81.9427 54.154C81.9427 53.9214 81.9427 53.6113 81.7102 53.4563C81.5551 53.3013 81.3226 53.2237 81.0125 53.2237C80.3148 53.2237 79.3071 53.2237 78.6094 53.2237H77.8342H77.5241C77.2916 53.2237 77.059 53.2237 76.8264 53.2237H71.4001C61.8652 53.2237 53.4931 53.2237 43.4931 53.2237C42.6404 53.2237 42.0977 52.9137 41.6326 52.2935C41.3225 51.7509 40.935 51.2858 40.5474 50.7431C40.3923 50.5106 40.2373 50.278 40.0822 50.123L38.3768 47.7199C38.2993 47.5648 38.1443 47.4873 37.9117 47.5648C37.7567 47.6424 37.6791 47.7974 37.6791 47.9524V51.5183C37.6791 53.8439 37.6791 56.092 37.6791 58.4176C37.6791 58.8827 37.6016 59.1152 37.4466 59.2703C37.2915 59.4253 37.059 59.4253 36.6714 59.4253C36.3613 59.2703 36.2063 58.9602 36.2063 58.4951C36.2063 56.7121 36.2063 54.8517 36.2063 53.0687V47.9524C36.2063 47.7974 36.1288 47.7199 36.0512 47.6423C35.9737 47.5648 35.8187 47.5648 35.6636 47.5648C35.2761 47.7199 35.121 47.9524 34.966 48.1075L34.8885 48.185L34.2683 48.9602C33.4931 49.9679 32.7179 51.0532 31.9427 52.1385C31.4001 52.8361 30.8574 53.1462 30.0047 53.1462C28.9194 53.1462 27.8342 53.1462 26.7489 53.1462C25.6636 53.1462 24.6559 53.1462 23.5706 53.1462C23.2605 53.1462 22.9505 53.1462 22.7179 53.4563C22.4853 53.6889 22.4854 54.0765 22.4854 54.309C22.5629 54.8517 22.5629 55.3168 22.4854 55.8594C22.4854 56.1695 22.4853 56.4796 22.7179 56.7896C22.9505 57.0222 23.3381 57.0997 23.6481 57.0997C24.7334 57.0997 25.8962 57.0997 26.9815 57.0997H28.0667C29.4621 57.0997 29.9272 57.5648 29.9272 58.9602C29.9272 61.5958 29.9272 64.309 29.9272 66.9447C29.9272 68.34 29.3846 68.8051 27.9892 68.8827C27.059 68.8827 26.2063 68.8827 25.276 68.8827H24.1132C23.4156 68.8827 23.028 68.8827 22.7954 69.1927C22.5629 69.5028 22.5629 69.8129 22.6404 70.5106V71.2858C22.6404 71.9834 22.6404 72.6036 22.6404 73.3013C22.6404 73.3788 22.6404 73.7664 22.8729 73.9989C23.1055 74.2315 23.3381 74.2315 23.5706 74.2315C27.5241 74.2315 31.4776 74.2315 35.4311 74.2315C35.6636 74.2315 35.8962 74.2315 36.1287 73.9989C36.3613 73.7664 36.3613 73.5338 36.3613 73.3013C36.3613 70.8982 36.3613 68.4175 36.3613 66.0144V63.9214C36.3613 63.6113 36.5164 63.3788 36.8264 63.2237C37.214 63.2237 37.4466 63.3013 37.6016 63.3788C37.7567 63.5338 37.8342 63.7664 37.8342 64.2315V70.5106C37.8342 70.7431 37.8342 70.9757 37.8342 71.2858C37.8342 71.8284 37.8342 72.371 37.7567 72.9137C37.7567 73.2237 37.7567 73.6113 37.9892 73.9214C38.2218 74.2315 38.6094 74.2315 38.997 74.2315C51.0125 74.2315 61.4776 74.2315 72.9505 74.2315H80.5474H80.7024C80.7799 74.2315 80.8574 74.2315 80.935 74.2315C81.245 74.2315 81.4776 74.2315 81.6326 74.0765C81.8652 73.8439 81.8652 73.5338 81.8652 73.3788C81.9427 66.9447 81.9427 60.5106 81.9427 54.154ZM77.7567 70.0455C77.6791 70.123 77.2915 70.123 76.9815 70.0455C76.9815 69.9679 76.9815 69.9679 76.9815 69.8904C76.8264 69.2703 76.8264 68.5726 76.9039 67.8749V67.6424C76.9039 66.9447 77.059 66.8672 77.6791 66.6346C77.9117 67.1772 77.9117 67.7199 77.8342 68.34C77.8342 68.4951 77.8342 68.7276 77.8342 68.8827C77.8342 69.1927 77.9117 69.8904 77.7567 70.0455ZM73.4931 66.7121C73.6481 66.7121 73.9582 66.7121 74.0357 67.7974C74.0357 68.185 74.0357 68.4951 74.0357 68.8827C74.0357 69.2703 74.0357 69.6579 74.0357 70.123C73.7257 70.2005 73.4156 70.2005 73.1055 70.123C73.028 69.4253 72.9505 68.6501 73.028 67.7974C73.028 66.7121 73.3381 66.7121 73.4931 66.7121ZM70.1598 67.7199C70.1598 68.4175 70.1598 69.1927 70.0822 69.9679V70.123C69.7722 70.2005 69.4621 70.2005 69.152 70.123C69.152 69.7354 69.152 69.3478 69.152 68.9602C69.152 68.5726 69.152 68.185 69.152 67.8749C69.152 66.8672 69.4621 66.8672 69.6947 66.8672C69.7722 66.7121 70.1598 66.7121 70.1598 67.7199ZM66.2838 69.3478C66.2838 69.5803 66.2063 69.8129 66.2063 70.0455C65.8962 70.123 65.5861 70.123 65.3536 70.0455C65.3536 69.9679 65.3536 69.9679 65.3536 69.8904V69.7354C65.3536 68.9602 65.276 68.03 65.3536 67.0997C65.3536 66.7121 65.5086 66.6346 65.7412 66.6346C65.8962 66.6346 66.1288 66.6346 66.2838 67.0222C66.3613 67.2548 66.3613 67.4873 66.3613 67.7199V67.9524C66.3613 68.4951 66.2838 68.8827 66.2838 69.3478Z" fill="#2790B7"/>
</g>
<defs>
<filter id="filter0_d_374_8706" x="0.276367" y="0.937012" width="103.447" height="100" filterUnits="userSpaceOnUse" color-interpolation-filters="sRGB">
<feFlood flood-opacity="0" result="BackgroundImageFix"/>
<feColorMatrix in="SourceAlpha" type="matrix" values="0 0 0 0 0 0 0 0 0 0 0 0 0 0 0 0 0 0 127 0" result="hardAlpha"/>
<feOffset dy="10"/>
<feGaussianBlur stdDeviation="7.5"/>
<feComposite in2="hardAlpha" operator="out"/>
<feColorMatrix type="matrix" values="0 0 0 0 0.513726 0 0 0 0 0.878431 0 0 0 0 0.996078 0 0 0 0.25 0"/>
<feBlend mode="normal" in2="BackgroundImageFix" result="effect1_dropShadow_374_8706"/>
<feBlend mode="normal" in="SourceGraphic" in2="effect1_dropShadow_374_8706" result="shape"/>
</filter>
</defs>
</svg>
