<svg width="512" height="512" viewBox="0 0 512 512" fill="none" xmlns="http://www.w3.org/2000/svg">
<g clip-path="url(#clip0_1334_32)">
<path d="M508.974 429.449C497.66 409.417 480.923 373.033 480.923 358.544C480.923 331.462 482.809 297.778 483.716 278.353C484.623 258.927 471.439 211.181 459.397 159.208C450.748 121.879 403.384 138.735 390.361 147.986C381.176 154.51 362.968 173.066 327.018 185.707V163.237C327.018 161.224 326.218 159.294 324.795 157.871C323.372 156.448 321.442 155.649 319.43 155.649H192.567C190.555 155.649 188.625 156.448 187.202 157.871C185.779 159.294 184.98 161.224 184.98 163.237V185.707C149.029 173.066 130.822 154.51 121.637 147.986C108.611 138.735 61.2485 121.881 52.6007 159.208C40.5601 211.181 27.3749 258.926 28.2822 278.353C29.1895 297.779 31.0755 331.462 31.0755 358.544C31.0755 373.033 14.3382 409.415 3.02391 429.449C-3.31397 440.652 0.629457 454.871 11.831 461.209C23.0337 467.549 37.253 463.603 43.5909 452.402C49.2838 442.338 77.6855 390.521 77.6855 358.546C77.6855 350.818 77.7441 341.442 77.8275 331.988C77.8275 326.432 81.2561 327.056 82.8354 328.892C115.61 366.97 121.746 408.467 122.86 445.248C123.244 457.871 133.597 467.847 146.143 467.847C146.381 467.847 146.621 467.844 146.862 467.836C159.728 467.446 169.841 456.701 169.451 443.834C168.148 400.849 159.889 339.822 107.231 286.728C106.141 285.63 104.246 281.915 105.347 276.95C106.287 272.703 121.5 203.519 122.493 199.6C123.486 195.68 126.747 197.733 128.541 198.97C144.098 209.694 166.801 219.456 184.981 223.411V288.993C184.981 291.005 185.78 292.935 187.203 294.358C188.626 295.781 190.556 296.58 192.568 296.58H319.432C321.444 296.58 323.374 295.781 324.797 294.358C326.22 292.935 327.02 291.005 327.02 288.993V223.411C345.199 219.456 367.904 209.693 383.458 198.97C385.252 197.733 388.514 195.68 389.506 199.6C390.499 203.52 405.713 272.703 406.654 276.95C407.754 281.914 405.858 285.628 404.768 286.728C352.11 339.821 343.851 400.847 342.548 443.834C342.159 456.7 352.273 467.445 365.137 467.836C365.379 467.844 365.617 467.847 365.857 467.847C378.4 467.847 388.755 457.873 389.139 445.248C390.252 408.467 396.388 366.97 429.164 328.892C430.743 327.057 434.173 326.432 434.173 331.988C434.256 341.444 434.315 350.818 434.315 358.546C434.315 390.522 462.716 442.339 468.41 452.402C474.747 463.603 488.967 467.549 500.169 461.209C511.369 454.872 515.313 440.652 508.974 429.449Z" fill="black"/>
<path d="M388.539 133.644C413.251 133.644 433.284 113.61 433.284 88.8979C433.284 64.1856 413.251 44.1523 388.539 44.1523C363.826 44.1523 343.793 64.1856 343.793 88.8979C343.793 113.61 363.826 133.644 388.539 133.644Z" fill="black"/>
<path d="M123.464 133.644C148.177 133.644 168.21 113.61 168.21 88.8979C168.21 64.1856 148.177 44.1523 123.464 44.1523C98.752 44.1523 78.7188 64.1856 78.7188 88.8979C78.7188 113.61 98.752 133.644 123.464 133.644Z" fill="black"/>
</g>
<defs>
<clipPath id="clip0_1334_32">
<rect width="512" height="512" fill="white"/>
</clipPath>
</defs>
</svg>
