<svg width="512" height="512" viewBox="0 0 512 512" fill="none" xmlns="http://www.w3.org/2000/svg">
<path d="M135.758 251.99C133.561 221.077 110.635 195.877 79.6446 195.877C48.6546 195.877 25.7286 221.077 23.5316 251.99C22.2226 270.42 23.5316 300.087 15.5156 316.119C15.5156 316.119 23.5316 332.151 53.0946 340.189L106.357 340.167C135.758 332.151 143.774 316.119 143.774 316.119C135.758 300.087 137.067 270.42 135.758 251.99Z" fill="#694B4B"/>
<path d="M71.6286 251.99C40.7366 236.544 47.0946 206.281 69.1036 196.915C43.5716 201.897 25.4706 224.703 23.5316 251.99C22.2226 270.42 23.5316 300.087 15.5156 316.119C15.5156 316.119 23.5316 332.151 53.0946 340.189L78.4126 340.179L71.6286 251.99Z" fill="#5A4146"/>
<path d="M138.496 359.464L112.555 346.494C109.892 345.162 107.652 343.115 106.087 340.582C104.521 338.049 103.692 335.13 103.692 332.153L103.693 308.103H55.597V332.153C55.5968 335.13 54.7677 338.048 53.2025 340.581C51.6373 343.113 49.3978 345.16 46.735 346.492L20.793 359.463C16.7986 361.46 13.4393 364.53 11.0914 368.329C8.74359 372.128 7.5 376.506 7.5 380.972V436.361H151.79V380.973C151.79 376.507 150.546 372.129 148.198 368.33C145.85 364.531 142.491 361.461 138.496 359.464Z" fill="#E6AF78"/>
<path d="M151.791 380.973C151.791 376.507 150.547 372.129 148.199 368.33C145.851 364.531 142.492 361.46 138.497 359.463L112.556 346.493C111.063 345.747 109.763 344.752 108.603 343.626L99.403 353.866C88.537 365.96 70.756 365.959 59.89 353.866L50.689 343.625C49.528 344.751 48.228 345.746 46.737 346.492L20.794 359.463C16.7998 361.46 13.4407 364.53 11.0931 368.329C8.74541 372.128 7.50193 376.505 7.50195 380.971V436.361H151.792L151.791 380.973Z" fill="#D5DCED"/>
<path d="M79.6447 324.136C61.2737 324.136 45.3077 313.836 37.2077 298.696C31.7017 288.404 35.2917 275.493 44.8347 268.772C46.7791 267.406 48.6435 265.929 50.4187 264.35C56.1507 259.235 59.5077 253.841 61.3997 249.888C63.0207 246.502 66.7557 244.59 70.3937 245.517C98.6967 252.729 117.945 267.47 124.881 273.441C126.724 275.028 127.785 277.364 127.598 279.789C125.685 304.6 104.947 324.136 79.6447 324.136Z" fill="#F0C087"/>
<path d="M124.872 273.432C117.931 267.457 98.6979 252.735 70.4249 245.523C66.7689 244.59 63.0179 246.514 61.3869 249.916C59.9519 252.907 57.5809 256.719 54.0619 260.609L54.0579 260.636C52.9659 261.874 51.8029 263.114 50.4199 264.349C48.6349 265.941 46.8389 267.382 45.0629 268.61C33.7499 276.436 32.0509 290.791 38.9839 301.695C42.6731 307.492 47.5591 312.433 53.3143 316.187C59.0695 319.941 65.5608 322.42 72.3529 323.46C62.7559 316.931 55.5969 308.079 55.5969 292.072V285.878C57.4179 284.534 59.2509 283.193 61.0939 281.549C65.5259 277.596 69.3844 273.044 72.5579 268.024C94.1499 274.762 108.788 285.984 114.337 290.756C115.856 292.088 117.986 293.97 122.397 298.108C125.226 293.644 127.201 284.953 127.598 279.778C127.785 277.355 126.712 275.016 124.872 273.432Z" fill="#E6AF78"/>
<path d="M12.387 366.522C9.299 370.619 7.5 375.648 7.5 380.972V436.36H39.565V395.969C39.565 391.099 37.351 386.492 33.548 383.45L12.387 366.522ZM146.904 366.522C149.992 370.619 151.791 375.648 151.791 380.972V436.36H119.726V395.969C119.726 391.099 121.94 386.492 125.743 383.45L146.904 366.522Z" fill="#C7CFE2"/>
<path d="M368.227 227.943V233.569C368.227 240.462 369.338 247.309 371.518 253.848L384.259 292.072H408.307V203.895H392.275C378.994 203.894 368.227 214.661 368.227 227.943Z" fill="#5A4146"/>
<path d="M478.601 242.435L464.419 292.071L400.29 235.958C391.436 235.958 384.258 228.78 384.258 219.926C384.258 206.644 395.025 195.878 408.306 195.878H480.451V229.222C480.452 233.691 479.829 238.138 478.601 242.435Z" fill="#694B4B"/>
<path d="M400.289 316.118H448.389V364.218H400.289V316.118Z" fill="#E6AF78"/>
<path d="M487.058 346.614L448.385 335.565L424.339 364.215L400.291 335.565L361.62 346.614C356.595 348.05 352.174 351.084 349.027 355.256C345.88 359.428 344.178 364.511 344.178 369.737V436.36H504.5V369.738C504.5 364.512 502.797 359.429 499.65 355.256C496.503 351.084 492.083 348.05 487.058 346.614Z" fill="#D5DCED"/>
<path d="M424.339 324.135C397.776 324.135 376.242 302.601 376.242 276.038C376.243 265.773 380.32 255.928 387.578 248.669L395.473 240.774C398.551 237.696 402.76 235.926 407.11 236.063C432.735 236.871 455.417 242.361 467.816 254.47C470.851 257.434 472.435 261.581 472.435 265.823V276.037C472.436 302.601 450.902 324.135 424.339 324.135Z" fill="#F0C087"/>
<path d="M400.289 276.038C400.289 266.791 408.055 259.441 417.283 260.029C433.466 261.061 457.479 263.766 472.211 270.853C471.73 267.471 470.277 256.876 467.814 254.47C455.416 242.361 432.734 236.871 407.109 236.063C402.759 235.926 398.549 237.697 395.471 240.774L387.576 248.669C383.982 252.263 381.131 256.53 379.186 261.226C377.241 265.922 376.24 270.955 376.24 276.038C376.24 297.972 390.937 316.44 411.01 322.223C404.329 313.979 400.288 303.516 400.288 292.07V276.038H400.289Z" fill="#E6AF78"/>
<path d="M472.436 393.623C472.436 387.245 474.97 381.128 479.48 376.618L500.115 355.983C502.873 359.925 504.501 364.671 504.501 369.737V436.36H472.436V393.623Z" fill="#C7CFE2"/>
<path d="M371.168 348.525L304.098 324.136L256.001 340.168L207.904 324.136L140.834 348.525C134.648 350.774 129.304 354.872 125.528 360.263C121.752 365.654 119.727 372.077 119.727 378.659V436.361H392.275V378.659C392.274 372.077 390.249 365.654 386.473 360.263C382.697 354.872 377.353 350.774 371.168 348.525Z" fill="#FF507D"/>
<path d="M383.647 356.812C389.06 362.622 392.275 370.359 392.275 378.659V436.362H344.178V409.563C344.178 401.059 347.556 392.904 353.569 386.891L383.647 356.812Z" fill="#D23C69"/>
<path d="M344.177 158.821V91.6677C344.177 82.8137 336.999 75.6357 328.145 75.6357H231.951C196.534 75.6357 167.822 104.348 167.822 139.765V158.821C167.822 167.437 169.211 175.996 171.936 184.17L174.604 192.175C175.421 194.627 175.838 197.195 175.838 199.78V203.894H336.161V199.78C336.161 197.195 336.578 194.627 337.395 192.175L340.063 184.17C342.788 175.996 344.177 167.437 344.177 158.821Z" fill="#5A4146"/>
<path d="M207.902 108.202C207.902 126.187 222.482 140.768 240.468 140.768H244.977L247.154 203.895H336.161V199.781C336.161 197.196 336.578 194.629 337.395 192.176L340.063 184.171C342.788 175.997 344.177 167.438 344.177 158.822V91.6677C344.177 82.8127 336.999 75.6357 328.145 75.6357H240.469C222.482 75.6357 207.902 90.2157 207.902 108.202Z" fill="#694B4B"/>
<path d="M207.9 268.019H304.09V340.159H207.9V268.019Z" fill="#E6AF78"/>
<path d="M207.902 304.301C222.3 311.812 238.636 316.119 255.999 316.119C273.362 316.119 289.698 311.812 304.096 304.301V268.022H207.902V304.301Z" fill="#D29B6E"/>
<path d="M256 340.168L230.434 365.734C226.998 369.17 221.318 368.783 218.38 364.912L191.871 329.983L198.805 315.371C200.851 311.059 206.188 309.479 210.252 311.983L256 340.168ZM256 340.168L281.566 365.734C285.002 369.17 290.682 368.783 293.62 364.912L320.129 329.983L313.195 315.371C311.149 311.059 305.812 309.479 301.748 311.983L256 340.168Z" fill="#D23C69"/>
<path d="M256.001 292.071C211.729 292.071 175.84 256.182 175.84 211.91V203.894L189.18 195.001C192.474 192.805 195.175 189.829 197.043 186.339C198.911 182.848 199.889 178.95 199.889 174.991V147.781C199.889 147.781 264.019 123.732 312.115 163.814V174.987C312.115 178.947 313.092 182.845 314.96 186.337C316.828 189.828 319.529 192.804 322.824 195.001L336.163 203.894V211.91C336.162 256.181 300.273 292.071 256.001 292.071Z" fill="#F0C087"/>
<path d="M128.355 356.812C122.942 362.622 119.727 370.359 119.727 378.659V436.362H167.824V409.563C167.824 401.059 164.446 392.904 158.433 386.891L128.355 356.812Z" fill="#D23C69"/>
<path d="M238.037 167.048C255.468 164.862 285.98 163.607 312.114 174.986V163.813C264.017 123.731 199.888 147.78 199.888 147.78V174.99C199.888 178.949 198.911 182.847 197.042 186.338C195.174 189.828 192.473 192.804 189.179 195L175.84 203.893V211.909C175.84 252.895 206.619 286.637 246.314 291.429H246.316C232.483 277.025 223.937 257.505 223.937 235.958V182.972C223.936 174.848 229.977 168.059 238.037 167.048Z" fill="#E6AF78"/>
<path d="M445.013 250.677C446.786 251.516 448.817 251.627 450.671 250.986C452.524 250.346 454.054 249.005 454.931 247.25C455.808 245.496 455.963 243.468 455.363 241.601C454.763 239.733 453.456 238.175 451.721 237.26C434.299 228.55 401.634 228.449 400.252 228.449C398.263 228.449 396.355 229.239 394.949 230.646C393.542 232.052 392.752 233.96 392.752 235.949C392.752 237.938 393.542 239.846 394.949 241.253C396.355 242.659 398.263 243.449 400.252 243.449C408.681 243.45 433.154 244.748 445.013 250.677Z" fill="black"/>
<path d="M489.112 344.041L458.137 335.191C457.484 335.002 456.91 334.607 456.5 334.064C456.091 333.521 455.868 332.86 455.866 332.18V321.841C458.414 320.081 460.812 318.114 463.037 315.96C473.927 305.392 479.924 291.217 479.924 276.045V261.778L482.919 255.789C486.215 249.177 487.934 241.891 487.943 234.503V195.853C487.943 193.864 487.153 191.957 485.746 190.55C484.34 189.144 482.432 188.353 480.443 188.353H408.27C382.026 188.353 360.674 209.705 360.674 235.949V236.396C360.681 242.54 362.111 248.597 364.852 254.095L368.693 261.777V274.027C368.693 293.441 378.26 310.86 392.751 321.342L392.753 332.178C392.753 333.849 392.753 334.541 386.56 336.311L371.446 340.629L327.725 324.731C327.806 323.684 327.666 322.632 327.313 321.643C326.961 320.654 326.405 319.75 325.681 318.989L311.71 304.311V279.671C313.198 278.455 314.647 277.191 316.054 275.882C333.679 259.362 343.787 236.038 343.787 211.891V192.213C349.109 180.632 351.806 168.377 351.806 155.756V75.5664C351.806 73.5773 351.016 71.6696 349.609 70.2631C348.203 68.8566 346.295 68.0664 344.306 68.0664H232.037C192.527 68.0664 160.384 100.21 160.384 139.719V155.758C160.384 168.379 163.081 180.634 168.403 192.215V209.146C168.403 237.182 180.869 262.44 200.48 279.092V304.312L186.509 318.99C185.785 319.751 185.229 320.655 184.877 321.644C184.524 322.633 184.384 323.685 184.465 324.732L138.32 341.511C135.027 342.71 131.908 344.344 129.048 346.369L121.802 342.746C143.372 333.357 150.205 320.152 150.533 319.496C151.054 318.455 151.325 317.307 151.325 316.142C151.325 314.978 151.054 313.83 150.533 312.788C145.126 301.974 144.471 282.153 143.945 266.227C143.77 260.925 143.604 255.916 143.287 251.456C140.73 215.482 113.382 188.353 79.672 188.353C45.962 188.353 18.613 215.481 16.057 251.456C15.74 255.917 15.574 260.926 15.399 266.229C14.873 282.154 14.217 301.973 8.811 312.787C8.29017 313.829 8.01902 314.977 8.01902 316.141C8.01902 317.306 8.29017 318.454 8.811 319.495C9.139 320.151 15.958 333.329 37.571 342.729L17.444 352.792C6.684 358.175 0 368.99 0 381.02V436.429C0 438.419 0.790176 440.326 2.1967 441.733C3.60322 443.139 5.51088 443.929 7.5 443.929C9.48912 443.929 11.3968 443.139 12.8033 441.733C14.2098 440.326 15 438.419 15 436.429V381.02C15 374.708 18.507 369.033 24.152 366.21L49.215 353.679L57.933 361.964C63.7922 367.549 71.578 370.66 79.672 370.652C87.7659 370.659 95.5513 367.548 101.411 361.964L110.128 353.68L118.3 357.766C114.452 363.923 112.268 371.143 112.268 378.706V436.431C112.268 438.421 113.058 440.328 114.465 441.735C115.871 443.141 117.779 443.931 119.768 443.931C121.757 443.931 123.665 443.141 125.071 441.735C126.478 440.328 127.268 438.421 127.268 436.431V378.706C127.268 368.41 133.769 359.128 143.446 355.609L192.098 337.918L212.351 368.299C213.622 370.213 215.303 371.819 217.271 373.001C219.24 374.183 221.448 374.912 223.734 375.134C226.019 375.365 228.327 375.084 230.49 374.31C232.653 373.537 234.617 372.292 236.238 370.664L248.594 358.308V436.432C248.594 438.422 249.384 440.329 250.791 441.736C252.197 443.142 254.105 443.932 256.094 443.932C258.083 443.932 259.991 443.142 261.397 441.736C262.804 440.329 263.594 438.422 263.594 436.432V358.308L275.95 370.664C277.387 372.107 279.094 373.251 280.975 374.031C282.855 374.812 284.871 375.213 286.907 375.211C287.42 375.211 287.936 375.186 288.453 375.135C290.739 374.913 292.947 374.184 294.916 373.002C296.885 371.82 298.566 370.214 299.837 368.3L320.091 337.92L368.742 355.611C378.418 359.13 384.92 368.412 384.92 378.708V436.433C384.92 438.423 385.71 440.33 387.117 441.737C388.523 443.143 390.431 443.933 392.42 443.933C394.409 443.933 396.317 443.143 397.723 441.737C399.13 440.33 399.92 438.423 399.92 436.433V378.708C399.92 368.28 395.777 358.5 388.827 351.267L390.68 350.738C392.549 350.204 395.099 349.473 397.659 348.218L416.808 367.367V436.433C416.808 438.423 417.598 440.33 419.005 441.737C420.411 443.143 422.319 443.933 424.308 443.933C426.297 443.933 428.205 443.143 429.611 441.737C431.018 440.33 431.808 438.423 431.808 436.433V367.367L450.824 348.351C451.835 348.865 452.897 349.299 454.015 349.618L484.991 358.468C492.061 360.488 497 367.035 497 374.389V436.433C497 438.423 497.79 440.33 499.197 441.737C500.603 443.143 502.511 443.933 504.5 443.933C506.489 443.933 508.397 443.143 509.803 441.737C511.21 440.33 512 438.423 512 436.433V374.389C512 360.37 502.588 347.892 489.112 344.041ZM111.229 330.819L111.23 321.874C120.051 315.806 126.928 307.315 131.031 297.425C131.93 303.883 133.257 310.001 135.301 315.343C132.314 318.982 125.244 325.773 111.229 330.819ZM31.02 252.52C31.978 239.044 37.363 226.626 46.183 217.552C55.082 208.396 66.976 203.354 79.674 203.354C92.372 203.354 104.265 208.396 113.165 217.552C121.985 226.626 127.37 239.044 128.328 252.52C128.624 256.697 128.786 261.567 128.956 266.723L129.001 268.061C120.841 255.489 108.239 246.224 91.956 240.992C76.913 236.159 63.975 236.458 63.429 236.472C61.4654 236.527 59.6015 237.349 58.238 238.763L44.706 252.797C43.3253 254.229 42.5699 256.151 42.6061 258.14C42.6241 259.125 42.8358 260.096 43.2292 260.999C43.6226 261.902 44.19 262.719 44.899 263.402C45.608 264.086 46.4447 264.623 47.3614 264.984C48.2781 265.344 49.2567 265.52 50.2415 265.502C52.2303 265.466 54.1233 264.641 55.504 263.209L66.764 251.532C76.461 252.006 107.658 255.634 119.791 282.351C116.738 302.04 99.816 316.661 79.676 316.661C57.28 316.661 39.061 298.441 39.061 276.046C39.061 274.057 38.2708 272.15 36.8643 270.743C35.4578 269.337 33.5501 268.546 31.561 268.546C31.141 268.546 30.731 268.589 30.33 268.656L30.395 266.726C30.562 261.569 30.723 256.698 31.02 252.52ZM24.045 315.341C26.093 309.987 27.421 303.855 28.32 297.382C32.456 307.299 39.383 315.765 48.115 321.805V330.794C34.086 325.746 27.049 319.016 24.045 315.341ZM68.267 351.091L61.292 344.463C62.4935 342.209 63.12 339.694 63.116 337.139V329.145C68.476 330.818 74.059 331.667 79.674 331.662C85.431 331.662 90.99 330.776 96.231 329.15L96.23 337.138C96.23 339.758 96.876 342.259 98.054 344.465L91.08 351.092C84.683 357.17 74.662 357.169 68.267 351.091ZM183.403 209.145V190.537C183.403 189.408 183.148 188.293 182.657 187.276C177.831 177.282 175.384 166.678 175.384 155.758V139.719C175.384 108.48 200.799 83.0664 232.037 83.0664H336.806V155.758C336.806 166.678 334.359 177.282 329.533 187.276C329.042 188.293 328.787 189.408 328.787 190.537V211.892C328.787 232.203 320.622 251.042 305.796 264.939C303.96 266.66 302.038 268.288 300.038 269.814C299.994 269.844 299.952 269.877 299.909 269.908C286.02 280.453 269.008 285.578 251.242 284.427C213.201 281.964 183.403 248.896 183.403 209.145ZM250.271 299.395C252.248 299.523 254.213 299.586 256.172 299.586C270.513 299.586 284.315 296.158 296.71 289.651V303.351L256.095 331.113L215.48 303.351V289.351C225.989 295.032 237.756 298.585 250.271 299.395ZM225.632 360.056C225.58 360.108 225.459 360.231 225.214 360.205C225.137 360.201 225.062 360.178 224.995 360.138C224.929 360.098 224.873 360.043 224.833 359.976L201.508 324.988L209.014 317.101L244.399 341.288L225.632 360.056ZM287.357 359.977C287.317 360.044 287.261 360.099 287.195 360.139C287.128 360.179 287.053 360.202 286.976 360.206C286.731 360.237 286.611 360.108 286.558 360.057L267.791 341.29L303.176 317.102L310.683 324.989L287.357 359.977ZM383.693 274.029V260.008C383.693 258.844 383.422 257.696 382.901 256.654L378.268 247.388C376.566 243.974 375.679 240.212 375.674 236.397V235.95C375.674 217.976 390.297 203.354 408.27 203.354H472.943V234.504C472.937 239.564 471.759 244.554 469.502 249.082L465.716 256.654C465.195 257.696 464.924 258.844 464.924 260.008V276.046C464.924 287.126 460.544 297.478 452.591 305.196C444.642 312.91 434.141 316.984 423.054 316.642C401.35 315.991 383.693 296.874 383.693 274.029ZM422.603 331.635C428.786 331.83 434.958 330.994 440.866 329.16V332.18C440.866 333.676 441.054 335.142 441.408 336.551L424.308 353.65L407.288 336.631C407.585 335.282 407.753 333.805 407.752 332.176L407.751 329.011C412.55 330.595 417.552 331.479 422.603 331.635Z" fill="black"/>
<path d="M472.422 380.815C470.433 380.815 468.525 381.605 467.119 383.011C465.712 384.418 464.922 386.325 464.922 388.315V436.43C464.922 438.419 465.712 440.326 467.119 441.733C468.525 443.139 470.433 443.93 472.422 443.93C474.411 443.93 476.319 443.139 477.725 441.733C479.132 440.326 479.922 438.419 479.922 436.43V388.315C479.922 386.325 479.132 384.418 477.725 383.011C476.319 381.605 474.411 380.815 472.422 380.815ZM39.5762 390.729C37.587 390.729 35.6794 391.519 34.2729 392.925C32.8664 394.332 32.0762 396.239 32.0762 398.229V436.43C32.0762 438.419 32.8664 440.326 34.2729 441.733C35.6794 443.139 37.587 443.93 39.5762 443.93C41.5653 443.93 43.473 443.139 44.8795 441.733C46.286 440.326 47.0762 438.419 47.0762 436.43V398.229C47.0762 396.239 46.286 394.332 44.8795 392.925C43.473 391.519 41.5653 390.729 39.5762 390.729ZM207.459 154.519C207.459 154.264 207.627 154.046 207.851 154.012C217.518 152.555 236.701 150.307 256.576 151.632C279.964 153.189 296.904 159.06 306.925 169.082C308.332 170.488 310.239 171.278 312.228 171.278C314.217 171.278 316.125 170.488 317.531 169.082C318.938 167.675 319.728 165.768 319.728 163.779C319.728 161.79 318.938 159.882 317.531 158.476C289.165 130.11 229.816 135.533 205.614 139.181C197.991 140.33 192.459 146.781 192.459 154.52V171.798C192.459 173.787 193.249 175.694 194.656 177.101C196.062 178.507 197.97 179.298 199.959 179.298C201.948 179.298 203.856 178.507 205.262 177.101C206.669 175.694 207.459 173.787 207.459 171.798V154.519ZM167.883 396.854C165.894 396.854 163.986 397.644 162.58 399.05C161.173 400.457 160.383 402.364 160.383 404.354V436.431C160.383 438.42 161.173 440.327 162.58 441.734C163.986 443.14 165.894 443.931 167.883 443.931C169.872 443.931 171.78 443.14 173.186 441.734C174.593 440.327 175.383 438.42 175.383 436.431V404.354C175.383 402.364 174.593 400.457 173.186 399.05C171.78 397.644 169.872 396.854 167.883 396.854ZM344.305 396.854C342.316 396.854 340.408 397.644 339.002 399.05C337.595 400.457 336.805 402.364 336.805 404.354V436.431C336.805 438.42 337.595 440.327 339.002 441.734C340.408 443.14 342.316 443.931 344.305 443.931C346.294 443.931 348.202 443.14 349.608 441.734C351.015 440.327 351.805 438.42 351.805 436.431V404.354C351.805 402.364 351.015 400.457 349.608 399.05C348.202 397.644 346.294 396.854 344.305 396.854Z" fill="black"/>
</svg>
