<svg width="512" height="512" viewBox="0 0 512 512" fill="none" xmlns="http://www.w3.org/2000/svg">
<g clip-path="url(#clip0_1379_359)">
<path d="M362.585 280.61L265.34 305.896C259.33 307.459 253.024 307.49 246.999 305.988L144.411 280.407C128.142 276.35 116.725 261.737 116.725 244.97V132.891C116.725 63.6429 172.862 7.50586 242.11 7.50586H264.532C333.78 7.50586 389.917 63.6429 389.917 132.891V245.263C389.915 261.894 378.68 276.425 362.585 280.61Z" fill="#FD9727"/>
<path d="M264.532 7.50684H242.11C236.478 7.50684 230.935 7.88484 225.499 8.60384C286.894 16.7308 334.273 69.2758 334.273 132.891V245.263C334.273 261.894 323.037 276.425 306.942 280.61L227.778 301.194L247 305.987C253.025 307.489 259.331 307.457 265.341 305.895L362.586 280.609C378.682 276.424 389.917 261.893 389.917 245.262V132.891C389.916 63.6428 333.78 7.50684 264.532 7.50684Z" fill="#FF6D3A"/>
<path d="M122.528 211.167H149.135V146.209H122.528C114.711 146.209 108.374 152.546 108.374 160.363V197.014C108.374 204.83 114.711 211.167 122.528 211.167ZM389.471 211.167H362.864V146.209H389.471C397.288 146.209 403.625 152.546 403.625 160.363V197.014C403.626 204.83 397.289 211.167 389.471 211.167Z" fill="#3D6687"/>
<path d="M316.078 324.51C311.565 323.603 307.505 321.161 304.588 317.6C301.671 314.038 300.077 309.577 300.078 304.974V260.057H211.924V304.974C211.924 309.577 210.33 314.038 207.413 317.6C204.497 321.161 200.437 323.603 195.924 324.51L185.184 326.669V398.799H326.817V326.669L316.078 324.51Z" fill="#FED9A8"/>
<path d="M407.848 348.728L319.44 321.163C318.092 320.742 316.657 320.689 315.281 321.008C313.906 321.328 312.641 322.008 311.616 322.98L256 375.686L200.384 322.98C199.359 322.009 198.094 321.329 196.719 321.009C195.344 320.69 193.908 320.743 192.56 321.163L104.152 348.728C64.9562 360.269 38.0442 396.247 38.0442 437.107V496.004C38.0442 497.119 38.2638 498.222 38.6904 499.252C39.117 500.282 39.7423 501.218 40.5306 502.006C41.3188 502.795 42.2547 503.42 43.2846 503.847C44.3145 504.273 45.4184 504.493 46.5332 504.493H465.466C467.718 504.493 469.877 503.598 471.469 502.006C473.061 500.414 473.956 498.255 473.956 496.004V437.107C473.956 396.248 447.044 360.269 407.848 348.728Z" fill="#0A7197"/>
<path d="M407.849 348.728L319.441 321.163C318.093 320.742 316.657 320.689 315.282 321.009C313.907 321.328 312.641 322.008 311.617 322.98L301.221 332.832L352.205 348.728C391.401 360.268 418.313 396.247 418.313 437.107V504.493H465.467C467.718 504.493 469.878 503.598 471.47 502.006C473.062 500.414 473.956 498.255 473.957 496.004V437.107C473.957 396.248 447.045 360.269 407.849 348.728Z" fill="#0A7197"/>
<path d="M256 297.403C195.321 297.403 146.132 248.213 146.132 187.535V156.658C146.132 95.98 195.322 46.79 256 46.79C316.678 46.79 365.868 95.98 365.868 156.658V187.535C365.868 248.214 316.678 297.403 256 297.403Z" fill="#FED9A8"/>
<path d="M310.224 61.0879V187.535C310.224 238.601 275.384 281.526 228.178 293.846C237.263 296.213 246.613 297.409 256 297.403C316.678 297.403 365.868 248.213 365.868 187.535V156.659C365.868 115.701 343.453 79.9819 310.224 61.0879Z" fill="#F4C892"/>
<path d="M200.384 322.98L256 375.686L221.7 387.371C217.591 388.771 213.159 388.919 208.965 387.797C204.772 386.675 201.006 384.333 198.144 381.068L155.719 332.651L192.559 321.165C193.907 320.744 195.343 320.69 196.719 321.01C198.094 321.329 199.359 322.009 200.384 322.98ZM311.616 322.98L256 375.686L287.087 386.276C292.148 388 297.605 388.182 302.769 386.8C307.933 385.418 312.571 382.534 316.093 378.514L356.281 332.65L319.441 321.164C318.094 320.743 316.658 320.69 315.282 321.009C313.907 321.328 312.641 322.009 311.616 322.98Z" fill="#D4145A"/>
<path d="M190.372 460.897H133.822C132.315 460.897 130.869 460.299 129.803 459.232C128.736 458.166 128.137 456.72 128.137 455.212V430.165C128.137 429.419 128.285 428.68 128.57 427.99C128.856 427.3 129.275 426.673 129.803 426.146C130.33 425.618 130.957 425.199 131.647 424.913C132.337 424.628 133.076 424.48 133.822 424.48H190.372C191.119 424.48 191.858 424.628 192.548 424.913C193.238 425.199 193.864 425.618 194.392 426.146C194.92 426.673 195.339 427.3 195.625 427.99C195.91 428.68 196.057 429.419 196.057 430.165V455.212C196.057 456.72 195.459 458.166 194.392 459.232C193.326 460.299 191.88 460.897 190.372 460.897Z" fill="#EDA558"/>
<path d="M389.915 156.05C389.915 156.05 342.513 152.288 326.293 108.686C326.293 108.686 211.706 200.426 116.724 156.05V132.891C116.724 63.6429 172.861 7.50586 242.109 7.50586H264.531C333.779 7.50586 389.916 63.6429 389.916 132.891L389.915 156.05Z" fill="#FD9727"/>
<path d="M264.532 7.50684H242.11C236.478 7.50684 230.935 7.88484 225.499 8.60384C283.876 16.3318 329.577 64.2178 333.929 123.595C353.918 153.188 389.916 156.05 389.916 156.05V132.891C389.916 63.6428 333.78 7.50684 264.532 7.50684Z" fill="#FF6D3A"/>
<path d="M275.588 283.743C268.649 283.743 262.513 278.751 261.301 271.681C259.946 263.781 265.252 256.278 273.152 254.924L297.624 250.727C305.526 249.37 313.027 254.678 314.382 262.578C315.737 270.478 310.431 277.981 302.531 279.335L278.059 283.532C277.229 283.675 276.403 283.743 275.588 283.743Z" fill="#D4145A"/>
<path d="M461.612 377.425C448.637 360.079 430.802 347.674 410.027 341.543L358.527 325.486L358.516 325.482L321.677 313.997C318.435 312.986 314.95 313.073 311.763 314.244C309.155 311.921 307.584 308.555 307.584 304.973V302.669L364.474 287.877C383.874 282.832 397.423 265.31 397.423 245.264V217.156C405.443 213.979 411.133 206.151 411.133 197.014V160.363C411.149 156.015 409.848 151.764 407.4 148.171C404.953 144.577 401.475 141.809 397.423 140.231V132.892C397.423 127.237 397.064 121.544 396.355 115.968C395.832 111.856 392.072 108.955 387.962 109.468C385.987 109.719 384.193 110.745 382.974 112.319C381.755 113.893 381.211 115.887 381.462 117.862C382.091 122.812 382.41 127.868 382.41 132.892V147.115C377.346 145.895 372.409 144.195 367.667 142.038C367.403 141.918 367.143 141.795 366.881 141.673C356.281 136.694 344.473 128.204 336.813 113.815C336.403 113.04 336.007 112.258 335.627 111.468C335.416 111.022 335.21 110.573 335.009 110.122C334.821 109.705 334.63 109.293 334.449 108.868C334.059 107.948 333.682 107.017 333.329 106.068C332.81 104.671 331.886 103.46 330.676 102.589C329.465 101.719 328.023 101.229 326.533 101.182C326.422 101.178 326.311 101.189 326.2 101.191C326.017 101.193 325.834 101.19 325.652 101.206C324.348 101.322 323.097 101.778 322.024 102.527C321.883 102.625 321.738 102.717 321.602 102.825C321.485 102.918 321.367 103.011 321.249 103.102L321.024 103.276L320.846 103.413C320.653 103.562 320.46 103.71 320.266 103.857L320.082 103.997L319.53 104.414L319.404 104.509C305.514 114.928 228.222 169.751 154.048 159.288L153.655 159.23C151.084 158.856 148.526 158.405 145.982 157.877C145.652 157.808 145.32 157.742 144.991 157.67C143.804 157.413 142.62 157.139 141.441 156.846C140.961 156.727 140.485 156.597 140.007 156.472C138.694 156.13 137.388 155.766 136.087 155.381C134.57 154.927 133.061 154.443 131.562 153.931C130.282 153.496 129.009 153.038 127.745 152.557C126.67 152.148 125.597 151.727 124.527 151.283C124.429 151.242 124.329 151.205 124.231 151.164V132.891C124.231 67.893 177.111 15.013 242.109 15.013H264.531C287.575 15.0015 310.118 21.7468 329.368 34.4143C348.618 47.0819 363.732 65.1156 372.839 86.284C373.229 87.1894 373.794 88.0091 374.501 88.6963C375.208 89.3835 376.043 89.9247 376.959 90.289C377.875 90.6533 378.854 90.8335 379.84 90.8195C380.825 90.8054 381.799 90.5973 382.704 90.207C383.609 89.817 384.429 89.2524 385.116 88.5456C385.803 87.8387 386.344 87.0035 386.709 86.0875C387.073 85.1716 387.253 84.1928 387.239 83.2072C387.225 82.2215 387.017 81.2483 386.627 80.343C376.36 56.4801 359.322 36.1509 337.621 21.871C315.921 7.59107 290.509 -0.012878 264.531 1.63721e-05H242.11C168.833 1.63721e-05 109.219 59.614 109.219 132.891V143.303C104.035 147.353 100.868 153.618 100.868 160.362V197.013C100.868 203.941 104.142 210.115 109.219 214.083V244.97C109.207 254.797 112.488 264.344 118.538 272.088C124.587 279.832 133.057 285.325 142.595 287.691L204.417 303.107V304.973C204.417 308.556 202.846 311.923 200.237 314.246C197.05 313.077 193.567 312.989 190.326 313.997L153.486 325.483L153.474 325.487L101.976 341.544C73.4241 349.969 50.3201 370.496 38.5821 397.87C37.6757 399.985 36.8425 402.131 36.0841 404.304C35.7592 405.235 35.6208 406.22 35.6768 407.205C35.7329 408.189 35.9822 409.152 36.4107 410.04C36.8392 410.928 37.4383 411.723 38.174 412.379C38.9096 413.035 39.7673 413.54 40.6981 413.865C42.5779 414.52 44.6409 414.403 46.4338 413.537C48.2267 412.672 49.6026 411.13 50.2591 409.251C50.9038 407.405 51.6115 405.582 52.3811 403.785C62.3571 380.518 82.0001 363.075 106.272 355.928L106.386 355.894L153.292 341.269L192.498 386.014C198.202 392.523 206.274 396.061 214.59 396.061C217.833 396.059 221.053 395.523 224.121 394.476L256 383.616L284.666 393.381C288.264 394.609 292.039 395.237 295.84 395.239C305.589 395.238 315.053 391.09 321.739 383.46L358.708 341.269L405.614 355.894L405.728 355.928C423.392 361.129 438.56 371.673 449.589 386.418C460.619 401.163 466.449 418.69 466.449 437.105V496.002C466.449 496.262 466.345 496.512 466.161 496.696C465.977 496.881 465.728 496.984 465.467 496.985H424.918V428.361C424.918 426.37 424.127 424.461 422.719 423.053C421.312 421.645 419.402 420.854 417.411 420.854C415.42 420.854 413.511 421.645 412.103 423.053C410.695 424.461 409.904 426.37 409.904 428.361V496.985H102.096V428.361C102.096 426.37 101.305 424.461 99.8974 423.053C98.4895 421.645 96.5801 420.854 94.5891 420.854C92.5981 420.854 90.6887 421.645 89.2809 423.053C87.873 424.461 87.0821 426.37 87.0821 428.361V496.985H46.5331C46.2726 496.985 46.0228 496.881 45.8387 496.697C45.6545 496.512 45.5511 496.263 45.5511 496.002V441.942C45.5511 439.951 44.7602 438.042 43.3524 436.634C41.9445 435.226 40.0351 434.435 38.0441 434.435C36.0531 434.435 34.1437 435.226 32.7359 436.634C31.328 438.042 30.5371 439.951 30.5371 441.942V496.002C30.5371 504.822 37.7131 511.999 46.5331 511.999H465.467C474.287 511.999 481.463 504.823 481.463 496.002V437.105C481.463 415.425 474.598 394.788 461.612 377.425ZM382.409 245.263C382.409 258.473 373.48 270.021 360.696 273.345L324.645 282.719C325.107 282.385 325.551 282.03 326.007 281.69C326.195 281.55 326.381 281.407 326.568 281.266C327.851 280.299 329.113 279.306 330.354 278.287L330.839 277.887C332.162 276.789 333.461 275.663 334.735 274.509L334.92 274.343C336.953 272.493 338.921 270.572 340.82 268.585C340.962 268.437 341.101 268.286 341.241 268.138C342.18 267.145 343.105 266.139 344.009 265.115L352.482 263.662C359.16 262.529 365.429 259.681 370.675 255.396C375.921 251.112 379.964 245.538 382.408 239.221V245.263H382.409ZM372.303 203.373C372.638 200.901 372.897 198.405 373.075 195.886C373.093 195.631 373.107 195.376 373.124 195.122C373.187 194.138 373.238 193.152 373.276 192.162C373.289 191.843 373.303 191.525 373.312 191.206C373.35 189.986 373.375 188.764 373.375 187.535V160.253C382.131 162.885 388.509 163.467 389.304 163.531L389.321 163.532H389.33C390.499 163.624 391.673 163.44 392.758 162.996C393.842 162.552 394.808 161.86 395.577 160.975C395.64 160.903 395.694 160.825 395.754 160.751C395.864 160.614 395.975 160.477 396.075 160.333C396.088 160.314 396.105 160.296 396.118 160.277V197.012C396.118 200.569 393.308 203.474 389.791 203.642C389.75 203.643 389.709 203.638 389.667 203.64C389.549 203.644 389.432 203.65 389.301 203.659H372.266C372.281 203.565 372.29 203.469 372.303 203.373ZM360.392 241.158C360.916 240.141 361.426 239.116 361.92 238.084C362.644 236.564 363.339 235.03 364.004 233.484C364.228 232.959 364.444 232.43 364.661 231.901C365.038 230.981 365.403 230.055 365.758 229.124C365.921 228.694 366.09 228.267 366.249 227.835C366.682 226.647 367.096 225.451 367.49 224.249C367.638 223.8 367.786 223.352 367.929 222.901C368.321 221.663 368.693 220.416 369.045 219.161C369.091 218.998 369.145 218.839 369.19 218.676H370.044V225.03C370.051 229.326 368.911 233.545 366.74 237.252C364.57 240.959 361.449 244.019 357.7 246.116C357.891 245.786 358.064 245.446 358.252 245.115C358.684 244.35 359.109 243.581 359.524 242.806C359.815 242.257 360.107 241.71 360.392 241.158ZM119.806 203.069L119.786 203.062C117.486 202.015 115.881 199.701 115.881 197.014V163.914C116.101 164.011 116.324 164.103 116.544 164.199C117.633 164.674 118.729 165.134 119.831 165.578C120.16 165.711 120.487 165.845 120.817 165.975C121.829 166.375 122.846 166.764 123.87 167.14L123.995 167.187C128.784 168.936 133.669 170.415 138.624 171.615V187.536C138.624 188.765 138.649 189.987 138.687 191.207C138.697 191.526 138.711 191.844 138.723 192.163C138.762 193.153 138.812 194.139 138.875 195.123C138.891 195.378 138.905 195.633 138.924 195.887C139.102 198.405 139.361 200.901 139.696 203.374C139.709 203.47 139.717 203.566 139.731 203.661H122.527C121.588 203.659 120.661 203.457 119.806 203.069ZM146.227 273.123C139.942 271.564 134.36 267.944 130.373 262.841C126.386 257.738 124.224 251.446 124.232 244.97V218.674H142.813C142.857 218.834 142.911 218.99 142.955 219.15C143.441 220.883 143.967 222.605 144.534 224.313C144.94 225.542 145.361 226.764 145.807 227.974C145.971 228.419 146.144 228.86 146.313 229.303C147.283 231.847 148.344 234.356 149.492 236.825C149.723 237.323 149.951 237.822 150.19 238.317C150.7 239.376 151.23 240.423 151.771 241.463C152.878 243.602 154.055 245.705 155.298 247.768C156.222 249.305 157.18 250.822 158.173 252.315C159.172 253.817 160.205 255.296 161.27 256.751C161.608 257.212 161.947 257.673 162.291 258.129C163.083 259.176 163.893 260.21 164.719 261.23C164.994 261.57 165.265 261.912 165.544 262.249C166.102 262.924 166.667 263.591 167.239 264.253C167.375 264.411 167.515 264.564 167.652 264.721C168.711 265.934 169.795 267.124 170.903 268.292C171.089 268.488 171.277 268.681 171.465 268.876C173.849 271.353 176.339 273.726 178.929 275.986C179.073 276.111 179.215 276.238 179.359 276.362C181.448 278.168 183.599 279.899 185.809 281.554L185.916 281.633C186.866 282.342 187.812 283.055 188.784 283.736L146.227 273.123ZM159.9 222.799L159.818 222.575C159.55 221.842 159.29 221.107 159.039 220.368L158.991 220.224C158.242 218.004 157.57 215.759 156.977 213.492C156.935 213.332 156.89 213.173 156.849 213.013C156.709 212.467 156.578 211.917 156.446 211.367C156.353 210.979 156.26 210.592 156.172 210.202C155.971 209.313 155.781 208.422 155.604 207.528C155.353 206.258 155.125 204.983 154.92 203.705C154.827 203.122 154.741 202.537 154.658 201.952C154.617 201.666 154.576 201.38 154.537 201.093C154.451 200.445 154.374 199.796 154.3 199.146C154.273 198.907 154.243 198.668 154.218 198.428C154.145 197.739 154.082 197.049 154.022 196.359C154.004 196.147 153.982 195.936 153.965 195.724C153.909 195.017 153.863 194.309 153.822 193.601C153.81 193.399 153.794 193.198 153.783 192.995C153.745 192.274 153.719 191.553 153.695 190.832C153.689 190.64 153.678 190.45 153.673 190.258C153.649 189.35 153.636 188.441 153.636 187.532V174.39C164.8 175.825 176.496 175.988 188.608 174.905C189.003 174.87 189.401 174.826 189.797 174.789C190.779 174.695 191.763 174.595 192.75 174.484C193.626 174.388 194.501 174.285 195.375 174.176C195.622 174.145 195.87 174.111 196.118 174.078C216.497 171.462 237.936 165.412 260.085 155.907C289.077 143.465 311.927 128.411 323.242 120.325C332.202 137.636 345.785 148.054 358.318 154.306C358.337 155.097 358.359 155.892 358.359 156.659V187.535C358.359 188.444 358.346 189.352 358.322 190.261C358.317 190.453 358.306 190.643 358.3 190.835C358.279 191.556 358.249 192.277 358.212 192.998C358.201 193.201 358.185 193.402 358.173 193.604C358.131 194.312 358.086 195.02 358.03 195.727C358.013 195.939 357.992 196.15 357.973 196.362C357.915 197.052 357.85 197.742 357.777 198.431C357.752 198.671 357.722 198.909 357.695 199.149C357.621 199.799 357.544 200.448 357.458 201.096C357.42 201.383 357.378 201.669 357.337 201.955C357.205 202.891 357.059 203.825 356.901 204.757C356.677 206.09 356.424 207.417 356.143 208.739C356.039 209.229 355.934 209.717 355.823 210.204C355.735 210.595 355.641 210.984 355.548 211.373C355.417 211.92 355.287 212.468 355.147 213.012C355.104 213.18 355.057 213.346 355.013 213.514C354.423 215.766 353.755 217.997 353.011 220.203L352.953 220.377C352.704 221.109 352.446 221.838 352.182 222.562L352.091 222.812C348.301 233.087 342.886 242.687 336.052 251.246L319.192 254.138C317.604 251.335 315.417 248.916 312.788 247.054C307.985 243.656 302.146 242.331 296.35 243.33L271.878 247.527C259.911 249.579 251.845 260.984 253.897 272.951C254.504 276.523 255.985 279.889 258.208 282.75C260.432 285.61 263.328 287.876 266.64 289.345C263.14 289.708 259.589 289.897 255.995 289.897C241.124 289.897 226.985 286.706 214.223 280.978C213.94 280.851 213.658 280.721 213.376 280.591C188.736 269.259 169.332 248.421 159.9 222.799ZM305.797 269.077C305.268 269.83 304.594 270.47 303.815 270.961C303.037 271.452 302.169 271.784 301.261 271.937L276.785 276.134C275.878 276.293 274.949 276.27 274.05 276.068C273.152 275.866 272.303 275.488 271.551 274.956C270.799 274.425 270.16 273.749 269.671 272.97C269.181 272.19 268.851 271.321 268.698 270.413C268.386 268.582 268.813 266.702 269.886 265.185C270.958 263.668 272.589 262.639 274.419 262.323L298.893 258.126C299.8 257.968 300.729 257.991 301.626 258.194C302.524 258.397 303.372 258.777 304.122 259.31C304.875 259.839 305.516 260.513 306.007 261.292C306.497 262.07 306.829 262.938 306.982 263.846C307.14 264.753 307.117 265.682 306.914 266.58C306.71 267.478 306.331 268.327 305.797 269.077ZM219.28 380.264C216.579 381.19 213.662 381.291 210.904 380.553C208.145 379.815 205.668 378.272 203.79 376.12L168.97 336.381L194.795 328.329C194.868 328.307 194.946 328.304 195.02 328.321C195.095 328.339 195.163 328.376 195.219 328.428L241.816 372.588L219.28 380.264ZM256 365.342L212.034 323.677C216.69 318.678 219.43 312.012 219.43 304.972V299.097C219.918 299.257 220.413 299.395 220.903 299.549C221.15 299.627 221.399 299.701 221.646 299.777C223.132 300.233 224.626 300.658 226.128 301.053C226.398 301.124 226.667 301.197 226.938 301.266C227.775 301.48 228.613 301.687 229.454 301.882C229.672 301.933 229.891 301.978 230.11 302.027C232.058 302.467 234.018 302.857 235.986 303.196C236.692 303.317 237.398 303.44 238.107 303.548C239.174 303.712 240.247 303.859 241.323 303.994C241.887 304.064 242.452 304.126 243.017 304.188C243.927 304.289 244.84 304.378 245.756 304.458C246.141 304.491 246.524 304.531 246.91 304.561C248.195 304.66 249.487 304.731 250.782 304.788C251.147 304.804 251.513 304.817 251.878 304.83C253.246 304.877 254.619 304.91 255.999 304.91C257.379 304.91 258.751 304.877 260.12 304.83C261.778 304.775 263.434 304.685 265.088 304.561C265.473 304.532 265.857 304.491 266.242 304.458C267.158 304.378 268.071 304.289 268.981 304.188C269.546 304.126 270.111 304.064 270.675 303.994C271.751 303.859 272.824 303.712 273.891 303.548C274.6 303.44 275.306 303.317 276.012 303.196C277.98 302.857 279.94 302.467 281.888 302.027C282.106 301.978 282.326 301.933 282.544 301.882C283.385 301.687 284.224 301.48 285.06 301.266C285.331 301.197 285.6 301.124 285.87 301.053C287.372 300.658 288.865 300.232 290.352 299.777C290.6 299.701 290.848 299.627 291.095 299.549C291.585 299.395 292.079 299.258 292.568 299.097V304.972C292.568 312.013 295.308 318.679 299.964 323.677L256 365.342ZM310.447 373.567C307.908 376.476 304.561 378.562 300.831 379.56C297.102 380.558 293.159 380.422 289.507 379.17L270.183 372.588L316.78 328.428C316.836 328.375 316.905 328.338 316.979 328.321C317.054 328.304 317.132 328.307 317.205 328.33L343.029 336.382L310.447 373.567Z" fill="black"/>
<path d="M190.372 468.405C197.646 468.405 203.564 462.488 203.564 455.213V430.166C203.564 422.892 197.646 416.973 190.372 416.973H133.822C126.548 416.973 120.63 422.891 120.63 430.166V455.213C120.63 462.487 126.548 468.405 133.822 468.405H190.372ZM135.643 431.987H188.55V453.391H135.643V431.987Z" fill="black"/>
</g>
<defs>
<clipPath id="clip0_1379_359">
<rect width="512" height="512" fill="white"/>
</clipPath>
</defs>
</svg>
