<svg width="492" height="512" viewBox="0 0 492 512" fill="none" xmlns="http://www.w3.org/2000/svg">
<path d="M467.956 262.631C466.939 260.568 466.411 258.3 466.411 256C466.411 253.7 466.939 251.431 467.956 249.368L487.052 210.304C497.683 188.553 489.26 162.628 467.874 151.281L429.464 130.901C427.429 129.83 425.668 128.305 424.316 126.445C422.964 124.584 422.058 122.438 421.668 120.172L414.156 77.3435C409.973 53.4976 387.915 37.4737 363.948 40.8647L320.895 46.9547C318.62 47.2837 316.299 47.0851 314.112 46.3744C311.925 45.6637 309.93 44.4598 308.283 42.8557L277.032 12.6238C259.631 -4.21005 232.371 -4.21105 214.971 12.6238L183.719 42.8587C182.071 44.4624 180.077 45.666 177.89 46.3768C175.703 47.0875 173.382 47.2862 171.106 46.9576L128.054 40.8677C104.079 37.4747 82.0289 53.5006 77.8459 77.3465L70.334 120.173C69.9435 122.439 69.0376 124.586 67.686 126.446C66.3345 128.306 64.5735 129.831 62.539 130.903L24.1292 151.283C2.74337 162.629 -5.68058 188.556 4.95135 210.307L24.0462 249.37C25.0627 251.433 25.5913 253.702 25.5913 256.002C25.5913 258.302 25.0627 260.571 24.0462 262.633L4.95035 301.697C-5.68158 323.448 2.74237 349.373 24.1282 360.72L62.538 381.1C64.5727 382.171 66.3339 383.696 67.6857 385.556C69.0374 387.416 69.9435 389.562 70.334 391.829L77.8459 434.657C81.6539 456.365 100.268 471.589 121.661 471.587C123.768 471.587 125.906 471.439 128.055 471.135L171.107 465.045C173.383 464.716 175.704 464.914 177.891 465.625C180.078 466.336 182.073 467.54 183.72 469.144L214.971 499.376C223.673 507.794 234.835 512.002 246.001 512.001C257.164 512 268.333 507.792 277.031 499.376L308.283 469.144C311.655 465.883 316.251 464.393 320.895 465.045L363.948 471.135C387.926 474.527 409.973 458.502 414.156 434.656L421.669 391.83C422.059 389.563 422.965 387.417 424.317 385.557C425.668 383.696 427.429 382.171 429.464 381.1L467.874 360.72C489.26 349.374 497.683 323.447 487.052 301.696L467.956 262.631ZM454.033 334.633L415.623 355.013C403.377 361.512 394.978 373.07 392.583 386.726L385.071 429.553C384.409 433.42 382.262 436.874 379.088 439.18C375.915 441.486 371.966 442.46 368.084 441.895L325.031 435.805C311.302 433.86 297.716 438.279 287.751 447.918L256.499 478.149C253.69 480.887 249.923 482.42 246 482.42C242.078 482.42 238.311 480.887 235.502 478.149L204.251 447.917C195.829 439.77 184.819 435.355 173.325 435.355C171.219 435.355 169.096 435.503 166.97 435.804L123.918 441.894C120.036 442.458 116.088 441.483 112.914 439.178C109.741 436.872 107.594 433.418 106.931 429.552L99.4178 386.724C97.0218 373.068 88.6239 361.509 76.3769 355.012L37.9672 334.632C34.4946 332.807 31.8725 329.698 30.6602 325.968C29.448 322.237 29.7415 318.18 31.4782 314.663L50.5741 275.598C56.6621 263.142 56.6621 248.856 50.5741 236.401L31.4782 197.336C29.7415 193.819 29.448 189.762 30.6602 186.031C31.8725 182.301 34.4946 179.191 37.9672 177.367L76.3769 156.987C88.6229 150.488 97.0218 138.93 99.4168 125.274L106.929 82.4464C107.591 78.5801 109.738 75.1256 112.912 72.8199C116.085 70.5142 120.034 69.5398 123.916 70.1045L166.968 76.1945C180.693 78.1375 194.284 73.7205 204.249 64.0816L235.501 33.8497C238.31 31.1117 242.077 29.5793 245.999 29.5793C249.922 29.5793 253.689 31.1117 256.498 33.8497L287.749 64.0816C297.714 73.7215 311.303 78.1375 325.029 76.1945L368.082 70.1045C371.964 69.5403 375.913 70.5149 379.086 72.8206C382.259 75.1262 384.406 78.5803 385.069 82.4464L392.581 125.275C394.977 138.931 403.375 150.49 415.622 156.987L454.032 177.367C457.504 179.191 460.126 182.301 461.339 186.031C462.551 189.762 462.257 193.819 460.521 197.336L441.425 236.4C435.337 248.854 435.337 263.142 441.425 275.597L460.521 314.661C462.258 318.179 462.552 322.236 461.34 325.967C460.128 329.698 457.505 332.808 454.033 334.633Z" fill="black"/>
<path d="M353.883 148.115C348.119 142.349 338.769 142.349 333.003 148.115L138.115 343.004C132.349 348.77 132.349 358.119 138.115 363.885C139.484 365.258 141.112 366.347 142.903 367.089C144.695 367.831 146.615 368.212 148.555 368.21C152.333 368.21 156.113 366.769 158.995 363.885L353.882 168.997C359.65 163.23 359.65 153.882 353.883 148.115ZM186.939 123.115C157.088 123.115 132.801 147.402 132.801 177.254C132.801 207.106 157.088 231.393 186.939 231.393C216.791 231.393 241.078 207.106 241.078 177.254C241.078 147.402 216.791 123.115 186.939 123.115ZM186.939 201.862C173.371 201.862 162.332 190.823 162.332 177.253C162.332 163.684 173.371 152.645 186.939 152.645C200.508 152.645 211.548 163.684 211.548 177.253C211.547 190.823 200.508 201.862 186.939 201.862ZM305.059 280.608C275.207 280.608 250.92 304.895 250.92 334.747C250.92 364.599 275.207 388.886 305.059 388.886C334.911 388.886 359.197 364.599 359.197 334.747C359.197 304.895 334.911 280.608 305.059 280.608ZM305.059 359.355C291.49 359.355 280.45 348.316 280.45 334.747C280.45 321.178 291.489 310.139 305.059 310.139C318.628 310.139 329.667 321.178 329.667 334.747C329.667 348.316 318.628 359.355 305.059 359.355Z" fill="black"/>
</svg>
