<svg width="512" height="512" viewBox="0 0 512 512" fill="none" xmlns="http://www.w3.org/2000/svg">
<g filter="url(#filter0_d_1337_33)">
<path d="M491.9 168C504.8 155.1 512 137.9 512 119.6C512 101.3 504.9 84.1 491.9 71.2L440.9 20.2C427.9 7.1 410.7 0 392.4 0C374.1 0 356.9 7.1 344 20.1L25.8999 338.2C8.09991 356 -1.30009 380.5 0.0999065 405.6L-9.34862e-05 487C-9.34862e-05 493.6 2.59991 500 7.29991 504.7C11.9999 509.4 18.2999 512 24.9999 512L106.4 511.9C131.5 513.3 156 503.9 173.8 486.1C183.6 476.3 183.6 460.5 173.8 450.7C164 440.9 148.2 440.9 138.4 450.7C130.6 458.5 119.7 462.6 108.7 461.9C108.2 461.9 107.6 461.8 107.1 461.8L49.9999 462L50.0999 404.9C50.0999 404.4 50.0999 403.8 49.9999 403.3C49.2999 392.3 53.3999 381.4 61.1999 373.6L326.3 108.5L403.5 185.7L204.3 384.9C194.5 394.7 194.5 410.5 204.3 420.3C214.1 430.1 229.9 430.1 239.7 420.3L491.9 168ZM361.7 73.1L379.4 55.4C382.9 51.9 387.5 50 392.5 50C397.4 50 402.1 51.9 405.6 55.4L456.6 106.4C463.8 113.6 463.8 125.4 456.6 132.6L438.9 150.3L361.7 73.1ZM487 462H261.5C247.7 462 236.5 473.2 236.5 487C236.5 500.8 247.7 512 261.5 512H487C500.8 512 512 500.8 512 487C512 473.2 500.8 462 487 462Z" fill="black"/>
<path d="M491.9 168C504.8 155.1 512 137.9 512 119.6C512 101.3 504.9 84.1 491.9 71.2L440.9 20.2C427.9 7.1 410.7 0 392.4 0C374.1 0 356.9 7.1 344 20.1L25.8999 338.2C8.09991 356 -1.30009 380.5 0.0999065 405.6L-9.34862e-05 487C-9.34862e-05 493.6 2.59991 500 7.29991 504.7C11.9999 509.4 18.2999 512 24.9999 512L106.4 511.9C131.5 513.3 156 503.9 173.8 486.1C183.6 476.3 183.6 460.5 173.8 450.7C164 440.9 148.2 440.9 138.4 450.7C130.6 458.5 119.7 462.6 108.7 461.9C108.2 461.9 107.6 461.8 107.1 461.8L49.9999 462L50.0999 404.9C50.0999 404.4 50.0999 403.8 49.9999 403.3C49.2999 392.3 53.3999 381.4 61.1999 373.6L326.3 108.5L403.5 185.7L204.3 384.9C194.5 394.7 194.5 410.5 204.3 420.3C214.1 430.1 229.9 430.1 239.7 420.3L491.9 168ZM361.7 73.1L379.4 55.4C382.9 51.9 387.5 50 392.5 50C397.4 50 402.1 51.9 405.6 55.4L456.6 106.4C463.8 113.6 463.8 125.4 456.6 132.6L438.9 150.3L361.7 73.1ZM487 462H261.5C247.7 462 236.5 473.2 236.5 487C236.5 500.8 247.7 512 261.5 512H487C500.8 512 512 500.8 512 487C512 473.2 500.8 462 487 462Z" stroke="black"/>
</g>
<defs>
<filter id="filter0_d_1337_33" x="-4.03687" y="0" width="520.037" height="520.037" filterUnits="userSpaceOnUse" color-interpolation-filters="sRGB">
<feFlood flood-opacity="0" result="BackgroundImageFix"/>
<feColorMatrix in="SourceAlpha" type="matrix" values="0 0 0 0 0 0 0 0 0 0 0 0 0 0 0 0 0 0 127 0" result="hardAlpha"/>
<feOffset dy="4"/>
<feGaussianBlur stdDeviation="2"/>
<feComposite in2="hardAlpha" operator="out"/>
<feColorMatrix type="matrix" values="0 0 0 0 0 0 0 0 0 0 0 0 0 0 0 0 0 0 0.25 0"/>
<feBlend mode="normal" in2="BackgroundImageFix" result="effect1_dropShadow_1337_33"/>
<feBlend mode="normal" in="SourceGraphic" in2="effect1_dropShadow_1337_33" result="shape"/>
</filter>
</defs>
</svg>
