<svg width="448" height="328" viewBox="0 0 448 328" fill="none" xmlns="http://www.w3.org/2000/svg">
<path d="M4.86332 91.3442C6.3678 92.8133 8.14791 93.9705 10.1013 94.7492C12.0546 95.5279 14.1426 95.9127 16.2452 95.8815C18.3478 95.8502 20.4235 95.4036 22.3528 94.5673C24.2822 93.7309 26.0271 92.5214 27.4873 91.0082L61.5353 55.9042V311.632C61.5353 315.876 63.221 319.945 66.2216 322.946C69.2222 325.946 73.2919 327.632 77.5353 327.632C81.7788 327.632 85.8485 325.946 88.849 322.946C91.8496 319.945 93.5353 315.876 93.5353 311.632V55.9042L127.583 91.0082C129.047 92.5168 130.793 93.7224 132.722 94.5562C134.652 95.3899 136.727 95.8355 138.828 95.8674C140.93 95.8993 143.017 95.5171 144.971 94.7423C146.925 93.9676 148.707 92.8156 150.215 91.3522C151.724 89.8887 152.93 88.1425 153.763 86.2131C154.597 84.2837 155.043 82.209 155.075 80.1074C155.107 78.0058 154.724 75.9185 153.949 73.9647C153.175 72.0109 152.023 70.2288 150.559 68.7202L89.0073 5.28017C87.5243 3.73238 85.7434 2.50069 83.7719 1.65926C81.8003 0.817834 79.6789 0.384064 77.5353 0.384064C75.3917 0.384064 73.2703 0.817834 71.2988 1.65926C69.3272 2.50069 67.5463 3.73238 66.0633 5.28017H66.0473L4.51133 68.7042C1.55799 71.751 -0.0640735 75.8463 0.00193873 80.0891C0.0679509 84.3318 1.81663 88.3906 4.86332 91.3442ZM398.079 114.768C398.079 110.525 396.394 106.455 393.393 103.454C390.392 100.454 386.323 98.7682 382.079 98.7682H208.447C204.204 98.7682 200.134 100.454 197.134 103.454C194.133 106.455 192.447 110.525 192.447 114.768C192.447 119.012 194.133 123.081 197.134 126.082C200.134 129.082 204.204 130.768 208.447 130.768H382.079C386.323 130.768 390.392 129.082 393.393 126.082C396.394 123.081 398.079 119.012 398.079 114.768ZM348.159 213.168C348.159 208.925 346.474 204.855 343.473 201.854C340.472 198.854 336.403 197.168 332.159 197.168H208.447C204.204 197.168 200.134 198.854 197.134 201.854C194.133 204.855 192.447 208.925 192.447 213.168C192.447 217.412 194.133 221.481 197.134 224.482C200.134 227.482 204.204 229.168 208.447 229.168H332.159C336.403 229.168 340.472 227.482 343.473 224.482C346.474 221.481 348.159 217.412 348.159 213.168ZM208.447 295.632C204.204 295.632 200.134 297.318 197.134 300.318C194.133 303.319 192.447 307.389 192.447 311.632C192.447 315.876 194.133 319.945 197.134 322.946C200.134 325.946 204.204 327.632 208.447 327.632H282.239C286.483 327.632 290.552 325.946 293.553 322.946C296.554 319.945 298.239 315.876 298.239 311.632C298.239 307.389 296.554 303.319 293.553 300.318C290.552 297.318 286.483 295.632 282.239 295.632H208.447ZM431.999 0.368164H208.447C204.204 0.368164 200.134 2.05388 197.134 5.05446C194.133 8.05504 192.447 12.1247 192.447 16.3682C192.447 20.6116 194.133 24.6813 197.134 27.6819C200.134 30.6825 204.204 32.3682 208.447 32.3682H431.999C436.243 32.3682 440.312 30.6825 443.313 27.6819C446.314 24.6813 447.999 20.6116 447.999 16.3682C447.999 12.1247 446.314 8.05504 443.313 5.05446C440.312 2.05388 436.243 0.368164 431.999 0.368164Z" fill="black"/>
</svg>
