<svg width="280" height="51" viewBox="0 0 280 51" fill="none" xmlns="http://www.w3.org/2000/svg">
<g clip-path="url(#clip0_1483_315)">
<path d="M161.717 26.8409V24.0098C161.717 23.0843 161.499 22.3376 161.071 21.7776C160.643 21.2176 160.06 20.9376 159.337 20.9376C158.606 20.9376 158.03 21.2176 157.602 21.7776C157.175 22.3376 156.957 23.0843 156.957 24.0098V24.9198H148.596V24.0098C148.596 21.9176 149.257 20.222 150.579 18.9465C151.901 17.6631 153.822 17.0254 156.342 17.0254H162.339C164.859 17.0254 166.78 17.6631 168.102 18.9465C169.425 20.2298 170.086 21.9176 170.086 24.0098V34.5721C170.086 36.6721 169.425 38.3598 168.102 39.6354C166.78 40.9187 164.859 41.5565 162.339 41.5565H156.342C153.822 41.5565 151.901 40.9187 150.579 39.6354C149.257 38.352 148.596 36.6643 148.596 34.5721C148.604 29.4154 152.975 26.8409 161.717 26.8409ZM156.957 34.8054C156.957 35.7309 157.175 36.4387 157.602 36.9209C158.03 37.4032 158.614 37.6443 159.337 37.6443C160.068 37.6443 160.643 37.4032 161.071 36.9209C161.499 36.4387 161.717 35.7387 161.717 34.8054V29.9054C158.544 29.9132 156.957 31.5465 156.957 34.8054Z" fill="#2575FC"/>
<path d="M187.855 41.5338V23.7694C187.855 22.8438 187.638 22.136 187.21 21.6616C186.782 21.1794 186.199 20.9383 185.475 20.9383C184.744 20.9383 184.169 21.1794 183.741 21.6616C183.313 22.1438 183.095 22.8438 183.095 23.7694V41.5338H174.734V8.41602H183.119V17.0338H188.47C190.99 17.0338 192.911 17.6716 194.233 18.9549C195.555 20.2382 196.217 21.926 196.217 24.0182V41.5416H187.855V41.5338Z" fill="#2575FC"/>
<path d="M222.351 34.5721C222.351 36.6721 221.69 38.3598 220.368 39.6354C219.046 40.9187 217.125 41.5565 214.605 41.5565H208.608C206.088 41.5565 204.167 40.9187 202.845 39.6354C201.522 38.352 200.861 36.6643 200.861 34.5721V24.0098C200.861 21.9176 201.522 20.222 202.845 18.9465C204.167 17.6631 206.088 17.0254 208.608 17.0254H214.605C217.125 17.0254 219.046 17.6631 220.368 18.9465C221.69 20.2298 222.351 21.9176 222.351 24.0098V34.5721ZM213.99 23.7687C213.99 22.8432 213.772 22.1354 213.345 21.6609C212.917 21.1787 212.334 20.9376 211.61 20.9376C210.879 20.9376 210.304 21.1787 209.876 21.6609C209.448 22.1432 209.23 22.8432 209.23 23.7687V34.5721C209.23 35.4976 209.448 36.2443 209.876 36.8043C210.304 37.3643 210.887 37.6443 211.61 37.6443C212.341 37.6443 212.917 37.3643 213.345 36.8043C213.772 36.2443 213.99 35.4976 213.99 34.5721V23.7687Z" fill="#2575FC"/>
<path d="M227.111 34.3549V8.4082H235.472V33.8727C235.472 34.7982 235.729 35.506 236.242 35.9882C236.756 36.4704 237.611 36.7116 238.817 36.7116H241.982L241.469 41.5804H234.702C232.112 41.5804 230.199 40.9427 228.962 39.6593C227.726 38.376 227.111 36.6104 227.111 34.3549Z" fill="#2575FC"/>
<path d="M245.115 14.1714V9.24805H253.5V14.1714H245.115ZM253.5 17.0258V41.5803H245.115V17.0258H253.5Z" fill="#2575FC"/>
<path d="M271.639 33.1798H280V34.5721C280 36.6721 279.339 38.3598 278.016 39.6354C276.694 40.9187 274.773 41.5565 272.253 41.5565H266.256C263.736 41.5565 261.815 40.9187 260.493 39.6354C259.171 38.352 258.51 36.6643 258.51 34.5721V24.0098C258.51 21.9176 259.171 20.222 260.493 18.9465C261.815 17.6631 263.736 17.0254 266.256 17.0254H272.253C274.773 17.0254 276.694 17.6631 278.016 18.9465C279.339 20.2298 280 21.9176 280 24.0098V25.402H271.639V23.7687C271.639 22.8432 271.421 22.1354 270.993 21.6609C270.565 21.1787 269.982 20.9376 269.259 20.9376C268.528 20.9376 267.952 21.1787 267.524 21.6609C267.096 22.1432 266.879 22.8432 266.879 23.7687V34.5721C266.879 35.4976 267.096 36.2443 267.524 36.8043C267.952 37.3643 268.535 37.6443 269.259 37.6443C269.99 37.6443 270.565 37.3643 270.993 36.8043C271.421 36.2443 271.639 35.4976 271.639 34.5721V33.1798Z" fill="#2575FC"/>
<path d="M50.2596 42.9023C48.3152 42.9023 46.7285 44.489 46.7285 46.4335C46.7285 48.3779 48.3152 49.9646 50.2596 49.9646C52.2118 49.9646 53.7907 48.3779 53.7907 46.4335C53.7907 44.4812 52.2118 42.9023 50.2596 42.9023Z" fill="#2575FC"/>
<path d="M29.6873 42.9023C27.7351 42.9023 26.1562 44.489 26.1562 46.4335C26.1562 48.3779 27.7429 49.9646 29.6873 49.9646C31.6318 49.9646 33.2184 48.3779 33.2184 46.4335C33.2184 44.4812 31.6318 42.9023 29.6873 42.9023Z" fill="#2575FC"/>
<path d="M83.3145 41.5333V23.7689C83.3145 22.8433 83.0968 22.1356 82.669 21.6611C82.2412 21.1789 81.6579 20.9378 80.9345 20.9378C80.2034 20.9378 79.6279 21.1789 79.2001 21.6611C78.7723 22.1433 78.5545 22.8433 78.5545 23.7689V41.5333H70.1934V0H78.5779V17.0333H83.929C86.449 17.0333 88.3701 17.6711 89.6923 18.9544C91.0146 20.2378 91.6757 21.9256 91.6757 24.0178V41.5411H83.3145V41.5333Z" fill="#2575FC"/>
<path d="M117.81 34.5721C117.81 36.6721 117.149 38.3598 115.827 39.6354C114.505 40.9187 112.584 41.5565 110.064 41.5565H104.067C101.547 41.5565 99.6259 40.9187 98.3037 39.6354C96.9815 38.352 96.3203 36.6643 96.3203 34.5721V24.0098C96.3203 21.9176 96.9815 20.222 98.3037 18.9465C99.6259 17.6631 101.547 17.0254 104.067 17.0254H110.064C112.584 17.0254 114.505 17.6631 115.827 18.9465C117.149 20.2298 117.81 21.9176 117.81 24.0098V34.5721ZM109.449 23.7687C109.449 22.8432 109.231 22.1354 108.804 21.6609C108.376 21.1787 107.793 20.9376 107.069 20.9376C106.338 20.9376 105.763 21.1787 105.335 21.6609C104.907 22.1432 104.689 22.8432 104.689 23.7687V34.5721C104.689 35.4976 104.907 36.2443 105.335 36.8043C105.763 37.3643 106.338 37.6443 107.069 37.6443C107.8 37.6443 108.376 37.3643 108.804 36.8043C109.231 36.2443 109.449 35.4976 109.449 34.5721V23.7687Z" fill="#2575FC"/>
<path d="M122.461 17.0254H136.196C138.716 17.0254 140.638 17.6631 141.96 18.9465C143.282 20.2298 143.943 21.9176 143.943 24.0098V34.5721C143.943 36.6721 143.282 38.3598 141.96 39.6354C140.638 40.9187 138.716 41.5565 136.196 41.5565H130.845V50.1743H122.461V17.0254ZM130.822 23.7687V34.5721C130.822 35.4976 131.04 36.2443 131.468 36.8043C131.895 37.3643 132.479 37.6443 133.202 37.6443C133.933 37.6443 134.509 37.3643 134.936 36.8043C135.364 36.2443 135.582 35.4976 135.582 34.5721V23.7687C135.582 22.8432 135.364 22.1354 134.936 21.6609C134.509 21.1787 133.925 20.9376 133.202 20.9376C132.471 20.9376 131.895 21.1787 131.468 21.6609C131.04 22.1354 130.822 22.8432 130.822 23.7687Z" fill="#2575FC"/>
<path d="M65.6689 29.0656C65.6689 22.1901 60.0767 16.5979 53.2011 16.5979H33.7645C31.4934 16.5979 29.6501 14.7545 29.6501 12.4834C29.6501 10.2123 31.4934 8.36898 33.7645 8.36898H61.1734C63.4834 8.36898 65.35 6.50231 65.35 4.19231C65.35 1.88231 63.4834 0.015625 61.1734 0.015625H33.7645C26.8889 0.015625 21.2967 5.60785 21.2967 12.4834C21.2967 19.359 26.8889 24.9512 33.7645 24.9512H53.2011C55.4723 24.9512 57.3156 26.7945 57.3156 29.0656C57.3156 31.3367 55.4723 33.1801 53.2011 33.1801H22.9534C21.9267 33.1801 21.0867 33.0945 20.4023 32.9234C21.39 36.5634 23.5134 41.5334 27.5967 41.5334H53.2089C60.0689 41.5334 65.6689 35.9412 65.6689 29.0656Z" fill="#2575FC"/>
<path d="M17.4456 30.5511L17.36 29.8978C17.29 29.6411 17.2278 29.3689 17.1811 29.0734L13.8211 3.92003L0 0.0078125V5.6778L5.84886 7.33447L8.49332 27.1367L8.9133 30.2711L8.93666 30.4345C9.65999 34.58 12.4367 41.5334 22.9522 41.5334H25.1844C20.0822 41.5334 18.0289 33.7711 17.4456 30.5511Z" fill="#2575FC"/>
</g>
<defs>
<clipPath id="clip0_1483_315">
<rect width="280" height="51" fill="white"/>
</clipPath>
</defs>
</svg>
