<svg width="448" height="353" viewBox="0 0 448 353" fill="none" xmlns="http://www.w3.org/2000/svg">
<path d="M100.689 277.688L80.0007 298.376V16.2798C80.0007 12.0363 78.3149 7.96666 75.3144 4.96608C72.3138 1.9655 68.2441 0.279785 64.0007 0.279785C59.7572 0.279785 55.6875 1.9655 52.687 4.96608C49.6864 7.96666 48.0007 12.0363 48.0007 16.2798V298.376L27.3127 277.688C24.295 274.773 20.2534 273.161 16.0582 273.197C11.8631 273.233 7.85009 274.916 4.88356 277.883C1.91703 280.849 0.234325 284.862 0.19787 289.057C0.161416 293.253 1.77412 297.294 4.68865 300.312L52.6887 348.312C55.6891 351.311 59.758 352.996 64.0007 352.996C68.2433 352.996 72.3122 351.311 75.3127 348.312L123.313 300.312C126.227 297.294 127.84 293.253 127.803 289.057C127.767 284.862 126.084 280.849 123.118 277.883C120.151 274.916 116.138 273.233 111.943 273.197C107.748 273.161 103.706 274.773 100.689 277.688ZM192.001 241H384.001C388.244 241 392.314 239.314 395.314 236.314C398.315 233.313 400.001 229.243 400.001 225C400.001 220.756 398.315 216.687 395.314 213.686C392.314 210.685 388.244 209 384.001 209H192.001C187.757 209 183.688 210.685 180.687 213.686C177.686 216.687 176.001 220.756 176.001 225C176.001 229.243 177.686 233.313 180.687 236.314C183.688 239.314 187.757 241 192.001 241ZM432.001 305H192.001C187.757 305 183.688 306.685 180.687 309.686C177.686 312.687 176.001 316.756 176.001 321C176.001 325.243 177.686 329.313 180.687 332.314C183.688 335.314 187.757 337 192.001 337H432.001C436.244 337 440.314 335.314 443.314 332.314C446.315 329.313 448.001 325.243 448.001 321C448.001 316.756 446.315 312.687 443.314 309.686C440.314 306.685 436.244 305 432.001 305ZM192.001 145H336.001C340.244 145 344.314 143.314 347.314 140.313C350.315 137.313 352.001 133.243 352.001 129C352.001 124.756 350.315 120.687 347.314 117.686C344.314 114.685 340.244 113 336.001 113H192.001C187.757 113 183.688 114.685 180.687 117.686C177.686 120.687 176.001 124.756 176.001 129C176.001 133.243 177.686 137.313 180.687 140.313C183.688 143.314 187.757 145 192.001 145ZM192.001 48.9998H272.001C276.244 48.9998 280.314 47.3141 283.314 44.3135C286.315 41.3129 288.001 37.2433 288.001 32.9998C288.001 28.7563 286.315 24.6867 283.314 21.6861C280.314 18.6855 276.244 16.9998 272.001 16.9998H192.001C187.757 16.9998 183.688 18.6855 180.687 21.6861C177.686 24.6867 176.001 28.7563 176.001 32.9998C176.001 37.2433 177.686 41.3129 180.687 44.3135C183.688 47.3141 187.757 48.9998 192.001 48.9998Z" fill="black"/>
</svg>
