<svg width="512" height="512" viewBox="0 0 512 512" fill="none" xmlns="http://www.w3.org/2000/svg">
<g clip-path="url(#clip0_564_8423)">
<path d="M425.651 425.705C519.376 331.979 519.376 180.02 425.651 86.2939C331.925 -7.43194 179.965 -7.43194 86.2393 86.2939C-7.48651 180.02 -7.48651 331.979 86.2393 425.705C179.965 519.431 331.925 519.431 425.651 425.705Z" fill="#317CBB"/>
<path fill-rule="evenodd" clip-rule="evenodd" d="M479.526 343.546C446.182 428.607 365.686 489.999 270.196 495.57L133.684 359.059C133.17 358.618 132.684 358.146 132.23 357.645C129.252 354.383 127.929 350.443 128.336 346.042L142.787 188.814C142.959 186.89 143.846 185.1 145.273 183.798C146.7 182.496 148.564 181.776 150.496 181.781H186.624L199.011 194.168V193.148L186.624 180.761V158.688C186.624 146.359 191.666 135.154 199.782 127.035C207.467 119.35 217.918 114.425 229.47 113.921H233.399C244.951 114.425 255.4 119.35 263.087 127.035C263.594 127.542 264.09 128.062 264.573 128.593L479.526 343.546Z" fill="#215A9F"/>
<path fill-rule="evenodd" clip-rule="evenodd" d="M285.165 335.791L304.971 353.98C306.302 355.205 308.059 355.862 309.868 355.812C311.677 355.761 313.394 355.006 314.655 353.708L350.003 319.868C351.328 318.592 352.092 316.841 352.126 315.002C352.161 313.162 351.464 311.384 350.188 310.059C348.912 308.733 347.162 307.968 345.323 307.932C343.483 307.896 341.705 308.593 340.379 309.868L309.58 339.36L294.565 325.572C291.743 322.978 287.349 323.161 284.759 325.981C283.512 327.336 282.854 329.13 282.93 330.97C283.006 332.81 283.81 334.544 285.165 335.791ZM233.398 113.921H229.469C217.917 114.425 207.466 119.35 199.781 127.035C191.665 135.153 186.623 146.359 186.623 158.688V180.761H199.01V158.688C199.01 149.776 202.661 141.671 208.538 135.792C214.423 129.912 222.525 126.261 231.434 126.261C240.349 126.261 248.451 129.913 254.328 135.792C260.213 141.671 263.864 149.776 263.864 158.688V180.761H276.245V158.688C276.245 146.359 271.208 135.154 263.087 127.035C255.399 119.35 244.95 114.425 233.398 113.921ZM317.527 265.662C354.094 265.662 383.737 295.305 383.737 331.869C383.737 368.436 354.094 398.079 317.527 398.079C280.963 398.079 251.32 368.436 251.32 331.869C251.32 295.305 280.963 265.662 317.527 265.662ZM150.495 181.781H186.623V201.402C186.623 204.822 189.399 207.595 192.819 207.595C196.239 207.595 199.01 204.822 199.01 201.402V181.781H263.864V201.402C263.845 202.226 263.992 203.046 264.295 203.813C264.598 204.58 265.051 205.279 265.628 205.868C266.204 206.458 266.893 206.926 267.653 207.246C268.413 207.566 269.229 207.73 270.054 207.73C270.879 207.73 271.695 207.566 272.455 207.246C273.215 206.926 273.904 206.458 274.48 205.868C275.057 205.279 275.51 204.58 275.813 203.813C276.116 203.046 276.263 202.226 276.245 201.402V181.781H312.378C314.309 181.777 316.173 182.497 317.6 183.798C319.027 185.1 319.915 186.89 320.088 188.814L325.913 252.188C323.127 251.896 320.328 251.751 317.527 251.751C273.278 251.751 237.409 287.62 237.409 331.869C237.409 342.753 239.583 353.126 243.512 362.589H143.43C139.007 362.589 135.205 360.909 132.23 357.645C129.252 354.383 127.929 350.443 128.336 346.042L142.787 188.814C142.958 186.89 143.845 185.1 145.272 183.798C146.699 182.495 148.563 181.776 150.495 181.781Z" fill="white"/>
</g>
<defs>
<clipPath id="clip0_564_8423">
<rect width="512" height="512" fill="white"/>
</clipPath>
</defs>
</svg>
