<svg width="497" height="496" viewBox="0 0 497 496" fill="none" xmlns="http://www.w3.org/2000/svg">
<path d="M495.552 299.416L439.552 219.416C438.572 218.017 437.171 216.969 435.552 216.424L376.032 195.72C376.676 194.506 376.996 193.148 376.963 191.775C376.929 190.401 376.542 189.06 375.84 187.88L355.96 154.744L389.104 134.856C390.287 134.145 391.266 133.139 391.945 131.938C392.624 130.737 392.981 129.38 392.981 128C392.981 126.62 392.624 125.263 391.945 124.061C391.266 122.86 390.287 121.855 389.104 121.144L355.96 101.256L375.84 68.1198C376.569 66.9072 376.963 65.5231 376.982 64.1086C377.001 62.6941 376.645 61.2998 375.95 60.0678C375.254 58.8359 374.245 57.8103 373.024 57.0956C371.803 56.381 370.415 56.0029 369 55.9998H329V23.9998C329 22.6924 328.681 21.4049 328.068 20.2499C327.456 19.0948 326.57 18.1074 325.488 17.3741C324.405 16.6407 323.16 16.1838 321.86 16.0432C320.56 15.9026 319.246 16.0827 318.032 16.5678L282.928 30.6078L254.656 2.34376C253.156 0.843988 251.121 0.00146484 249 0.00146484C246.879 0.00146484 244.844 0.843988 243.344 2.34376L215.072 30.6078L179.968 16.5678C178.754 16.0827 177.44 15.9026 176.14 16.0432C174.84 16.1838 173.595 16.6407 172.512 17.3741C171.43 18.1074 170.544 19.0948 169.932 20.2499C169.319 21.4049 169 22.6924 169 23.9998V55.9998H129C127.584 56 126.193 56.3761 124.97 57.0896C123.747 57.8031 122.736 58.8284 122.038 60.0609C121.341 61.2933 120.984 62.6887 121.002 64.1046C121.021 65.5204 121.415 66.906 122.144 68.1198L142.024 101.256L108.88 121.144C107.697 121.855 106.718 122.86 106.039 124.061C105.36 125.263 105.003 126.62 105.003 128C105.003 129.38 105.36 130.737 106.039 131.938C106.718 133.139 107.697 134.145 108.88 134.856L142.024 154.744L122.144 187.88C121.442 189.06 121.055 190.401 121.021 191.775C120.988 193.148 121.308 194.506 121.952 195.72L62.416 216.432C60.7986 216.974 59.397 218.02 58.416 219.416L2.41599 299.416C1.70838 300.429 1.24509 301.592 1.06246 302.814C0.879827 304.037 0.982819 305.284 1.36336 306.46C1.74389 307.636 2.39163 308.707 3.25577 309.591C4.1199 310.474 5.17694 311.145 6.34399 311.552L57 329.16V432C56.9995 433.715 57.5506 435.386 58.5719 436.764C59.5932 438.143 61.0306 439.157 62.672 439.656L246.672 495.656C248.19 496.115 249.81 496.115 251.328 495.656L435.328 439.656C436.969 439.157 438.407 438.143 439.428 436.764C440.449 435.386 441 433.715 441 432V329.16L491.624 311.56C492.791 311.153 493.848 310.482 494.712 309.599C495.576 308.715 496.224 307.644 496.605 306.468C496.985 305.292 497.088 304.045 496.906 302.822C496.723 301.6 496.26 300.437 495.552 299.424V299.416ZM249 271.632L90.808 223.488L158.336 200H169V232C169 233.307 169.319 234.595 169.932 235.75C170.544 236.905 171.43 237.892 172.512 238.625C173.595 239.359 174.84 239.816 176.14 239.956C177.44 240.097 178.754 239.917 179.968 239.432L215.072 225.392L243.344 253.656C244.844 255.156 246.879 255.998 249 255.998C251.121 255.998 253.156 255.156 254.656 253.656L282.928 225.392L318.032 239.432C319.246 239.917 320.56 240.097 321.86 239.956C323.16 239.816 324.405 239.359 325.488 238.625C326.57 237.892 327.456 236.905 328.068 235.75C328.681 234.595 329 233.307 329 232V200H339.664L407.192 223.488L249 271.632ZM128.544 128L157.12 110.856C158.938 109.763 160.248 107.993 160.761 105.934C161.274 103.876 160.948 101.698 159.856 99.8798L143.136 71.9998H177C179.122 71.9998 181.157 71.1569 182.657 69.6566C184.157 68.1563 185 66.1215 185 63.9998V35.8158L214.032 47.4318C215.486 48.0117 217.077 48.1526 218.61 47.8369C220.143 47.5213 221.55 46.7629 222.656 45.6558L249 19.3118L275.344 45.6558C276.45 46.7629 277.857 47.5213 279.39 47.8369C280.923 48.1526 282.514 48.0117 283.968 47.4318L313 35.8158V63.9998C313 66.1215 313.843 68.1563 315.343 69.6566C316.843 71.1569 318.878 71.9998 321 71.9998H354.864L338.144 99.8798C337.052 101.698 336.726 103.876 337.239 105.934C337.752 107.993 339.062 109.763 340.88 110.856L369.456 128L340.88 145.144C339.062 146.237 337.752 148.007 337.239 150.065C336.726 152.124 337.052 154.301 338.144 156.12L354.864 184H321C318.878 184 316.843 184.843 315.343 186.343C313.843 187.843 313 189.878 313 192V220.184L283.968 208.568C282.514 207.988 280.923 207.847 279.39 208.163C277.857 208.478 276.45 209.237 275.344 210.344L249 236.688L222.656 210.344C221.55 209.237 220.143 208.478 218.61 208.163C217.077 207.847 215.486 207.988 214.032 208.568L185 220.184V192C185 189.878 184.157 187.843 182.657 186.343C181.157 184.843 179.122 184 177 184H143.136L159.856 156.12C160.948 154.301 161.274 152.124 160.761 150.065C160.248 148.007 158.938 146.237 157.12 145.144L128.544 128ZM68.2 233.344L236.6 284.584L189.648 358.4L21.648 299.952L68.2 233.344ZM73 334.728L190.376 375.528C191.217 375.833 192.105 375.993 193 376C194.346 376 195.671 375.661 196.851 375.014C198.031 374.366 199.029 373.431 199.752 372.296L241 307.472V477.208L73 426.072V334.728ZM425 426.072L257 477.208V307.472L298.248 372.272C298.968 373.412 299.965 374.351 301.145 375.003C302.326 375.655 303.652 375.998 305 376C305.894 376.001 306.781 375.849 307.624 375.552L425 334.728V426.072ZM308.352 358.4L261.4 284.584L429.8 233.344L476.4 299.92L308.352 358.4Z" fill="black"/>
<path d="M185 122.4L202.344 148.416C203.295 149.843 204.68 150.926 206.294 151.506C207.908 152.086 209.666 152.132 211.308 151.638C212.95 151.143 214.39 150.133 215.415 148.758C216.439 147.383 216.995 145.715 217 144V88H201V117.6L183.656 91.584C182.705 90.1571 181.32 89.0737 179.706 88.4936C178.092 87.9136 176.334 87.8675 174.692 88.3623C173.05 88.8571 171.61 89.8665 170.585 91.2417C169.561 92.6168 169.005 94.285 169 96V152H185V122.4ZM233 152H257V136H241V128H249V112H241V104H257V88H233C230.878 88 228.843 88.8429 227.343 90.3431C225.843 91.8434 225 93.8783 225 96V144C225 146.122 225.843 148.157 227.343 149.657C228.843 151.157 230.878 152 233 152ZM273 152H321C323.122 152 325.157 151.157 326.657 149.657C328.157 148.157 329 146.122 329 144V88H313V136H305V112H289V136H281V88H265V144C265 146.122 265.843 148.157 267.343 149.657C268.843 151.157 270.878 152 273 152Z" fill="black"/>
</svg>
