<svg width="260" height="241" viewBox="0 0 260 241" fill="none" xmlns="http://www.w3.org/2000/svg">
<g filter="url(#filter0_d_266_8493)">
<path d="M216.582 123.73V101.201C216.582 68.3357 190.657 40.48 155.137 31.3818V21.1816C155.137 9.50208 143.86 0 130 0C116.14 0 104.863 9.50208 104.863 21.1816V31.3818C69.3423 40.48 43.418 68.3353 43.418 101.201V123.73C43.418 152.599 30.3592 179.973 6.64745 200.81C5.51052 201.809 4.74702 203.067 4.45185 204.429C4.15668 205.79 4.34287 207.195 4.98727 208.468C5.63167 209.741 6.70585 210.826 8.07629 211.589C9.44673 212.352 11.053 212.758 12.6953 212.758H88.9484C92.8407 228.852 109.768 241 130 241C150.232 241 167.159 228.852 171.052 212.758H247.305C248.947 212.758 250.553 212.351 251.923 211.588C253.294 210.826 254.368 209.74 255.012 208.468C255.656 207.195 255.843 205.79 255.548 204.429C255.253 203.068 254.489 201.809 253.353 200.81C229.641 179.973 216.582 152.599 216.582 123.73ZM121.621 21.1816C121.621 17.2885 125.38 14.1211 130 14.1211C134.62 14.1211 138.379 17.2885 138.379 21.1816V28.5849C135.621 28.3608 132.827 28.2422 130 28.2422C127.174 28.2422 124.379 28.3608 121.621 28.5849V21.1816ZM130 226.879C119.077 226.879 109.763 220.976 106.304 212.758H153.696C150.237 220.976 140.923 226.879 130 226.879ZM30.7547 198.637C49.8368 177.082 60.1758 150.998 60.1758 123.73V101.201C60.1758 68.758 91.499 42.3633 130 42.3633C168.501 42.3633 199.824 68.758 199.824 101.201V123.73C199.824 150.998 210.163 177.082 229.246 198.637H30.7547ZM238.926 101.201C238.926 105.1 242.677 108.262 247.305 108.262C251.932 108.262 255.684 105.1 255.684 101.201C255.684 72.9119 242.61 46.3158 218.872 26.3123C215.6 23.5554 210.295 23.5549 207.022 26.3123C203.75 29.0697 203.75 33.54 207.022 36.2973C227.596 53.6338 238.926 76.6837 238.926 101.201ZM12.6953 108.262C17.3227 108.262 21.0743 105.1 21.0743 101.201C21.0743 76.6841 32.4048 53.6343 52.9778 36.2978C56.25 33.5404 56.25 29.0702 52.9778 26.3128C49.7061 23.5554 44.4006 23.5554 41.1283 26.3128C17.3898 46.3162 4.31644 72.9119 4.31644 101.201C4.31644 105.1 8.06796 108.262 12.6953 108.262Z" fill="black"/>
</g>
<defs>
<filter id="filter0_d_266_8493" x="0.31543" y="0" width="259.369" height="249" filterUnits="userSpaceOnUse" color-interpolation-filters="sRGB">
<feFlood flood-opacity="0" result="BackgroundImageFix"/>
<feColorMatrix in="SourceAlpha" type="matrix" values="0 0 0 0 0 0 0 0 0 0 0 0 0 0 0 0 0 0 127 0" result="hardAlpha"/>
<feOffset dy="4"/>
<feGaussianBlur stdDeviation="2"/>
<feComposite in2="hardAlpha" operator="out"/>
<feColorMatrix type="matrix" values="0 0 0 0 0 0 0 0 0 0 0 0 0 0 0 0 0 0 0.25 0"/>
<feBlend mode="normal" in2="BackgroundImageFix" result="effect1_dropShadow_266_8493"/>
<feBlend mode="normal" in="SourceGraphic" in2="effect1_dropShadow_266_8493" result="shape"/>
</filter>
</defs>
</svg>
