<svg width="512" height="512" viewBox="0 0 512 512" fill="none" xmlns="http://www.w3.org/2000/svg">
<path d="M179.035 254.057H312.243C313.852 254.057 315.394 254.696 316.532 255.834C317.669 256.971 318.308 258.514 318.308 260.122C318.308 261.731 317.669 263.273 316.532 264.411C315.394 265.548 313.852 266.187 312.243 266.187H179.035C178.238 266.187 177.45 266.03 176.714 265.726C175.978 265.421 175.309 264.974 174.746 264.411C174.183 263.848 173.736 263.179 173.431 262.443C173.127 261.707 172.97 260.919 172.97 260.122C172.97 259.326 173.126 258.537 173.431 257.801C173.736 257.065 174.183 256.396 174.746 255.833C175.309 255.27 175.978 254.823 176.714 254.518C177.45 254.214 178.238 254.057 179.035 254.057ZM109.417 275.124V238.477C109.417 237.681 109.574 236.892 109.878 236.156C110.183 235.42 110.63 234.751 111.193 234.188C111.756 233.625 112.425 233.178 113.161 232.874C113.897 232.569 114.685 232.412 115.482 232.412H152.129C152.925 232.412 153.714 232.569 154.45 232.874C155.186 233.178 155.855 233.625 156.418 234.188C156.981 234.751 157.428 235.42 157.733 236.156C158.037 236.892 158.194 237.681 158.194 238.477V275.124C158.194 275.921 158.037 276.709 157.733 277.445C157.428 278.181 156.981 278.85 156.418 279.413C155.855 279.976 155.186 280.423 154.45 280.728C153.714 281.032 152.925 281.189 152.129 281.189H115.482C114.685 281.189 113.897 281.032 113.161 280.728C112.425 280.423 111.756 279.976 111.193 279.413C110.63 278.85 110.183 278.181 109.878 277.445C109.574 276.709 109.417 275.921 109.417 275.124ZM121.547 269.059H146.064V244.542H121.547V269.059ZM158.403 323.513V360.16C158.403 360.957 158.246 361.745 157.942 362.481C157.637 363.217 157.19 363.886 156.627 364.449C156.064 365.012 155.395 365.459 154.659 365.764C153.923 366.068 153.134 366.225 152.338 366.225H115.691C114.894 366.225 114.106 366.068 113.37 365.764C112.634 365.459 111.965 365.012 111.402 364.449C110.839 363.886 110.392 363.217 110.087 362.481C109.783 361.745 109.626 360.957 109.626 360.16V323.513C109.626 322.717 109.783 321.928 110.087 321.192C110.392 320.456 110.839 319.787 111.402 319.224C111.965 318.661 112.634 318.214 113.37 317.91C114.106 317.605 114.894 317.448 115.691 317.448H152.338C153.134 317.448 153.923 317.605 154.659 317.91C155.395 318.214 156.064 318.661 156.627 319.224C157.19 319.787 157.637 320.456 157.942 321.192C158.246 321.928 158.403 322.717 158.403 323.513ZM146.273 329.579H121.756V354.096H146.273V329.579ZM158.403 401.883V438.53C158.403 439.327 158.246 440.115 157.942 440.851C157.637 441.587 157.19 442.256 156.627 442.819C156.064 443.382 155.395 443.829 154.659 444.134C153.923 444.438 153.134 444.595 152.338 444.595H115.691C114.894 444.595 114.106 444.438 113.37 444.134C112.634 443.829 111.965 443.382 111.402 442.819C110.839 442.256 110.392 441.587 110.087 440.851C109.783 440.115 109.626 439.327 109.626 438.53V401.883C109.626 401.087 109.783 400.298 110.087 399.562C110.392 398.826 110.839 398.157 111.402 397.594C111.965 397.031 112.634 396.584 113.37 396.28C114.106 395.975 114.894 395.818 115.691 395.818H152.338C153.134 395.818 153.923 395.975 154.659 396.28C155.395 396.584 156.064 397.031 156.627 397.594C157.19 398.157 157.637 398.826 157.942 399.562C158.246 400.298 158.403 401.087 158.403 401.883ZM146.273 407.948H121.756V432.465H146.273V407.948ZM331.177 335.587C364.583 335.587 391.758 362.762 391.758 396.164C391.758 429.57 364.583 456.745 331.177 456.745C297.771 456.745 270.596 429.57 270.596 396.164C270.596 362.762 297.771 335.587 331.177 335.587ZM331.177 347.717C304.462 347.717 282.726 369.448 282.726 396.163C282.726 422.879 304.461 444.614 331.177 444.614C357.893 444.614 379.628 422.879 379.628 396.163C379.628 369.448 357.893 347.717 331.177 347.717ZM446.81 50.6111L435.748 61.9491C441.283 71.5171 439.294 82.7661 432.125 89.9361L388.124 133.937C387.561 134.5 386.892 134.947 386.156 135.252C385.421 135.557 384.632 135.714 383.836 135.714C383.039 135.714 382.25 135.557 381.515 135.252C380.779 134.947 380.11 134.5 379.547 133.937C378.984 133.374 378.537 132.705 378.232 131.97C377.927 131.234 377.77 130.445 377.77 129.649C377.77 128.852 377.927 128.063 378.232 127.328C378.537 126.592 378.984 125.923 379.547 125.36L423.548 81.3591C424.841 80.0685 425.796 78.4782 426.326 76.7297C426.856 74.9812 426.946 73.1287 426.587 71.3371L367.155 132.248V315.322C370.536 316.832 373.848 318.51 377.039 320.453L388.08 309.408C390.354 307.143 394.382 307.134 396.657 309.408L418.416 331.167C418.979 331.73 419.426 332.399 419.731 333.135C420.036 333.87 420.193 334.659 420.193 335.456C420.193 336.252 420.036 337.041 419.731 337.777C419.426 338.512 418.979 339.181 418.416 339.744L407.257 350.903C411.776 358.459 415.127 366.654 417.198 375.211H433.115C433.911 375.211 434.7 375.368 435.436 375.673C436.172 375.977 436.841 376.424 437.404 376.987C437.967 377.55 438.414 378.219 438.719 378.955C439.023 379.691 439.18 380.48 439.18 381.276V412.043C439.18 412.84 439.023 413.628 438.719 414.364C438.414 415.1 437.967 415.769 437.404 416.332C436.841 416.895 436.172 417.342 435.436 417.647C434.7 417.951 433.911 418.108 433.115 418.108H416.957C414.817 426.547 411.424 434.618 406.892 442.052L418.421 453.6C418.984 454.163 419.43 454.832 419.734 455.567C420.038 456.303 420.195 457.091 420.194 457.887C420.194 458.683 420.037 459.471 419.731 460.207C419.426 460.942 418.979 461.61 418.416 462.172L396.657 483.926C396.094 484.489 395.425 484.936 394.689 485.241C393.954 485.546 393.165 485.703 392.368 485.703C391.572 485.703 390.783 485.546 390.048 485.241C389.312 484.936 388.643 484.489 388.08 483.926L376.423 472.269C369.011 476.686 360.99 479.987 352.617 482.068V498.61C352.617 499.407 352.46 500.195 352.156 500.931C351.851 501.667 351.404 502.336 350.841 502.899C350.278 503.462 349.609 503.909 348.873 504.214C348.137 504.518 347.349 504.675 346.552 504.675H315.78C314.983 504.675 314.195 504.518 313.459 504.214C312.723 503.909 312.054 503.462 311.491 502.899C310.928 502.336 310.481 501.667 310.176 500.931C309.872 500.195 309.715 499.407 309.715 498.61V497.62H80.351C67.993 497.62 57.938 487.565 57.938 475.202V92.6691C57.938 80.3061 67.993 70.2511 80.351 70.2511H139.981C142.609 59.0281 152.643 50.6241 164.657 50.6241H189.594C190.424 37.3141 201.407 26.7091 214.918 26.7091C228.434 26.7091 239.417 37.3141 240.247 50.6241H265.184C277.198 50.6241 287.233 59.0281 289.86 70.2511H344.742C348.161 70.2511 351.348 71.1081 354.239 72.4961L410.327 15.0101C420.32 4.76712 436.465 4.90812 446.368 14.5691C456.456 24.4111 456.644 40.5421 446.81 50.6111ZM201.566 52.1981C201.566 59.5621 207.555 65.5511 214.919 65.5511C222.283 65.5511 228.277 59.5621 228.277 52.1981C228.277 44.8341 222.283 38.8401 214.919 38.8401C207.555 38.8401 201.566 44.8341 201.566 52.1981ZM151.39 80.3401C151.39 87.6561 157.342 93.6081 164.658 93.6081H265.185C272.501 93.6081 278.453 87.6561 278.453 80.3401V76.0231C278.453 68.7071 272.501 62.7551 265.185 62.7551H238.049C234.021 71.5351 225.197 77.6811 214.919 77.6811C204.645 77.6811 195.822 71.5351 191.794 62.7551H164.658C157.342 62.7551 151.39 68.7071 151.39 76.0231V80.3401ZM268.866 485.489C267.703 485.273 266.573 484.826 265.673 483.925L250.846 469.098H103.589C92.937 469.098 84.27 460.431 84.27 449.779V139.67C84.27 129.018 92.937 120.351 103.589 120.351H307.55L344.596 82.3821H290.377C289.317 95.4211 278.493 105.738 265.185 105.738H164.658C151.351 105.738 140.526 95.4211 139.466 82.3821H80.351C74.679 82.3821 70.069 86.9971 70.069 92.6691V475.201C70.069 480.873 74.68 485.488 80.351 485.488H268.866V485.489ZM295.714 132.482H103.589C99.628 132.482 96.401 135.709 96.401 139.67V449.779C96.401 453.74 99.628 456.967 103.589 456.967H242.32C242.51 455.738 242.972 454.54 243.919 453.593L255.443 442.064C252.388 437.039 249.913 431.751 247.935 426.271H179.248C177.639 426.271 176.097 425.632 174.959 424.495C173.822 423.357 173.183 421.815 173.183 420.206C173.183 418.598 173.822 417.055 174.959 415.918C176.097 414.78 177.639 414.141 179.248 414.141H223.593C223.348 413.482 223.169 412.786 223.169 412.042V381.275C223.169 380.479 223.326 379.69 223.63 378.954C223.935 378.218 224.382 377.549 224.945 376.986C225.508 376.423 226.177 375.976 226.913 375.672C227.649 375.367 228.437 375.21 229.234 375.21H245.136C247.204 366.651 250.552 358.452 255.068 350.892L252.078 347.902H182.678C181.069 347.902 179.527 347.263 178.389 346.126C177.252 344.988 176.613 343.446 176.613 341.837C176.613 340.229 177.252 338.686 178.389 337.549C179.527 336.411 181.069 335.772 182.678 335.772H242.203C242.115 334.114 242.651 332.433 243.918 331.166L265.672 309.407C267.946 307.142 271.974 307.133 274.249 309.407L285.275 320.433C292.856 315.811 301.098 312.374 309.716 310.241V294.727C309.716 293.931 309.873 293.142 310.177 292.406C310.482 291.67 310.929 291.001 311.492 290.438C312.055 289.875 312.724 289.428 313.46 289.124C314.196 288.819 314.985 288.662 315.781 288.662H325.111V175.338L289.762 211.567C287.857 213.524 287.359 212.761 246.386 227.299C245.322 227.669 244.176 227.735 243.076 227.49C241.977 227.245 240.967 226.698 240.161 225.912C239.355 225.125 238.783 224.129 238.511 223.036C238.239 221.943 238.277 220.796 238.62 219.723C250.473 184.259 250.928 178.397 253.281 175.973L295.714 132.482ZM253.869 211.861L274.164 204.82L260.409 191.401L253.869 211.861ZM309.717 482.067C301.338 479.997 293.312 476.697 285.901 472.273L274.249 483.925C273.349 484.825 272.219 485.273 271.056 485.489H309.717V482.067ZM345.421 321.082C344.034 320.82 342.781 320.081 341.881 318.993C340.98 317.906 340.487 316.538 340.488 315.126V300.792H321.847V315.126C321.848 316.54 321.354 317.91 320.452 318.998C319.549 320.087 318.295 320.826 316.905 321.087C306.461 323.049 296.7 327.124 287.896 333.184C286.73 333.992 285.317 334.363 283.904 334.234C282.491 334.105 281.169 333.484 280.168 332.478L269.961 322.271L256.783 335.453L267.08 345.75C268.076 346.746 268.694 348.056 268.829 349.458C268.964 350.859 268.607 352.264 267.819 353.431C261.886 362.226 257.911 371.958 256.011 382.364C255.756 383.76 255.019 385.023 253.929 385.932C252.839 386.841 251.464 387.339 250.045 387.339H235.299V405.975H250.23C251.638 405.975 253.002 406.465 254.088 407.36C255.174 408.256 255.914 409.502 256.182 410.884C258.182 421.162 262.224 430.771 268.194 439.443C268.998 440.611 269.368 442.023 269.239 443.435C269.11 444.847 268.491 446.169 267.488 447.171L256.784 457.88L269.962 471.058L280.761 460.259C282.813 458.198 286.044 457.904 288.442 459.52C297.026 465.333 306.715 469.317 316.906 471.224C318.295 471.486 319.549 472.225 320.452 473.314C321.354 474.402 321.848 475.771 321.848 477.185V492.542H340.489V477.185C340.49 475.772 340.983 474.404 341.885 473.316C342.786 472.227 344.039 471.488 345.427 471.224C355.629 469.295 365.21 465.358 373.9 459.515C375.066 458.73 376.47 458.374 377.87 458.51C379.269 458.646 380.578 459.264 381.572 460.259L392.371 471.058L405.553 457.876L394.844 447.148C393.843 446.145 393.225 444.822 393.097 443.411C392.969 441.999 393.339 440.587 394.143 439.42C400.079 430.841 404.17 421.122 406.155 410.88C406.423 409.499 407.164 408.254 408.25 407.359C409.336 406.464 410.7 405.975 412.107 405.976H427.052V387.34H412.292C410.873 387.34 409.498 386.842 408.408 385.933C407.318 385.024 406.581 383.761 406.326 382.365C404.431 371.988 400.455 362.26 394.518 353.451C393.841 352.449 393.48 351.267 393.48 350.058C393.48 348.452 394.12 346.888 395.257 345.751L405.554 335.454L392.372 322.272L382.151 332.498C381.15 333.504 379.828 334.126 378.415 334.255C377.002 334.384 375.589 334.012 374.423 333.204C365.626 327.148 355.87 323.073 345.421 321.082ZM352.619 294.727V310.25C353.432 310.453 354.221 310.723 355.026 310.948V144.68L337.242 162.906V288.662H346.553C347.35 288.662 348.138 288.819 348.874 289.124C349.61 289.428 350.279 289.875 350.842 290.438C351.406 291.001 351.852 291.67 352.157 292.406C352.462 293.142 352.619 293.931 352.619 294.727ZM419.261 61.4761L400.142 42.8211L266.2 180.102L285.319 198.754L419.261 61.4761ZM437.897 23.2511C432.762 18.2401 424.29 18.0721 419.009 23.4831L408.614 34.1401L427.733 52.7951L438.129 42.1381C443.287 36.8531 443.177 28.4031 437.897 23.2511Z" fill="url(#paint0_linear_681_8414)"/>
<defs>
<linearGradient id="paint0_linear_681_8414" x1="42.213" y1="468.749" x2="471.382" y2="39.5791" gradientUnits="userSpaceOnUse">
<stop stop-color="#7285BF"/>
<stop offset="1" stop-color="#0007FB"/>
</linearGradient>
</defs>
</svg>
