<svg width="102" height="101" viewBox="0 0 102 101" fill="none" xmlns="http://www.w3.org/2000/svg">
<g filter="url(#filter0_d_374_8739)">
<path d="M64.7681 5.95389C70.415 5.95389 75.3005 9.31663 77.4577 14.5194C79.5515 19.5952 78.346 25.4959 74.4122 29.3662C73.968 29.8103 73.9046 30.0641 74.2853 30.5717C74.5391 30.8889 74.7294 31.2696 74.8563 31.5869C75.3639 32.6655 75.8715 33.4903 77.3942 33.3634C78.7901 33.2365 79.9322 34.1248 80.6301 35.3937C82.5335 38.6296 84.437 41.9289 86.277 45.2282C87.4825 47.3854 86.848 49.733 84.7542 51.0019C83.8025 51.573 82.8508 52.144 81.8356 52.715C79.7418 53.8571 77.3943 53.2226 76.1887 51.1923C74.2219 47.893 72.3184 44.5937 70.415 41.231C69.5267 39.6448 69.6536 38.0586 70.7322 36.5993C70.986 36.282 71.0495 36.0917 70.7957 35.711C70.2881 34.8862 69.7805 33.9979 69.2729 33.1731C69.0826 32.7924 68.8922 32.7289 68.4481 32.8558C64.7681 33.9345 61.2785 33.4269 57.9792 31.6503C57.4716 31.3965 57.2812 31.5234 57.0274 31.9041C55.5681 33.9979 54.0454 36.0282 52.5226 38.122C52.2054 38.5662 52.1419 38.7565 52.5226 39.2641C54.0454 40.9772 54.2992 43.3882 53.2206 45.4185C52.1419 47.4489 50.0482 48.5275 47.6371 48.3371C45.5434 48.1468 43.6399 46.4971 43.0054 44.4034C42.5613 42.8806 42.7517 41.4847 43.513 40.1523C43.7034 39.7717 43.7034 39.5813 43.4496 39.2641C41.7365 37.3606 40.0234 35.4572 38.3737 33.5538C38.0565 33.2365 37.8662 33.2365 37.4855 33.4269C35.7724 34.2517 34.0593 34.1882 32.4096 33.2365C32.0289 33.0462 31.8386 33.1096 31.5213 33.3634C29.5545 35.3303 27.5876 37.3606 25.6207 39.2641C25.3035 39.5813 25.3034 39.7717 25.4938 40.2158C26.5724 42.3096 26.4455 44.3399 25.0497 46.1799C23.7173 48.0199 21.8138 48.7178 19.5931 48.2737C17.309 47.8296 15.7863 46.3702 15.2787 44.0227C14.7711 41.802 15.469 39.8986 17.2456 38.5027C19.0855 37.0434 21.1159 36.9165 23.2097 37.9317C23.7173 38.1855 23.971 38.1855 24.3517 37.8048C26.2552 35.8379 28.1586 33.9344 30.1255 32.031C30.5062 31.6503 30.5062 31.3965 30.2524 30.9524C29.1103 28.8586 29.4276 26.3841 31.0138 24.671C32.6 22.9579 34.9476 22.3869 37.1048 23.1483C39.262 23.9731 40.7213 26.0669 40.6579 28.4145C40.6579 29.4296 40.3406 30.4448 39.7696 31.2696C39.5158 31.5869 39.5158 31.8407 39.7696 32.1579C41.4827 33.9979 43.1323 35.9013 44.782 37.8048C45.0358 38.122 45.2261 38.1855 45.6068 37.9317C47.0027 37.1068 48.462 36.98 49.9213 37.4875C50.3654 37.6144 50.5558 37.4875 50.7461 37.1703C52.3323 35.0131 53.855 32.7924 55.4412 30.6352C55.695 30.2545 55.6316 30.1276 55.3143 29.8103C52.8399 27.5262 51.444 24.7345 50.9364 21.4352C49.8578 14.4559 55.124 7.2863 62.1667 6.14423C63.1819 6.01734 63.9433 5.89044 64.7681 5.95389Z" fill="#2E2E30"/>
<path d="M67.4329 56.4585C67.4329 62.4226 67.4329 68.3867 67.4329 74.3508C67.4329 75.7467 67.2426 75.937 65.8467 75.937C63.4357 75.937 61.0881 75.937 58.6771 75.937C57.535 75.937 57.2178 75.6833 57.2178 74.5412C57.2178 62.4861 57.2178 50.431 57.2178 38.3758C57.2178 37.2338 57.535 36.98 58.6771 36.98C61.0881 36.98 63.4991 36.98 65.9102 36.98C67.1791 36.98 67.4329 37.2338 67.4329 38.5027C67.4329 44.4034 67.4329 50.431 67.4329 56.4585Z" fill="#2E2E30"/>
<path d="M30.125 60.5827C30.125 55.8875 30.125 51.2558 30.125 46.5607C30.125 45.4821 30.3788 45.2283 31.4574 45.2283C33.9953 45.2283 36.5332 45.2283 39.0077 45.2283C40.0229 45.2283 40.2767 45.4821 40.2767 46.4972C40.2767 55.8875 40.2767 65.2144 40.2767 74.6047C40.2767 75.6833 40.0229 75.9371 38.9443 75.9371C36.4698 75.9371 33.9319 75.9371 31.4574 75.9371C30.3788 75.9371 30.125 75.6833 30.125 74.6047C30.125 69.9095 30.125 65.2144 30.125 60.5827Z" fill="#2E2E30"/>
<path d="M53.5384 64.5163C53.5384 67.8791 53.5384 71.2418 53.5384 74.6045C53.5384 75.6832 53.2846 75.937 52.206 75.937C49.7315 75.937 47.1936 75.937 44.7191 75.937C43.6405 75.937 43.3867 75.6831 43.3867 74.5411C43.3867 67.879 43.3867 61.1536 43.3867 54.4915C43.3867 53.286 43.6405 53.0322 44.846 53.0322C47.257 53.0322 49.7315 53.0322 52.1425 53.0322C53.2211 53.0322 53.5384 53.286 53.5384 54.3646C53.5384 57.7274 53.5384 61.1536 53.5384 64.5163Z" fill="#2E2E30"/>
<path d="M25.8743 66.864C25.8743 69.4019 25.8743 71.9398 25.8743 74.4143C25.8743 75.6198 25.6205 75.8736 24.415 75.8736C22.004 75.8736 19.5295 75.8736 17.1185 75.8736C15.9764 75.8736 15.6592 75.6198 15.6592 74.4778C15.6592 69.3385 15.6592 64.1992 15.6592 58.9964C15.6592 57.9178 15.9764 57.6006 17.055 57.6006C19.5295 57.6006 22.004 57.6006 24.4785 57.6006C25.5571 57.6006 25.8743 57.9178 25.8743 58.9964C25.9378 61.6613 25.8743 64.2626 25.8743 66.864Z" fill="#2E2E30"/>
<path d="M79.9318 51.2557C78.9166 51.2557 78.2821 50.875 77.838 50.1771C75.9346 46.8778 73.9677 43.5785 72.1277 40.2157C71.5567 39.1371 71.8739 37.9316 72.8891 37.2337C73.9042 36.5992 74.9194 36.0282 75.9346 35.4571C77.0132 34.8861 78.2822 35.1399 78.9166 36.2185C80.8835 39.5178 82.787 42.8806 84.6904 46.2433C85.2614 47.2585 85.0076 48.4005 84.1194 49.035C82.9773 49.7964 81.8352 50.4943 80.5663 51.0653C80.3125 51.1922 79.9953 51.1922 79.9318 51.2557Z" fill="#83E0FE"/>
<path d="M52.9668 19.5954C53.0302 13.0602 58.2964 7.79405 64.8316 7.8575C71.3032 7.92095 76.506 13.1871 76.506 19.6588C76.506 26.1305 71.1764 31.3967 64.7047 31.3967C58.1695 31.3967 52.9668 26.0671 52.9668 19.5954Z" fill="#83E0FE"/>
<path d="M35.2648 24.6077C37.2317 24.6077 38.8179 26.1939 38.8179 28.1607C38.8179 30.1276 37.1682 31.7773 35.2013 31.7773C33.2345 31.7773 31.6483 30.1276 31.6483 28.2242C31.5848 26.2573 33.2345 24.6077 35.2648 24.6077Z" fill="#83E0FE"/>
<path d="M48.3986 46.2432C46.4317 46.2432 44.7821 44.5936 44.8455 42.6267C44.8455 40.5964 46.4952 39.0102 48.5255 39.0736C50.4924 39.0736 52.0786 40.7233 52.0786 42.6901C52.0152 44.7205 50.4289 46.2432 48.3986 46.2432Z" fill="#83E0FE"/>
<path d="M20.7982 46.2433C18.7679 46.2433 17.2451 44.6571 17.2451 42.6902C17.2451 40.6598 18.8313 39.0736 20.8617 39.1371C22.8285 39.1371 24.4147 40.7233 24.3513 42.7536C24.3513 44.7205 22.7651 46.2433 20.7982 46.2433Z" fill="#83E0FE"/>
<path d="M72.1913 31.1428C72.3817 31.1428 72.4451 31.3332 72.5085 31.5235C72.8892 32.2214 73.2699 32.9194 73.7141 33.5538C74.0947 34.1249 74.0947 34.4421 73.3968 34.6325C73.0796 34.6959 72.8258 35.3938 72.4451 34.7593C71.9375 33.9345 71.4934 33.1097 70.9858 32.2849C70.8589 32.0945 70.7955 31.9042 71.1127 31.7773C71.4934 31.5235 71.8106 31.3332 72.1913 31.1428Z" fill="#CFCFD4"/>
<path d="M65.5294 56.3952C65.5294 61.9786 65.5294 67.562 65.5294 73.1455C65.5294 73.7799 65.4025 74.0337 64.7046 74.0337C63.1184 73.9703 61.4687 73.9703 59.8825 74.0337C59.3749 74.0337 59.1846 73.9703 59.1846 73.3993C59.1846 62.1055 59.1846 50.8752 59.1846 39.5815C59.1846 39.0104 59.3749 38.8835 59.8825 38.8835C61.5321 38.8835 63.1818 38.947 64.768 38.8835C65.4025 38.8835 65.5294 39.0739 65.5294 39.6449C65.4659 45.2283 65.5294 50.8118 65.5294 56.3952Z" fill="#60B6FE"/>
<path d="M32.0928 60.4559C32.0928 56.2683 32.0928 52.0173 32.0928 47.8298C32.0928 47.2587 32.2197 47.1318 32.7907 47.1318C34.4403 47.1953 36.09 47.1953 37.8031 47.1318C38.3107 47.1318 38.4376 47.2587 38.4376 47.7663C38.4376 56.3318 38.4376 64.8338 38.4376 73.3993C38.4376 73.9069 38.3107 74.0338 37.8031 74.0338C36.1534 74.0338 34.5038 73.9703 32.7907 74.0338C32.2197 74.0338 32.0928 73.9069 32.0928 73.3359C32.0928 69.0214 32.0928 64.7704 32.0928 60.4559Z" fill="#FECF64"/>
<path d="M45.29 64.453C45.29 61.5344 45.29 58.6792 45.29 55.7606C45.29 55.0627 45.4804 54.9358 46.1149 54.9358C47.7011 54.9992 49.2873 54.9992 50.8735 54.9358C51.381 54.9358 51.6348 55.0627 51.6348 55.6337C51.6348 61.5344 51.6348 67.435 51.6348 73.3357C51.6348 73.9067 51.4445 73.9702 50.9369 73.9702C49.2873 73.9702 47.6376 73.9067 46.0514 73.9702C45.4169 73.9702 45.29 73.7798 45.29 73.2088C45.29 70.2902 45.29 67.3716 45.29 64.453Z" fill="#00D991"/>
<path d="M17.626 66.6736C17.626 64.5798 17.626 62.4225 17.626 60.3288C17.626 59.6943 17.8163 59.5674 18.3874 59.5674C20.037 59.6308 21.6866 59.5674 23.2728 59.5674C23.7804 59.5674 23.9708 59.6308 23.9708 60.2019C23.9708 64.5798 23.9708 68.9577 23.9708 73.3356C23.9708 73.8432 23.7804 73.9701 23.3363 73.9701C21.6232 73.9701 19.9736 73.9066 18.2605 73.9701C17.6894 73.9701 17.626 73.7797 17.626 73.2721C17.626 71.0515 17.626 68.8942 17.626 66.6736Z" fill="#2790B7"/>
<path d="M81.6458 66.864C81.6458 69.4019 81.6458 71.9398 81.6458 74.4143C81.6458 75.6198 81.392 75.8736 80.1865 75.8736C77.7755 75.8736 75.301 75.8736 72.89 75.8736C71.7479 75.8736 71.4307 75.6198 71.4307 74.4778C71.4307 69.3385 71.4307 64.1992 71.4307 58.9964C71.4307 57.9178 71.7479 57.6006 72.8265 57.6006C75.301 57.6006 77.7755 57.6006 80.2499 57.6006C81.3285 57.6006 81.6458 57.9178 81.6458 58.9964C81.6458 61.6613 81.6458 64.2626 81.6458 66.864Z" fill="#2E2E30"/>
<path d="M73.334 66.6736C73.334 64.5798 73.334 62.4225 73.334 60.3288C73.334 59.6943 73.5243 59.5674 74.0953 59.5674C75.745 59.6308 77.3947 59.5674 78.9809 59.5674C79.4884 59.5674 79.6788 59.6308 79.6788 60.2019C79.6788 64.5798 79.6788 68.9577 79.6788 73.3356C79.6788 73.8432 79.4884 73.9701 79.0443 73.9701C77.3312 73.9701 75.6816 73.9066 73.9685 73.9701C73.3974 73.9701 73.334 73.7797 73.334 73.2721C73.334 71.0515 73.334 68.8942 73.334 66.6736Z" fill="#2790B7"/>
<path d="M64.7678 29.8738C59.121 29.8738 54.4893 25.3056 54.4893 19.7221C54.4893 14.0118 59.0575 9.38013 64.7044 9.38013C70.3513 9.38013 74.9195 13.9484 74.9195 19.5952C74.983 25.2421 70.4147 29.8104 64.7678 29.8738Z" fill="#2E2E30"/>
<path d="M64.7051 27.9069C60.0734 27.8435 56.3934 24.1 56.4569 19.5318C56.5203 14.9635 60.3272 11.2836 64.832 11.347C69.4637 11.4104 73.0802 15.1539 73.0168 19.7856C72.9533 24.2904 69.2099 27.9704 64.7051 27.9069Z" fill="#FECF64"/>
<path d="M64.7682 12.6792C65.4027 12.7426 65.72 13.1868 65.72 13.7578C65.6565 14.3288 65.9103 14.5192 66.3544 14.773C67.3062 15.2171 67.7503 16.0419 67.9406 17.0571C68.0675 17.6916 67.8772 18.1992 67.1792 18.3261C66.4813 18.453 66.1641 18.0723 66.0372 17.4378C65.8468 16.4226 64.9586 15.9785 64.1338 16.4226C63.3089 16.8668 63.2455 17.755 64.0068 18.2626C64.5144 18.5799 65.022 18.6433 65.593 18.8337C67.433 19.5316 68.3213 20.9274 67.8772 22.5136C67.6234 23.4019 67.1158 24.0364 66.291 24.4171C65.9103 24.6074 65.72 24.7978 65.72 25.2419C65.7834 25.9398 65.4662 26.4474 64.7682 26.4474C64.0069 26.4474 63.7531 25.9398 63.8165 25.2419C63.88 24.7978 63.6262 24.6074 63.2455 24.4171C62.2303 23.9095 61.6593 23.0212 61.5324 21.8792C61.4689 21.2447 61.7862 20.8005 62.4206 20.7371C62.9917 20.6736 63.3089 21.0543 63.4993 21.6254C63.7531 22.6405 64.451 23.0847 65.2758 22.7674C65.7199 22.5771 65.9737 22.2598 66.0372 21.8157C66.1006 21.3716 65.8468 21.0543 65.4661 20.864C64.8951 20.6102 64.3241 20.4199 63.7531 20.1661C61.9131 19.4047 61.1517 17.8819 61.7862 16.2957C62.04 15.5978 62.4841 15.0268 63.1186 14.773C63.6896 14.5192 63.9434 14.2019 63.8799 13.5675C63.753 13.0599 64.1338 12.7426 64.7682 12.6792Z" fill="#2E2E30"/>
</g>
<defs>
<filter id="filter0_d_374_8739" x="0.117188" y="0.937012" width="101.767" height="100" filterUnits="userSpaceOnUse" color-interpolation-filters="sRGB">
<feFlood flood-opacity="0" result="BackgroundImageFix"/>
<feColorMatrix in="SourceAlpha" type="matrix" values="0 0 0 0 0 0 0 0 0 0 0 0 0 0 0 0 0 0 127 0" result="hardAlpha"/>
<feOffset dy="10"/>
<feGaussianBlur stdDeviation="7.5"/>
<feComposite in2="hardAlpha" operator="out"/>
<feColorMatrix type="matrix" values="0 0 0 0 0.513726 0 0 0 0 0.878431 0 0 0 0 0.996078 0 0 0 0.18 0"/>
<feBlend mode="normal" in2="BackgroundImageFix" result="effect1_dropShadow_374_8739"/>
<feBlend mode="normal" in="SourceGraphic" in2="effect1_dropShadow_374_8739" result="shape"/>
</filter>
</defs>
</svg>
