<svg width="203" height="189" viewBox="0 0 203 189" fill="none" xmlns="http://www.w3.org/2000/svg">
<path d="M182.582 69.375H181.722C180.461 69.3646 179.233 68.9995 178.198 68.3273C177.162 67.655 176.368 66.7069 175.917 65.6062C175.442 64.5435 175.317 63.3727 175.556 62.243C175.795 61.1133 176.389 60.0757 177.261 59.2622L177.872 58.6906C181.558 55.2318 183.627 50.5486 183.627 45.6664C183.627 40.7843 181.558 36.1011 177.872 32.6422L167.72 23.1576C164.023 19.7093 159.014 17.7727 153.792 17.7727C148.57 17.7727 143.561 19.7093 139.864 23.1576L139.253 23.7292C138.352 24.5401 137.217 25.0877 135.989 25.3045C134.76 25.5214 133.49 25.3982 132.335 24.95C131.18 24.5018 130.19 23.7481 129.486 22.7814C128.783 21.8147 128.397 20.6771 128.375 19.5082V18.6979C128.37 13.815 126.292 9.13357 122.599 5.68086C118.906 2.22816 113.899 0.286238 108.676 0.28125H94.3244C89.1014 0.286238 84.0939 2.22816 80.4007 5.68086C76.7075 9.13357 74.6303 13.815 74.625 18.6979V19.5082C74.5923 20.6687 74.2003 21.7956 73.4967 22.7522C72.7931 23.7088 71.8079 24.4543 70.6604 24.8983C69.513 25.3423 68.2525 25.4657 67.0315 25.2538C65.8105 25.0418 64.6814 24.5035 63.7809 23.704L63.2031 23.1324C59.5063 19.6842 54.4973 17.7476 49.2752 17.7476C44.053 17.7476 39.044 19.6842 35.3472 23.1324L25.1616 32.6171C21.476 36.0759 19.4066 40.7591 19.4066 45.6413C19.4066 50.5234 21.476 55.2067 25.1616 58.6655L25.773 59.2371C26.6535 60.0793 27.2428 61.1495 27.4645 62.3088C27.6861 63.4681 27.5299 64.6629 27.0159 65.7382C26.5549 66.8091 25.7627 67.7272 24.7406 68.375C23.7185 69.0229 22.513 69.371 21.2781 69.375H20.4181C15.1952 69.38 10.1877 71.3219 6.49446 74.7746C2.80126 78.2273 0.724086 82.9088 0.71875 87.7916V101.208C0.724086 106.091 2.80126 110.773 6.49446 114.225C10.1877 117.678 15.1952 119.62 20.4181 119.625H21.2781C22.5387 119.635 23.7667 120.001 24.8021 120.673C25.8375 121.345 26.6324 122.293 27.0831 123.394C27.5577 124.457 27.6833 125.627 27.444 126.757C27.2047 127.887 26.6113 128.924 25.7394 129.738L25.128 130.309C21.4424 133.768 19.373 138.451 19.373 143.334C19.373 148.216 21.4424 152.899 25.128 156.358L35.2733 165.836C38.9695 169.288 43.9802 171.227 49.2046 171.227C54.429 171.227 59.4397 169.288 63.1359 165.836L63.7473 165.265C64.6487 164.442 65.7934 163.892 67.0333 163.684C68.2731 163.477 69.551 163.623 70.7013 164.103C71.8468 164.532 72.8291 165.271 73.5222 166.226C74.2153 167.18 74.5876 168.307 74.5914 169.46V170.271C74.5896 172.694 75.0988 175.093 76.0899 177.332C77.0809 179.571 78.5344 181.606 80.3671 183.319C82.1998 185.033 84.3759 186.391 86.7708 187.318C89.1657 188.244 91.7325 188.72 94.3244 188.719H108.676C113.899 188.714 118.906 186.772 122.599 183.319C126.292 179.866 128.37 175.185 128.375 170.302V169.492C128.408 168.331 128.8 167.204 129.503 166.248C130.207 165.291 131.192 164.546 132.34 164.102C133.487 163.658 134.748 163.534 135.969 163.746C137.19 163.958 138.319 164.496 139.219 165.296L139.83 165.868C143.527 169.316 148.536 171.252 153.758 171.252C158.981 171.252 163.99 169.316 167.686 165.868L177.838 156.389C181.524 152.93 183.593 148.247 183.593 143.365C183.593 138.483 181.524 133.8 177.838 130.341L177.227 129.769C176.347 128.927 175.757 127.857 175.536 126.697C175.314 125.538 175.47 124.343 175.984 123.268C176.444 122.196 177.236 121.277 178.258 120.628C179.28 119.979 180.486 119.629 181.722 119.625H182.582C187.805 119.62 192.812 117.678 196.506 114.225C200.199 110.773 202.276 106.091 202.281 101.208V87.7916C202.276 82.9088 200.199 78.2273 196.506 74.7746C192.812 71.3219 187.805 69.38 182.582 69.375ZM188.844 101.208C188.842 102.76 188.182 104.249 187.008 105.346C185.834 106.444 184.242 107.061 182.582 107.062H181.722C177.823 107.094 174.02 108.197 170.787 110.235C167.554 112.273 165.035 115.155 163.542 118.523C162.05 121.89 161.651 125.594 162.395 129.172C163.139 132.751 164.994 136.045 167.727 138.645L168.331 139.216C169.504 140.316 170.163 141.806 170.163 143.359C170.163 144.912 169.504 146.401 168.331 147.501L158.179 156.98C157.005 158.077 155.412 158.694 153.752 158.694C152.091 158.694 150.498 158.077 149.324 156.98L148.719 156.408C145.937 153.856 142.414 152.125 138.588 151.431C134.761 150.737 130.801 151.111 127.2 152.505C123.599 153.9 120.517 156.254 118.336 159.274C116.156 162.295 114.974 165.848 114.938 169.492V170.302C114.936 171.854 114.275 173.342 113.101 174.44C111.928 175.537 110.336 176.155 108.676 176.156H94.3244C92.6642 176.155 91.0725 175.537 89.8985 174.44C88.7246 173.342 88.0643 171.854 88.0625 170.302V169.492C88.0436 165.841 86.8718 162.276 84.694 159.245C82.5162 156.215 79.4295 153.852 75.8211 152.456C72.2128 151.059 68.2435 150.689 64.4114 151.394C60.5792 152.098 57.0549 153.844 54.2806 156.414L53.6692 156.986C52.4932 158.081 50.9012 158.695 49.2416 158.695C47.582 158.695 45.99 158.081 44.8139 156.986L34.6686 147.507C33.4956 146.408 32.8369 144.918 32.8369 143.365C32.8369 141.812 33.4956 140.322 34.6686 139.223L35.28 138.651C38.0158 136.051 39.8722 132.756 40.6173 129.176C41.3624 125.596 40.9634 121.89 39.47 118.521C37.9766 115.152 35.4549 112.269 32.2197 110.231C28.9845 108.193 25.179 107.091 21.2781 107.062H20.4181C18.7579 107.061 17.1662 106.444 15.9923 105.346C14.8183 104.249 14.158 102.76 14.1562 101.208V87.7916C14.158 86.2395 14.8183 84.7515 15.9923 83.654C17.1662 82.5565 18.7579 81.9392 20.4181 81.9375H21.2781C25.1771 81.9065 28.98 80.8032 32.2128 78.7653C35.4456 76.7273 37.9652 73.8448 39.4575 70.4772C40.9498 67.1096 41.3488 63.4057 40.6048 59.8275C39.8607 56.2493 38.0065 52.955 35.2733 50.3554L34.6686 49.7838C33.496 48.6851 32.8375 47.1965 32.8375 45.6444C32.8375 44.0924 33.496 42.6038 34.6686 41.5051L44.8139 32.0141C45.9882 30.9164 47.5809 30.2996 49.2416 30.2996C50.9022 30.2996 52.4949 30.9164 53.6692 32.0141L54.2739 32.5857C57.0551 35.1397 60.5786 36.8723 64.4055 37.5677C68.2324 38.263 72.1935 37.8905 75.7956 36.4963C79.3976 35.1022 82.4813 32.7481 84.6625 29.7274C86.8438 26.7066 88.0262 23.1526 88.0625 19.5082V18.6979C88.0643 17.1458 88.7246 15.6577 89.8985 14.5602C91.0725 13.4627 92.6642 12.8454 94.3244 12.8438H108.676C110.336 12.8454 111.928 13.4627 113.101 14.5602C114.275 15.6577 114.936 17.1458 114.938 18.6979V19.5082C114.972 23.1527 116.153 26.7071 118.333 29.7285C120.514 32.7498 123.597 35.1044 127.199 36.4988C130.801 37.8931 134.762 38.2656 138.589 37.5698C142.416 36.874 145.939 35.1406 148.719 32.5857L149.331 32.0141C150.505 30.9164 152.098 30.2996 153.758 30.2996C155.419 30.2996 157.012 30.9164 158.186 32.0141L168.331 41.5051C169.504 42.6038 170.163 44.0924 170.163 45.6444C170.163 47.1965 169.504 48.6851 168.331 49.7838L167.72 50.3554C164.986 52.9554 163.132 56.2503 162.388 59.8291C161.644 63.4079 162.044 67.1122 163.537 70.4801C165.03 73.8479 167.551 76.7304 170.785 78.7678C174.019 80.8053 177.822 81.9077 181.722 81.9375H182.582C184.242 81.9392 185.834 82.5565 187.008 83.654C188.182 84.7515 188.842 86.2395 188.844 87.7916V101.208Z" fill="black"/>
<path d="M101.5 50.5313C92.1981 50.5313 83.1051 53.11 75.3709 57.9413C67.6366 62.7727 61.6085 69.6396 58.0488 77.6739C54.4891 85.7081 53.5578 94.5488 55.3725 103.078C57.1872 111.607 61.6665 119.441 68.2439 125.591C74.8213 131.74 83.2015 135.927 92.3247 137.624C101.448 139.32 110.904 138.45 119.498 135.122C128.092 131.794 135.437 126.158 140.605 118.928C145.773 111.697 148.531 103.196 148.531 94.5C148.517 82.8428 143.557 71.6669 134.74 63.4241C125.923 55.1812 113.969 50.5445 101.5 50.5313ZM101.5 125.906C94.8558 125.906 88.3608 124.064 82.8363 120.613C77.3119 117.162 73.0061 112.257 70.4634 106.519C67.9208 100.78 67.2555 94.4652 68.5518 88.3729C69.848 82.2807 73.0475 76.6847 77.7456 72.2924C82.4438 67.9002 88.4297 64.909 94.9462 63.6972C101.463 62.4854 108.217 63.1073 114.356 65.4844C120.494 67.8615 125.741 71.8869 129.432 77.0516C133.124 82.2164 135.094 88.2884 135.094 94.5C135.083 102.826 131.54 110.809 125.243 116.697C118.945 122.584 110.406 125.896 101.5 125.906Z" fill="black"/>
</svg>
