<svg width="113" height="110" viewBox="0 0 113 110" fill="none" xmlns="http://www.w3.org/2000/svg">
<path d="M84.1893 94.4497C80.9323 94.4497 78.2744 97.9435 78.2744 102.225C78.2744 106.506 80.9323 110 84.1893 110C87.4595 110 90.1043 106.506 90.1043 102.225C90.1043 97.9263 87.4595 94.4497 84.1893 94.4497Z" fill="#2575FC"/>
<path d="M49.7289 94.4497C46.4588 94.4497 43.814 97.9435 43.814 102.225C43.814 106.506 46.4718 110 49.7289 110C52.9861 110 55.6438 106.506 55.6438 102.225C55.6438 97.9263 52.9861 94.4497 49.7289 94.4497Z" fill="#2575FC"/>
<path d="M112.091 63.9823C112.091 48.8431 102.465 36.5297 90.6302 36.5297H57.1743C53.2651 36.5297 50.0923 32.4707 50.0923 27.4699C50.0923 22.4692 53.2651 18.4104 57.1743 18.4104H104.353C108.329 18.4104 111.542 14.3001 111.542 9.21375C111.542 4.12735 108.329 0.0170898 104.353 0.0170898H57.1743C45.3395 0.0170898 35.7137 12.3306 35.7137 27.4699C35.7137 42.6093 45.3395 54.9228 57.1743 54.9228H90.6302C94.5396 54.9228 97.7125 58.9816 97.7125 63.9823C97.7125 68.9831 94.5396 73.0421 90.6302 73.0421H38.5654C36.7981 73.0421 35.3522 72.8536 34.1742 72.4768C35.8743 80.4918 39.5293 91.4352 46.5578 91.4352H90.6437C102.452 91.4352 112.091 79.1217 112.091 63.9823Z" fill="#2575FC"/>
<path d="M29.223 67.2534L29.0796 65.8149C28.9624 65.2496 28.8582 64.6503 28.7799 63.9996L23.1516 8.61433L0 0V12.4848L9.79738 16.1326L14.2271 59.7352L14.9306 66.6368L14.9697 66.9966C16.1814 76.1246 20.8326 91.4353 38.4471 91.4353H42.1862C33.6395 91.4353 30.2001 74.3435 29.223 67.2534Z" fill="#2575FC"/>
</svg>
