<svg width="500" height="498" viewBox="0 0 500 498" fill="none" xmlns="http://www.w3.org/2000/svg">
<path d="M19.27 99.4922H49.587V457.916H19.27V99.4922Z" fill="#3D4A75"/>
<path fill-rule="evenodd" clip-rule="evenodd" d="M19.27 99.4926L250.004 5.85156L480.739 99.4926V122.238H19.27V99.4926Z" fill="#3D4A75"/>
<path d="M450.421 99.4922H480.738V457.916H450.421V99.4922Z" fill="#3D4A75"/>
<path d="M12.5664 99.4922H487.444C489.449 99.4932 491.371 100.29 492.789 101.708C494.206 103.125 495.003 105.047 495.004 107.052V184.687C495.003 186.692 494.206 188.615 492.788 190.033C491.37 191.451 489.448 192.248 487.442 192.249H12.5654C10.5607 192.248 8.63836 191.451 7.22081 190.034C5.80327 188.616 5.00643 186.694 5.00537 184.689V107.054C5.00617 105.049 5.80313 103.126 7.22111 101.708C8.63909 100.29 10.561 99.493 12.5664 99.4922Z" fill="#525D91"/>
<path fill-rule="evenodd" clip-rule="evenodd" d="M487.444 99.4922H23.0044V169.256C23.0044 173.415 26.4084 176.818 30.5644 176.818H495.004V107.054C495.004 102.895 491.601 99.4922 487.444 99.4922Z" fill="#5D689E"/>
<path d="M182.592 133.772H317.416V157.969H182.592V133.772Z" fill="#F0F0FF"/>
<path d="M77.0161 380.383H154.549V457.916H77.0161V380.383Z" fill="#FDD7AD"/>
<path fill-rule="evenodd" clip-rule="evenodd" d="M104.447 380.383H127.117V405.605L115.782 399.917L104.447 405.605V380.383Z" fill="#5CAEFF"/>
<path d="M77.0161 302.85H154.549V380.383H77.0161V302.85Z" fill="#DEA368"/>
<path fill-rule="evenodd" clip-rule="evenodd" d="M104.447 302.85H127.117V328.072L115.782 322.383L104.447 328.072V302.85Z" fill="#FB545C"/>
<path d="M154.549 225.317H232.082V302.85H154.549V225.317Z" fill="#AB733A"/>
<path fill-rule="evenodd" clip-rule="evenodd" d="M181.981 225.317H204.65V250.538L193.316 244.85L181.981 250.538V225.317Z" fill="#FDC72E"/>
<path d="M154.549 380.383H232.082V457.916H154.549V380.383Z" fill="#E6B17C"/>
<path fill-rule="evenodd" clip-rule="evenodd" d="M181.981 380.383H204.65V405.605L193.316 399.917L181.981 405.605V380.383Z" fill="#FB545C"/>
<path d="M154.549 302.85H232.082V380.383H154.549V302.85Z" fill="#BA8047"/>
<path fill-rule="evenodd" clip-rule="evenodd" d="M181.981 302.85H204.65V328.072L193.316 322.383L181.981 328.072V302.85Z" fill="#2DD62D"/>
<path d="M302.485 366.757H380.018V444.29H302.485V366.757Z" fill="#E6B17C"/>
<path fill-rule="evenodd" clip-rule="evenodd" d="M329.917 366.757H352.586V391.979L341.252 386.29L329.917 391.979V366.757Z" fill="#F0414A"/>
<path fill-rule="evenodd" clip-rule="evenodd" d="M341.252 366.757H352.586V391.979L341.252 386.29V366.757Z" fill="#FB545C"/>
<path fill-rule="evenodd" clip-rule="evenodd" d="M341.196 338.45C346.101 335.465 351.063 332.571 355.959 329.573C371.217 320.227 390.109 308.282 390.109 288.148V239.55L341.252 223.096L292.395 239.55V288.148C292.395 293.913 293.763 299.092 296.707 304.05C304.795 317.668 325.464 329.035 341.196 338.45Z" fill="#29B933"/>
<path fill-rule="evenodd" clip-rule="evenodd" d="M341.252 338.416C346.139 335.443 351.082 332.56 355.959 329.573C371.217 320.227 390.109 308.282 390.109 288.148V239.55L341.252 223.096V338.417V338.416Z" fill="#2DD62D"/>
<path d="M154.549 225.317H162.911V302.85H154.549V225.317Z" fill="#96602A"/>
<path d="M154.549 302.85H162.911V380.383H154.549V302.85Z" fill="#AB733A"/>
<path d="M154.549 380.383H162.911V457.916H154.549V380.383Z" fill="#DEA368"/>
<path d="M77.0161 302.85H85.3781V380.383H77.0161V302.85Z" fill="#D19458"/>
<path d="M77.0161 380.383H85.3781V457.916H77.0161V380.383Z" fill="#F2C496"/>
<path fill-rule="evenodd" clip-rule="evenodd" d="M182.592 133.772H175.433V165.128H317.416V157.969H182.592V133.772Z" fill="#3D4A75"/>
<path d="M302.485 366.757H310.847V444.29H302.485V366.757Z" fill="#DEA368"/>
<path fill-rule="evenodd" clip-rule="evenodd" d="M371.505 256.375C372.443 257.313 372.969 258.585 372.969 259.911C372.969 261.237 372.443 262.509 371.505 263.447L331.837 303.149C331.285 303.692 330.616 304.103 329.882 304.348C329.147 304.594 328.366 304.669 327.598 304.568C326.074 304.359 324.693 303.449 323.931 302.097L310.168 278.096C308.835 275.701 309.644 272.648 312.025 271.272C314.453 269.901 317.501 270.729 318.882 273.124L329.359 291.453L364.456 256.375C364.918 255.911 365.467 255.543 366.072 255.292C366.677 255.04 367.325 254.911 367.98 254.911C368.635 254.911 369.283 255.04 369.888 255.292C370.493 255.543 371.042 255.911 371.504 256.375H371.505ZM415.84 453.431C416.38 453.975 416.789 454.634 417.036 455.36C417.284 456.085 417.363 456.857 417.268 457.617L414.602 477.989C414.516 478.641 414.303 479.27 413.974 479.839C413.645 480.408 413.207 480.907 412.685 481.307C412.163 481.707 411.567 482 410.932 482.169C410.296 482.339 409.634 482.381 408.982 482.294C406.268 481.937 404.315 479.427 404.696 476.689L405.458 470.898C388.362 487.675 365.409 497.151 341.265 497.151C290.739 497.151 249.642 456.05 249.642 405.523C249.642 393.713 251.833 382.217 256.214 371.355C257.214 368.793 260.167 367.55 262.69 368.579C263.921 369.075 264.907 370.036 265.433 371.254C265.959 372.472 265.983 373.848 265.5 375.084C261.595 384.761 259.643 394.999 259.643 405.523C259.643 450.535 296.216 487.155 341.265 487.155C362.617 487.167 383.12 478.797 398.363 463.845L392.601 464.602C389.887 464.964 387.363 463.035 386.982 460.297C386.649 457.559 388.554 455.049 391.315 454.687L411.649 452.011C412.41 451.907 413.184 451.981 413.912 452.227C414.639 452.474 415.299 452.885 415.84 453.43V453.431ZM353.361 325.307C366.743 317.097 385.124 305.854 385.124 288.148V243.141L341.265 228.369L297.406 243.141V288.148C297.406 293.106 298.549 297.348 301.025 301.496C307.692 312.773 325.217 323.168 339.312 331.521C339.931 331.893 340.55 332.254 341.169 332.621C342.595 331.762 344.023 330.908 345.455 330.059C348.074 328.483 350.741 326.911 353.36 325.307H353.361ZM377.029 321.178C386.839 313.064 395.125 302.463 395.125 288.148V239.551C395.123 238.501 394.791 237.479 394.176 236.628C393.56 235.778 392.693 235.143 391.696 234.813L342.837 218.355C341.837 218.007 340.694 218.007 339.646 218.355L290.787 234.813C289.801 235.154 288.946 235.793 288.34 236.642C287.734 237.491 287.408 238.508 287.406 239.551V288.148C287.406 294.887 289.025 300.925 292.406 306.601C295.501 311.835 300.121 316.644 305.549 321.116C294.93 325.602 285.31 332.055 277.072 340.16L277.834 334.36C278.167 331.622 276.262 329.112 273.501 328.755C272.852 328.669 272.193 328.712 271.56 328.882C270.928 329.052 270.336 329.346 269.818 329.746C269.3 330.147 268.866 330.645 268.542 331.214C268.218 331.783 268.01 332.41 267.929 333.06L265.214 353.428C265.119 354.189 265.198 354.961 265.445 355.686C265.693 356.411 266.102 357.071 266.643 357.614C267.187 358.156 267.847 358.565 268.573 358.812C269.3 359.059 270.073 359.136 270.834 359.038L291.216 356.362C293.93 356 295.883 353.491 295.502 350.752C295.169 348.014 292.645 346.081 289.883 346.447L284.169 347.204C292.884 338.618 303.455 332.132 315.027 328.199C321.265 332.442 327.932 336.385 334.218 340.128C335.742 341.014 337.218 341.885 338.647 342.742C339.423 343.211 340.313 343.456 341.219 343.451C342.076 343.451 342.981 343.208 343.791 342.723C346.051 341.347 348.321 339.988 350.601 338.647C353.268 337.052 355.934 335.461 358.554 333.837C361.316 332.142 364.364 330.28 367.507 328.213C400.699 339.452 422.89 370.215 422.89 405.526C422.89 416.05 420.89 426.289 417.032 435.966C416.784 436.574 416.658 437.226 416.662 437.883C416.667 438.54 416.801 439.189 417.058 439.794C417.315 440.399 417.689 440.947 418.158 441.406C418.628 441.866 419.184 442.228 419.794 442.471C421.028 442.961 422.405 442.944 423.627 442.425C424.849 441.905 425.816 440.924 426.318 439.695C430.665 428.828 432.896 417.231 432.89 405.527C432.89 385.526 426.556 366.521 414.556 350.573C404.889 337.682 391.793 327.477 377.031 321.181L377.029 321.178ZM307.502 371.756V439.287H375.029V371.756H357.6V391.981C357.595 393.306 357.067 394.575 356.131 395.512C355.194 396.449 353.925 396.977 352.6 396.982C351.823 396.981 351.056 396.799 350.362 396.449L341.266 391.887L332.171 396.449C330.599 397.225 328.79 397.144 327.314 396.235C326.587 395.788 325.987 395.163 325.57 394.418C325.154 393.674 324.934 392.835 324.933 391.982V371.757H307.504L307.502 371.756ZM334.932 371.756V383.875L339.027 381.818C340.408 381.113 342.075 381.113 343.504 381.818L347.599 383.875V371.756H334.932ZM380.029 449.288C381.355 449.288 382.627 448.761 383.565 447.824C384.502 446.886 385.029 445.614 385.029 444.288V366.757C385.029 365.431 384.502 364.159 383.565 363.222C382.627 362.284 381.355 361.757 380.029 361.757H302.502C301.176 361.757 299.904 362.284 298.967 363.222C298.029 364.159 297.502 365.431 297.502 366.757V444.288C297.502 445.614 298.029 446.886 298.967 447.824C299.904 448.761 301.176 449.288 302.502 449.288H380.029ZM312.407 152.966H187.592V138.775H312.407V152.966ZM317.407 128.774H182.593C179.831 128.774 177.593 131.007 177.593 133.774V157.965C177.593 159.291 178.12 160.563 179.058 161.501C179.995 162.438 181.267 162.965 182.593 162.965H317.408C318.734 162.965 320.006 162.438 320.944 161.501C321.881 160.563 322.408 159.291 322.408 157.965V133.774C322.408 131.007 320.169 128.774 317.407 128.774ZM489.986 184.686V107.054C489.986 105.663 488.843 104.492 487.462 104.492H12.5852C11.9052 104.493 11.2532 104.763 10.7715 105.243C10.2897 105.723 10.0171 106.374 10.0132 107.054V184.686C10.0171 185.366 10.2897 186.017 10.7715 186.497C11.2532 186.977 11.9052 187.247 12.5852 187.248H487.462C488.843 187.248 489.986 186.076 489.986 184.686ZM475.747 452.916H455.413V197.248H475.747V452.916ZM44.5862 452.916H24.2532V197.248H44.5872V452.916H44.5862ZM250.024 11.2461L455.128 94.4921H44.8722L250.024 11.2461ZM487.462 94.4921H481.7L251.881 1.21708C250.675 0.727121 249.325 0.727121 248.119 1.21708L18.3002 94.4921H12.5862C5.63316 94.4921 0.0141602 100.126 0.0141602 107.055V184.687C0.0141602 191.616 5.63316 197.25 12.5862 197.25H14.2532V457.916C14.2532 459.242 14.7799 460.514 15.7176 461.452C16.6553 462.389 17.9271 462.916 19.2532 462.916H49.5882C50.9142 462.916 52.186 462.389 53.1237 461.452C54.0614 460.514 54.5882 459.242 54.5882 457.916V197.248H445.413V457.916C445.413 459.242 445.94 460.514 446.878 461.452C447.815 462.389 449.087 462.916 450.413 462.916H480.747C482.073 462.916 483.345 462.389 484.283 461.452C485.22 460.514 485.747 459.242 485.747 457.916V197.248H487.461C494.366 197.248 499.985 191.614 499.985 184.685V107.054C499.985 100.125 494.366 94.4911 487.461 94.4911L487.462 94.4921ZM159.544 452.916V385.38H176.973V405.605C176.973 407.338 177.878 408.948 179.354 409.862C180.83 410.767 182.688 410.852 184.211 410.071L193.307 405.509L202.403 410.071C203.097 410.421 203.864 410.603 204.641 410.604C205.546 410.604 206.498 410.351 207.26 409.861C207.987 409.413 208.586 408.786 209.003 408.042C209.42 407.297 209.639 406.458 209.641 405.604V385.379H227.07V452.915H159.543L159.544 452.916ZM82.0172 385.38H99.4462V405.605C99.4462 407.338 100.351 408.948 101.827 409.862C102.551 410.309 103.378 410.563 104.228 410.599C105.079 410.636 105.924 410.454 106.684 410.071L115.78 405.509L124.876 410.071C125.57 410.421 126.337 410.603 127.114 410.604C128.019 410.604 128.924 410.351 129.733 409.861C130.459 409.413 131.059 408.786 131.476 408.042C131.893 407.297 132.112 406.458 132.114 405.604V385.379H149.543V452.915H82.0172V385.379V385.38ZM109.447 385.38H122.114V397.499L118.019 395.446C117.325 395.096 116.558 394.914 115.781 394.914C115.003 394.914 114.237 395.096 113.542 395.446L109.447 397.499V385.38ZM99.4472 307.848V328.073C99.4484 328.926 99.6678 329.765 100.085 330.509C100.501 331.253 101.102 331.878 101.828 332.325C102.552 332.773 103.378 333.028 104.229 333.065C105.079 333.102 105.925 332.921 106.685 332.539L115.781 327.977L124.877 332.539C125.571 332.889 126.338 333.071 127.115 333.072C128.02 333.072 128.925 332.82 129.734 332.324C130.461 331.877 131.061 331.252 131.478 330.508C131.895 329.764 132.114 328.925 132.115 328.072V307.847H149.544V375.383H82.0172V307.847H99.4462L99.4472 307.848ZM109.447 307.848H122.114V319.968L118.019 317.916C117.325 317.566 116.558 317.384 115.781 317.384C115.003 317.384 114.237 317.566 113.542 317.916L109.447 319.968V307.848ZM186.974 307.848H199.641V319.968L195.546 317.916C194.165 317.207 192.498 317.207 191.069 317.916L186.974 319.968V307.848ZM159.544 375.384V307.848H176.973V328.073C176.974 328.926 177.194 329.765 177.611 330.509C178.027 331.253 178.628 331.878 179.354 332.325C180.83 333.235 182.688 333.316 184.211 332.539L193.307 327.977L202.403 332.539C203.097 332.889 203.864 333.071 204.641 333.072C205.546 333.072 206.498 332.82 207.26 332.324C207.987 331.877 208.587 331.252 209.004 330.508C209.421 329.764 209.64 328.925 209.641 328.072V307.847H227.07V375.383H159.543L159.544 375.384ZM186.974 385.38H199.641V397.499L195.546 395.446C194.165 394.737 192.498 394.737 191.069 395.446L186.974 397.499V385.38ZM176.974 230.316V250.536C176.974 252.274 177.879 253.884 179.355 254.793C180.831 255.702 182.689 255.783 184.212 255.007L193.308 250.445L202.404 255.007C203.1 255.353 203.865 255.534 204.642 255.535C205.547 255.535 206.499 255.288 207.261 254.792C207.988 254.345 208.589 253.719 209.006 252.973C209.422 252.228 209.641 251.389 209.642 250.535V230.315H227.071V297.847H159.544V230.315H176.973L176.974 230.316ZM186.974 230.316H199.641V242.436L195.546 240.379C194.165 239.674 192.498 239.674 191.069 240.379L186.974 242.436V230.316ZM232.071 220.316C233.397 220.316 234.669 220.843 235.607 221.781C236.544 222.718 237.071 223.99 237.071 225.316V457.916C237.071 459.242 236.544 460.514 235.607 461.452C234.669 462.389 233.397 462.916 232.071 462.916H77.0172C75.6911 462.916 74.4193 462.389 73.4816 461.452C72.5439 460.514 72.0172 459.242 72.0172 457.916V302.848C72.0172 300.091 74.2552 297.848 77.0172 297.848H149.544V225.316C149.544 223.99 150.071 222.718 151.009 221.781C151.946 220.843 153.218 220.316 154.544 220.316H232.071Z" fill="black"/>
</svg>
