<svg width="488" height="360" viewBox="0 0 488 360" fill="none" xmlns="http://www.w3.org/2000/svg">
<path d="M313.407 184.608L305.302 133.946C304.288 129.891 306.316 125.841 308.343 123.813L345.832 87.3383C352.923 80.2419 348.868 68.087 338.736 67.0733L287.065 59.977C283.01 58.9683 279.968 56.9408 277.946 53.8995L254.64 7.29216C250.585 -1.82656 237.416 -1.82656 233.361 7.29216L210.055 53.8944C208.032 56.9357 204.986 59.9718 200.941 59.9718L149.265 67.0682C139.127 68.0819 135.077 80.2368 142.169 87.3331L179.657 123.808C182.699 126.849 183.712 130.899 182.699 133.94L173.585 185.617C171.552 195.749 181.685 202.84 190.804 197.777L237.416 173.457C240.452 171.429 245.521 171.429 248.562 173.457L295.17 197.777C305.302 202.845 315.435 194.735 313.407 184.603V184.608ZM483.632 247.43C490.723 240.334 486.673 228.179 476.54 227.165L425.878 220.069C421.823 219.055 418.782 217.033 416.759 213.992L393.453 167.384C389.398 158.266 376.229 158.266 372.174 167.384L348.868 213.992C346.846 217.033 343.804 220.069 339.755 220.069L288.078 227.165C277.941 228.179 273.891 240.334 280.982 247.43L318.476 283.905C321.512 286.947 322.526 290.996 321.512 294.038L312.398 345.714C310.366 355.846 320.498 362.938 329.617 357.869L376.229 333.549C379.266 331.526 384.334 331.526 387.376 333.549L433.983 357.869C443.102 362.938 453.234 354.833 451.207 345.714L442.093 294.038C441.074 289.983 443.102 285.933 445.129 283.9L483.632 247.43ZM200.941 227.165L149.265 220.069C145.21 219.055 142.169 217.033 140.141 213.992L116.84 167.384C112.785 158.266 99.6163 158.266 95.5613 167.384L72.255 212.978C70.2275 216.019 67.1862 219.055 63.1414 219.055L11.455 227.165C1.32254 228.179 -2.72738 240.334 4.36382 247.43L41.8525 283.905C44.8937 286.947 45.9075 290.996 44.8937 294.038L35.7801 345.714C33.7526 355.846 43.8851 362.938 53.0038 357.869L99.6163 333.549C102.652 331.526 107.721 331.526 110.757 333.549L157.37 357.869C166.484 362.938 176.621 354.833 174.594 345.714L165.475 294.038C164.461 289.983 166.489 285.933 168.516 283.9L206.005 247.43C214.11 241.348 210.06 229.188 200.941 227.165Z" fill="black"/>
</svg>
