<svg width="168" height="200" viewBox="0 0 168 200" fill="none" xmlns="http://www.w3.org/2000/svg">
<path d="M122.644 51.0371C122.644 53.066 122.496 55.0742 122.222 57.0824C122.306 56.5234 122.369 55.9851 122.454 55.4261C121.905 59.2148 120.893 62.9207 119.395 66.4402L120.028 64.9496C118.91 67.5582 117.539 70.0633 115.936 72.4027C115.535 73.0031 115.092 73.6035 114.649 74.1832C113.721 75.4047 115.451 73.2101 114.797 73.9968C114.565 74.2867 114.333 74.5558 114.101 74.8457C113.215 75.8808 112.287 76.8953 111.316 77.8476C110.346 78.8 109.312 79.7316 108.258 80.5804C107.984 80.8082 107.688 81.0359 107.393 81.2636C106.57 81.9054 108.827 80.2078 107.583 81.1187C106.992 81.5535 106.38 81.9675 105.769 82.3816C103.364 83.955 100.833 85.28 98.1749 86.398L99.6937 85.7769C96.0866 87.2468 92.332 88.2613 88.4718 88.7789C89.0413 88.6961 89.5898 88.634 90.1593 88.5511C86.0671 89.0894 81.9538 89.0894 77.8616 88.5511C78.4312 88.634 78.9796 88.6961 79.5491 88.7789C75.689 88.2406 71.9132 87.2468 68.3273 85.7769L69.846 86.398C67.1882 85.3007 64.6359 83.955 62.2523 82.3816C61.6405 81.9882 61.0288 81.5535 60.4382 81.1187C59.1937 80.2078 61.4296 81.9054 60.628 81.2636C60.3327 81.0359 60.0585 80.8082 59.7632 80.5804C58.7085 79.7109 57.6749 78.8 56.7046 77.8476C55.7343 76.8953 54.7851 75.8808 53.9202 74.8457C53.6882 74.5765 53.4562 74.2867 53.2241 73.9968C52.5702 73.1894 54.2999 75.4047 53.3718 74.1832C52.9288 73.6035 52.507 73.0031 52.0851 72.4027C50.482 70.0425 49.1319 67.5582 47.9929 64.9496L48.6257 66.4402C47.128 62.9 46.0944 59.2148 45.5671 55.4261C45.6515 55.9851 45.7148 56.5234 45.7991 57.0824C45.2507 53.066 45.2507 49.0289 45.7991 45.0125C45.7148 45.5714 45.6515 46.1097 45.5671 46.6687C46.1155 42.88 47.128 39.1742 48.6257 35.6547L47.9929 37.1453C49.1109 34.5367 50.482 32.0316 52.0851 29.6922C52.4859 29.0918 52.9288 28.4914 53.3718 27.9117C54.2999 26.6902 52.5702 28.8847 53.2241 28.098C53.4562 27.8082 53.6882 27.539 53.9202 27.2492C54.8062 26.214 55.7343 25.1996 56.7046 24.2472C57.6749 23.2949 58.7085 22.3632 59.7632 21.5144C60.0374 21.2867 60.3327 21.059 60.628 20.8312C61.4507 20.1894 59.1937 21.8871 60.4382 20.9761C61.0288 20.5414 61.6405 20.1273 62.2523 19.7132C64.6569 18.1398 67.1882 16.8148 69.846 15.6968L68.3273 16.3179C71.9343 14.848 75.689 13.8336 79.5491 13.316C78.9796 13.3988 78.4312 13.4609 77.8616 13.5437C81.9538 13.0054 86.0671 13.0054 90.1593 13.5437C89.5898 13.4609 89.0413 13.3988 88.4718 13.316C92.332 13.8543 96.1077 14.848 99.6937 16.3179L98.1749 15.6968C100.833 16.7941 103.385 18.1398 105.769 19.7132C106.38 20.1066 106.992 20.5414 107.583 20.9761C108.827 21.8871 106.591 20.1894 107.393 20.8312C107.688 21.059 107.962 21.2867 108.258 21.5144C109.312 22.3839 110.346 23.2949 111.316 24.2472C112.287 25.1996 113.236 26.214 114.101 27.2492C114.333 27.5183 114.565 27.8082 114.797 28.098C115.451 28.9054 113.721 26.6902 114.649 27.9117C115.092 28.4914 115.514 29.0918 115.936 29.6922C117.539 32.0523 118.889 34.5367 120.028 37.1453L119.395 35.6547C120.893 39.1949 121.926 42.88 122.454 46.6687C122.369 46.1097 122.306 45.5714 122.222 45.0125C122.496 47.0207 122.644 49.0289 122.644 51.0371C122.665 54.2875 125.555 57.3929 128.972 57.248C132.389 57.1031 135.321 54.5152 135.3 51.0371C135.258 40.8718 132.136 30.5824 126.082 22.2804C119.838 13.6886 111.316 7.27067 101.234 3.62692C81.553 -3.49496 58.0757 2.75739 44.7655 18.6574C37.8257 26.9593 33.6913 36.8554 32.8476 47.5797C32.046 57.7863 34.6827 68.3449 40.1038 77.1023C45.3351 85.5492 53.203 92.6504 62.421 96.7082C67.6945 99.0269 72.989 100.455 78.7265 101.118C84.0421 101.739 89.4421 101.366 94.6945 100.311C114.881 96.2941 131.524 79.359 134.604 59.3183C135.026 56.5855 135.321 53.832 135.321 51.0578C135.342 47.8074 132.41 44.7019 128.993 44.8468C125.534 44.9918 122.665 47.559 122.644 51.0371ZM150.804 186.891H32.9741C27.7429 186.891 22.5327 186.912 17.3015 186.891C16.7741 186.891 16.2468 186.85 15.7195 186.787C16.289 186.87 16.8374 186.932 17.407 187.015C16.5632 186.891 15.7616 186.663 14.9812 186.353L16.4999 186.974C15.9093 186.725 15.3398 186.436 14.7913 186.084C14.2429 185.732 14.053 185.255 15.1921 186.415C14.9812 186.187 14.707 186.001 14.496 185.794C14.4327 185.732 13.821 185.131 13.8632 185.111C13.8632 185.111 14.9601 186.622 14.2007 185.504C13.8421 184.986 13.5468 184.427 13.2937 183.827L13.9265 185.318C13.6101 184.552 13.3991 183.744 13.2515 182.937C13.3359 183.496 13.3991 184.034 13.4835 184.593C13.3359 183.434 13.378 182.233 13.378 181.073V162.979C13.378 160.598 13.4835 158.217 13.7999 155.857C13.7155 156.416 13.6523 156.954 13.5679 157.513C14.1585 153.269 15.2976 149.108 17.0062 145.153L16.3734 146.644C17.3226 144.47 18.4195 142.359 19.6851 140.33C20.3179 139.315 20.9718 138.342 21.689 137.39C21.8577 137.162 22.0054 136.955 22.1741 136.727C22.2585 136.624 22.3429 136.52 22.4273 136.396C22.7859 135.92 21.8366 137.224 21.8577 137.121C21.9421 136.686 22.7859 135.982 23.0812 135.651C24.5999 133.891 26.2452 132.255 28.0171 130.723C28.4601 130.33 28.9241 129.957 29.3882 129.585C29.5991 129.419 29.8101 129.253 30.0421 129.067C30.7593 128.487 28.7343 130.019 29.7468 129.295C30.7171 128.591 31.6874 127.908 32.6999 127.287C34.9991 125.837 37.446 124.575 39.9562 123.519L38.4374 124.14C42.4663 122.484 46.6851 121.345 51.0304 120.765C50.4609 120.848 49.9124 120.91 49.3429 120.993C52.8023 120.558 56.2616 120.579 59.7421 120.579H106.929C110.852 120.579 114.755 120.496 118.657 120.993C118.087 120.91 117.539 120.848 116.969 120.765C121.294 121.345 125.534 122.463 129.562 124.14L128.044 123.519C130.259 124.45 132.41 125.527 134.477 126.769C135.511 127.39 136.502 128.032 137.473 128.736C137.705 128.902 137.916 129.046 138.148 129.212C138.253 129.295 138.359 129.378 138.485 129.461C138.97 129.812 137.641 128.881 137.747 128.902C138.19 128.984 138.907 129.812 139.244 130.102C141.037 131.593 142.704 133.208 144.265 134.947C144.666 135.382 145.045 135.837 145.425 136.293C145.594 136.5 145.762 136.707 145.952 136.934C146.543 137.638 144.982 135.651 145.72 136.644C146.437 137.597 147.134 138.549 147.766 139.543C149.243 141.8 150.53 144.201 151.605 146.665L150.973 145.174C152.66 149.128 153.82 153.269 154.411 157.534C154.326 156.975 154.263 156.437 154.179 155.878C154.664 159.604 154.601 163.352 154.601 167.099V180.39C154.601 181.777 154.685 183.206 154.495 184.593C154.58 184.034 154.643 183.496 154.727 182.937C154.601 183.765 154.369 184.552 154.052 185.318L154.685 183.827C154.432 184.407 154.137 184.966 153.778 185.504C153.419 186.042 152.934 186.228 154.116 185.111C153.884 185.318 153.694 185.587 153.483 185.794C153.419 185.856 152.808 186.456 152.787 186.415C152.787 186.415 154.326 185.338 153.187 186.084C152.66 186.436 152.091 186.725 151.479 186.974L152.998 186.353C152.217 186.663 151.394 186.87 150.572 187.015C151.141 186.932 151.69 186.87 152.259 186.787C151.774 186.85 151.31 186.87 150.804 186.891C147.492 186.932 144.328 189.707 144.476 193.102C144.623 196.435 147.26 199.354 150.804 199.313C158.419 199.209 165.675 193.806 166.919 186.228C167.384 183.413 167.257 180.556 167.257 177.719V166.457C167.257 163.828 167.32 161.178 167.109 158.548C166.202 146.582 161.435 135.382 153.377 126.334C145.826 117.846 135.237 111.718 123.994 109.399C118.214 108.198 112.476 108.136 106.634 108.136H63.7921C59.3202 108.136 54.764 107.95 50.3132 108.426C43.9218 109.13 37.9523 110.724 32.1093 113.374C26.9413 115.714 22.153 119.005 17.9976 122.815C9.60226 130.516 3.61164 141.096 1.62883 152.213C0.342107 159.48 0.679607 166.85 0.679607 174.2V182.792C0.679607 188.775 3.92805 194.82 9.56008 197.491C12.1757 198.733 14.8968 199.313 17.8077 199.313H150.783C154.094 199.313 157.259 196.456 157.111 193.102C156.984 189.727 154.369 186.891 150.804 186.891Z" fill="black"/>
</svg>
