<svg width="512" height="512" viewBox="0 0 512 512" fill="none" xmlns="http://www.w3.org/2000/svg">
<g clip-path="url(#clip0_812_83)">
<path d="M256.011 511.999C397.39 511.999 512 397.389 512 256.01C512 114.631 397.39 0.0205078 256.011 0.0205078C114.632 0.0205078 0.0217285 114.631 0.0217285 256.01C0.0217285 397.389 114.632 511.999 256.011 511.999Z" fill="white"/>
<path d="M497.368 170.645H339.638C346.49 225.33 346.53 285.586 339.771 340.34H497.704C507.174 313.231 512.004 284.718 511.992 256.002C511.997 226.058 506.811 197.343 497.368 170.645Z" fill="#EFECEC"/>
<path d="M339.638 170.645H497.365C497.343 170.569 497.316 170.494 497.284 170.422C464.523 78.041 380.244 10.073 278.985 1.05078C318.174 22.5304 329.621 90.5838 339.638 170.645Z" fill="#429945"/>
<path d="M278.994 510.937C380.434 501.898 464.83 433.696 497.465 341.067C497.55 340.821 497.623 340.578 497.712 340.34H339.775C329.835 420.834 318.34 489.368 278.994 510.937Z" fill="#0B0B0B"/>
<path d="M0 256.001C0 285.561 5.07698 313.924 14.2884 340.339H352.948C359.714 285.581 359.666 225.329 352.823 170.644H14.6289C5.18615 197.343 0 226.058 0 256.001Z" fill="#EFEFEF"/>
<path d="M14.7088 170.423C14.6842 170.498 14.6571 170.572 14.6277 170.646H352.822C342.798 90.5835 318.173 22.5312 278.99 1.05161C271.41 0.380372 263.747 0.000976575 255.994 0.000976575C144.631 -0.000104324 49.9277 71.1241 14.7088 170.423Z" fill="#49A948"/>
<path d="M352.948 340.339H14.2883C14.3737 340.578 14.4537 340.82 14.5348 341.066C49.6132 440.619 144.452 511.995 255.995 511.995C263.748 511.995 271.411 511.615 278.99 510.936C318.34 489.368 343.008 420.834 352.948 340.339Z" fill="#151515"/>
<path d="M0 256.001C0 362.563 65.1382 453.899 157.759 492.432V19.5635C65.1382 58.0889 0 149.425 0 256.001Z" fill="#E73B36"/>
</g>
<defs>
<clipPath id="clip0_812_83">
<rect width="512" height="512" fill="white"/>
</clipPath>
</defs>
</svg>
