<svg width="512" height="512" viewBox="0 0 512 512" fill="none" xmlns="http://www.w3.org/2000/svg">
<g clip-path="url(#clip0_812_32)">
<path d="M256.011 512C397.39 512 512 397.39 512 256.011C512 114.632 397.39 0.0214844 256.011 0.0214844C114.632 0.0214844 0.0214844 114.632 0.0214844 256.011C0.0214844 397.39 114.632 512 256.011 512Z" fill="white"/>
<path d="M256.011 512C397.39 512 512 397.39 512 256.011C512 114.632 397.39 0.0214844 256.011 0.0214844C114.632 0.0214844 0.0214844 114.632 0.0214844 256.011C0.0214844 397.39 114.632 512 256.011 512Z" fill="white"/>
<path d="M497.369 170.646C497.343 170.571 497.316 170.497 497.288 170.423C464.523 78.041 380.249 10.073 278.99 1.05078C318.17 22.5304 329.613 90.5838 339.638 170.645C346.485 225.331 346.53 285.587 339.768 340.345C329.828 420.839 318.337 489.373 278.991 510.942C380.431 501.903 464.826 433.701 497.462 341.072C497.547 340.826 497.62 340.584 497.708 340.345C507.177 313.233 512.007 284.72 511.997 256.002C511.998 226.058 506.812 197.347 497.369 170.646Z" fill="#258F44"/>
<path d="M352.819 170.646C342.799 90.5836 318.174 22.5313 278.991 1.05171C271.411 0.380476 263.747 0 255.995 0C144.632 0 49.9245 71.1253 14.7089 170.423C14.6805 170.497 14.6534 170.571 14.6278 170.646C5.18615 197.347 0 226.058 0 256.002C0 285.563 5.07266 313.93 14.2884 340.345C14.3738 340.584 14.4505 340.826 14.5348 341.072C49.6132 440.625 144.448 512 255.995 512C263.748 512 271.411 511.62 278.99 510.941C318.335 489.372 343.008 420.838 352.948 340.344C359.711 285.586 359.666 225.335 352.819 170.646Z" fill="#359846"/>
<path d="M256.011 350.319C308.096 350.319 350.319 308.096 350.319 256.011C350.319 203.925 308.096 161.702 256.011 161.702C203.926 161.702 161.703 203.925 161.703 256.011C161.703 308.096 203.926 350.319 256.011 350.319Z" fill="#EC1C24"/>
</g>
<defs>
<clipPath id="clip0_812_32">
<rect width="512" height="512" fill="white"/>
</clipPath>
</defs>
</svg>
