<svg width="512" height="512" viewBox="0 0 512 512" fill="none" xmlns="http://www.w3.org/2000/svg">
<g clip-path="url(#clip0_812_66)">
<path d="M256 512C397.385 512 512 397.385 512 256C512 114.615 397.385 0 256 0C114.615 0 0 114.615 0 256C0 397.385 114.615 512 256 512Z" fill="#F7931E"/>
<path d="M512 256C512 397.653 397.653 512 256 512C114.347 512 0 397.653 0 256H512Z" fill="#009245"/>
<path d="M512 256C512 226.987 506.88 197.974 496.64 170.667H15.36C-5.12 225.28 -5.12 286.72 15.36 341.334H498.347C506.88 314.027 512 285.014 512 256Z" fill="#F0F0F0"/>
<path d="M256 187.733C218.453 187.733 187.733 218.453 187.733 256C187.733 293.547 218.453 324.267 256 324.267C293.547 324.267 324.267 293.547 324.267 256C324.267 218.453 293.547 187.733 256 187.733ZM256 307.2C226.987 307.2 204.8 285.013 204.8 256C204.8 226.987 226.987 204.8 256 204.8C285.013 204.8 307.2 226.987 307.2 256C307.2 285.013 285.013 307.2 256 307.2Z" fill="black"/>
<path d="M256 290.133C274.851 290.133 290.133 274.851 290.133 256C290.133 237.148 274.851 221.866 256 221.866C237.149 221.866 221.867 237.148 221.867 256C221.867 274.851 237.149 290.133 256 290.133Z" fill="black"/>
</g>
<defs>
<clipPath id="clip0_812_66">
<rect width="512" height="512" fill="white"/>
</clipPath>
</defs>
</svg>
