<svg width="512" height="512" viewBox="0 0 512 512" fill="none" xmlns="http://www.w3.org/2000/svg">
<g clip-path="url(#clip0_812_93)">
<path d="M256 512C397.385 512 512 397.385 512 256C512 114.615 397.385 0 256 0C114.615 0 0 114.615 0 256C0 397.385 114.615 512 256 512Z" fill="#27273D"/>
<path d="M205 5.08008V506.91C88.05 483.27 0 379.91 0 256C0 132.09 88.05 28.7201 205 5.08008Z" fill="#02934D"/>
<path d="M512 256C512 395.92 399.77 509.61 260.41 512H251.59C235.94 511.751 220.346 510.077 205 507V5.08008C220.152 2.03592 235.548 0.362497 251 0.0800781H261C400.06 2.68008 512 116.27 512 256Z" fill="#DB1B1B"/>
<path d="M205 88.46C183.542 88.46 162.567 94.8224 144.725 106.743C126.883 118.663 112.976 135.606 104.763 155.43C96.5497 175.253 94.3987 197.067 98.5819 218.113C102.765 239.158 113.095 258.491 128.265 273.667C143.435 288.842 162.764 299.179 183.808 303.37C204.853 307.561 226.667 305.418 246.493 297.212C266.32 289.006 283.268 275.106 295.195 257.268C307.122 239.431 313.492 218.458 313.5 197C313.476 168.228 302.039 140.64 281.697 120.291C261.356 99.9421 233.772 88.4944 205 88.46ZM298.2 189.46H223.11L224.61 187.96L251.91 160.65L276.17 136.39C288.931 151.311 296.643 169.888 298.2 189.46ZM212.5 103.76C231.159 105.25 248.933 112.335 263.5 124.09L265.5 125.77L212.5 178.84V103.76ZM197.5 103.76V178.84L194.8 176.15L164.8 146.1L144.48 125.77L146.48 124.09C161.052 112.332 178.835 105.246 197.5 103.76ZM133.83 136.39L158.1 160.65L185.4 188L186.9 189.5H111.8C113.354 169.915 121.065 151.324 133.83 136.39ZM111.83 204.46H186.93L176.53 214.85L162.2 229.17L147.2 244.17L133.87 257.51C121.109 242.593 113.385 224.027 111.8 204.46H111.83ZM197.53 290.15C177.967 288.591 159.397 280.891 144.47 268.15L155.87 256.74L170.62 242L197.5 215.1L197.53 290.15ZM212.53 290.15V215.05L265.6 268.13C250.665 280.886 232.079 288.594 212.5 290.15H212.53ZM276.2 257.52L247.87 229.18L233.56 214.9L223.11 204.46H298.2C296.633 224.026 288.922 242.597 276.17 257.52H276.2Z" fill="#F6C752"/>
<path d="M148 124C145.746 124.003 143.586 124.899 141.993 126.493C140.399 128.086 139.503 130.246 139.5 132.5V220.44H139.87C141.585 236.518 149.186 251.394 161.21 262.204C173.234 273.015 188.831 278.997 205 279C221.17 279 236.768 273.018 248.792 262.207C260.817 251.396 268.417 236.519 270.13 220.44H270.5V132.45C270.487 130.204 269.585 128.055 267.993 126.472C266.4 124.889 264.246 124 262 124H148Z" fill="#E83838"/>
<path d="M166.3 146C164.125 146 162.039 146.864 160.502 148.402C158.964 149.94 158.1 152.025 158.1 154.2V215H158.36C159.573 226.526 165.009 237.194 173.621 244.949C182.233 252.704 193.411 256.997 205 257C216.59 256.997 227.769 252.705 236.383 244.95C244.996 237.195 250.435 226.526 251.65 215H251.91V154.15C251.91 151.975 251.046 149.89 249.508 148.352C247.97 146.814 245.885 145.95 243.71 145.95L166.3 146Z" fill="white"/>
<path d="M195.59 155.45C195.06 155.45 194.551 155.661 194.176 156.036C193.801 156.411 193.59 156.92 193.59 157.45V172.25H193.66C193.959 175.05 195.282 177.64 197.375 179.523C199.469 181.406 202.184 182.449 205 182.45C207.817 182.451 210.535 181.41 212.631 179.527C214.727 177.644 216.051 175.052 216.35 172.25H216.41V157.45C216.41 156.92 216.199 156.411 215.824 156.036C215.449 155.661 214.94 155.45 214.41 155.45H195.59ZM195.59 222.37C195.06 222.37 194.551 222.581 194.176 222.956C193.801 223.331 193.59 223.84 193.59 224.37V239.18H193.66C193.961 241.978 195.285 244.566 197.378 246.447C199.471 248.328 202.186 249.369 205 249.37C207.817 249.371 210.535 248.33 212.631 246.447C214.727 244.564 216.051 241.972 216.35 239.17H216.41V224.36C216.41 223.83 216.199 223.321 215.824 222.946C215.449 222.571 214.94 222.36 214.41 222.36L195.59 222.37ZM195.59 188C195.06 188 194.551 188.211 194.176 188.586C193.801 188.961 193.59 189.47 193.59 190V204.8H193.66C193.959 207.6 195.282 210.19 197.375 212.073C199.469 213.956 202.184 214.999 205 215C207.817 215.001 210.535 213.96 212.631 212.077C214.727 210.194 216.051 207.602 216.35 204.8H216.41V190C216.41 189.47 216.199 188.961 215.824 188.586C215.449 188.211 214.94 188 214.41 188H195.59ZM168.59 188C168.06 188 167.551 188.211 167.176 188.586C166.801 188.961 166.59 189.47 166.59 190V204.8H166.66C166.959 207.6 168.282 210.19 170.375 212.073C172.469 213.956 175.184 214.999 178 215C180.817 215.001 183.535 213.96 185.631 212.077C187.727 210.194 189.051 207.602 189.35 204.8H189.41V190C189.41 189.47 189.199 188.961 188.824 188.586C188.449 188.211 187.94 188 187.41 188H168.59ZM223.09 188C222.56 188 222.051 188.211 221.676 188.586C221.301 188.961 221.09 189.47 221.09 190V204.8H221.16C221.459 207.6 222.782 210.19 224.875 212.073C226.969 213.956 229.684 214.999 232.5 215C235.317 215.001 238.035 213.96 240.131 212.077C242.227 210.194 243.551 207.602 243.85 204.8H243.91V190C243.91 189.47 243.699 188.961 243.324 188.586C242.949 188.211 242.44 188 241.91 188H223.09Z" fill="#3E436D"/>
<path d="M205 5.08008V27.2201C162.611 48.5475 126.981 81.2324 102.085 121.628C77.1887 162.025 64.0052 208.543 64.0052 255.995C64.0052 303.447 77.1887 349.966 102.085 390.362C126.981 430.758 162.611 463.443 205 484.77V506.91C88.05 483.27 0 379.91 0 256C0 132.09 88.05 28.7201 205 5.08008Z" fill="#037C3C"/>
<path d="M269 5.08008C246.774 9.56926 225.249 17.0155 205 27.2201V5.08008C220.152 2.03592 235.548 0.362497 251 0.0800781H261C270.027 0.254429 279.039 0.895284 288 2.00008C281.6 2.77008 275.26 3.82008 269 5.08008ZM269 506.91C275.24 508.17 281.58 509.21 288 510.01C278.845 511.166 269.636 511.83 260.41 512H251.59C235.94 511.751 220.346 510.077 205 507V484.77C225.249 494.975 246.774 502.421 269 506.91Z" fill="#C41C1C"/>
</g>
<defs>
<clipPath id="clip0_812_93">
<rect width="512" height="512" fill="white"/>
</clipPath>
</defs>
</svg>
