<svg width="512" height="512" viewBox="0 0 512 512" fill="none" xmlns="http://www.w3.org/2000/svg">
<mask id="mask0_812_39" style="mask-type:luminance" maskUnits="userSpaceOnUse" x="15" y="16" width="481" height="481">
<path d="M495.741 256.564C495.741 320.232 470.449 381.292 425.429 426.313C380.409 471.333 319.348 496.625 255.68 496.625C192.012 496.625 130.951 471.333 85.9306 426.313C40.9103 381.292 15.6182 320.232 15.6182 256.564C15.6182 192.895 40.9103 131.835 85.9306 86.8144C130.951 41.7941 192.012 16.502 255.68 16.502C319.348 16.502 380.409 41.7941 425.429 86.8144C470.449 131.835 495.741 192.895 495.741 256.564Z" fill="white"/>
</mask>
<g mask="url(#mask0_812_39)">
<path d="M-103.83 385.764H616.127V348.823H-103.83V385.764Z" fill="white"/>
<path d="M-103.83 348.823H616.127V311.896H-103.83V348.823Z" fill="#CA4638"/>
<path d="M-103.83 459.586H616.127V422.663H-103.83V459.586Z" fill="white"/>
<path d="M-103.83 496.528H616.127V459.587H-103.83V496.528ZM-103.83 422.661H616.127V385.762H-103.83V422.661Z" fill="#CA4638"/>
<path d="M-103.83 310.156H616.127V273.257H-103.83V310.156Z" fill="white"/>
<path d="M-103.83 201.134H616.127V164.236H-103.83V201.134Z" fill="#CA4638"/>
<path d="M-103.83 90.3721H616.127V53.4316H-103.83V90.3721Z" fill="white"/>
<path d="M-103.83 127.296H616.127V90.3692H-103.83V127.296ZM-103.83 275.001H616.127V238.033H-103.83V275.001ZM-103.83 53.4321H616.127V16.5762H-103.83V53.4321Z" fill="#CA4638"/>
<path d="M-103.83 164.236H616.127V127.296H-103.83V164.236ZM-103.83 238.031H616.127V201.134H-103.83V238.031Z" fill="white"/>
</g>
<mask id="mask1_812_39" style="mask-type:luminance" maskUnits="userSpaceOnUse" x="15" y="15" width="481" height="481">
<path d="M495.85 255.364C495.85 319.024 470.561 380.078 425.546 425.093C380.531 470.108 319.477 495.397 255.816 495.397C192.155 495.397 131.102 470.108 86.0869 425.093C41.0719 380.078 15.7827 319.024 15.7827 255.364C15.7827 191.703 41.0719 130.649 86.0869 85.6343C131.102 40.6192 192.155 15.3301 255.816 15.3301C319.477 15.3301 380.531 40.6192 425.546 85.6343C470.561 130.649 495.85 191.703 495.85 255.364Z" fill="white"/>
</mask>
<g mask="url(#mask1_812_39)">
<path d="M16 275.159H256V15.3594H16V275.159Z" fill="#356BA0"/>
</g>
<path d="M199.625 50.1096L201.42 55.6866H207.276L202.536 59.1316L204.37 64.7086L199.627 61.2606L194.847 64.7086L196.681 59.1316L191.941 55.6866H197.797L199.626 50.1106M199.625 99.0876L201.42 104.661H207.276L202.536 108.109L204.37 113.682L199.627 110.274L194.847 113.682L196.681 108.109L191.941 104.661H197.797L199.626 99.0876M199.625 148.091L201.42 153.678H207.276L202.536 157.113L204.37 162.699L199.627 159.251L194.847 162.699L196.681 157.113L191.941 153.678H197.797L199.626 148.091M199.625 198.18L201.42 203.793H207.276L202.536 207.241L204.37 212.854L199.627 209.367L194.847 212.854L196.681 207.241L191.941 203.793H197.797L199.626 198.18M199.625 246.042L201.42 251.629H207.276L202.536 255.103L204.37 260.676L199.627 257.202L194.847 260.676L196.681 255.103L191.941 251.629H197.797L199.626 246.042M155.687 50.1096L157.495 55.6866H163.377L158.62 59.1316L160.429 64.7086L155.689 61.2606L150.935 64.7086L152.738 59.1316L147.998 55.6866H153.88L155.688 50.1106M155.687 99.0876L157.495 104.661H163.377L158.62 108.109L160.429 113.682L155.689 110.274L150.935 113.682L152.738 108.109L147.998 104.661H153.88L155.688 99.0876M155.687 148.091L157.495 153.678H163.377L158.62 157.113L160.429 162.699L155.689 159.251L150.935 162.699L152.738 157.113L147.998 153.678H153.88L155.688 148.091M155.687 198.18L157.495 203.793H163.377L158.62 207.241L160.429 212.854L155.689 209.367L150.935 212.854L152.738 207.241L147.998 203.793H153.88L155.688 198.18M155.687 246.042L157.495 251.629H163.377L158.62 255.103L160.429 260.676L155.689 257.202L150.935 260.676L152.738 255.103L147.998 251.629H153.88L155.688 246.042M111.784 99.0876L113.579 104.661H119.435L114.695 108.109L116.524 113.682L111.784 110.274L107.004 113.682L108.839 108.109L104.095 104.661H109.941L111.784 99.0876ZM111.784 148.091L113.579 153.678H119.435L114.695 157.113L116.524 162.699L111.784 159.251L107.004 162.699L108.839 157.113L104.095 153.678H109.941L111.784 148.091ZM111.784 198.18L113.579 203.793H119.435L114.695 207.241L116.524 212.854L111.784 209.367L107.004 212.854L108.839 207.241L104.095 203.793H109.941L111.784 198.18ZM111.784 246.042L113.579 251.629H119.435L114.695 255.103L116.524 260.676L111.784 257.202L107.004 260.676L108.839 255.103L104.095 251.629H109.941L111.784 246.042ZM67.8327 148.091L69.6387 153.678H75.5197L70.7797 157.113L72.5877 162.699L67.8347 159.251L63.0907 162.699L64.8988 157.113L60.1457 153.678H66.0017L67.8357 148.091M67.8327 198.18L69.6387 203.793H75.5197L70.7797 207.241L72.5877 212.854L67.8347 209.367L63.0907 212.854L64.8988 207.241L60.1457 203.793H66.0017L67.8357 198.18M67.8327 246.042L69.6387 251.629H75.5197L70.7797 255.103L72.5877 260.676L67.8347 257.202L63.0907 260.676L64.8988 255.103L60.1457 251.629H66.0017L67.8357 246.042M222.014 74.5726L223.82 80.1856H229.702L224.948 83.5936L226.756 89.2066L222.016 85.7626L217.259 89.2066L219.081 83.5936L214.327 80.1856H220.196L222.017 74.5726M222.014 125.164L223.82 130.741H229.702L224.948 134.185L226.756 139.762L222.016 136.314L217.259 139.762L219.081 134.185L214.327 130.741H220.196L222.017 125.164M221.565 174.732L223.386 180.305H229.256L224.511 183.753L226.32 189.327L221.566 185.852L216.826 189.327L218.632 183.753L213.878 180.305H219.76L221.568 174.732M221.128 223.706L222.95 229.283H228.832L224.065 232.727L225.895 238.304L221.128 234.869L216.401 238.304L218.209 232.727L213.439 229.283H219.321L221.128 223.706ZM178.073 74.5726L179.894 80.1856H185.776L181.009 83.5936L182.839 89.2066L178.072 85.7626L173.319 89.2066L175.153 83.5936L170.409 80.1856H176.265L178.073 74.5726ZM178.073 125.164L179.894 130.741H185.776L181.009 134.185L182.839 139.762L178.072 136.314L173.319 139.762L175.153 134.185L170.409 130.741H176.265L178.073 125.164ZM177.65 174.732L179.458 180.305H185.339L180.599 183.753L182.405 189.327L177.651 185.852L172.911 189.327L174.719 183.753L169.963 180.305H175.821L177.651 174.732M177.213 223.706L179.021 229.283H184.891L180.15 232.727L181.958 238.304L177.214 234.869L172.461 238.304L174.269 232.727L169.529 229.283H175.398L177.216 223.706M134.147 72.8436L135.966 78.4176H141.835L137.095 81.8646L138.915 87.4386L134.15 83.9936L129.406 87.4386L131.227 81.8646L126.474 78.4176H132.343L134.151 72.8436M134.147 123.396L135.966 128.969H141.835L137.095 132.444L138.915 137.991L134.15 134.582L129.406 137.991L131.227 132.444L126.474 128.969H132.343L134.151 123.396M133.724 172.964L135.514 178.537H141.396L136.642 181.985L138.464 187.558L133.724 184.111L128.954 187.558L130.774 181.985L126.034 178.537H131.904L133.724 172.964ZM133.275 221.964L135.096 227.55H140.965L136.221 230.959L138.03 236.572L133.276 233.124L128.536 236.572L130.342 230.959L125.588 227.55H131.457L133.278 221.964M90.2448 122.897L92.0477 128.471H97.9197L93.1628 131.958L94.9707 137.531L90.2438 134.058L85.4777 137.531L87.3067 131.958L82.5527 128.471H88.4227L90.2427 122.897M89.8087 172.462L91.6037 178.048H97.4857L92.7318 181.522L94.5508 187.096L89.8107 183.626L85.0567 187.096L86.8627 181.522L82.1227 178.048H87.9777L89.8128 172.462M89.3597 221.439L91.1797 227.026H97.0498L92.2957 230.499L94.0987 236.073L89.3587 232.599L84.6188 236.073L86.4268 230.499L81.6697 227.026H87.5387L89.3597 221.439ZM45.8537 171.615L47.6747 177.192H53.5437L48.7897 180.637L50.6117 186.213L45.8547 182.766L41.1147 186.213L42.9227 180.637L38.1697 177.192H44.0517L45.8567 171.615M45.4337 220.592L47.2257 226.166H53.1077L48.3547 229.614L50.1757 235.187L45.4357 231.743L40.6657 235.187L42.4867 229.614L37.7467 226.166H43.6157L45.4367 220.592M243.54 50.1096L245.336 55.6866H251.217L246.477 59.1316L248.28 64.7086L243.54 61.2606L238.787 64.7086L240.595 59.1316L235.851 55.6866H241.721L243.541 50.1106M243.54 99.0876L245.336 104.661H251.217L246.477 108.109L248.28 113.682L243.54 110.274L238.787 113.682L240.595 108.109L235.851 104.661H241.721L243.541 99.0876M243.54 148.091L245.336 153.678H251.217L246.477 157.113L248.28 162.699L243.54 159.251L238.787 162.699L240.595 157.113L235.851 153.678H241.721L243.541 148.091M243.54 198.18L245.336 203.793H251.217L246.477 207.241L248.28 212.854L243.54 209.367L238.787 212.854L240.595 207.241L235.851 203.793H241.721L243.541 198.18M243.54 246.042L245.336 251.629H251.217L246.477 255.103L248.28 260.676L243.54 257.202L238.787 260.676L240.595 255.103L235.851 251.629H241.721L243.541 246.042M222.014 27.8496L223.82 33.4356H229.702L224.962 36.9096L226.77 42.4836L222.016 39.0086L217.272 42.4836L219.081 36.9096L214.327 33.4356H220.183L222.017 27.8486M27.4267 246.042L29.2317 251.629H35.1137L30.3737 255.103L32.1817 260.676L27.4287 257.202L22.6847 260.676L24.4927 255.103L19.7397 251.629H25.5957L27.4297 246.042M31.4667 198.18L33.2727 203.793H39.1547L34.4147 207.241L36.2227 212.854L31.4687 209.367L26.7257 212.854L28.5337 207.241L23.7797 203.793H29.6357L31.4707 198.18M178.073 32.1456L179.894 37.7586H185.776L181.009 41.1676L182.839 46.7806L178.072 43.3356L173.319 46.7806L175.153 41.1676L170.409 37.7586H176.265L178.073 32.1456Z" fill="white"/>
</svg>
