<svg width="23" height="20" viewBox="0 0 23 20" fill="none" xmlns="http://www.w3.org/2000/svg">
<path d="M21.4538 3.38749C20.1741 1.78281 18.3757 0.851562 16.6773 0.851562C14.4351 0.851562 13.4866 1.92499 11.9288 1.92499C10.3226 1.92499 9.1023 0.854688 7.16324 0.854688C5.25857 0.854688 3.23045 2.01874 1.94452 4.00936C0.136723 6.81247 0.446096 12.0827 3.37577 16.5718C4.4242 18.178 5.82419 19.9843 7.65543 19.9999C9.28511 20.0155 9.74448 18.9546 11.9523 18.9436C14.1601 18.9311 14.5788 20.014 16.2054 19.9968C18.0382 19.9827 19.5147 17.9812 20.5632 16.3749C21.3147 15.2234 21.5944 14.6437 22.1772 13.3437C17.9382 11.7296 17.2585 5.70154 21.4538 3.38749Z" fill="black"/>
</svg>
