<svg width="256" height="263" viewBox="0 0 256 263" fill="none" xmlns="http://www.w3.org/2000/svg">
<g clip-path="url(#clip0_312_8429)">
<path d="M220.575 183.048C205.11 169.459 189.415 161.228 174.14 174.796L165.019 182.997C158.346 188.949 145.938 216.763 97.9645 160.068C50.0014 103.445 78.5435 94.6287 85.227 88.7273L94.398 80.5165C109.593 66.9175 103.859 49.7981 92.8995 32.1758L86.2859 21.5019C75.2767 3.92065 63.2884 -7.62569 48.0533 5.95281L39.8213 13.3425C33.0879 18.3818 14.2663 34.7622 9.70071 65.8809C4.20608 103.219 21.5392 145.977 61.2504 192.891C100.912 239.825 139.744 263.4 176.528 262.99C207.098 262.651 225.56 245.799 231.334 239.671L239.596 232.271C254.791 218.703 245.351 204.889 229.876 191.269L220.575 183.048Z" fill="#030104"/>
</g>
<defs>
<clipPath id="clip0_312_8429">
<rect width="256" height="263" fill="white"/>
</clipPath>
</defs>
</svg>
