<svg width="266" height="220" viewBox="0 0 266 220" fill="none" xmlns="http://www.w3.org/2000/svg">
<g clip-path="url(#clip0_450_8417)">
<mask id="mask0_450_8417" style="mask-type:luminance" maskUnits="userSpaceOnUse" x="0" y="0" width="266" height="220">
<path d="M266 0H0V220H266V0Z" fill="white"/>
</mask>
<g mask="url(#mask0_450_8417)">
<path d="M133 165C159.234 165 180.5 144.48 180.5 119.167C180.5 93.8537 159.234 73.3335 133 73.3335C106.766 73.3335 85.5 93.8537 85.5 119.167C85.5 144.48 106.766 165 133 165Z" fill="url(#paint0_linear_450_8417)"/>
<path d="M237.5 36.6668H211.242C209.477 36.6723 207.745 36.2002 206.244 35.3042C204.743 34.4082 203.532 33.1241 202.749 31.5977L194.247 15.1985C191.894 10.6202 188.259 6.76947 183.754 4.08311C179.249 1.39678 174.054 -0.0176745 168.758 0.000166716H97.242C91.9464 -0.0176745 86.751 1.39678 82.2457 4.08311C77.7409 6.76947 74.1059 10.6202 71.7535 15.1985L63.2035 31.5977C62.4239 33.1171 61.2204 34.3966 59.7283 35.2921C58.2365 36.1876 56.5151 36.6637 54.758 36.6668H28.5C20.9413 36.6668 13.6922 39.5641 8.34747 44.7214C3.00267 49.8786 0 56.8734 0 64.1667V192.5C0 199.794 3.00267 206.789 8.34747 211.945C13.6922 217.103 20.9413 220 28.5 220H237.5C245.058 220 252.308 217.103 257.652 211.945C262.997 206.789 266 199.794 266 192.5V64.1667C266 56.8734 262.997 49.8786 257.652 44.7214C252.308 39.5641 245.058 36.6668 237.5 36.6668ZM133 183.333C119.847 183.333 106.99 179.57 96.0545 172.52C85.1188 165.469 76.5955 155.447 71.5617 143.722C66.5285 131.998 65.2122 119.096 67.7777 106.648C70.3439 94.2012 76.6775 82.7681 85.9774 73.794C95.2779 64.8204 107.127 58.7091 120.027 56.2331C132.926 53.7572 146.297 55.028 158.449 59.8847C170.6 64.7413 180.986 72.9655 188.293 83.5175C195.6 94.0701 199.5 106.476 199.5 119.167C199.48 136.179 192.467 152.489 180.001 164.518C167.534 176.548 150.631 183.314 133 183.333ZM228 82.5C226.121 82.5 224.284 81.9626 222.722 80.9554C221.16 79.9482 219.942 78.5165 219.223 76.8413C218.504 75.1667 218.316 73.3236 218.682 71.5453C219.049 69.7669 219.954 68.1335 221.282 66.8519C222.611 65.5697 224.304 64.6966 226.147 64.3431C227.989 63.9891 229.899 64.1707 231.636 64.8645C233.372 65.5583 234.855 66.7333 235.899 68.2407C236.943 69.748 237.5 71.5206 237.5 73.3333C237.5 75.7648 236.499 78.096 234.718 79.8153C232.936 81.5346 230.519 82.5 228 82.5Z" fill="url(#paint1_linear_450_8417)"/>
</g>
</g>
<defs>
<linearGradient id="paint0_linear_450_8417" x1="133" y1="73.3335" x2="133" y2="183.62" gradientUnits="userSpaceOnUse">
<stop stop-color="#495057"/>
<stop offset="1" stop-color="#ADB5BD"/>
</linearGradient>
<linearGradient id="paint1_linear_450_8417" x1="133" y1="-7.05782e-10" x2="133" y2="220" gradientUnits="userSpaceOnUse">
<stop stop-color="#495057"/>
<stop offset="0.5" stop-color="#7F868E"/>
<stop offset="1" stop-color="#ADB5BD"/>
</linearGradient>
<clipPath id="clip0_450_8417">
<rect width="266" height="220" fill="white"/>
</clipPath>
</defs>
</svg>
