<svg width="448" height="384" viewBox="0 0 448 384" fill="none" xmlns="http://www.w3.org/2000/svg">
<g clip-path="url(#clip0_279_8404)">
<path d="M224 288C268.183 288 304 252.183 304 208C304 163.817 268.183 128 224 128C179.817 128 144 163.817 144 208C144 252.183 179.817 288 224 288Z" fill="url(#paint0_linear_279_8404)"/>
<path d="M400 64.0003H355.776C352.803 64.0098 349.887 63.1858 347.359 61.6219C344.83 60.0579 342.791 57.8166 341.472 55.1523L327.152 26.5283C323.19 18.537 317.068 11.8158 309.481 7.12689C301.893 2.43802 293.143 -0.03085 284.224 0.000290995H163.776C154.857 -0.03085 146.107 2.43802 138.519 7.12689C130.932 11.8158 124.81 18.537 120.848 26.5283L106.448 55.1523C105.135 57.8044 103.108 60.0377 100.595 61.6008C98.0825 63.1639 95.1833 63.9949 92.224 64.0003H48C35.2696 64.0003 23.0606 69.0574 14.0589 78.0592C5.05713 87.0609 0 99.2699 0 112V336C0 348.731 5.05713 360.94 14.0589 369.941C23.0606 378.943 35.2696 384 48 384H400C412.73 384 424.939 378.943 433.941 369.941C442.943 360.94 448 348.731 448 336V112C448 99.2699 442.943 87.0609 433.941 78.0592C424.939 69.0574 412.73 64.0003 400 64.0003ZM224 320C201.848 320 180.194 313.432 161.776 301.125C143.358 288.818 129.003 271.326 120.525 250.861C112.048 230.396 109.831 207.876 114.152 186.15C118.474 164.424 129.141 144.468 144.804 128.804C160.468 113.141 180.424 102.474 202.15 98.1523C223.876 93.8308 246.395 96.0488 266.861 104.526C287.326 113.003 304.818 127.358 317.125 145.776C329.431 164.195 336 185.849 336 208C335.966 237.694 324.155 266.162 303.159 287.159C282.162 308.156 253.694 319.966 224 320ZM384 144C380.836 144 377.742 143.062 375.111 141.304C372.48 139.546 370.429 137.047 369.218 134.123C368.007 131.2 367.69 127.983 368.307 124.879C368.925 121.775 370.449 118.924 372.686 116.687C374.924 114.449 377.775 112.925 380.879 112.308C383.982 111.69 387.199 112.007 390.123 113.218C393.047 114.429 395.545 116.48 397.304 119.111C399.062 121.742 400 124.836 400 128C400 132.244 398.314 136.313 395.314 139.314C392.313 142.315 388.243 144 384 144Z" fill="url(#paint1_linear_279_8404)"/>
</g>
<defs>
<linearGradient id="paint0_linear_279_8404" x1="224" y1="128" x2="224" y2="320.5" gradientUnits="userSpaceOnUse">
<stop stop-color="#2196F3"/>
<stop offset="1" stop-color="#0A7197"/>
</linearGradient>
<linearGradient id="paint1_linear_279_8404" x1="224" y1="-1.10634e-09" x2="224" y2="384" gradientUnits="userSpaceOnUse">
<stop stop-color="#2196F3"/>
<stop offset="1" stop-color="#0A7197"/>
</linearGradient>
<clipPath id="clip0_279_8404">
<rect width="448" height="384" fill="white"/>
</clipPath>
</defs>
</svg>
