<svg width="22" height="22" viewBox="0 0 22 22" fill="none" xmlns="http://www.w3.org/2000/svg">
<path d="M8.54325 21.0001C9.25588 21.0001 9.83357 20.4224 9.83357 19.7098C9.83357 18.9971 9.25588 18.4194 8.54325 18.4194C7.83063 18.4194 7.25293 18.9971 7.25293 19.7098C7.25293 20.4224 7.83063 21.0001 8.54325 21.0001Z" stroke="black"/>
<path d="M17.5755 21.0001C18.2881 21.0001 18.8658 20.4224 18.8658 19.7098C18.8658 18.9971 18.2881 18.4194 17.5755 18.4194C16.8629 18.4194 16.2852 18.9971 16.2852 19.7098C16.2852 20.4224 16.8629 21.0001 17.5755 21.0001Z" stroke="black"/>
<path d="M0.801758 1H3.3824L7.90369 15.1935H18.2211" stroke="black" stroke-linecap="round" stroke-linejoin="round"/>
<path d="M6.89762 11.9675L4.41504 4.22559H20.5531C20.6554 4.22546 20.7562 4.24965 20.8473 4.29617C20.9384 4.34269 21.0171 4.4102 21.077 4.49313C21.1369 4.57606 21.1762 4.67203 21.1916 4.77314C21.2071 4.87424 21.1983 4.97758 21.166 5.07462L19.015 11.5262C18.9723 11.6546 18.8902 11.7664 18.7804 11.8456C18.6707 11.9247 18.5388 11.9674 18.4034 11.9675H6.89762Z" stroke="black" stroke-linecap="round" stroke-linejoin="round"/>
</svg>
