<svg width="226" height="178" viewBox="0 0 226 178" fill="none" xmlns="http://www.w3.org/2000/svg">
<path d="M223.749 32.4832C223.111 31.8706 222.318 31.3786 221.426 31.0412C220.533 30.7039 219.561 30.5291 218.578 30.529H61.6229L60.5281 23.6753C59.5181 17.3652 55.7717 11.5977 49.9789 7.43514C44.1866 3.27369 36.7178 0.981445 28.9485 0.981445H7.42188C3.66819 0.981445 0.625 3.47371 0.625 6.54785C0.625 9.62199 3.66819 12.1143 7.42188 12.1143H28.9485C38.2308 12.1143 45.8437 17.5846 47.0495 25.1204L61.5146 115.689L61.0696 115.721C49.0496 116.583 40.0537 124.986 40.5893 134.843C41.1072 144.708 50.9527 152.425 63.0122 152.425H63.0475L70.1117 152.416C69.0498 154.549 68.5044 156.831 68.5058 159.134C68.5058 168.995 78.2961 177.018 90.3302 177.018C102.364 177.018 112.167 168.995 112.167 159.134C112.169 156.811 111.614 154.511 110.535 152.362L154.11 152.305C153.049 154.437 152.504 156.717 152.506 159.019C152.506 168.88 162.302 176.903 174.343 176.903C186.384 176.903 196.167 168.88 196.167 159.019C196.167 149.157 186.377 141.145 174.343 141.145H174.332L63.0258 141.292H63.0117C60.7287 141.297 58.5322 140.578 56.8834 139.284C55.2347 137.991 54.2619 136.225 54.1694 134.357C53.9578 130.466 57.5094 127.152 62.2491 126.812L189.3 117.787C201.564 116.919 211.113 109.646 213.062 99.6864L225.289 36.9731C225.444 36.1779 225.387 35.3647 225.121 34.5895C224.855 33.8143 224.387 33.0956 223.749 32.4829L223.749 32.4832ZM90.3302 165.885C85.7917 165.885 82.0996 162.857 82.0996 159.135C82.0996 155.412 85.7917 152.394 90.3302 152.394C94.8687 152.394 98.5734 155.417 98.5734 159.135C98.5734 162.852 94.8755 165.885 90.3302 165.885ZM182.574 159.019C182.574 162.742 178.882 165.77 174.343 165.77C169.805 165.77 166.1 162.742 166.1 159.019C166.1 155.296 169.798 152.278 174.343 152.278H174.344C178.882 152.278 182.574 155.302 182.574 159.019ZM100.817 98.2919C100.601 98.3086 100.386 98.3167 100.173 98.3167C96.7061 98.3167 93.7449 96.1544 93.4141 93.2706L89.1502 56.1074C88.7995 53.0466 91.5441 50.3325 95.2815 50.0449C99.0143 49.7576 102.333 52.0054 102.685 55.0661L106.949 92.2293C107.299 95.2901 104.555 98.0043 100.817 98.2919ZM144.239 92.75C144.239 95.8241 141.196 98.3164 137.442 98.3164C133.688 98.3164 130.645 95.8241 130.645 92.75V55.5868C130.645 52.5126 133.688 50.0204 137.442 50.0204C141.196 50.0204 144.239 52.5126 144.239 55.5868V92.75ZM185.733 56.1093L181.457 93.2725C181.125 96.1555 178.164 98.3167 174.698 98.3167C174.484 98.3167 174.269 98.3086 174.052 98.2919C170.315 98.0035 167.571 95.2886 167.923 92.2278L172.2 55.0646C172.552 52.0039 175.868 49.7536 179.604 50.0452C183.342 50.3336 186.086 53.0485 185.733 56.1093Z" fill="black"/>
</svg>
