<svg width="512" height="512" viewBox="0 0 512 512" fill="none" xmlns="http://www.w3.org/2000/svg">
<path d="M37.6983 59.0598C35.0828 59.0598 32.5744 60.0988 30.7249 61.9483C28.8754 63.7978 27.8364 66.3062 27.8364 68.9217C27.8364 71.5372 28.8754 74.0457 30.7249 75.8951C32.5744 77.7446 35.0828 78.7836 37.6983 78.7836H95.6416L176.546 386.214C171.126 391.752 167.465 398.769 166.025 406.383C164.585 413.997 165.43 421.867 168.454 429.002C171.478 436.136 176.546 442.216 183.019 446.476C189.492 450.736 197.081 452.985 204.83 452.94C226.451 452.94 244.203 435.189 244.203 413.567C244.203 406.422 242.268 399.686 238.881 393.843H355.289C351.872 399.828 350.081 406.603 350.094 413.494C350.107 420.386 351.924 427.153 355.363 433.125C358.803 439.097 363.745 444.065 369.699 447.534C375.653 451.004 382.412 452.855 389.303 452.903C410.925 452.94 428.713 435.189 428.713 413.567C428.713 391.908 410.925 374.12 389.266 374.12H193.777L184.696 339.696H425.55C430.016 339.696 433.961 336.719 435.077 332.365L483.791 150.236C484.176 148.785 484.225 147.266 483.934 145.793C483.643 144.32 483.02 142.934 482.112 141.738C481.204 140.543 480.035 139.571 478.694 138.896C477.354 138.221 475.877 137.861 474.376 137.843H131.554L112.76 66.3911C112.203 64.2899 110.966 62.4319 109.243 61.1061C107.52 59.7802 105.407 59.0609 103.233 59.0598H37.6983ZM136.764 157.567H461.462L417.921 320.009H179.486L136.764 157.567ZM235.569 194.447C232.96 194.457 230.461 195.5 228.62 197.349C226.778 199.197 225.744 201.7 225.744 204.309V273.23C225.662 274.574 225.855 275.92 226.312 277.186C226.769 278.452 227.481 279.611 228.403 280.592C229.325 281.573 230.438 282.354 231.674 282.888C232.91 283.422 234.241 283.698 235.588 283.698C236.934 283.698 238.265 283.422 239.501 282.888C240.737 282.354 241.85 281.573 242.772 280.592C243.694 279.611 244.406 278.452 244.863 277.186C245.32 275.92 245.513 274.574 245.431 273.23V204.309C245.431 201.693 244.392 199.185 242.542 197.335C240.693 195.486 238.184 194.447 235.569 194.447ZM299.578 194.447C296.963 194.447 294.454 195.486 292.605 197.335C290.755 199.185 289.716 201.693 289.716 204.309V273.23C289.716 275.846 290.755 278.354 292.605 280.204C294.454 282.053 296.963 283.092 299.578 283.092C302.194 283.092 304.702 282.053 306.552 280.204C308.401 278.354 309.44 275.846 309.44 273.23V204.309C309.44 201.693 308.401 199.185 306.552 197.335C304.702 195.486 302.194 194.447 299.578 194.447ZM363.588 194.447C362.292 194.447 361.01 194.702 359.814 195.198C358.617 195.693 357.53 196.42 356.614 197.335C355.698 198.251 354.972 199.338 354.476 200.535C353.981 201.731 353.726 203.014 353.726 204.309V273.23C353.726 275.846 354.765 278.354 356.614 280.204C358.464 282.053 360.972 283.092 363.588 283.092C366.203 283.092 368.711 282.053 370.561 280.204C372.41 278.354 373.449 275.846 373.449 273.23V204.309C373.449 201.693 372.41 199.185 370.561 197.335C368.711 195.486 366.203 194.447 363.588 194.447ZM204.867 393.881C215.845 393.881 224.591 402.552 224.591 413.567C224.591 424.545 215.845 433.254 204.867 433.254C202.271 433.274 199.697 432.777 197.295 431.793C194.893 430.808 192.711 429.356 190.876 427.521C189.04 425.685 187.588 423.503 186.604 421.101C185.62 418.699 185.123 416.126 185.143 413.53C185.143 402.552 193.888 393.881 204.867 393.881ZM389.34 393.881C400.318 393.881 409.027 402.552 409.027 413.567C409.027 424.545 400.318 433.254 389.303 433.254C378.287 433.254 369.728 424.545 369.728 413.53C369.728 402.552 378.325 393.881 389.34 393.881Z" fill="black"/>
</svg>
