<svg width="256" height="188" viewBox="0 0 256 188" fill="none" xmlns="http://www.w3.org/2000/svg">
<path fill-rule="evenodd" clip-rule="evenodd" d="M109.04 146.459C110.985 140.598 106.715 134.475 99.5701 132.879L54.1451 122.736C48.1151 122.08 42.6401 123.277 37.8151 126.312L19.8901 137.571L32.8451 177.225C41.8551 170.105 49.8601 168.686 58.6001 170.33L84.6201 175.224C90.5451 176.339 96.1151 175.908 101.38 173.415L166.445 142.6C172.25 139.852 174.26 133.703 170.905 128.942C167.555 124.18 160.06 122.531 154.255 125.283L108.94 146.742C108.975 146.648 109.01 146.554 109.04 146.459Z" fill="#FFD6BD"/>
<path fill-rule="evenodd" clip-rule="evenodd" d="M92.4899 154.228C99.6449 155.827 107.095 152.329 109.04 146.459C109.105 146.267 109.16 146.078 109.21 145.885C105.945 149.211 100.465 150.84 95.1449 149.65L70.8799 144.232C69.2649 143.871 67.5899 144.659 67.1499 145.984C66.7099 147.304 67.6749 148.686 69.2849 149.043L92.4899 154.228Z" fill="#F9C6AA"/>
<path fill-rule="evenodd" clip-rule="evenodd" d="M20.3351 131.041L36.0051 179.013C36.3851 180.182 35.5351 181.396 34.1051 181.712L23.2951 184.087C21.8701 184.398 20.3901 183.701 20.0051 182.528L4.34012 134.556C3.96012 133.387 4.81012 132.173 6.24012 131.857L17.0501 129.482C18.4751 129.167 19.9551 129.868 20.3351 131.041Z" fill="#4294FF"/>
<path fill-rule="evenodd" clip-rule="evenodd" d="M172.935 37.4356C196.39 70.4532 208.115 86.962 208.115 86.962C215.495 75.4079 220.165 66.7823 236.675 64.4567C237.84 39.023 238.42 26.3081 238.42 26.3081C194.765 33.7278 172.935 37.4356 172.935 37.4356Z" fill="#F9C6AA"/>
<path fill-rule="evenodd" clip-rule="evenodd" d="M209.875 29.6344V95.001C209.875 98.9385 205.96 102.15 201.16 102.15H33.9601C29.1601 102.15 25.2451 98.9385 25.2451 95.001V29.6344C25.2451 25.6969 29.1601 22.4854 33.9601 22.4854H201.165C205.96 22.4854 209.875 25.6969 209.875 29.6344Z" fill="#22C269"/>
<path fill-rule="evenodd" clip-rule="evenodd" d="M50.7001 102.146H33.9601C29.1601 102.146 25.2451 98.9344 25.2451 94.9969V81.2648C39.3051 81.2648 50.7001 90.6164 50.7001 102.146ZM209.875 81.2648V94.9969C209.875 98.9344 205.96 102.146 201.16 102.146H184.42C184.42 90.6164 195.815 81.2648 209.875 81.2648ZM209.875 29.6344V43.3664C195.815 43.3664 184.42 34.0189 184.42 22.4854H201.16C205.96 22.4854 209.875 25.6969 209.875 29.6344ZM25.2451 43.3664V29.6344C25.2451 25.6969 29.1601 22.4854 33.9601 22.4854H50.7001C50.7001 34.0189 39.3051 43.3664 25.2451 43.3664Z" fill="#1CB15F"/>
<path d="M149.253 62.8514C149.619 48.5111 135.744 36.6425 118.263 36.3421C100.781 36.0417 86.3129 47.4233 85.9467 61.7636C85.5805 76.1039 99.4552 87.9725 116.937 88.2729C134.418 88.5733 148.887 77.1917 149.253 62.8514Z" fill="#EFF4F7"/>
<path fill-rule="evenodd" clip-rule="evenodd" d="M241.475 20.8239L241.905 34.6216L209.875 43.3661C196.495 44.8509 186.36 45.1872 171.84 31.6233C164.165 35.2573 151.89 40.8888 145.02 44.1741C138.455 47.3118 129.95 45.4743 126.125 40.0848C122.305 34.7077 124.55 27.7186 131.11 24.585C145.005 17.9446 157.615 11.6405 171.8 5.43074C177.3 3.02312 183.28 3.63426 189.12 5.41844C206.5 10.7218 212.645 20.3563 241.475 20.8239Z" fill="#FFD6BD"/>
<path fill-rule="evenodd" clip-rule="evenodd" d="M232.065 14.4259V71.2161C232.065 72.6558 233.5 73.8329 235.255 73.8329H248.56C250.315 73.8329 251.75 72.6558 251.75 71.2161V14.4259C251.75 12.9862 250.315 11.8091 248.56 11.8091H235.255C233.5 11.8091 232.065 12.9862 232.065 14.4259Z" fill="#4294FF"/>
<path fill-rule="evenodd" clip-rule="evenodd" d="M167.445 130.582C166.36 129.036 164.59 127.928 162.47 127.465C160.345 126.997 158.14 127.231 156.26 128.121L112.215 148.982C109.515 154.412 103.03 157.898 96.0249 157.898C94.5099 157.898 92.9699 157.734 91.4399 157.394L67.1749 151.976C65.0449 151.5 63.7849 149.695 64.3649 147.948C64.9449 146.201 67.1449 145.167 69.2749 145.643L93.5349 151.061C98.5849 152.185 103.805 149.736 105.18 145.598C106.555 141.459 103.565 137.173 98.5199 136.045L53.3649 125.964C48.4699 125.484 44.1799 126.448 40.2449 128.921L26.5849 137.501L37.2399 170.125C44.3299 166.528 51.3749 165.609 59.4949 167.135L85.5099 172.028C90.7099 173.004 95.2449 172.529 99.3749 170.576L164.445 139.757C168.36 137.907 169.705 133.789 167.445 130.582ZM31.7999 178.82L23.5349 180.637L8.5449 134.749L16.8149 132.932L18.1549 137.042C18.1599 137.054 18.1649 137.062 18.1649 137.071L31.7999 178.82ZM174.375 127.301C178.835 133.642 176.18 141.783 168.45 145.442L103.38 176.257C99.4099 178.135 95.1099 179.079 90.5299 179.079C88.3249 179.079 86.0549 178.861 83.7299 178.423L57.7099 173.529C50.9199 172.254 45.4949 173.214 39.4349 176.823L39.8699 178.164C40.8249 181.084 38.7049 184.095 35.1449 184.878L24.3349 187.253C23.7599 187.38 23.1799 187.442 22.5999 187.442C21.4399 187.442 20.2949 187.192 19.2649 186.704C17.7149 185.969 16.6099 184.788 16.1499 183.377L0.479899 135.405C0.0148991 133.99 0.254899 132.514 1.1499 131.246C2.0449 129.975 3.4849 129.068 5.2049 128.687L16.0149 126.312C19.5749 125.533 23.2449 127.272 24.1999 130.192L24.3499 130.643L35.3849 123.708C41.0749 120.135 47.5649 118.712 54.6749 119.483C54.8499 119.504 55.0249 119.532 55.1999 119.573L100.625 129.712C107.3 131.205 112.02 135.692 113.22 140.926L152.26 122.44C155.99 120.673 160.355 120.205 164.54 121.124C168.725 122.047 172.22 124.237 174.375 127.301ZM247.75 15.0901H236.065V70.5597H247.75V15.0901ZM228.065 63.0702V23.1128C216.11 21.4106 208.785 17.8259 201.68 14.3436C197.245 12.1698 193.055 10.119 187.725 8.49071C181.93 6.72294 177.47 6.66962 173.685 8.32255C163.1 12.9532 153.495 17.5962 143.32 22.5099C139.975 24.1259 136.59 25.7624 133.125 27.4194C130.875 28.494 129.265 30.2372 128.595 32.329C127.92 34.4208 128.27 36.5864 129.58 38.4321C132.305 42.2712 138.33 43.5714 143.01 41.336C146.74 39.5559 152.13 37.0499 157.34 34.6259C161.76 32.571 166.33 30.4464 169.845 28.7811C170.646 28.4013 171.582 28.2611 172.495 28.3845C173.408 28.508 174.24 28.8873 174.85 29.4579C188.03 41.779 196.545 41.5329 209.34 40.1138C210.485 39.9866 211.64 40.2737 212.51 40.8972C212.938 41.2054 213.282 41.5851 213.517 42.0109C213.753 42.4367 213.874 42.8988 213.875 43.3663V73.0329C217.39 68.7673 221.64 65.2604 228.065 63.0702ZM205.875 95.0009V84.8618C197.25 86.203 190.435 91.7893 188.8 98.8686H201.16C203.76 98.8686 205.875 97.1337 205.875 95.0009ZM33.9599 98.8686H46.3199C44.6849 91.7893 37.8749 86.203 29.2449 84.8618V95.0009C29.2449 97.1337 31.3599 98.8686 33.9599 98.8686ZM29.2449 29.6343V39.7733C37.8749 38.4321 44.6849 32.8458 46.3199 25.7665H33.9599C31.3599 25.7665 29.2449 27.5015 29.2449 29.6343ZM123.67 25.7665C122.374 27.2401 121.421 28.8977 120.86 30.6556C120.59 31.4882 120.42 32.3249 120.33 33.1616C119.41 33.1042 118.485 33.0673 117.56 33.0673C97.8999 33.0673 81.8999 46.1882 81.8999 62.3196C81.8999 78.447 97.8999 91.5679 117.56 91.5679C137.225 91.5679 153.22 78.447 153.22 62.3196C153.22 56.7538 151.28 51.3397 147.7 46.6927C151.355 44.9536 156.395 42.6075 161.285 40.3352C164.625 38.7808 168.05 37.1893 171.05 35.7784C183.84 46.8649 194.03 48.0216 205.875 47.0618V78.2173C192.83 79.6774 182.48 88.1636 180.7 98.8686H54.4199C52.6399 88.1636 42.2899 79.6774 29.2449 78.2173V46.4179C42.2899 44.9577 52.6399 36.4675 54.4199 25.7665H123.67ZM122.67 41.738C126.295 46.8403 133.135 49.4694 139.875 48.9157C143.348 52.8039 145.221 57.4991 145.22 62.3196C145.22 74.8294 132.815 85.0054 117.56 85.0054C102.31 85.0054 89.8999 74.8294 89.8999 62.3196C89.8999 49.8057 102.31 39.6298 117.56 39.6298C118.9 39.6298 120.235 39.7159 121.555 39.8718C121.87 40.5075 122.24 41.1309 122.67 41.738ZM255.75 14.4298V71.22C255.75 74.4726 252.525 77.1222 248.56 77.1222H235.255C231.29 77.1222 228.065 74.4726 228.065 71.22V70.4161C222.105 73.439 218.88 78.5085 214.47 85.4524C214.275 85.76 214.075 86.0718 213.875 86.3835V95.0009C213.875 100.751 208.175 105.431 201.16 105.431H33.9599C26.9499 105.431 21.2449 100.751 21.2449 95.0009V29.6343C21.2449 23.8839 26.9499 19.204 33.9599 19.204H134.385C136.02 18.4165 137.645 17.6331 139.265 16.8538C149.51 11.9032 159.185 7.23153 169.915 2.53524C175.79 -0.0364366 182.53 -0.0979605 190.52 2.34247C196.53 4.17587 201.235 6.48095 205.78 8.70809C212.23 11.8663 218.365 14.8727 228.065 16.4395V14.4298C228.065 11.1772 231.29 8.52763 235.255 8.52763H248.56C252.525 8.52763 255.75 11.1772 255.75 14.4298ZM129.975 68.5253C129.975 72.9673 126.24 76.7038 121.215 77.7374V78.6766C121.215 80.4895 119.425 81.9579 117.215 81.9579C115.005 81.9579 113.215 80.4854 113.215 78.6766V77.7333C110.571 77.1818 108.246 75.8872 106.645 74.0747C105.35 72.6063 105.75 70.5556 107.54 69.4933C109.33 68.4309 111.835 68.7591 113.125 70.2274C113.805 70.9985 114.89 71.4579 116.025 71.4579H118.405C120.375 71.4579 121.975 70.1413 121.975 68.5253C121.975 66.9134 120.375 65.6009 118.405 65.6009H116.715C110.335 65.6009 105.145 61.3434 105.145 56.1099C105.145 51.6679 108.88 47.9313 113.905 46.8977V45.9585C113.905 44.1497 115.695 42.6772 117.905 42.6772C120.115 42.6772 121.905 44.1497 121.905 45.9585V46.9059C124.52 47.4473 126.865 48.7311 128.475 50.5604C129.097 51.2653 129.352 52.144 129.184 53.0032C129.016 53.8624 128.439 54.6317 127.58 55.1419C126.721 55.6521 125.649 55.8613 124.602 55.7236C123.555 55.586 122.617 55.1126 121.995 54.4077C121.315 53.6366 120.235 53.1772 119.1 53.1772H116.715C114.745 53.1772 113.145 54.4938 113.145 56.1099C113.145 57.7218 114.745 59.0384 116.715 59.0384H118.405C124.785 59.0384 129.975 63.2958 129.975 68.5253Z" fill="black"/>
</svg>
