<svg width="202" height="205" viewBox="0 0 202 205" fill="none" xmlns="http://www.w3.org/2000/svg">
<g clip-path="url(#clip0_325_8403)">
<path d="M30.4586 120.754L73.9199 75.0179L114.347 32.4688C114.347 32.4688 136.405 79.8906 149.484 84.7033L169.968 128.758L170.039 128.914L170.126 129.102C171.818 132.886 186.566 166.703 178.778 181.433C175.396 187.827 167.766 190.626 152.975 185.801L124.455 172.708C124.455 172.708 98.6252 147.404 81.0805 152.797L32.2813 130.396C30.5296 129.591 29.2711 127.969 28.9081 126.051C28.5452 124.133 29.1251 122.16 30.4586 120.754Z" fill="#FF3737"/>
<path d="M28.9084 126.051C29.2714 127.969 30.5299 129.591 32.2816 130.396L81.0808 152.797C98.6255 147.404 124.455 172.709 124.455 172.709L152.976 185.801C167.767 190.626 175.397 187.827 178.778 181.433L73.9201 75.0181L30.4589 120.754C29.1254 122.16 28.5454 124.134 28.9084 126.051Z" fill="#FF7878"/>
<path d="M159.963 162.338L169.968 128.758L201.435 196.431C201.951 197.543 202.119 198.788 201.916 200C201.713 201.211 201.149 202.33 200.299 203.206C200.287 203.218 200.276 203.23 200.264 203.238C199.131 204.391 197.616 205 196.082 205C195.257 205 194.425 204.823 193.643 204.467L152.976 185.801L159.963 162.338Z" fill="#A5FFFF"/>
<path d="M152.975 185.801L193.643 204.467C194.425 204.824 195.257 205 196.082 205C197.616 205 199.131 204.391 200.264 203.238L159.962 162.338L152.975 185.801Z" fill="#E3F4FF"/>
<path d="M96.3054 97.7358L114.347 32.4686L115.677 31.0673C116.342 30.3671 117.165 29.8412 118.075 29.535C118.984 29.2288 119.954 29.1513 120.899 29.3092C121.845 29.4671 122.739 29.8557 123.504 30.4416C124.269 31.0275 124.882 31.7932 125.291 32.6728L149.484 84.7032L134.697 136.697L124.455 172.708L81.0806 152.797L96.3054 97.7358Z" fill="#A5FFFF"/>
<path d="M81.0809 152.797L124.455 172.708L134.697 136.698L96.3057 97.7358L81.0809 152.797Z" fill="#E3F4FF"/>
<path d="M41.0273 89.2896C43.1984 89.2896 45.2882 88.0728 46.325 85.9684C47.7868 83.0015 46.602 79.3944 43.6785 77.9105L41.5054 76.8078C29.2114 70.5689 14.7909 71.0526 2.92897 78.0991C0.108464 79.7747 -0.839596 83.4539 0.811517 86.3163C2.46302 89.1795 6.08797 90.1404 8.90847 88.4656C17.3037 83.4779 27.5106 83.136 36.2124 87.5515L38.3855 88.6542C39.2053 89.0718 40.1099 89.2894 41.0273 89.2896Z" fill="#9B79DB"/>
<path d="M15.7749 57.2568C19.0432 57.2568 21.6948 54.5678 21.6948 51.251C21.6948 47.9341 19.0471 45.2451 15.7788 45.2451H15.7749C12.5062 45.2451 9.85691 47.9341 9.85691 51.251C9.85691 54.5678 12.5058 57.2568 15.7749 57.2568Z" fill="#FFD322"/>
<path d="M50.8872 57.6572C50.8872 60.9725 53.5384 63.6631 56.8051 63.6631C58.4385 63.6631 59.918 62.9904 60.9911 61.9014V61.8974C62.0642 60.8123 62.7271 59.3148 62.7271 57.6572C62.7271 54.342 60.0758 51.6514 56.8091 51.6514H56.8051C55.1718 51.6514 53.6962 52.324 52.627 53.4091C51.55 54.4941 50.8872 55.9996 50.8872 57.6572Z" fill="#F27BB5"/>
<path d="M50.8873 57.6573C50.8873 60.9726 53.5385 63.6632 56.8052 63.6632C58.4386 63.6632 59.9181 62.9905 60.9912 61.9015V61.8975L52.6271 53.4092C51.5501 54.4942 50.8873 55.9997 50.8873 57.6573Z" fill="#EC3C93"/>
<path d="M82.0675 47.6495C82.9568 47.6495 83.8598 47.4452 84.7093 47.014C87.6328 45.5306 88.8175 41.9231 87.3558 38.9562L86.2693 36.7508C81.9188 27.9202 82.2553 17.5617 87.17 9.04098C88.8211 6.17859 87.873 2.4994 85.0525 0.823767C82.2324 -0.851868 78.6067 0.109871 76.9556 2.97306C70.0118 15.0112 69.536 29.6467 75.6832 42.1225L76.7697 44.3274C77.8066 46.4327 79.8968 47.6495 82.0675 47.6495Z" fill="#FF7777"/>
<path d="M50.4931 22.0229C53.7614 22.0229 56.4131 19.3339 56.4131 16.0171C56.4131 12.7003 53.7654 10.0112 50.4971 10.0112H50.4931C47.2245 10.0112 44.5752 12.7003 44.5752 16.0171C44.5752 19.3339 47.2241 22.0229 50.4931 22.0229Z" fill="#008E3B"/>
<path d="M0.000976562 6.00732V6.40771C0.000976562 16.7858 8.3177 25.2261 18.5439 25.2261H18.9385C22.6352 25.2261 25.6455 28.2811 25.6455 32.0327C25.6455 35.3479 28.2968 38.0386 31.5635 38.0386C33.1968 38.0386 34.6763 37.3659 35.7455 36.2769C36.8186 35.1918 37.4814 33.6903 37.4814 32.0327C37.4814 21.6546 29.1647 13.2144 18.9385 13.2144H18.5439C14.8472 13.2144 11.8369 10.1594 11.8369 6.40771V6.00732C11.8369 2.69209 9.18566 0.00146484 5.91895 0.00146484C4.28559 0.00146484 2.8061 0.674121 1.73692 1.76318C0.663799 2.84824 0.000976562 4.34971 0.000976562 6.00732Z" fill="#F27BB5"/>
<path d="M0.00107181 6.00732V6.40771C0.00107181 16.7858 8.31779 25.2261 18.544 25.2261H18.9386C22.6353 25.2261 25.6456 28.2811 25.6456 32.0327C25.6456 35.3479 28.2969 38.0386 31.5636 38.0386C33.1969 38.0386 34.6764 37.3659 35.7456 36.2769L1.73702 1.76318C0.663894 2.84824 0.00107181 4.34971 0.00107181 6.00732Z" fill="#EC3C93"/>
</g>
<defs>
<clipPath id="clip0_325_8403">
<rect width="202" height="205" fill="white"/>
</clipPath>
</defs>
</svg>
