<svg width="223" height="215" viewBox="0 0 223 215" fill="none" xmlns="http://www.w3.org/2000/svg">
<path d="M189.375 126.645L141.396 78.6775L96.7657 34.0527C96.7657 34.0527 72.4144 83.7879 57.9762 88.8353L35.3628 135.039L35.2844 135.203L35.1885 135.4C33.3201 139.368 17.0394 174.835 25.6371 190.283C29.3697 196.99 37.7931 199.925 54.1216 194.865L85.6071 181.133C85.6071 181.133 114.122 154.595 133.491 160.251L187.363 136.756C189.297 135.912 190.686 134.212 191.087 132.2C191.488 130.189 190.847 128.119 189.375 126.645Z" fill="#FF3737"/>
<path d="M191.087 132.2C190.686 134.211 189.297 135.912 187.363 136.756L133.491 160.251C114.122 154.594 85.6072 181.133 85.6072 181.133L54.1218 194.865C37.7932 199.925 29.3698 196.989 25.6372 190.283L141.396 78.6772L189.375 126.645C190.848 128.118 191.488 130.189 191.087 132.2Z" fill="#FF7878"/>
<path d="M46.4081 170.258L35.3627 135.039L0.623754 206.014C0.0540478 207.18 -0.131145 208.486 0.0931506 209.756C0.317446 211.027 0.940442 212.2 1.87812 213.119C1.89119 213.131 1.90425 213.144 1.91732 213.152C3.16733 214.362 4.83981 215 6.53408 215C7.44436 215 8.36336 214.815 9.22574 214.441L54.1216 194.865L46.4081 170.258Z" fill="#A5FFFF"/>
<path d="M54.1221 194.865L9.22596 214.442C8.36357 214.815 7.44457 215 6.53428 215C4.84 215 3.1675 214.362 1.91748 213.152L46.4086 170.257L54.1221 194.865Z" fill="#E3F4FF"/>
<path d="M116.683 102.503L96.7656 34.0524L95.2978 32.5827C94.5634 31.8483 93.655 31.2968 92.6508 30.9757C91.6465 30.6545 90.5764 30.5732 89.5323 30.7389C88.4883 30.9045 87.5016 31.3121 86.657 31.9266C85.8124 32.541 85.1352 33.344 84.6836 34.2666L57.9761 88.835L74.3002 143.366L85.607 181.133L133.491 160.251L116.683 102.503Z" fill="#A5FFFF"/>
<path d="M133.491 160.251L85.607 181.133L74.3003 143.366L116.683 102.503L133.491 160.251Z" fill="#E3F4FF"/>
<path d="M177.708 93.6453C175.311 93.6453 173.004 92.3691 171.859 90.162C170.246 87.0504 171.553 83.2673 174.781 81.7111L177.18 80.5546C190.752 74.0114 206.672 74.5187 219.767 81.9089C222.88 83.6662 223.927 87.5249 222.104 90.5269C220.281 93.5298 216.279 94.5376 213.166 92.7811C203.898 87.5501 192.63 87.1915 183.023 91.8224L180.624 92.9788C179.719 93.4169 178.72 93.6451 177.708 93.6453Z" fill="#9B79DB"/>
<path d="M205.586 60.0498C201.978 60.0498 199.05 57.2296 199.05 53.751C199.05 50.2723 201.973 47.4521 205.581 47.4521H205.586C209.194 47.4521 212.119 50.2723 212.119 53.751C212.119 57.2296 209.195 60.0498 205.586 60.0498Z" fill="#FFD322"/>
<path d="M166.823 60.4697C166.823 63.9467 163.896 66.7686 160.29 66.7686C158.486 66.7686 156.853 66.0631 155.668 64.9209V64.9167C154.484 63.7787 153.752 62.2082 153.752 60.4697C153.752 56.9928 156.679 54.1709 160.285 54.1709H160.29C162.093 54.1709 163.722 54.8764 164.902 56.0144C166.091 57.1523 166.823 58.7313 166.823 60.4697Z" fill="#F27BB5"/>
<path d="M166.823 60.4695C166.823 63.9465 163.896 66.7684 160.29 66.7684C158.486 66.7684 156.853 66.0629 155.668 64.9207V64.9165L164.902 56.0142C166.091 57.1521 166.823 58.7311 166.823 60.4695Z" fill="#EC3C93"/>
<path d="M132.401 49.9738C131.419 49.9738 130.422 49.7596 129.484 49.3074C126.257 47.7516 124.949 43.9681 126.563 40.8565L127.762 38.5435C132.565 29.2822 132.194 18.4184 126.768 9.48201C124.945 6.47999 125.992 2.62132 129.106 0.863951C132.219 -0.893422 136.221 0.11523 138.044 3.11809C145.71 15.7435 146.235 31.0929 139.449 44.1772L138.249 46.4897C137.105 48.6977 134.797 49.9738 132.401 49.9738Z" fill="#FF7777"/>
<path d="M167.258 23.0972C163.65 23.0972 160.723 20.277 160.723 16.7983C160.723 13.3197 163.646 10.4995 167.254 10.4995H167.258C170.867 10.4995 173.791 13.3197 173.791 16.7983C173.791 20.277 170.867 23.0972 167.258 23.0972Z" fill="#008E3B"/>
<path d="M223 6.30029V6.72021C223 17.6046 213.818 26.4565 202.529 26.4565H202.093C198.012 26.4565 194.689 29.6605 194.689 33.5952C194.689 37.0722 191.762 39.894 188.156 39.894C186.353 39.894 184.719 39.1886 183.539 38.0464C182.354 36.9084 181.623 35.3337 181.623 33.5952C181.623 22.7108 190.804 13.8589 202.093 13.8589H202.529C206.61 13.8589 209.933 10.6549 209.933 6.72021V6.30029C209.933 2.82334 212.86 0.00146484 216.466 0.00146484C218.269 0.00146484 219.903 0.706934 221.083 1.84912C222.268 2.98711 223 4.56182 223 6.30029Z" fill="#F27BB5"/>
<path d="M223 6.30029V6.72022C223 17.6046 213.818 26.4565 202.529 26.4565H202.093C198.012 26.4565 194.689 29.6605 194.689 33.5952C194.689 37.0722 191.762 39.894 188.156 39.894C186.353 39.894 184.719 39.1886 183.539 38.0464L221.083 1.84912C222.268 2.98711 223 4.56182 223 6.30029Z" fill="#EC3C93"/>
</svg>
