<svg width="219" height="197" viewBox="0 0 219 197" fill="none" xmlns="http://www.w3.org/2000/svg">
<path d="M196.344 40.7635C193.532 40.0407 188.579 39.2067 181.182 38.1921C171.293 36.8508 167.87 36.896 166.151 37.0349C166.07 37.0435 165.989 37.0504 165.908 37.0558C163.957 37.2643 160.508 38.0357 151.013 42.3515C144.056 45.5205 133.792 51.6919 119.642 61.206C113.688 65.2119 107.845 69.3506 102.12 73.6182C87.7027 65.2244 72.8999 57.3794 57.7504 50.1039C57.5719 50.0262 57.3916 49.9521 57.2096 49.8815C54.8571 49.0996 34.0089 42.2611 25.1281 43.0117C20.1913 43.4322 18.2985 46.1564 18.1787 48.568C17.6379 58.8188 18.8895 64.3299 22.3159 66.9917C23.8108 68.1835 27.5733 70.5812 42.3528 77.1417C54.0633 82.2924 65.5032 87.9265 76.6361 94.0261C64.3829 104.571 52.623 115.57 41.3871 126.995C41.2596 127.134 41.136 127.27 41.0201 127.419C33.0818 138.105 24.1121 152.046 26.4569 157.835C27.1445 159.52 28.6202 160.768 30.513 161.258C37.474 163.058 42.6194 163.794 46.2466 163.492C48.3596 163.308 50.0439 162.787 51.4036 161.907C53.0492 160.861 56.522 158.12 67.0252 146.75C78.2354 134.491 90.8826 122.419 104.685 110.83C109.544 113.965 113.666 116.713 117.467 119.382C140.988 135.856 158.874 150.958 170.594 164.284C173.742 168.023 174.866 169.114 175.496 169.635C177.338 171.178 179.216 171.564 180.475 171.609C180.792 171.62 181.089 171.613 181.375 171.585C183.84 171.376 186.783 169.688 186.976 165.612C187.1 163.037 186.864 158.502 186.239 151.796C185.377 142.601 184.504 139.616 183.921 138.16C183.256 136.503 181.607 133.664 174.731 126.363C169.694 121.04 160.392 113.273 147.061 103.28C141.435 99.0723 135.692 94.9938 129.836 91.0481L130.161 90.8188C153.45 74.0595 173.939 61.9253 191.04 54.7741C195.807 52.8907 197.236 52.1714 197.939 51.7544C199.643 50.7189 200.759 49.3881 201.257 47.8452C202.115 45.2043 200.929 41.9658 196.344 40.7635Z" fill="#0C0C0C"/>
</svg>
