<svg width="512" height="512" viewBox="0 0 512 512" fill="none" xmlns="http://www.w3.org/2000/svg">
<path d="M293.6 334.7C293.6 322.8 290.7 313.4 284.8 306.6C278.9 299.8 268.6 293.4 253.8 287.4C239 281.4 225.3 275.3 212.8 269.1C200.3 262.9 189.5 255.7 180.4 247.6C171.3 239.5 164.4 230 159.6 219.3C154.8 208.6 152.4 195.6 152.4 180.4C152.4 154.9 161 133.9 178.2 117.4C195.4 100.9 218.3 91.3001 247 88.5001V40.6001H283V89.3001C310.6 93.4001 332.3 104.7 348.1 123.4C363.9 142.1 371.7 165.7 371.7 194.4H295.2C295.2 178.7 292.2 166.6 286.1 158.2C280.1 149.8 271.5 145.5 260.3 145.5C250.3 145.5 242.6 148.6 237.1 154.9C231.6 161.2 228.8 169.8 228.8 180.8C228.8 191.8 232 200.8 238.3 207.4C244.6 214 254.8 220.2 268.9 226.2C282.9 232.2 296.2 238.3 308.6 244.8C321 251.2 331.8 258.5 340.9 266.6C350 274.7 357 284.3 362.2 295.1C367.3 306 369.9 319 369.9 334.3C369.9 360.1 361.7 381.2 345.3 397.4C328.9 413.7 306.6 423.2 278.4 425.9V471.4H242.4V425.7C209.5 422.2 184.3 410.9 166.7 391.9C149.1 372.8 140.3 347.7 140.3 316.4H216.6C216.6 333.6 220.4 346.7 228 355.7C235.6 364.7 246.4 369.2 260.5 369.2C270.8 369.2 278.8 366.1 284.7 360C290.6 353.8 293.6 345.4 293.6 334.7Z" fill="black"/>
</svg>
