<svg width="259" height="211" viewBox="0 0 259 211" fill="none" xmlns="http://www.w3.org/2000/svg">
<path d="M205.885 124.045C201.698 124.045 198.297 126.816 198.297 130.227C198.297 133.637 201.698 136.408 205.885 136.408C210.071 136.408 213.473 133.637 213.473 130.227C213.473 126.816 210.071 124.045 205.885 124.045Z" fill="black"/>
<path d="M251.412 37.502H76.5087V56.0469C76.5087 59.4637 73.1149 62.2285 68.9208 62.2285C64.7267 62.2285 61.3329 59.4637 61.3329 56.0469V37.502H7.58789C3.39381 37.502 0 40.2668 0 43.6836V80.7734C0 84.1902 3.39381 86.9551 7.58789 86.9551C20.1403 86.9551 30.3516 95.2739 30.3516 105.5C30.3516 115.726 20.1403 124.045 7.58789 124.045C3.39381 124.045 0 126.81 0 130.227V167.316C0 170.733 3.39381 173.498 7.58789 173.498H60.7031V154.953C60.7031 151.536 64.0969 148.771 68.291 148.771C72.4851 148.771 75.8789 151.536 75.8789 154.953V173.498H251.412C255.606 173.498 259 170.733 259 167.316V43.6836C259 40.2668 255.606 37.502 251.412 37.502ZM75.8789 130.227C75.8789 133.643 72.4851 136.408 68.291 136.408C64.0969 136.408 60.7031 133.643 60.7031 130.227V117.863C60.7031 114.446 64.0969 111.682 68.291 111.682C72.4851 111.682 75.8789 114.446 75.8789 117.863V130.227ZM75.8789 93.1367C75.8789 96.5535 72.4851 99.3184 68.291 99.3184C64.0969 99.3184 60.7031 96.5535 60.7031 93.1367V80.7734C60.7031 77.3566 64.0969 74.5918 68.291 74.5918C72.4851 74.5918 75.8789 77.3566 75.8789 80.7734V93.1367ZM122.418 80.7734C122.418 70.5474 132.629 62.2285 145.182 62.2285C157.734 62.2285 167.945 70.5474 167.945 80.7734C167.945 90.9995 157.734 99.3184 145.182 99.3184C132.629 99.3184 122.418 90.9995 122.418 80.7734ZM140.973 147.733C137.483 145.837 136.542 142.004 138.869 139.161L199.572 64.981C201.891 62.1379 206.597 61.3771 210.094 63.2666C213.584 65.1623 214.525 68.9954 212.198 71.8389L151.495 146.019C149.206 148.82 144.518 149.648 140.973 147.733ZM205.885 148.771C193.332 148.771 183.121 140.453 183.121 130.227C183.121 120 193.332 111.682 205.885 111.682C218.437 111.682 228.648 120 228.648 130.227C228.648 140.453 218.437 148.771 205.885 148.771Z" fill="black"/>
<path d="M145.182 74.5918C140.995 74.5918 137.594 77.3628 137.594 80.7734C137.594 84.1841 140.995 86.9551 145.182 86.9551C149.368 86.9551 152.77 84.1841 152.77 80.7734C152.77 77.3628 149.368 74.5918 145.182 74.5918Z" fill="black"/>
</svg>
