<svg width="462" height="358" viewBox="0 0 462 358" fill="none" xmlns="http://www.w3.org/2000/svg">
<path fill-rule="evenodd" clip-rule="evenodd" d="M37.8429 21.3639L176.163 159.744C206.331 189.854 255.645 189.88 285.838 159.744L424.158 21.3639C424.485 21.0388 424.737 20.6457 424.895 20.2124C425.053 19.7792 425.114 19.3165 425.073 18.8571C425.032 18.3977 424.891 17.9529 424.659 17.5542C424.428 17.1554 424.111 16.8126 423.732 16.5499C409.624 6.71093 392.459 0.87793 373.969 0.87793H88.0329C69.5419 0.87793 52.3769 6.71193 38.2689 16.5499C37.8898 16.8126 37.5732 17.1554 37.3414 17.5542C37.1096 17.9529 36.9684 18.3977 36.9277 18.8571C36.8871 19.3165 36.948 19.7792 37.1062 20.2124C37.2643 20.6457 37.5159 21.0388 37.8429 21.3639ZM0.878934 88.0309C0.867672 73.9707 4.28468 60.1197 10.8339 47.6779C11.0626 47.2393 11.3915 46.8608 11.7939 46.5732C12.1963 46.2856 12.661 46.097 13.15 46.0228C13.639 45.9485 14.1387 45.9907 14.6083 46.1459C15.078 46.3011 15.5044 46.5649 15.8529 46.9159L152.422 183.485C195.669 226.795 266.307 226.82 309.58 183.485L446.149 46.9159C446.497 46.5649 446.924 46.3011 447.394 46.1459C447.863 45.9907 448.363 45.9485 448.852 46.0228C449.341 46.097 449.806 46.2856 450.208 46.5732C450.61 46.8608 450.939 47.2393 451.168 47.6779C457.717 60.1199 461.134 73.9708 461.123 88.0309V269.968C461.123 318.061 422.002 357.122 373.969 357.122H88.0329C40.0009 357.122 0.878934 318.061 0.878934 269.968V88.0309Z" fill="black"/>
</svg>
