<svg width="290" height="245" viewBox="0 0 290 245" fill="none" xmlns="http://www.w3.org/2000/svg">
<path d="M235.138 214.93C234.112 214.932 233.099 214.745 232.167 214.383C231.236 214.02 230.409 213.491 229.745 212.831C229.08 212.171 228.594 211.397 228.32 210.562C228.046 209.727 227.99 208.852 228.157 207.997C228.324 207.143 228.709 206.329 229.286 205.613C229.863 204.896 230.618 204.295 231.498 203.851C232.378 203.406 233.362 203.129 234.382 203.038C235.402 202.947 236.433 203.046 237.403 203.326C238.983 203.782 240.32 204.697 241.177 205.908C242.034 207.118 242.355 208.546 242.084 209.938C241.812 211.33 240.965 212.595 239.693 213.509C238.421 214.423 236.807 214.926 235.138 214.93ZM235.138 205.876C234.465 205.875 233.804 206.031 233.229 206.326C232.654 206.621 232.186 207.044 231.877 207.55C231.569 208.055 231.431 208.622 231.479 209.19C231.527 209.757 231.76 210.302 232.151 210.764C232.542 211.227 233.077 211.59 233.696 211.812C234.316 212.035 234.996 212.109 235.662 212.026C236.328 211.943 236.954 211.707 237.471 211.343C237.988 210.979 238.376 210.501 238.593 209.963C238.778 209.5 238.831 209.006 238.746 208.522C238.662 208.038 238.443 207.577 238.108 207.179C237.772 206.78 237.33 206.454 236.816 206.228C236.303 206.001 235.734 205.881 235.155 205.876H235.138ZM199.941 224.275C199.547 223.6 199.356 222.852 199.385 222.099C199.415 221.346 199.664 220.611 200.11 219.959C200.556 219.306 201.186 218.757 201.944 218.36C202.701 217.962 203.563 217.729 204.453 217.68C205.343 217.632 206.234 217.769 207.045 218.081C207.857 218.393 208.566 218.869 209.108 219.467C209.65 220.066 210.008 220.768 210.152 221.511C210.296 222.255 210.221 223.017 209.933 223.73C209.584 224.585 208.945 225.333 208.094 225.882C207.243 226.43 206.22 226.754 205.152 226.812C204.084 226.871 203.02 226.661 202.092 226.21C201.165 225.758 200.417 225.085 199.941 224.275ZM204.807 220.548C204.434 220.547 204.069 220.632 203.751 220.795C203.432 220.959 203.173 221.193 203.003 221.472C202.832 221.752 202.756 222.066 202.782 222.379C202.809 222.693 202.938 222.994 203.155 223.25C203.371 223.506 203.667 223.706 204.01 223.829C204.353 223.952 204.729 223.992 205.097 223.946C205.466 223.899 205.812 223.768 206.097 223.566C206.383 223.364 206.597 223.1 206.715 222.802C206.818 222.545 206.846 222.272 206.799 222.004C206.752 221.736 206.63 221.482 206.444 221.262C206.257 221.042 206.012 220.862 205.727 220.738C205.442 220.614 205.127 220.549 204.807 220.548Z" fill="#5E6175"/>
<path d="M31.5942 196.747H28.1958V193.875H31.5942V196.747ZM31.5942 189.09H28.1958V186.219H31.5942V189.09ZM31.5942 181.434H28.1958V178.563H31.5942V181.434ZM31.5942 173.778H28.1958V170.907H31.5942V173.778ZM31.5942 166.122H28.1958V163.25H31.5942V166.122ZM31.5942 158.465H28.1958V155.594H31.5942V158.465ZM31.5942 150.809H28.1958V147.938H31.5942V150.809ZM31.5942 143.153H28.1958V140.282H31.5942V143.153ZM31.5942 135.497H28.1958V132.625H31.5942V135.497ZM31.5942 127.84H28.1958V124.969H31.5942V127.84ZM31.5942 120.184H28.1958V117.313H31.5942V120.184ZM31.5942 112.528H28.1958V109.657H31.5942V112.528Z" fill="#A9AFC4"/>
<path d="M228.97 173.132H57.0029C57.0029 173.132 74.7201 165.748 74.7201 148.053V87.9274C74.7201 72.631 81.9127 57.961 94.7156 47.1447C107.519 36.3285 124.883 30.252 142.989 30.252C161.095 30.252 178.46 36.3285 191.262 47.1447C204.065 57.961 211.258 72.631 211.258 87.9274V148.053C211.269 165.748 228.97 173.132 228.97 173.132Z" fill="#F5F5F5"/>
<path d="M120.231 43.6504C110.018 47.3973 101.325 53.5848 95.2202 61.4515C89.1158 69.3182 85.8666 78.521 85.8726 87.9274V148.053C85.917 153.455 84.5639 158.8 81.9077 163.715H120.214L120.231 43.6504Z" fill="url(#paint0_linear_540_8410)"/>
<path d="M211.27 87.9272V102.91C183 93.6455 171.462 65.2887 186.461 43.4492C194.228 48.8549 200.481 55.6471 204.77 63.3375C209.06 71.028 211.279 79.4257 211.27 87.9272Z" fill="url(#paint1_linear_540_8410)"/>
<path d="M239.975 182.429C239.973 184.894 238.813 187.258 236.75 189.001C234.686 190.743 231.887 191.722 228.97 191.722H57.003C54.0857 191.722 51.288 190.743 49.2251 189C47.1623 187.257 46.0034 184.894 46.0034 182.429C46.0034 179.965 47.1623 177.601 49.2251 175.858C51.288 174.116 54.0857 173.136 57.003 173.136H228.97C230.415 173.136 231.846 173.376 233.181 173.842C234.516 174.309 235.729 174.994 236.751 175.857C237.773 176.72 238.584 177.744 239.137 178.872C239.69 180 239.975 181.208 239.975 182.429Z" fill="#F5F5F5"/>
<path d="M239.975 182.429C239.973 184.894 238.813 187.258 236.75 189C234.686 190.743 231.887 191.722 228.97 191.722H57.003C54.0857 191.722 51.288 190.743 49.2251 189C47.1623 187.257 46.0034 184.894 46.0034 182.429H239.975Z" fill="url(#paint2_linear_540_8410)"/>
<path d="M174.153 191.722V196.144C174.15 200.3 172.194 204.286 168.715 207.226C165.236 210.165 160.518 211.817 155.598 211.82H130.381C125.461 211.817 120.743 210.165 117.264 207.226C113.785 204.286 111.829 200.3 111.826 196.144V191.722H174.153Z" fill="#5E6175"/>
<path d="M154.481 26.9356V31.0748C146.874 29.9838 139.104 29.9838 131.497 31.0748V26.9356C131.497 24.3606 132.707 21.8911 134.863 20.0703C137.018 18.2495 139.941 17.2266 142.989 17.2266C146.037 17.2266 148.96 18.2495 151.115 20.0703C153.271 21.8911 154.481 24.3606 154.481 26.9356Z" fill="#F5F5F5"/>
<path d="M49.7192 174.572L56.2556 171.85C56.9353 171.562 73.0212 164.61 73.0212 148.058V87.9274C73.0212 72.2502 80.3928 57.2151 93.5144 46.1296C106.636 35.0442 124.433 28.8164 142.989 28.8164C161.546 28.8164 179.343 35.0442 192.464 46.1296C205.586 57.2151 212.958 72.2502 212.958 87.9274V148.058C212.958 164.61 229.043 171.562 229.729 171.85L236.192 174.572H49.7192ZM62.6786 171.701H223.3C217.761 168.031 209.57 160.494 209.57 148.058V87.9274C209.57 73.0117 202.557 58.7068 190.073 48.1598C177.588 37.6128 160.656 31.6875 143.001 31.6875C125.345 31.6875 108.413 37.6128 95.9288 48.1598C83.4445 58.7068 76.431 73.0117 76.431 87.9274V148.058C76.4196 160.494 68.2124 168.031 62.6786 171.701Z" fill="#5E6175"/>
<path d="M156.181 32.7735L154.193 32.4912C146.775 31.4289 139.198 31.4289 131.78 32.4912L129.798 32.7735V26.9356C129.798 23.9799 131.187 21.1452 133.661 19.0552C136.135 16.9652 139.491 15.791 142.989 15.791C146.488 15.791 149.843 16.9652 152.317 19.0552C154.791 21.1452 156.181 23.9799 156.181 26.9356V32.7735ZM152.782 29.4239V26.9356C152.782 24.7414 151.751 22.637 149.914 21.0854C148.077 19.5338 145.586 18.6621 142.989 18.6621C140.392 18.6621 137.901 19.5338 136.064 21.0854C134.228 22.637 133.196 24.7414 133.196 26.9356V29.4C139.693 28.6271 146.286 28.6271 152.782 29.4V29.4239ZM228.97 193.158H57.003C53.6351 193.158 50.4051 192.027 48.0236 190.015C45.6421 188.003 44.3042 185.275 44.3042 182.429C44.3042 179.584 45.6421 176.855 48.0236 174.843C50.4051 172.831 53.6351 171.701 57.003 171.701H228.97C232.338 171.701 235.568 172.831 237.949 174.843C240.331 176.855 241.668 179.584 241.668 182.429C241.668 185.275 240.331 188.003 237.949 190.015C235.568 192.027 232.338 193.158 228.97 193.158ZM57.003 174.572C54.5364 174.572 52.1708 175.4 50.4267 176.873C48.6825 178.347 47.7026 180.345 47.7026 182.429C47.7026 184.513 48.6825 186.512 50.4267 187.985C52.1708 189.459 54.5364 190.287 57.003 190.287H228.97C231.436 190.287 233.802 189.459 235.546 187.985C237.29 186.512 238.27 184.513 238.27 182.429C238.27 180.345 237.29 178.347 235.546 176.873C233.802 175.4 231.436 174.572 228.97 174.572H57.003Z" fill="#5E6175"/>
<path d="M174.153 191.722V196.144C174.156 198.068 173.735 199.976 172.912 201.771H113.066C111.565 198.517 111.825 196.268 111.825 191.722H174.153Z" fill="url(#paint3_linear_540_8410)"/>
<path d="M228.97 97.33C250.626 97.33 268.182 82.4982 268.182 64.2023C268.182 45.9065 250.626 31.0747 228.97 31.0747C207.313 31.0747 189.757 45.9065 189.757 64.2023C189.757 82.4982 207.313 97.33 228.97 97.33Z" fill="#F5F5F5"/>
<path d="M228.97 98.7607C220.878 98.7607 212.968 96.7335 206.24 92.9354C199.512 89.1373 194.268 83.739 191.172 77.4231C188.075 71.1073 187.266 64.1575 188.845 57.4528C190.424 50.748 194.321 44.5895 200.043 39.7559C205.765 34.9224 213.055 31.6309 220.992 30.2978C228.928 28.9647 237.154 29.6499 244.63 32.2666C252.105 34.8834 258.494 39.3142 262.989 44.9987C267.484 50.6832 269.882 57.3661 269.881 64.2023C269.869 73.3654 265.555 82.1503 257.885 88.6292C250.215 95.1081 239.816 98.7518 228.97 98.7607ZM228.97 32.5102C221.55 32.5102 214.297 34.3689 208.129 37.8513C201.96 41.3336 197.151 46.2833 194.312 52.0742C191.473 57.8652 190.73 64.2374 192.177 70.3851C193.625 76.5327 197.198 82.1797 202.444 86.612C207.69 91.0442 214.374 94.0626 221.651 95.2854C228.928 96.5083 236.471 95.8806 243.325 93.4819C250.18 91.0832 256.039 87.0212 260.161 81.8094C264.283 76.5977 266.483 70.4704 266.483 64.2023C266.472 55.7997 262.517 47.7439 255.484 41.8024C248.451 35.8609 238.916 32.519 228.97 32.5102Z" fill="#5E6175"/>
<path d="M228.969 81.3811C231.281 81.3811 233.155 79.7978 233.155 77.8448C233.155 75.8918 231.281 74.3086 228.969 74.3086C226.658 74.3086 224.784 75.8918 224.784 77.8448C224.784 79.7978 226.658 81.3811 228.969 81.3811Z" fill="#E1830E"/>
<path d="M201.737 57.9005L205.447 54.3882C209.978 57.8096 215.331 57.8813 219.969 54.3882L223.679 57.9005C216.99 62.9249 208.466 62.9536 201.737 57.9005ZM233.229 57.9005L236.939 54.3882C241.47 57.8096 246.828 57.8813 251.462 54.3882L255.172 57.9005C248.482 62.9249 239.958 62.9536 233.229 57.9005ZM46.6435 208.078L29.5267 222.539H46.281V227.774H22.0048V221.495L38.7987 207.298H21.8179V202.068H46.6435V208.078ZM53.2421 227.568V223.098L62.3386 215.409H53.1288V211.255H69.1128V215.567L59.8237 223.414H68.8976V227.568H53.2421ZM76.3005 227.568V223.098L85.397 215.409H76.1929V211.255H92.1712V215.567L82.8821 223.414H91.956V227.568H76.3005Z" fill="#E1830E"/>
<path d="M102.044 227.568C103.583 227.568 104.83 226.514 104.83 225.213C104.83 223.913 103.583 222.859 102.044 222.859C100.504 222.859 99.2568 223.913 99.2568 225.213C99.2568 226.514 100.504 227.568 102.044 227.568Z" fill="#E1830E"/>
<path d="M114.091 227.568C115.63 227.568 116.878 226.514 116.878 225.213C116.878 223.913 115.63 222.859 114.091 222.859C112.552 222.859 111.304 223.913 111.304 225.213C111.304 226.514 112.552 227.568 114.091 227.568Z" fill="#E1830E"/>
<path d="M60.8522 41.0427L63.2549 39.0128L71.0878 45.6302L68.6851 47.6601L60.8522 41.0427ZM53.0098 52.9333H64.0887V55.8044H53.0098V52.9333ZM76.6629 32.1274H80.0613V41.4872H76.6629V32.1274Z" fill="#5E6175"/>
<path d="M68.5352 112.662H65.1367V109.791H68.5352V112.662ZM59.4727 112.662H56.0742V109.791H59.4727V112.662ZM50.4102 112.662H47.0117V109.791H50.4102V112.662ZM41.3477 112.662H37.9492V109.791H41.3477V112.662ZM139.234 112.662H135.836V109.791H139.234V112.662ZM130.171 112.662H126.773V109.791H130.171V112.662ZM121.109 112.662H117.711V109.791H121.109V112.662ZM112.046 112.662H108.648V109.791H112.046V112.662ZM102.984 112.662H99.5856V109.791H102.984V112.662ZM93.9215 112.662H90.5231V109.791H93.9215V112.662ZM84.859 112.662H81.4606V109.791H84.859V112.662Z" fill="#A9AFC4"/>
<defs>
<linearGradient id="paint0_linear_540_8410" x1="81.9247" y1="103.68" x2="140.253" y2="103.68" gradientUnits="userSpaceOnUse">
<stop stop-color="#CACFDD"/>
<stop offset="1" stop-color="#EEF0F1"/>
</linearGradient>
<linearGradient id="paint1_linear_540_8410" x1="81.925" y1="103.68" x2="140.254" y2="103.68" gradientUnits="userSpaceOnUse">
<stop stop-color="#CACFDD"/>
<stop offset="1" stop-color="#EEF0F1"/>
</linearGradient>
<linearGradient id="paint2_linear_540_8410" x1="81.9249" y1="103.68" x2="140.253" y2="103.68" gradientUnits="userSpaceOnUse">
<stop stop-color="#CACFDD"/>
<stop offset="1" stop-color="#EEF0F1"/>
</linearGradient>
<linearGradient id="paint3_linear_540_8410" x1="81.9248" y1="103.68" x2="140.253" y2="103.68" gradientUnits="userSpaceOnUse">
<stop stop-color="#CACFDD"/>
<stop offset="1" stop-color="#EEF0F1"/>
</linearGradient>
</defs>
</svg>
