<svg width="465" height="384" viewBox="0 0 465 384" fill="none" xmlns="http://www.w3.org/2000/svg">
<path d="M463.787 178.987L433.067 332.587C430.159 347.082 422.323 360.123 410.89 369.496C399.456 378.868 385.131 383.993 370.347 384H64C47.0261 384 30.7475 377.257 18.7452 365.255C6.74284 353.253 0 336.974 0 320V64C0 47.0261 6.74284 30.7475 18.7452 18.7452C30.7475 6.74284 47.0261 0 64 0H149.333C153.515 0.0326576 157.596 1.29381 161.067 3.62667L219.733 42.6667H341.333C358.307 42.6667 374.586 49.4095 386.588 61.4118C398.591 73.4142 405.333 89.6928 405.333 106.667H362.667C362.667 101.009 360.419 95.5825 356.418 91.5817C352.418 87.5809 346.991 85.3333 341.333 85.3333H213.333C209.151 85.3007 205.071 84.0395 201.6 81.7067L142.933 42.6667H64C58.342 42.6667 52.9158 44.9143 48.9151 48.9151C44.9143 52.9158 42.6667 58.342 42.6667 64V320C42.6667 325.658 44.9143 331.084 48.9151 335.085C52.9158 339.086 58.342 341.333 64 341.333H67.84L100.267 179.413C103.174 164.918 111.01 151.877 122.444 142.504C133.877 133.132 148.203 128.007 162.987 128H421.973C428.294 127.984 434.54 129.373 440.259 132.067C445.977 134.76 451.026 138.69 455.04 143.573C459.025 148.463 461.876 154.175 463.389 160.298C464.901 166.422 465.037 172.804 463.787 178.987Z" fill="url(#paint0_linear_279_8408)"/>
<defs>
<linearGradient id="paint0_linear_279_8408" x1="252" y1="-165" x2="232.317" y2="384" gradientUnits="userSpaceOnUse">
<stop stop-color="#2196F3"/>
<stop offset="1" stop-color="#0A7197"/>
</linearGradient>
</defs>
</svg>
