<svg width="448" height="406" viewBox="0 0 448 406" fill="none" xmlns="http://www.w3.org/2000/svg">
<path d="M410.72 38.2477C398.983 26.2181 384.957 16.6587 369.469 10.1326C353.981 3.60644 337.343 0.245506 320.536 0.247708H320.456C303.625 0.235572 286.962 3.59137 271.447 10.1175C255.933 16.6436 241.881 26.2081 230.12 38.2477L223.96 44.5677L217.72 38.1677C205.956 26.1537 191.911 16.6103 176.41 10.0975C160.908 3.58475 144.261 0.233772 127.447 0.241223C110.633 0.248675 93.9894 3.61441 78.4934 10.1409C62.9974 16.6675 48.9611 26.2233 37.208 38.2477C13.3535 62.7142 0.00244141 95.5328 0.00244141 129.704C0.00244141 163.875 13.3535 196.693 37.208 221.16L215.4 402.152C216.516 403.291 217.848 404.195 219.318 404.813C220.787 405.431 222.366 405.749 223.96 405.749C225.554 405.749 227.133 405.431 228.603 404.813C230.072 404.195 231.404 403.291 232.52 402.152L410.72 221.16C434.722 196.752 448.12 163.856 448 129.624C448.15 95.4327 434.745 62.5754 410.72 38.2477ZM88.488 170.68L71.368 187.48C56.317 172.012 47.9022 151.278 47.9171 129.695C47.9321 108.113 56.3755 87.3906 71.448 71.9437L88.488 88.7437C77.8292 99.7176 71.867 114.413 71.867 129.712C71.867 145.01 77.8292 159.706 88.488 170.68Z" fill="black"/>
</svg>
