<svg width="197" height="181" viewBox="0 0 197 181" fill="none" xmlns="http://www.w3.org/2000/svg">
<path d="M80.2969 180.344C78.3658 180.344 76.5138 179.6 75.1483 178.275C73.7828 176.951 73.0157 175.154 73.0157 173.281V105.375L5.51848 33.3731C2.86145 30.5331 1.11141 27.0061 0.480744 23.2202C-0.149922 19.4343 0.365906 15.5522 1.96562 12.0451C3.56534 8.53794 6.18016 5.55659 9.49275 3.46286C12.8053 1.36912 16.6733 0.25302 20.6271 0.25H176.373C180.327 0.25302 184.195 1.36912 187.507 3.46286C190.82 5.55659 193.435 8.53794 195.034 12.0451C196.634 15.5522 197.15 19.4343 196.519 23.2202C195.889 27.0061 194.139 30.5331 191.482 33.3731L123.984 105.375V145.031C123.984 146.089 123.738 147.133 123.265 148.087C122.793 149.04 122.105 149.879 121.254 150.54L84.8477 178.79C83.5569 179.794 81.9518 180.342 80.2969 180.344ZM20.6271 14.375C19.494 14.3777 18.3861 14.699 17.4374 15.2998C16.4886 15.9006 15.7398 16.7552 15.2814 17.7602C14.823 18.7653 14.6748 19.8776 14.8546 20.9627C15.0345 22.0478 15.5347 23.059 16.2947 23.8741L85.685 98.0303C86.8739 99.2984 87.5468 100.943 87.5782 102.656V158.591L109.422 141.5V102.656C109.418 100.894 110.093 99.1933 111.315 97.8891L180.705 23.7328C181.42 22.9141 181.882 21.916 182.036 20.8537C182.191 19.7914 182.032 18.7084 181.579 17.7297C181.126 16.751 180.397 15.9167 179.476 15.323C178.554 14.7294 177.479 14.4007 176.373 14.375H20.6271Z" fill="black"/>
</svg>
