<svg width="213" height="219" viewBox="0 0 213 219" fill="none" xmlns="http://www.w3.org/2000/svg">
<path d="M106.5 0C47.6816 0 0 49.0247 0 109.5C0 169.975 47.6816 219 106.5 219C165.318 219 213 169.975 213 109.5C212.937 49.0518 165.292 0.0646184 106.5 0ZM47.3473 37.9177C63.8654 23.5042 84.8349 15.6079 106.5 15.6432C128.076 15.6363 148.95 23.5243 165.387 37.8953L36.8263 170.077C4.23667 130.595 8.94715 71.4253 47.3473 37.9177ZM165.653 181.082C149.135 195.496 128.165 203.392 106.5 203.357C84.9242 203.364 64.05 195.476 47.6134 181.105L176.174 48.9225C208.763 88.4048 204.053 147.575 165.653 181.082Z" fill="black"/>
</svg>
