<svg width="249" height="233" viewBox="0 0 249 233" fill="none" xmlns="http://www.w3.org/2000/svg">
<path d="M55.4529 125.633C61.9857 125.199 73.5615 123.242 91.3273 115.956L91.7853 115.739C101.642 121.176 112.645 126.069 127.315 126.069C168.004 126.069 201.127 97.7969 201.127 63.1101C201.127 56.4772 199.981 49.8444 197.573 43.6466C187.602 17.6586 159.408 0.152344 127.315 0.152344C86.6277 0.152344 53.504 28.4243 53.504 63.1106C53.504 77.1381 57.9739 90.2944 66.1121 100.516L50.2952 113.891C48.003 115.848 47.3151 118.784 48.461 121.502C49.6074 124.112 52.2435 125.743 55.4529 125.633ZM151.04 44.7342C151.04 48.1048 150.124 51.2583 148.519 54.1943C146.8 57.021 143.476 60.5003 138.662 64.6327C135.338 67.3512 133.16 69.4171 132.129 70.7217C131.212 72.0264 130.41 73.549 129.951 75.1804C129.492 76.92 129.149 79.6385 129.149 83.5529H119.406V80.6174C119.406 76.92 119.98 73.6583 121.011 70.9398C121.814 68.8738 123.189 66.8079 125.023 64.742C126.398 63.2193 128.805 60.9364 132.243 58.0004C135.797 55.1731 137.974 52.7814 139.12 51.0413C140.152 49.3016 140.61 47.4532 140.61 45.3873C140.61 41.69 139.12 38.4282 136.025 35.6009C132.931 32.7737 129.264 31.3603 124.793 31.3603C120.553 31.3603 116.885 32.6649 114.019 35.1664C111.154 37.7761 109.32 41.6905 108.403 47.1269L98.0878 45.9311C99.0049 38.754 101.756 33.2087 106.34 29.2944C110.924 25.4888 116.999 23.5316 124.678 23.5316C132.701 23.5316 139.005 25.5976 143.818 29.7299C148.634 33.8608 151.04 38.8622 151.04 44.7342ZM130.295 102.691H118.834V91.8171H130.295V102.691ZM38.6042 168.041C37.8966 168.04 37.1957 168.172 36.5418 168.428C35.8879 168.685 35.2937 169.061 34.7934 169.536C34.293 170.011 33.8963 170.575 33.6259 171.195C33.3556 171.815 33.2169 172.48 33.2178 173.152C33.2178 175.978 35.6241 178.262 38.6042 178.262C41.5843 178.262 43.9911 175.978 43.9911 173.152C43.9921 172.48 43.8533 171.815 43.5829 171.195C43.3126 170.574 42.9158 170.011 42.4154 169.536C41.915 169.061 41.3208 168.685 40.6668 168.428C40.0128 168.172 39.3119 168.04 38.6042 168.041Z" fill="black"/>
<path d="M245.711 143.575C243.534 140.095 239.98 137.704 235.74 136.725C231.614 135.747 227.259 136.507 223.591 138.682L222.33 139.443C221.986 136.943 221.069 134.55 219.465 132.484C216.828 129.005 212.702 126.722 208.118 126.178C203.533 125.743 198.949 127.157 195.51 129.984L190.697 134.225C190.03 132.952 189.223 131.749 188.29 130.636C183.361 125.634 175.109 125.091 169.607 129.549L139.808 153.145C138.548 152.818 137.286 152.384 136.14 151.732L125.023 145.86C108.06 134.551 90.2949 142.707 89.7217 142.924L64.7358 152.928C62.0991 149.666 58.2025 147.491 53.5034 147.491H15.3378C7.42929 147.491 0.896484 153.58 0.896484 161.191V219.148C0.896484 226.65 7.42982 232.848 15.3378 232.848H53.5039C61.527 232.848 67.9452 226.65 67.9452 219.147V206.642L82.0431 198.27C84.4494 196.856 87.4295 196.747 89.7223 198.052L107.258 207.512C114.25 211.318 122.272 213.276 130.181 213.276C132.703 213.276 135.224 213.058 137.746 212.731L173.964 206.969C178.537 206.314 182.869 204.596 186.572 201.967L241.586 163.691C248.348 159.016 250.067 150.317 245.711 143.575ZM38.6041 186.961C30.581 186.961 24.0487 180.762 24.0487 173.152C24.0487 165.54 30.581 159.342 38.6041 159.342C46.6272 159.342 53.16 165.54 53.16 173.152C53.1605 180.763 46.6272 186.961 38.6041 186.961ZM188.749 147.381L201.7 136.507C203.189 135.203 205.024 134.659 207.087 134.876C209.15 135.094 210.869 136.072 212.015 137.595C213.161 139.118 213.62 140.857 213.276 142.705C212.932 144.445 211.9 146.076 210.296 147.055L182.789 164.888C181.757 161.735 179.923 159.125 177.172 157.276L187.144 149.012C187.717 148.468 188.29 147.925 188.749 147.381ZM175.453 136.181C177.288 134.768 179.924 134.876 181.528 136.507C182.216 137.377 182.674 138.465 182.559 139.552C182.562 140.242 182.363 140.919 181.986 141.509L166.628 154.448H152.53L175.453 136.181ZM236.198 156.733L181.184 194.899C178.663 196.748 175.568 197.944 172.473 198.378L136.255 204.141C127.774 205.446 119.178 203.924 111.843 200.009L94.3067 190.549C89.035 187.613 82.387 187.722 77.2293 190.875L67.9457 196.421V161.082L93.5048 150.86C93.7335 150.752 107.144 144.662 120.095 153.144L131.671 159.342C136.256 161.842 141.642 163.147 146.915 163.147H168.347C171.557 163.147 174.078 165.322 174.422 168.258C174.765 171.302 172.703 174.021 169.608 174.564L161.699 176.087C161.471 176.304 134.88 187.07 112.76 176.304C110.582 175.109 107.717 175.978 106.57 178.153C105.425 180.219 106.342 182.828 108.519 184.025C117.459 188.374 126.857 189.788 135.338 189.788C151.385 189.788 164.221 184.569 164.451 184.351L171.327 183.155C175.568 182.285 179.006 179.784 181.184 176.413L215.454 154.231C216.142 153.796 216.485 153.252 217.059 152.709C217.173 152.709 217.288 152.709 217.403 152.6L228.52 146.076C230.01 145.097 231.844 144.771 233.678 145.206C235.512 145.641 237.001 146.62 237.919 148.142C239.751 150.969 239.063 154.667 236.198 156.733Z" fill="black"/>
</svg>
