<svg width="256" height="230" viewBox="0 0 256 230" fill="none" xmlns="http://www.w3.org/2000/svg">
<path d="M172.428 37.6309H106.025C103.004 37.6309 100.555 39.9082 100.555 42.7164C100.555 45.5246 103.004 47.8018 106.025 47.8018H172.428C175.449 47.8018 177.898 45.5246 177.898 42.7164C177.898 39.9082 175.449 37.6309 172.428 37.6309ZM177.898 86.875C177.898 84.0668 175.449 81.7896 172.428 81.7896H106.025C103.004 81.7896 100.555 84.0668 100.555 86.875C100.555 89.6832 103.004 91.9605 106.025 91.9605H172.428C175.449 91.9605 177.898 89.6837 177.898 86.875ZM105.723 125.949C102.702 125.949 100.253 128.226 100.253 131.034C100.253 133.842 102.702 136.12 105.723 136.12H142.45C145.471 136.12 147.92 133.842 147.92 131.034C147.92 128.226 145.471 125.949 142.45 125.949H105.723ZM88.0123 29.7159C85.9337 27.6761 82.4717 27.5906 80.2793 29.5221L62.0874 45.5485L54.5644 38.6383C52.4158 36.6641 48.9521 36.684 46.8286 38.6815C44.7051 40.6796 44.7259 43.8992 46.8751 45.8734L58.1626 56.2422C60.6876 58.1747 63.2236 58.1991 65.7699 56.3164L87.8039 36.9057C89.9969 34.9732 90.0904 31.7546 88.0123 29.7159ZM88.0123 76.3008C85.9337 74.262 82.4717 74.1756 80.2793 76.1071L62.0874 92.1334L54.565 85.2233C52.4163 83.2491 48.9527 83.2684 46.8292 85.2665C44.7057 87.2646 44.7265 90.4842 46.8757 92.4584L58.1632 102.827C60.6882 104.76 63.2241 104.784 65.7704 102.901L87.8045 83.4906C89.9969 81.5582 90.0904 78.3396 88.0123 76.3008ZM80.2793 120.266L62.0874 136.292L54.565 129.382C52.4158 127.408 48.9527 127.428 46.8292 129.426C44.7062 131.424 44.727 134.644 46.8757 136.618L58.1632 146.986C60.6882 148.918 63.2241 148.943 65.7704 147.06L87.8045 127.649C89.9974 125.717 90.091 122.499 88.0129 120.46C85.9337 118.42 82.4717 118.334 80.2793 120.266Z" fill="black"/>
<path d="M256 142.571C256 139.763 253.551 137.485 250.53 137.485C247.509 137.485 245.06 139.763 245.06 142.571C245.06 162.109 227.784 178.005 206.548 178.005C185.312 178.005 168.036 162.109 168.036 142.571C168.036 123.032 185.312 107.137 206.548 107.137C215.852 107.137 224.691 110.218 231.587 115.649L226.52 115.685C223.499 115.707 221.069 118.001 221.092 120.81C221.115 123.605 223.56 125.856 226.561 125.856H226.604L243.225 125.737C246.209 125.715 248.624 123.474 248.652 120.7L248.811 105.222C248.84 102.413 246.414 100.115 243.393 100.088H243.34C240.344 100.088 237.9 102.333 237.871 105.124L237.849 107.266C229.124 100.685 218.115 96.9653 206.548 96.9653C179.28 96.9653 157.096 117.424 157.096 142.57C157.096 165.371 175.334 184.317 199.064 187.653V205.919C199.064 213.587 191.873 219.822 183.663 219.308C176.84 218.27 171.719 212.693 171.719 206.261V190.305C171.719 187.497 169.27 185.22 166.249 185.22L166.239 185.22H30.9366L31.2566 15.7351C31.2615 12.9355 33.716 10.6587 36.7267 10.6587H193.593C196.609 10.6587 199.063 12.9401 199.063 15.7442V56.3293C199.063 59.1375 201.512 61.4148 204.533 61.4148C207.554 61.4148 210.003 59.1375 210.003 56.3293V15.7442C210.003 7.33182 202.642 0.487793 193.593 0.487793H36.7267C27.6934 0.487793 20.3318 7.32012 20.3164 15.7173L19.9964 185.221H5.47009C2.44896 185.221 0 187.498 0 190.306V206.107C0 219.013 11.311 229.511 25.2149 229.511H184.586C198.601 229.511 210.003 218.928 210.003 205.919V188.062C235.665 186.421 256 166.646 256 142.571Z" fill="black"/>
<path d="M206.548 118.872C203.527 118.872 201.078 121.149 201.078 123.958V142.622C201.078 143.972 201.656 145.268 202.684 146.222L216.122 158.69C218.702 160.674 221.28 160.671 223.858 158.682C225.992 156.694 225.989 153.475 223.85 151.49L212.018 140.512V123.957C212.018 121.149 209.569 118.872 206.548 118.872Z" fill="black"/>
<path d="M204.533 84.3323C207.834 84.3323 210.509 81.8596 210.509 78.8094C210.509 75.7593 207.834 73.2866 204.533 73.2866C201.233 73.2866 198.557 75.7593 198.557 78.8094C198.557 81.8596 201.233 84.3323 204.533 84.3323Z" fill="black"/>
</svg>
