<svg width="201" height="122" viewBox="0 0 201 122" fill="none" xmlns="http://www.w3.org/2000/svg">
<path d="M164.773 110.54L36.2191 2.45641L36.1916 2.43C35.4956 1.84959 34.6705 1.39013 33.7633 1.07784C32.8562 0.765545 31.8847 0.606544 30.9045 0.609916C29.9242 0.613287 28.9543 0.778965 28.0502 1.09749C27.1461 1.41601 26.3255 1.88113 25.6352 2.46631C24.9449 3.05149 24.3984 3.74526 24.027 4.508C23.6556 5.27075 23.4665 6.08754 23.4705 6.91173C23.4786 8.57627 24.2728 10.1699 25.6784 11.3421L36.9336 20.8055C23.2841 28.6654 11.5352 38.6346 2.31213 50.1824C0.806001 52.0521 0.000976562 54.2584 0.000976562 56.5166C0.000976563 58.7748 0.806001 60.9811 2.31213 62.8508C25.855 92.1485 63.1774 109.313 100.5 109.098C112.589 109.135 124.598 107.443 136.012 104.094L154.232 119.413C155.636 120.555 157.516 121.189 159.47 121.178C161.423 121.166 163.293 120.511 164.679 119.353C166.064 118.195 166.853 116.626 166.877 114.984C166.902 113.342 166.159 111.757 164.808 110.57L164.773 110.54ZM100.5 92.0627C93.4287 92.0605 86.471 90.5683 80.2625 87.7225C74.054 84.8767 68.7928 80.7681 64.9597 75.772C61.1265 70.776 58.8436 65.0519 58.3197 59.1228C57.7958 53.1938 59.0475 47.2489 61.9605 41.8314L73.7182 51.7173C72.7711 55.4696 72.9541 59.3614 74.2505 63.0391C75.547 66.7168 77.9158 70.0639 81.1418 72.7763C84.3677 75.4887 88.3486 77.4803 92.7227 78.5704C97.0968 79.6604 101.725 79.8143 106.188 79.018L117.946 88.9039C112.466 90.9931 106.517 92.0702 100.5 92.0627ZM198.688 50.1659C175.145 20.8517 137.822 3.6876 100.5 3.90215C88.4105 3.86533 76.4018 5.55745 64.9872 8.90613L83.0458 24.0897C90.882 21.1081 99.6129 20.2052 108.075 21.5015C116.537 22.7977 124.328 26.2315 130.41 31.3452C136.492 36.459 140.576 43.0097 142.118 50.1245C143.659 57.2393 142.585 64.5801 139.039 71.1688L164.062 92.2079C177.714 84.3492 189.464 74.3799 198.688 62.831C200.193 60.9616 200.997 58.7559 200.997 56.4984C200.997 54.241 200.193 52.0352 198.688 50.1659Z" fill="black"/>
<path d="M100.5 33.4805C98.5882 33.4807 96.6817 33.6488 94.8115 33.9822L127.282 61.2797C128.128 57.9257 128.073 54.4552 127.12 51.1214C126.168 47.7877 124.341 44.6751 121.774 42.0108C119.208 39.3466 115.966 37.1981 112.285 35.7222C108.604 34.2464 104.578 33.4805 100.5 33.4805Z" fill="black"/>
</svg>
