<svg width="99" height="95" viewBox="0 0 99 95" fill="none" xmlns="http://www.w3.org/2000/svg">
<path d="M44.3323 79.2558L53.1987 71.3839L35.466 55.6392L8.86621 79.2558L26.5987 94.9998L35.466 87.1278L31.0323 83.1914L39.8987 75.3196L44.3323 79.2558Z" fill="#FF9F00"/>
<path d="M90.7824 6.52369C80.9848 -2.17456 65.1141 -2.17456 55.3163 6.52369C47.0704 13.8448 45.8737 24.9841 51.504 33.5252L0 79.2558L8.86637 87.1278L60.3704 41.3972C69.9901 46.3962 82.5365 45.3336 90.7824 38.0125C100.58 29.3135 100.58 15.2227 90.7824 6.52369ZM66.3991 28.1726C62.7198 24.9051 62.7198 19.6309 66.3991 16.3644C70.0791 13.0969 76.0197 13.0969 79.6989 16.3644C83.3791 19.6309 83.3791 24.9051 79.6989 28.1726C76.0197 31.4391 70.0791 31.4391 66.3991 28.1726Z" fill="#FFE470"/>
<path d="M90.7824 38.012C82.5365 45.3332 69.9901 46.3958 60.3704 41.3968L8.86615 87.1276L4.43359 83.1912L66.3991 28.1716C70.0791 31.439 76.0197 31.439 79.6989 28.1716C83.3791 24.905 83.3791 19.6307 79.6989 16.3639L90.7824 6.52344C100.58 15.2224 100.58 29.313 90.7824 38.012Z" fill="#FDBF00"/>
</svg>
