<svg width="120" height="109" viewBox="0 0 120 109" fill="none" xmlns="http://www.w3.org/2000/svg">
<path d="M117.592 76.4932H109.882V85.1969H117.592C118.285 85.1969 118.847 84.6516 118.847 83.9792V77.7111C118.847 77.0384 118.285 76.4932 117.592 76.4932ZM117.592 92.2983H109.882V101.002H117.592C118.285 101.002 118.847 100.457 118.847 99.7844V93.5162C118.847 92.8436 118.285 92.2983 117.592 92.2983Z" fill="#FFF0AF"/>
<path d="M102.262 76.4932H110.07V101.002H102.262V76.4932Z" fill="#FFC861"/>
<path d="M21.486 44.5456V25.8112C21.486 16.7054 28.9562 9.29738 38.1386 9.29738C47.3209 9.29738 54.7911 16.7056 54.7911 25.8112V44.5456H63.5359V25.8112C63.5359 11.9014 52.1652 0.625488 38.1386 0.625488C24.1119 0.625488 12.7412 11.9014 12.7412 25.8112V44.5456H21.486Z" fill="#DBEDFF"/>
<path d="M40.6738 0.750066C39.8313 0.667108 38.9852 0.625531 38.1386 0.625488C24.1119 0.625488 12.7412 11.9014 12.7412 25.8112V44.5456H17.8117V25.8112C17.8117 12.75 27.8378 2.01165 40.6738 0.750066ZM43.209 9.29738C42.3472 9.29738 41.5007 9.36269 40.6738 9.48843C48.6573 10.7028 54.7911 17.56 54.7911 25.8112V44.5456H59.8616V25.8112C59.8618 16.7056 52.3914 9.29738 43.209 9.29738Z" fill="#B5DCFF"/>
<path d="M102.02 47.7759H94.3238L93.8271 48.3748V104.022C93.8271 106.425 95.7919 108.374 98.2156 108.374C100.639 108.374 102.604 106.425 102.604 104.022V48.3751L102.02 47.7759Z" fill="#FFE07D"/>
<path d="M98.978 104.022V48.3753L99.4747 47.7764H94.3238L93.8271 48.3753V104.022C93.8271 106.426 95.7919 108.374 98.2156 108.374C99.1791 108.374 100.067 108.063 100.791 107.541C99.694 106.75 98.978 105.47 98.978 104.022Z" fill="#FFC861"/>
<path d="M104.656 36.662L102.805 35.4448H93.4689L91.6178 36.7018L91.4268 37.2863V45.6058C91.4268 47.1547 92.6928 48.4102 94.2547 48.4102H102.177C103.739 48.4102 105.005 47.1547 105.005 45.6058V37.2833L104.656 36.662Z" fill="#FFC861"/>
<path d="M98.2157 45.6058V35.4448H93.4689L91.6178 36.7018L91.4268 37.2863V45.6058C91.4268 47.1547 92.6928 48.4102 94.2547 48.4102H101.044C99.4818 48.4102 98.2157 47.1547 98.2157 45.6058Z" fill="#EBB044"/>
<path d="M111.568 16.7597C109.851 16.3667 108.736 14.7369 108.992 13.0079C109.098 12.2867 109.132 11.5568 109.092 10.829C108.798 5.43587 104.431 1.02892 98.9983 0.652633C92.629 0.211496 87.3239 5.20485 87.3239 11.4268C87.3239 11.9992 87.3689 12.5612 87.4554 13.1095C87.7233 14.8062 86.5755 16.372 84.8871 16.7546C79.9615 17.8709 76.2621 22.3218 76.4376 27.6484C76.6249 33.3288 81.3321 37.9496 87.0616 38.083C89.224 38.1332 91.2466 37.5575 92.9601 36.5265C93.5397 36.1778 94.2089 36.0038 94.8867 36.0038H101.562C102.243 36.0038 102.915 36.1816 103.498 36.5321C104.928 37.3927 106.569 37.9368 108.324 38.0586C114.694 38.5009 120 33.5073 120 27.2847C120 22.1319 116.372 17.8593 111.568 16.7597ZM103.9 28.4308C103.131 28.2743 102.348 28.1955 101.562 28.1956H94.8869C94.0877 28.1956 93.2962 28.2767 92.5242 28.4349C89.0988 29.1371 87.3933 24.6572 90.1722 22.9001C92.6067 21.361 94.3563 18.9419 95.0435 16.19C95.8842 12.8222 100.579 12.8464 101.423 16.1719C102.122 18.9229 103.863 21.3419 106.272 22.8852C109.039 24.6581 107.335 29.1287 103.9 28.4308Z" fill="#FFE07D"/>
<path d="M81.9909 29.8034C81.8154 24.4768 85.5145 20.0259 90.4404 18.9096C92.1286 18.527 93.2763 16.9612 93.0084 15.2645C92.9207 14.7078 92.8768 14.1452 92.8769 13.5818C92.8769 7.35986 98.182 2.36651 104.551 2.80765C104.632 2.81323 104.711 2.82252 104.792 2.82996C103.156 1.59348 101.162 0.802545 98.9981 0.652633C92.6287 0.211496 87.3236 5.20485 87.3236 11.4268C87.3236 11.9992 87.3687 12.5612 87.4551 13.1095C87.723 14.8062 86.5753 16.372 84.8871 16.7546C79.9615 17.8709 76.2621 22.3218 76.4376 27.6484C76.6167 33.079 80.9276 37.538 86.3128 38.0365C83.7808 36.1267 82.1015 33.1494 81.9909 29.8034Z" fill="#FFC861"/>
<path d="M71.081 43.5879H5.19609C2.32641 43.5879 0 45.8949 0 48.7407V103.222C0 106.067 2.32641 108.374 5.19609 108.374H71.0812C73.9509 108.374 76.2773 106.067 76.2773 103.222V48.7407C76.2771 45.8949 73.9507 43.5879 71.081 43.5879Z" fill="#FFE07D"/>
<path d="M12.1291 103.221V48.7407C12.1291 45.8949 14.4555 43.5879 17.3252 43.5879H5.19609C2.32641 43.5879 0 45.8949 0 48.7407V103.222C0 106.067 2.32641 108.374 5.19609 108.374H17.3252C14.4555 108.374 12.1291 106.067 12.1291 103.221Z" fill="#FFC861"/>
<path d="M41.8007 77.4811C41.4051 76.4268 41.7836 75.2336 42.7293 74.6126C44.9805 73.1348 46.4652 70.6014 46.4652 67.7238C46.4652 62.9678 42.4103 59.1509 37.5417 59.4875C33.468 59.7692 30.1581 63.0203 29.8389 67.0575C29.591 70.1917 31.1095 72.993 33.5118 74.5882C34.466 75.2217 34.8817 76.4034 34.4812 77.4707L30.8017 87.2749C30.3686 88.4289 31.2292 89.657 32.471 89.657H43.8072C45.0487 89.657 45.9093 88.4289 45.4764 87.2749L41.8007 77.4811Z" fill="#3F6D8E"/>
<path d="M38.045 87.2754L41.7245 77.4712C41.7383 77.4342 41.7489 77.3968 41.7608 77.3596C41.6099 76.8848 41.6087 76.3757 41.7575 75.9002C41.5819 75.3636 41.2286 74.9015 40.7551 74.5887C38.353 72.9936 36.8345 70.192 37.0822 67.058C37.3175 64.0841 39.1761 61.5384 41.7669 60.2903C40.5036 59.683 39.0625 59.3827 37.5416 59.488C33.4677 59.7697 30.1581 63.0208 29.8389 67.058C29.5911 70.1922 31.1097 72.9936 33.5118 74.5887C34.4659 75.2223 34.8817 76.4039 34.4811 77.4712L30.8017 87.2754C30.3686 88.4294 31.2292 89.6575 32.4707 89.6575H39.714C38.4725 89.6575 37.6122 88.4294 38.045 87.2754Z" fill="#365E7D"/>
</svg>
