<svg width="218" height="230" viewBox="0 0 218 230" fill="none" xmlns="http://www.w3.org/2000/svg">
<path d="M150.069 151.964C176.246 113.559 172.955 118.35 173.71 117.349C183.24 104.781 188.277 89.9884 188.277 74.5703C188.277 33.6824 152.789 0 109 0C65.3533 0 29.7227 33.6159 29.7227 74.5703C29.7227 89.9785 34.8656 105.158 44.7085 117.896L67.9305 151.964C43.1023 155.532 0.894531 166.162 0.894531 189.57C0.894531 198.103 6.85138 210.264 35.2298 219.739C55.0453 226.356 81.2438 230 109 230C160.903 230 217.105 216.311 217.105 189.57C217.105 166.158 174.947 155.539 150.069 151.964ZM56.7485 110.483C56.6693 110.367 56.5865 110.254 56.5001 110.143C48.3096 99.6075 44.1367 87.1219 44.1367 74.5703C44.1367 40.8708 73.1599 13.4766 109 13.4766C144.766 13.4766 173.863 40.883 173.863 74.5703C173.863 87.1421 169.769 99.2041 162.022 109.462C161.327 110.318 164.95 105.057 109 187.14L56.7485 110.483ZM109 216.523C52.3076 216.523 15.3086 200.943 15.3086 189.57C15.3086 181.926 34.3198 169.358 76.4473 164.459L102.922 203.299C103.573 204.255 104.471 205.041 105.534 205.586C106.596 206.131 107.788 206.417 109 206.417C110.211 206.417 111.403 206.131 112.465 205.586C113.528 205.041 114.426 204.255 115.077 203.299L141.551 164.459C183.68 169.358 202.691 181.926 202.691 189.57C202.691 200.847 166.025 216.523 109 216.523Z" fill="black"/>
<path d="M109 40.8789C89.1302 40.8789 72.9648 55.9929 72.9648 74.5703C72.9648 93.1478 89.1302 108.262 109 108.262C128.87 108.262 145.035 93.1478 145.035 74.5703C145.035 55.9929 128.87 40.8789 109 40.8789ZM109 94.7852C97.0781 94.7852 87.3789 85.7168 87.3789 74.5703C87.3789 63.4238 97.0781 54.3555 109 54.3555C120.922 54.3555 130.621 63.4238 130.621 74.5703C130.621 85.7168 120.922 94.7852 109 94.7852Z" fill="black"/>
</svg>
