<svg width="101" height="99" viewBox="0 0 101 99" fill="none" xmlns="http://www.w3.org/2000/svg">
<path d="M62.1443 31.7197L0.700195 48.1831V85.0573L0.704314 85.0562C0.707566 85.8147 1.33303 86.609 2.52714 87.2239L6.95002 89.5013L11.3729 91.7787C13.3427 92.7931 16.2614 93.0166 18.2514 92.3054L23.1532 90.5536C36.7598 85.691 48.495 79.6481 57.9385 72.6415L61.3404 70.1174C61.8818 69.7158 62.1402 69.2407 62.1406 68.7504L62.1445 68.7494L62.1443 31.7197Z" fill="url(#paint0_linear_238_8439)"/>
<path d="M39.6916 26.3124L44.5936 24.5606C46.5836 23.8494 49.5023 24.073 51.4719 25.0873L55.8948 27.3647L60.3177 29.6421C62.2875 30.6565 62.7215 32.1594 61.3405 33.184L57.9385 35.7082C48.4953 42.7147 36.7601 48.7576 23.1533 53.6202L18.2513 55.372C16.2615 56.0832 13.3425 55.8597 11.3729 54.8453L6.95008 52.5679L2.5272 50.2905C0.557387 49.2762 0.12336 47.7732 1.50436 46.7486L4.90633 44.2245C14.3498 37.2179 26.085 31.175 39.6916 26.3124Z" fill="url(#paint1_linear_238_8439)"/>
<path d="M1.50436 46.7488C0.12336 47.7734 0.557387 49.2764 2.5272 50.2908L4.59523 51.3556H14.4359V45.8481H2.7182L1.50436 46.7488Z" fill="url(#paint2_linear_238_8439)"/>
<path d="M22.8574 33.3971H49.0831V27.8896H35.4629C31.0426 29.5993 26.8328 31.4362 22.8574 33.3971Z" fill="url(#paint3_linear_238_8439)"/>
<path d="M53.5528 14.5933C53.5528 9.32579 50.4994 4.60879 45.3846 1.97524C40.2701 -0.65851 34.1634 -0.658316 29.0487 1.97524C16.8623 8.25033 9.29199 19.9449 9.29199 32.4953V48.6122L9.30088 48.6127C9.30652 49.2783 9.85003 49.9788 10.9141 50.5268C12.8696 51.5338 15.8278 51.6431 17.5214 50.771C18.2967 50.3717 18.6678 49.8357 18.66 49.2756L18.6691 49.2762V32.4951C18.6691 22.9232 24.4431 14.0037 33.7371 9.21771C35.9164 8.09584 38.5173 8.09564 40.6965 9.21771C42.8751 10.3396 44.1759 12.3492 44.1759 14.5931V30.6787L44.1863 30.6794C44.2076 31.3361 44.7498 32.0241 45.7982 32.5637C47.7537 33.5707 50.7119 33.68 52.4055 32.8079C53.1398 32.4299 53.5144 31.9293 53.5454 31.4016L53.553 31.4022V14.5933H53.5528Z" fill="url(#paint4_linear_238_8439)"/>
<path d="M47.8986 30.6994V16.0731C47.8986 9.7938 40.2769 5.86919 34.1797 9.00877C36.2035 8.12763 38.5271 8.16804 40.5227 9.13155C42.8162 10.2389 44.1755 12.4419 44.1755 14.768V30.6789L44.1859 30.6797C44.2072 31.3364 44.7494 32.0243 45.7978 32.564C47.7533 33.571 50.7115 33.6803 52.4051 32.8082C52.8877 32.5597 53.2121 32.2577 53.3883 31.9304C49.7635 32.3492 47.8986 30.6994 47.8986 30.6994Z" fill="url(#paint5_linear_238_8439)"/>
<path d="M47.8151 58.7926C47.8151 55.3286 45.4537 53.7365 42.5408 55.2363C39.628 56.7362 37.2666 60.7604 37.2666 64.2245C37.2666 66.6155 38.392 68.1141 40.0468 68.3202V73.5602C40.0468 75.1982 41.1635 75.9511 42.5408 75.2419C43.9184 74.5326 45.0349 72.6298 45.0349 70.9919V65.7518C46.6897 63.8412 47.8151 61.1837 47.8151 58.7926Z" fill="url(#paint6_linear_238_8439)"/>
<path d="M52.7764 70.353V78.7245L52.7829 78.7249C52.787 79.2213 53.1924 79.7437 53.9859 80.1523C55.4443 80.9031 57.6502 80.9847 58.913 80.3344C59.4912 80.0367 59.7681 79.637 59.7622 79.2191L59.7689 79.2197V70.353H52.7764Z" fill="url(#paint7_linear_238_8439)"/>
<path d="M52.7764 78.7249L59.7689 79.2193V70.353H52.7764V78.7249Z" fill="url(#paint8_linear_238_8439)"/>
<path d="M100.299 86.6537C100.299 79.2618 95.2598 70.6747 89.0438 67.4738C86.2276 66.0236 83.6553 65.9318 81.6813 66.9483L81.6805 66.9438L74.8232 70.4935C74.8232 70.4935 71.1335 86.3432 77.4245 91.1424C83.7153 95.9415 89.4078 98.3931 89.4078 98.3931L96.548 94.6977L96.5278 94.7054C98.8408 93.4451 100.299 90.628 100.299 86.6537ZM85.3714 81.742C85.4941 80.8939 85.5503 79.9248 85.5503 78.9746C85.5503 78.3029 85.5132 77.5788 85.4441 76.8601L91.1302 89.4721C90.7127 89.4189 89.2941 88.9226 89.0301 88.7859C86.7505 87.6064 85.0111 84.233 85.3714 81.742Z" fill="url(#paint9_linear_238_8439)"/>
<path d="M100.299 86.6536C100.299 86.5182 100.294 86.3817 100.291 86.2456L91.5697 90.7364L89.4082 98.393L96.5484 94.6975L96.5282 94.7053C98.8413 93.445 100.299 90.6279 100.299 86.6536Z" fill="url(#paint10_linear_238_8439)"/>
<path d="M90.4941 89.3531C90.2684 89.297 90.0472 89.2277 89.8318 89.1456C89.5563 89.0405 89.2883 88.9203 89.0294 88.7858C86.75 87.6065 85.0106 84.2331 85.3709 81.7421C85.4937 80.894 85.5498 79.9249 85.5498 78.9747C85.5498 78.303 85.5127 77.5789 85.4436 76.8601C85.4436 76.8601 77.5034 70.4468 76.3164 76.8601C75.4096 81.7604 76.154 88.7262 78.9694 92.2836C80.0155 93.0329 81.0866 93.7539 82.1812 94.4458C87.5931 95.6587 89.848 91.8089 89.848 91.8089C89.848 91.8089 90.235 90.8679 90.4941 89.3531Z" fill="url(#paint11_linear_238_8439)"/>
<path d="M90.4941 89.3531C90.2684 89.297 90.0472 89.2277 89.8318 89.1456C89.5563 89.0405 89.2883 88.9203 89.0294 88.7858C86.75 87.6065 85.0106 84.2331 85.3709 81.7421C85.4937 80.894 85.5498 79.9249 85.5498 78.9747C85.5498 78.303 85.5127 77.5789 85.4436 76.8601C85.4436 76.8601 77.5034 70.4468 76.3164 76.8601C75.4096 81.7604 76.154 88.7262 78.9694 92.2836C80.0155 93.0329 81.0866 93.7539 82.1812 94.4458C87.5931 95.6587 89.848 91.8089 89.848 91.8089C89.848 91.8089 90.235 90.8679 90.4941 89.3531Z" fill="url(#paint12_linear_238_8439)"/>
<path d="M44.4971 66.0962V74.4677L44.5036 74.4683C44.5077 74.9646 44.9131 75.4871 45.7066 75.8956C47.165 76.6467 49.3709 76.7281 50.6339 76.0778C51.2121 75.78 51.489 75.3803 51.4829 74.9625L51.4896 74.9631V66.0964H44.4971V66.0962Z" fill="url(#paint13_linear_238_8439)"/>
<path d="M44.4971 74.4681L51.4899 74.9625V66.0962H44.4971V74.4681Z" fill="url(#paint14_linear_238_8439)"/>
<path d="M47.3462 57.5215L47.3445 57.5248C46.7426 57.2148 45.9596 57.2403 45.1008 57.6825C43.2054 58.6584 41.6689 61.2769 41.6689 63.5311C41.6689 64.7748 42.1381 65.6447 42.8759 66.0134L42.8746 66.0161L75.0114 82.5321L79.4826 74.0386L47.3462 57.5215Z" fill="url(#paint15_linear_238_8439)"/>
<path d="M82.1798 71.0269C75.9638 67.826 70.9248 71.2237 70.9248 78.6157C70.9248 86.0076 75.9638 94.5947 82.1798 97.7956C88.3958 100.996 93.4348 97.5987 93.4348 90.2068C93.4348 82.8149 88.3958 74.2278 82.1798 71.0269ZM88.8812 88.7723C88.5411 92.2723 86.0574 93.9568 82.9681 92.7831C82.6927 92.678 82.4248 92.5579 82.1659 92.4235C79.8863 91.2442 78.147 87.8708 78.5075 85.3798C78.6302 84.5315 78.6863 83.5626 78.6863 82.6124C78.6863 81.6943 78.6183 80.6782 78.4917 79.712C78.1134 76.8267 79.8323 75.2046 82.126 76.3644L82.1798 76.3918C86.1563 78.4395 89.3291 84.1663 88.8812 88.7723Z" fill="url(#paint16_linear_238_8439)"/>
<defs>
<linearGradient id="paint0_linear_238_8439" x1="12.5865" y1="62.2197" x2="18.775" y2="62.2197" gradientUnits="userSpaceOnUse">
<stop stop-color="#FFA538"/>
<stop offset="1" stop-color="#F7E041"/>
</linearGradient>
<linearGradient id="paint1_linear_238_8439" x1="11.4673" y1="29.6908" x2="46.5229" y2="52.3834" gradientUnits="userSpaceOnUse">
<stop stop-color="#FFA538"/>
<stop offset="1" stop-color="#FCF3B3"/>
</linearGradient>
<linearGradient id="paint2_linear_238_8439" x1="15.259" y1="48.602" x2="-3.32566" y2="48.602" gradientUnits="userSpaceOnUse">
<stop offset="0.032" stop-color="#8B451C"/>
<stop offset="1" stop-color="#8B451C" stop-opacity="0"/>
</linearGradient>
<linearGradient id="paint3_linear_238_8439" x1="52.3338" y1="30.6435" x2="28.5438" y2="30.6435" gradientUnits="userSpaceOnUse">
<stop offset="0.032" stop-color="#8B451C"/>
<stop offset="1" stop-color="#8B451C" stop-opacity="0"/>
</linearGradient>
<linearGradient id="paint4_linear_238_8439" x1="31.4224" y1="44.6408" x2="31.4224" y2="-6.71917" gradientUnits="userSpaceOnUse">
<stop stop-color="#DFDAEF"/>
<stop offset="1" stop-color="white"/>
</linearGradient>
<linearGradient id="paint5_linear_238_8439" x1="43.7838" y1="-1.00203" x2="43.7838" y2="24.4914" gradientUnits="userSpaceOnUse">
<stop offset="0.032" stop-color="#7662BD"/>
<stop offset="1" stop-color="#7662BD" stop-opacity="0"/>
</linearGradient>
<linearGradient id="paint6_linear_238_8439" x1="42.5406" y1="51.0898" x2="42.5406" y2="72.9135" gradientUnits="userSpaceOnUse">
<stop stop-color="#322A50"/>
<stop offset="1" stop-color="#43386B"/>
</linearGradient>
<linearGradient id="paint7_linear_238_8439" x1="54.3783" y1="75.5633" x2="58.2472" y2="75.5633" gradientUnits="userSpaceOnUse">
<stop stop-color="#FFA538"/>
<stop offset="1" stop-color="#F7E041"/>
</linearGradient>
<linearGradient id="paint8_linear_238_8439" x1="58.7608" y1="70.9424" x2="55.9764" y2="76.3497" gradientUnits="userSpaceOnUse">
<stop offset="0.032" stop-color="#8B451C"/>
<stop offset="1" stop-color="#8B451C" stop-opacity="0"/>
</linearGradient>
<linearGradient id="paint9_linear_238_8439" x1="93.1937" y1="92.8977" x2="81.4994" y2="70.1873" gradientUnits="userSpaceOnUse">
<stop stop-color="#E37A34"/>
<stop offset="0.173" stop-color="#FFA538"/>
<stop offset="0.659" stop-color="#F7E041"/>
<stop offset="1" stop-color="#FCF3B3"/>
</linearGradient>
<linearGradient id="paint10_linear_238_8439" x1="97.3219" y1="96.1386" x2="95.0026" y2="91.6349" gradientUnits="userSpaceOnUse">
<stop offset="0.032" stop-color="#8B451C"/>
<stop offset="1" stop-color="#8B451C" stop-opacity="0"/>
</linearGradient>
<linearGradient id="paint11_linear_238_8439" x1="79.8231" y1="80.9261" x2="86.7612" y2="94.3996" gradientUnits="userSpaceOnUse">
<stop stop-color="#E37A34"/>
<stop offset="1" stop-color="#FFA538"/>
</linearGradient>
<linearGradient id="paint12_linear_238_8439" x1="76.7164" y1="76.1267" x2="80.8361" y2="84.1271" gradientUnits="userSpaceOnUse">
<stop offset="0.032" stop-color="#8B451C"/>
<stop offset="1" stop-color="#8B451C" stop-opacity="0"/>
</linearGradient>
<linearGradient id="paint13_linear_238_8439" x1="46.2473" y1="71.3065" x2="49.8719" y2="71.3065" gradientUnits="userSpaceOnUse">
<stop stop-color="#FFA538"/>
<stop offset="1" stop-color="#F7E041"/>
</linearGradient>
<linearGradient id="paint14_linear_238_8439" x1="50.4817" y1="66.6856" x2="47.6974" y2="72.0928" gradientUnits="userSpaceOnUse">
<stop offset="0.032" stop-color="#8B451C"/>
<stop offset="1" stop-color="#8B451C" stop-opacity="0"/>
</linearGradient>
<linearGradient id="paint15_linear_238_8439" x1="58.6858" y1="71.565" x2="62.3667" y2="64.4166" gradientUnits="userSpaceOnUse">
<stop stop-color="#FFA538"/>
<stop offset="0.341" stop-color="#F7E041"/>
<stop offset="0.654" stop-color="#FCF3B3"/>
<stop offset="1" stop-color="#F7E041"/>
</linearGradient>
<linearGradient id="paint16_linear_238_8439" x1="82.1798" y1="110.624" x2="82.1798" y2="71.4685" gradientUnits="userSpaceOnUse">
<stop stop-color="#FFA538"/>
<stop offset="1" stop-color="#F7E041"/>
</linearGradient>
</defs>
</svg>
