<svg width="512" height="512" viewBox="0 0 512 512" fill="none" xmlns="http://www.w3.org/2000/svg">
<g clip-path="url(#clip0_187_8403)">
<path d="M400 192H384V128C384 57.408 326.592 0 256 0C185.408 0 128 57.408 128 128V192H112C99.2748 192.017 87.0757 197.08 78.0776 206.078C69.0795 215.076 64.0169 227.275 64 240V464C64 490.475 85.5467 512 112 512H400C426.453 512 448 490.475 448 464V240C448 213.525 426.453 192 400 192ZM170.667 128C170.667 80.9387 208.939 42.6667 256 42.6667C303.061 42.6667 341.333 80.9387 341.333 128V192H170.667V128ZM277.333 356.736V405.333C277.333 410.991 275.086 416.418 271.085 420.418C267.084 424.419 261.658 426.667 256 426.667C250.342 426.667 244.916 424.419 240.915 420.418C236.914 416.418 234.667 410.991 234.667 405.333V356.736C221.973 349.333 213.333 335.723 213.333 320C213.333 296.469 232.469 277.333 256 277.333C279.531 277.333 298.667 296.469 298.667 320C298.667 335.723 290.027 349.333 277.333 356.736Z" fill="black"/>
</g>
<defs>
<clipPath id="clip0_187_8403">
<rect width="512" height="512" fill="white"/>
</clipPath>
</defs>
</svg>
