<svg width="189" height="196" viewBox="0 0 189 196" fill="none" xmlns="http://www.w3.org/2000/svg">
<path d="M33.6748 0.402329H103.847C106.333 0.402329 108.718 1.42956 110.476 3.25804C112.234 5.08652 113.222 7.56647 113.222 10.1523C113.222 12.7382 112.234 15.2181 110.476 17.0466C108.718 18.8751 106.333 19.9023 103.847 19.9023H33.6748C25.7717 19.9023 19.3404 26.5616 19.3404 34.7516V161.248C19.3404 169.438 25.7717 176.107 33.6748 176.107H103.847C106.333 176.107 108.718 177.134 110.476 178.963C112.234 180.791 113.222 183.271 113.222 185.857C113.222 188.443 112.234 190.923 110.476 192.751C108.718 194.58 106.333 195.607 103.847 195.607H33.6748C24.9091 195.605 16.5026 191.985 10.2999 185.544C4.09727 179.102 0.605318 170.364 0.590419 161.248V34.7516C0.605318 25.6353 4.09727 16.8976 10.2999 10.456C16.5026 4.01437 24.9091 0.395147 33.6748 0.392578V0.402329Z" fill="black"/>
<path d="M157.5 107.779H66.6842C64.1978 107.779 61.8132 106.752 60.0551 104.923C58.2969 103.095 57.3092 100.615 57.3092 98.0289C57.3092 95.443 58.2969 92.9631 60.0551 91.1346C61.8132 89.3061 64.1978 88.2789 66.6842 88.2789H157.312L128.606 56.3964C127.727 55.4698 127.036 54.3696 126.572 53.1607C126.109 51.9519 125.883 50.6587 125.908 49.3575C125.932 48.0564 126.207 46.7735 126.716 45.5845C127.225 44.3956 127.958 43.3247 128.871 42.4348C129.784 41.545 130.859 40.8543 132.033 40.4035C133.207 39.9527 134.456 39.7508 135.706 39.8098C136.956 39.8689 138.182 40.1876 139.312 40.7472C140.442 41.3067 141.452 42.0959 142.284 43.0681L185.4 90.9504C186.428 91.9503 187.223 93.1807 187.725 94.5481C187.969 95.1819 188.006 95.8546 188.109 96.5176C188.194 97.0344 188.409 97.4926 188.409 98.0289L188.39 98.0874C188.412 100.584 187.509 102.993 185.869 104.815L142.275 153.214C141.437 154.151 140.428 154.907 139.308 155.438C138.188 155.969 136.978 156.264 135.748 156.306C134.517 156.349 133.291 156.138 132.14 155.686C130.988 155.234 129.934 154.55 129.037 153.672C128.138 152.797 127.414 151.745 126.905 150.579C126.397 149.412 126.115 148.152 126.075 146.872C126.035 145.591 126.238 144.315 126.672 143.117C127.106 141.918 127.764 140.82 128.606 139.886L157.5 107.779Z" fill="black"/>
</svg>
