<svg width="200" height="184" viewBox="0 0 200 184" fill="none" xmlns="http://www.w3.org/2000/svg">
<path d="M99.9998 183.274C97.1522 183.274 94.4076 182.212 92.2682 180.282C84.1885 173.005 76.3991 166.167 69.5264 160.135L69.4913 160.103C49.3421 142.417 31.9425 127.144 19.8363 112.098C6.3035 95.2793 0 79.3313 0 61.9094C0 44.9828 5.63515 29.3667 15.866 17.9361C26.2191 6.37038 40.4249 0.000488281 55.8714 0.000488281C67.4163 0.000488281 77.9889 3.75998 87.2955 11.1736C91.992 14.9153 96.249 19.4952 99.9998 24.8371C103.752 19.4952 108.008 14.9153 112.706 11.1736C122.012 3.75998 132.585 0.000488281 144.13 0.000488281C159.575 0.000488281 173.782 6.37038 184.135 17.9361C194.366 29.3667 200 44.9828 200 61.9094C200 79.3308 193.698 95.2789 180.165 112.097C168.058 127.144 150.66 142.416 130.514 160.1C123.629 166.142 115.828 172.991 107.73 180.285C105.59 182.213 102.843 183.275 99.9998 183.274ZM55.8714 12.0676C43.7362 12.0676 32.5882 17.0562 24.4781 26.115C16.2476 35.3109 11.714 48.0225 11.714 61.9094C11.714 76.5619 17.0011 89.6662 28.8558 104.399C40.3136 118.64 57.3561 133.599 77.0889 150.92L77.1252 150.952C84.0237 157.007 91.844 163.872 99.983 171.202C108.171 163.858 116.003 156.982 122.915 150.917C142.647 133.596 159.688 118.64 171.145 104.399C182.998 89.6662 188.286 76.5619 188.286 61.9094C188.286 48.0221 183.752 35.3105 175.522 26.115C167.413 17.0562 156.264 12.0676 144.13 12.0676C135.24 12.0676 127.078 14.9785 119.871 20.7179C113.449 25.8353 108.975 32.3042 106.352 36.8306C105.003 39.1581 102.629 40.5474 99.9998 40.5474C97.3705 40.5474 94.9963 39.1581 93.6475 36.8306C91.0264 32.3042 86.5522 25.8353 80.128 20.7179C72.9217 14.9785 64.7596 12.0676 55.8714 12.0676Z" fill="black"/>
</svg>
