<svg width="324" height="324" viewBox="0 0 324 324" fill="none" xmlns="http://www.w3.org/2000/svg">
<path d="M59.1347 118.247C91.7818 118.247 118.247 91.7818 118.247 59.1347C118.247 26.4876 91.7818 0.0219727 59.1347 0.0219727C26.4876 0.0219727 0.0219727 26.4876 0.0219727 59.1347C0.0219727 91.7818 26.4876 118.247 59.1347 118.247Z" fill="black"/>
<path d="M59.1347 323.978C91.7818 323.978 118.247 297.513 118.247 264.866C118.247 232.219 91.7818 205.753 59.1347 205.753C26.4876 205.753 0.0219727 232.219 0.0219727 264.866C0.0219727 297.513 26.4876 323.978 59.1347 323.978Z" fill="black"/>
<path d="M264.866 118.247C297.513 118.247 323.978 91.7818 323.978 59.1347C323.978 26.4876 297.513 0.0219727 264.866 0.0219727C232.219 0.0219727 205.753 26.4876 205.753 59.1347C205.753 91.7818 232.219 118.247 264.866 118.247Z" fill="black"/>
<path d="M264.866 323.978C297.513 323.978 323.978 297.513 323.978 264.866C323.978 232.219 297.513 205.753 264.866 205.753C232.219 205.753 205.753 232.219 205.753 264.866C205.753 297.513 232.219 323.978 264.866 323.978Z" fill="black"/>
</svg>
