<svg width="239" height="213" viewBox="0 0 239 213" fill="none" xmlns="http://www.w3.org/2000/svg">
<path d="M231.047 103.678L195.295 86.3474C190.135 83.6908 186.771 82.6624 183.308 82.6545C183.026 82.6541 182.407 82.704 181.519 82.7951V19.2441C181.348 12.5617 177.568 10.0989 166.542 8.43105C166.542 8.43105 101.025 -0.00699502 97.6815 0.000493262C94.2188 0.00798154 90.8546 1.03679 85.6942 3.69305L49.9422 21.0234C43.9229 24.3332 42.0039 30.9159 41.9894 33.7339V98.7751C32.7155 99.8796 14.9782 102.445 14.9782 102.445C3.95245 104.113 0.171865 106.575 8.40281e-05 113.257V180.414C-0.0162539 185.717 2.35041 189.761 6.6454 191.79L46.8856 211.094C46.8856 211.094 52.6146 213.609 61.2644 212.861L128.647 204.666C133.809 204.067 138.013 200.572 139.196 196.258L146.357 199.735C146.357 199.735 152.085 202.249 160.735 201.501L228.118 193.306C234.249 192.595 239.029 187.798 239 182.395V116.388C238.985 113.57 237.066 106.988 231.047 103.678ZM49.9875 33.7577C49.994 32.4772 51.1396 31.6256 52.6179 31.6106C53.1038 31.6056 120.175 39.4167 120.175 39.4167C122.261 39.6709 124.077 41.4473 124.067 43.2316L124.266 43.2582V109.68C124.26 110.943 123.261 111.81 121.782 111.81C121.63 111.81 53.9301 103.587 53.9301 103.587C51.8089 103.341 49.9782 101.556 49.9884 99.7644V33.7577H49.9875ZM131.532 193.778C131.542 195.569 129.712 197.355 127.591 197.6C127.591 197.6 59.8906 205.824 59.7384 205.824C58.2596 205.824 57.2602 204.956 57.2541 203.693V137.272L57.453 137.245C57.4432 135.461 59.2595 133.684 61.3451 133.43C61.3451 133.43 128.416 125.619 128.902 125.624C130.381 125.639 131.526 126.491 131.533 127.771V193.778H131.532ZM231.002 182.418C231.012 184.21 229.182 185.995 227.061 186.241C227.061 186.241 159.361 194.464 159.208 194.464C157.729 194.464 156.731 193.597 156.724 192.333V125.912L156.923 125.886C156.913 124.101 158.73 122.324 160.816 122.071C160.816 122.071 227.887 114.26 228.372 114.264C229.851 114.279 230.996 115.131 231.003 116.411V182.418H231.002Z" fill="black"/>
<path d="M79.855 60.6124L80.0156 60.6328V95.7624L93.9849 97.5542V51.049L82.1838 49.5352L67.2515 53.4869L69.5794 63.3727L79.855 60.6124ZM96.6004 175.412C96.6004 175.412 113.861 162.454 113.861 152.03C113.861 142.872 106.636 137.778 94.5133 139.075C87.1277 139.865 80.5444 142.787 76.5304 145.864L80.4646 154.672C96.8609 146.229 99.411 151.286 99.411 154.649C99.3307 159.379 76.1299 180.535 76.1299 180.535V188.334L114.744 184.203V173.615L96.6013 175.555V175.412H96.6004ZM203.825 150.644V150.5C210.247 147.611 213.378 143.387 213.378 138.45C213.378 131.796 206.554 127.586 194.994 129.182C187.768 130.179 181.106 132.816 177.814 135.059L180.543 143.912C193.021 137.077 198.717 140.334 198.687 142.695C198.622 147.686 185.36 148.756 185.36 148.756V157.914C185.36 157.914 199.971 155.798 199.971 161.478C199.971 164.769 196.599 166.88 191.461 167.589C186.484 168.276 181.266 167.208 179.018 166.516L176.288 176.551C179.581 177.886 185.521 178.569 192.665 177.583C206.153 175.721 214.984 168.707 214.984 160.122C214.984 154.184 210.006 150.721 203.825 150.644Z" fill="black"/>
</svg>
