<svg width="215" height="213" viewBox="0 0 215 213" fill="none" xmlns="http://www.w3.org/2000/svg">
<path d="M214.014 175.647L202.002 55.7889C201.257 48.0664 193.006 42.0197 183.227 42.0197H159.498V69.8582C159.498 73.3057 155.973 76.0963 151.62 76.0963C147.271 76.0963 143.741 73.3057 143.741 69.8582V42.0197H71.2632V69.8582C71.2632 73.3057 67.7336 76.0963 63.3849 76.0963C59.031 76.0963 55.5067 73.3057 55.5067 69.8582V42.0197H31.778C21.9989 42.0197 13.7476 48.0664 13.0021 55.7723L0.985347 175.663C0.055931 185.266 4.26273 194.823 12.524 201.884C20.7857 208.945 32.4978 213 44.6563 213H170.349C182.507 213 194.219 208.945 202.481 201.884C210.742 194.822 214.949 185.265 214.014 175.647ZM142.996 114.609L102.25 146.873C101.519 147.453 100.651 147.914 99.6946 148.228C98.7383 148.542 97.7131 148.703 96.6779 148.702C95.6427 148.703 94.6175 148.542 93.6612 148.228C92.7049 147.914 91.8364 147.453 91.1056 146.873L72.0092 131.752C68.9315 129.315 68.9315 125.368 72.0092 122.931C75.087 120.494 80.0766 120.494 83.1491 122.931L96.6784 133.64L131.856 105.785C134.929 103.352 139.919 103.352 142.996 105.785C146.074 108.222 146.074 112.172 142.996 114.609ZM107.503 0C78.8314 0 55.5072 18.4728 55.5072 41.1751V42.0192H71.2637V41.1751C71.2637 25.3512 87.5188 12.4759 107.503 12.4759C127.487 12.4759 143.742 25.3512 143.742 41.1751V42.0192H159.498V41.1751C159.498 18.4728 136.174 0 107.503 0Z" fill="black"/>
</svg>
