<svg width="512" height="502" viewBox="0 0 512 502" fill="none" xmlns="http://www.w3.org/2000/svg">
<path d="M511.496 360.717C508.582 330.739 493.232 303.456 468.274 283.893C458.648 276.348 447.716 270.042 435.661 265.02V129.854C435.661 128.45 435.292 127.07 434.589 125.854C433.887 124.638 432.877 123.628 431.661 122.926L221.831 1.78099C220.615 1.07885 219.235 0.709198 217.831 0.709198C216.427 0.709198 215.047 1.07885 213.831 1.78099L4.00098 122.926C2.78472 123.628 1.77472 124.638 1.07256 125.854C0.370391 127.07 0.000809548 128.45 0.000976619 129.854V372.145C0.000809548 373.549 0.370391 374.929 1.07256 376.145C1.77472 377.361 2.78472 378.371 4.00098 379.073L213.831 500.218C215.047 500.92 216.427 501.29 217.831 501.29C219.235 501.29 220.615 500.92 221.831 500.218L431.661 379.073C433.277 378.135 434.513 376.66 435.154 374.905C440.612 381.947 444.392 389.841 446.177 398.161C452.775 428.899 432.895 458.784 394.296 476.153C392.628 476.904 391.268 478.205 390.442 479.837C389.617 481.469 389.375 483.335 389.759 485.124C390.142 486.913 391.126 488.516 392.548 489.667C393.97 490.818 395.744 491.447 397.573 491.449C398.084 491.449 398.601 491.4 399.119 491.298C436.152 484.031 466.462 466.803 486.771 441.476C505.507 418.115 514.287 389.434 511.496 360.717ZM217.831 241.762L159.341 207.993L353.171 96.085L411.661 129.854L217.831 241.762ZM98.49 172.861L292.32 60.953L337.171 86.848L143.341 198.756L98.49 172.861ZM135.342 212.612L135.341 289.546L90.491 263.652L90.49 186.717L135.342 212.612ZM217.831 17.947L276.32 51.716L82.49 163.623L24.001 129.854L217.831 17.947ZM16.001 143.711L74.49 177.48L74.491 268.271C74.4908 269.675 74.8604 271.055 75.5626 272.271C76.2647 273.487 77.2747 274.497 78.491 275.199L139.341 310.33C140.557 311.032 141.937 311.402 143.341 311.402C144.745 311.402 146.125 311.032 147.341 310.33C148.557 309.628 149.567 308.618 150.269 307.402C150.971 306.186 151.341 304.806 151.341 303.402L151.342 221.85L209.831 255.619V479.435L16.001 367.527V143.711ZM225.831 479.434V255.619L419.661 143.711V259.308C403.022 254.289 384.657 251.418 364.928 250.81V224.937C364.928 223.415 364.495 221.924 363.677 220.64C362.86 219.355 361.693 218.331 360.314 217.687C358.935 217.043 357.4 216.805 355.891 217.003C354.382 217.2 352.96 217.825 351.793 218.802L259.304 296.212C258.374 296.991 257.634 297.971 257.138 299.078C256.643 300.185 256.405 301.39 256.444 302.603C256.483 303.815 256.797 305.002 257.362 306.076C257.927 307.149 258.729 308.079 259.707 308.797L352.196 376.652C353.388 377.527 354.799 378.055 356.273 378.176C357.747 378.298 359.225 378.008 360.545 377.34C361.864 376.672 362.972 375.651 363.746 374.391C364.52 373.131 364.929 371.681 364.929 370.202V343.306C386.114 344.444 404.724 350.143 419.125 359.96C419.308 360.085 419.481 360.217 419.662 360.343V367.527L225.831 479.434ZM446.937 455.919C448.892 453.37 450.702 450.713 452.36 447.962C462.424 431.235 465.696 412.853 461.822 394.804C457.752 375.841 445.789 358.771 428.136 346.738C409.281 333.886 384.657 327.092 356.928 327.092C354.806 327.092 352.771 327.935 351.271 329.435C349.771 330.935 348.928 332.97 348.928 335.092V354.409L277.398 301.93L348.928 242.063V258.686C348.928 260.808 349.771 262.843 351.271 264.343C352.771 265.843 354.806 266.686 356.928 266.686C452.406 266.686 491.286 318.172 495.572 362.262C498.711 394.573 483.996 432.216 446.937 455.919Z" fill="url(#paint0_linear_562_8421)"/>
<defs>
<linearGradient id="paint0_linear_562_8421" x1="76.23" y1="451.689" x2="418.52" y2="109.399" gradientUnits="userSpaceOnUse">
<stop stop-color="#FCC60E"/>
<stop offset="1" stop-color="#E92E29"/>
</linearGradient>
</defs>
</svg>
