<svg width="426" height="421" viewBox="0 0 426 421" fill="none" xmlns="http://www.w3.org/2000/svg">
<g clip-path="url(#clip0_547_8437)">
<path d="M213 0C95.3652 0 0 94.2459 0 210.5C0 326.754 95.3652 421 213 421C330.635 421 426 326.754 426 210.5C426 94.2459 330.635 0 213 0ZM36.7241 210.5C36.7241 114.447 115.806 36.2931 213 36.2931C254.301 36.2587 294.29 50.6246 325.927 76.8615L77.7744 322.101C51.2275 290.834 36.6912 251.316 36.7241 210.5ZM213 384.707C173.497 384.733 135.141 371.576 104.15 347.369L351.494 102.92C375.988 133.552 389.301 171.458 389.276 210.5C389.276 306.553 310.194 384.707 213 384.707Z" fill="#DD352E"/>
</g>
<defs>
<clipPath id="clip0_547_8437">
<rect width="426" height="421" fill="white"/>
</clipPath>
</defs>
</svg>
