<svg width="416" height="351" viewBox="0 0 416 351" fill="none" xmlns="http://www.w3.org/2000/svg">
<path d="M15.9842 219.576C20.7842 219.576 25.5362 217.432 28.6722 213.336L35.6322 204.296C40.8652 235.204 54.3146 264.136 74.5712 288.061C94.8278 311.985 121.146 330.022 150.768 340.28C187.4 353.055 227.242 353.268 264.008 340.885C300.774 328.502 332.369 304.229 353.808 271.896C356.153 268.357 356.995 264.031 356.151 259.871C355.306 255.711 352.843 252.057 349.304 249.712C345.765 247.368 341.44 246.525 337.279 247.37C333.119 248.214 329.465 250.677 327.12 254.216C309.608 280.623 283.8 300.447 253.77 310.558C223.74 320.67 191.198 320.493 161.28 310.056C136.618 301.508 114.772 286.359 98.1194 266.26C81.4668 246.16 70.6453 221.878 66.8322 196.056L80.5282 206.6C83.8912 209.189 88.1447 210.335 92.353 209.787C96.5613 209.24 100.38 207.043 102.968 203.68C105.557 200.317 106.703 196.064 106.156 191.855C105.608 187.647 103.411 183.829 100.048 181.24L62.1122 152.04C54.1602 145.912 42.8482 142.472 35.6482 151.864L3.32822 193.832C1.50474 196.197 0.380253 199.026 0.082238 201.997C-0.215777 204.968 0.3246 207.964 1.64211 210.644C2.95962 213.324 5.00157 215.581 7.53648 217.16C10.0714 218.739 12.9979 219.576 15.9842 219.576ZM66.7042 100.296C74.0482 105.176 83.9842 103.16 88.8962 95.8C106.418 69.4032 132.226 49.5881 162.253 39.4778C192.279 29.3676 224.817 29.5372 254.736 39.96C279.399 48.5084 301.245 63.6566 317.897 83.7565C334.55 103.856 345.371 128.138 349.184 153.96L335.488 143.416C333.823 142.134 331.922 141.193 329.893 140.646C327.864 140.099 325.747 139.957 323.663 140.229C321.58 140.5 319.57 141.179 317.748 142.227C315.927 143.274 314.33 144.671 313.048 146.336C311.767 148.001 310.825 149.902 310.278 151.931C309.732 153.96 309.59 156.077 309.861 158.161C310.132 160.245 310.811 162.254 311.859 164.076C312.907 165.897 314.303 167.494 315.968 168.776L353.904 197.976C362 204.2 373.056 207.688 380.368 198.152L412.688 156.184C413.969 154.52 414.909 152.62 415.456 150.592C416.002 148.565 416.144 146.45 415.872 144.367C415.601 142.285 414.923 140.277 413.875 138.457C412.828 136.637 411.432 135.041 409.768 133.76C408.104 132.479 406.204 131.539 404.177 130.993C402.149 130.446 400.034 130.305 397.951 130.576C395.869 130.847 393.861 131.526 392.041 132.573C390.221 133.62 388.625 135.016 387.344 136.68L380.384 145.72C375.151 114.812 361.702 85.8795 341.445 61.955C321.189 38.0305 294.87 19.9943 265.248 9.73601C228.618 -3.02916 188.78 -3.23883 152.017 9.14007C115.254 21.519 83.6571 45.7822 62.2082 78.104C59.8672 81.6447 59.0258 85.9693 59.8686 90.1294C60.7115 94.2896 63.1697 97.9457 66.7042 100.296Z" fill="black"/>
</svg>
