<svg width="189" height="213" viewBox="0 0 189 213" fill="none" xmlns="http://www.w3.org/2000/svg">
<path d="M188.345 175.649L177.761 55.7885C177.101 48.0664 169.835 42.0172 161.218 42.0172H140.312V41.1727C140.312 18.4698 119.761 0 94.5004 0C69.2396 0 48.6886 18.4698 48.6886 41.1727V42.0172H27.7836C19.1659 42.0172 11.899 48.066 11.2417 55.7723L0.654464 175.666C-0.164852 185.265 3.54059 194.822 10.82 201.885C18.0994 208.948 28.4186 213 39.1313 213H149.869C160.581 213 170.901 208.949 178.181 201.885C185.46 194.822 189.165 185.265 188.345 175.649ZM62.5707 41.1727C62.5707 25.3495 76.8949 12.4763 94.5004 12.4763C112.106 12.4763 126.43 25.3499 126.43 41.1727V42.0172H62.5707V41.1727ZM167.996 193.408C163.266 197.996 156.829 200.524 149.869 200.524H39.1318C32.1718 200.524 25.7348 197.996 21.005 193.408C16.2756 188.819 13.964 182.856 14.4954 176.636L25.0817 56.7425C25.1891 55.4811 26.3759 54.4935 27.7836 54.4935H48.6886V69.859C48.6886 73.304 51.7965 76.0972 55.6297 76.0972C59.4629 76.0972 62.5707 73.304 62.5707 69.859V54.4935H126.43V69.859C126.43 73.304 129.538 76.0972 133.371 76.0972C137.204 76.0972 140.312 73.304 140.312 69.859V54.4935H161.218C162.625 54.4935 163.812 55.4815 163.921 56.7591L174.505 176.619C175.037 182.856 172.725 188.818 167.996 193.408Z" fill="black"/>
<path d="M125.771 105.787C123.061 103.35 118.666 103.35 115.956 105.787L84.9625 133.641L73.0449 122.931C70.3346 120.494 65.9395 120.494 63.2288 122.931C60.5181 125.367 60.5181 129.316 63.2288 131.753L80.0544 146.874C81.4098 148.092 83.1863 148.702 84.962 148.702C86.7376 148.702 88.5147 148.093 89.8696 146.874L125.77 114.609C128.482 112.172 128.482 108.223 125.771 105.787Z" fill="black"/>
</svg>
