<svg width="512" height="512" viewBox="0 0 512 512" fill="none" xmlns="http://www.w3.org/2000/svg">
<g clip-path="url(#clip0_562_8410)">
<path d="M256 0C205.368 0 155.873 15.0141 113.774 43.1438C71.6751 71.2734 38.863 111.255 19.487 158.033C0.110922 204.811 -4.95873 256.284 4.91908 305.943C14.7969 355.602 39.1785 401.217 74.9808 437.019C110.783 472.822 156.398 497.203 206.057 507.081C255.716 516.959 307.189 511.889 353.967 492.513C400.745 473.137 440.727 440.325 468.856 398.226C496.986 356.127 512 306.632 512 256C511.927 188.127 484.932 123.055 436.938 75.0617C388.945 27.0683 323.873 0.0734097 256 0ZM256 469.333C213.807 469.333 172.561 456.822 137.478 433.38C102.396 409.939 75.0525 376.621 58.9058 337.639C42.7591 298.658 38.5344 255.763 46.7659 214.381C54.9974 172.998 75.3155 134.986 105.151 105.151C134.986 75.3154 172.998 54.9973 214.381 46.7658C255.763 38.5343 298.658 42.759 337.639 58.9057C376.621 75.0524 409.939 102.396 433.38 137.478C456.822 172.561 469.333 213.807 469.333 256C469.271 312.56 446.775 366.787 406.781 406.781C366.787 446.775 312.561 469.271 256 469.333Z" fill="black"/>
<path d="M256 0C205.368 0 155.873 15.0141 113.774 43.1438C71.6751 71.2734 38.863 111.255 19.487 158.033C0.110922 204.811 -4.95873 256.284 4.91908 305.943C14.7969 355.602 39.1785 401.217 74.9808 437.019C110.783 472.822 156.398 497.203 206.057 507.081C255.716 516.959 307.189 511.889 353.967 492.513C400.745 473.137 440.727 440.325 468.856 398.226C496.986 356.127 512 306.632 512 256C511.927 188.127 484.932 123.055 436.938 75.0617C388.945 27.0683 323.873 0.0734097 256 0ZM256 469.333C213.807 469.333 172.561 456.822 137.478 433.38C102.396 409.939 75.0525 376.621 58.9058 337.639C42.7591 298.658 38.5344 255.763 46.7659 214.381C54.9974 172.998 75.3155 134.986 105.151 105.151C134.986 75.3154 172.998 54.9973 214.381 46.7658C255.763 38.5343 298.658 42.759 337.639 58.9057C376.621 75.0524 409.939 102.396 433.38 137.478C456.822 172.561 469.333 213.807 469.333 256C469.271 312.56 446.775 366.787 406.781 406.781C366.787 446.775 312.561 469.271 256 469.333Z" stroke="black"/>
<path d="M335.082 176.917C331.082 172.918 325.657 170.671 320 170.671C314.343 170.671 308.918 172.918 304.917 176.917L256 225.835L207.082 176.917C203.059 173.031 197.67 170.881 192.077 170.93C186.483 170.978 181.132 173.222 177.177 177.177C173.222 181.133 170.978 186.483 170.929 192.077C170.881 197.67 173.031 203.059 176.917 207.083L225.834 256L176.917 304.917C174.88 306.885 173.254 309.239 172.136 311.842C171.018 314.445 170.43 317.244 170.405 320.077C170.38 322.909 170.92 325.719 171.993 328.34C173.066 330.962 174.65 333.344 176.653 335.347C178.656 337.35 181.038 338.934 183.659 340.007C186.281 341.08 189.09 341.619 191.923 341.595C194.756 341.57 197.555 340.982 200.158 339.864C202.76 338.745 205.115 337.12 207.082 335.083L256 286.165L304.917 335.083C308.941 338.969 314.329 341.119 319.923 341.07C325.517 341.022 330.867 338.778 334.823 334.823C338.778 330.867 341.022 325.517 341.07 319.923C341.119 314.33 338.968 308.941 335.082 304.917L286.165 256L335.082 207.083C339.082 203.082 341.329 197.657 341.329 192C341.329 186.343 339.082 180.918 335.082 176.917Z" fill="black"/>
</g>
<defs>
<clipPath id="clip0_562_8410">
<rect width="512" height="512" fill="white"/>
</clipPath>
</defs>
</svg>
