<svg width="435" height="390" viewBox="0 0 435 390" fill="none" xmlns="http://www.w3.org/2000/svg">
<path fill-rule="evenodd" clip-rule="evenodd" d="M289.411 122.797L316.216 136.683L217.5 187.764L190.695 173.9L285.919 124.602L289.411 122.797ZM261.79 112.133L162.522 163.518C162.403 163.579 162.301 163.648 162.157 163.716L159.582 165.057V194.68L169.744 199.951V173.87H169.769C169.769 171.714 171.018 169.597 173.261 168.431L275.401 115.576L265.282 110.327L261.79 112.133ZM320.813 250.948C322.333 250.171 323.2 248.808 323.2 247.231V147.522L224.526 198.611V300.787L320.813 250.948ZM111.817 247.231C111.817 248.808 112.684 250.171 114.205 250.948L210.491 300.78V198.603L183.779 184.785V210.829C183.779 214.302 180.644 217.113 176.77 217.113C175.249 217.113 173.856 216.679 172.7 215.947L149.073 203.729C148.005 203.18 147.118 202.388 146.5 201.433C145.883 200.478 145.557 199.394 145.555 198.291H145.53V164.988L111.809 147.545V247.231H111.817ZM215.113 86.8207L118.827 136.675L152.616 154.164L155.147 152.846C155.266 152.786 155.411 152.717 155.53 152.648L251.306 103.076L219.879 86.8207C218.367 86.0438 216.634 86.0438 215.113 86.8207ZM371.347 57.0908C331.968 21.7852 277.593 -0.0380859 217.5 -0.0380859C185.011 -0.0380859 154.111 6.37559 126.346 17.908C104.545 26.9268 84.7062 39.1295 67.4846 53.8535C65.3861 55.6436 62.0386 55.6207 59.9911 53.7697L34.2224 30.6896C32.6592 29.2881 30.4417 28.8996 28.3941 29.6537C26.3466 30.4078 25.0721 32.1141 25.0721 34.1021V108.789C25.0721 111.424 27.4765 113.58 30.4417 113.58H113.746C115.963 113.58 117.841 112.46 118.682 110.624C119.549 108.789 119.09 106.778 117.527 105.376L91.8769 82.3799C90.8149 81.4277 90.2882 80.2623 90.3136 78.9064C90.3391 77.543 90.9169 76.4004 91.9959 75.4711C106.252 63.4436 122.701 53.4498 140.763 45.9545C164.051 36.3035 190.041 30.9258 217.492 30.9258C268.043 30.9258 313.803 49.2756 346.913 78.9674C379.019 107.753 399.249 147.179 400.447 190.833C400.515 193.141 402.639 195 405.213 195H430.208C431.559 195 432.689 194.566 433.624 193.728C434.567 192.867 435.017 191.831 434.975 190.643C433.717 138.519 409.639 91.4215 371.347 57.0908ZM404.576 276.42H321.271C319.054 276.42 317.151 277.54 316.31 279.376C315.469 281.211 315.902 283.222 317.491 284.624L343.115 307.62C344.202 308.572 344.729 309.761 344.704 311.094C344.678 312.457 344.1 313.6 342.996 314.529C328.623 326.651 312.164 336.618 294.254 344.046C270.966 353.696 244.951 359.097 217.5 359.097C166.974 359.097 121.214 340.724 88.0962 311.033C55.9894 282.247 35.7602 242.821 34.5368 199.167C34.4858 196.859 32.3703 195 29.7705 195H4.76648C3.44109 195 2.28562 195.434 1.36804 196.295C0.424975 197.14 -0.025318 198.176 -0.00832579 199.38C1.26609 251.504 25.378 298.571 63.6699 332.924C103.058 368.215 157.433 390.038 217.5 390.038C250.015 390.038 280.915 383.624 308.68 372.092C330.473 363.066 350.32 350.871 367.541 336.139C369.64 334.349 372.987 334.372 375.035 336.223L400.778 359.303C402.341 360.704 404.584 361.116 406.632 360.339C408.679 359.585 409.954 357.878 409.954 355.89V281.227C409.945 278.583 407.541 276.42 404.576 276.42Z" fill="black"/>
</svg>
