<svg width="409" height="374" viewBox="0 0 409 374" fill="none" xmlns="http://www.w3.org/2000/svg">
<path d="M378.568 229.602V93.3758L189.592 0L0.617188 93.3758V280.127L189.592 373.503L239.864 348.663C257.72 364.285 282.607 374 310.098 374C364.292 374 408.383 336.265 408.383 289.884C408.383 266.266 396.945 244.895 378.568 229.602ZM189.592 25.337L340.109 99.7097L277.671 130.562L127.154 56.1891L189.592 25.337ZM176.773 341.831L26.2568 267.458V118.714L176.773 193.086V341.831ZM39.0766 99.7097L101.515 68.8576L252.031 143.23L189.592 174.082L39.0766 99.7097ZM202.412 341.831V193.086L352.928 118.713V214.186C339.975 208.796 325.442 205.769 310.098 205.769C255.904 205.769 211.813 243.504 211.813 289.885C211.813 304.802 216.379 318.822 224.37 330.982L202.412 341.831ZM310.098 352.057C270.041 352.057 237.452 324.166 237.452 289.884C237.452 255.603 270.041 227.712 310.098 227.712C350.154 227.712 382.743 255.603 382.743 289.884C382.743 324.166 350.155 352.057 310.098 352.057Z" fill="black"/>
<path d="M340.454 258.01L298.475 294.136L279.672 278.206L261.634 293.8L298.617 325.132L358.634 273.483L340.454 258.01Z" fill="black"/>
</svg>
