<svg width="448" height="406" viewBox="0 0 448 406" fill="none" xmlns="http://www.w3.org/2000/svg">
<path d="M320.528 0.264474H320.464C303.637 0.239808 286.976 3.58605 271.463 10.1057C255.951 16.6254 241.901 26.1864 230.144 38.2245L223.936 44.5365L217.704 38.2005C205.944 26.1794 191.902 16.6287 176.4 10.1091C160.899 3.58939 144.252 0.23214 127.435 0.234376C110.618 0.236612 93.9718 3.59829 78.4722 10.1221C62.9727 16.6459 48.9325 26.2003 37.1761 38.2245C13.3383 62.7062 -0.000732422 95.5264 -0.000732422 129.696C-0.000732422 163.867 13.3383 196.687 37.1761 221.168L215.384 402.192C216.501 403.327 217.833 404.228 219.302 404.843C220.771 405.458 222.348 405.775 223.94 405.775C225.533 405.775 227.109 405.458 228.578 404.843C230.047 404.228 231.379 403.327 232.496 402.192L410.72 221.152C434.621 196.706 448.002 163.874 447.999 129.685C447.996 95.4963 434.609 62.667 410.704 38.2245C398.972 26.1925 384.948 16.6341 369.46 10.1142C353.971 3.59428 337.333 0.245064 320.528 0.264474ZM393.6 204.328L223.936 376.664L54.2961 204.344C34.8442 184.366 23.9594 157.584 23.9594 129.7C23.9594 101.817 34.8442 75.0346 54.2961 55.0565C63.8202 45.3017 75.199 37.55 87.7631 32.2575C100.327 26.9651 113.823 24.2386 127.456 24.2386C141.089 24.2386 154.585 26.9651 167.149 32.2575C179.713 37.55 191.092 45.3017 200.616 55.0565L215.384 70.0645C217.683 72.2799 220.751 73.5177 223.944 73.5177C227.137 73.5177 230.205 72.2799 232.504 70.0645L247.248 55.0725C256.777 45.3094 268.165 37.5541 280.74 32.2641C293.315 26.9742 306.822 24.2568 320.464 24.2725H320.52C334.139 24.2605 347.622 26.9784 360.173 32.2658C372.724 37.5532 384.087 45.3028 393.592 55.0565C413.083 75.0113 423.994 101.799 423.994 129.692C423.994 157.586 413.09 184.374 393.6 204.328Z" fill="black"/>
<path d="M71.4 71.8965C56.3349 87.3608 47.9029 108.096 47.8999 129.685C47.8969 151.275 56.3232 172.012 71.384 187.48L88.512 170.664C77.8344 159.7 71.8593 145.001 71.8593 129.696C71.8593 114.392 77.8344 99.6926 88.512 88.7285L71.4 71.8965Z" fill="black"/>
</svg>
