<svg width="204" height="186" viewBox="0 0 204 186" fill="none" xmlns="http://www.w3.org/2000/svg">
<path d="M197.625 119.498C194.106 119.498 191.25 122.466 191.25 126.123V172.498H12.75V92.998H82.875C86.394 92.998 89.25 90.03 89.25 86.373C89.25 82.716 86.394 79.748 82.875 79.748H12.75V53.248H82.875C86.394 53.248 89.25 50.28 89.25 46.623C89.25 42.966 86.394 39.998 82.875 39.998H12.75C5.712 39.998 0 45.934 0 53.248V172.498C0 179.812 5.712 185.748 12.75 185.748H191.25C198.288 185.748 204 179.812 204 172.498V126.123C204 122.466 201.144 119.498 197.625 119.498Z" fill="black"/>
<path d="M57.375 119.498H31.875C28.356 119.498 25.5 122.466 25.5 126.123C25.5 129.78 28.356 132.748 31.875 132.748H57.375C60.894 132.748 63.75 129.78 63.75 126.123C63.75 122.466 60.894 119.498 57.375 119.498ZM200.137 20.6531L155.512 0.778139C154.714 0.430508 153.858 0.251465 152.994 0.251465C152.129 0.251465 151.273 0.430508 150.476 0.778139L105.851 20.6531C104.707 21.1681 103.733 22.0194 103.048 23.1024C102.364 24.1854 102 25.4526 102 26.7481V53.2481C102 89.6989 114.967 111.005 149.825 131.874C150.807 132.457 151.903 132.748 153 132.748C154.097 132.748 155.193 132.457 156.175 131.874C191.033 111.058 204 89.7519 204 53.2481V26.7481C204 24.0981 202.483 21.6999 200.137 20.6531ZM191.25 53.2481C191.25 83.8424 181.509 100.683 153 118.438C124.491 100.643 114.75 83.8026 114.75 53.2481V31.1206L153 14.0811L191.25 31.1206V53.2481Z" fill="black"/>
<path d="M176.116 41.4422C173.374 39.1897 169.371 39.627 167.152 42.4757L147.109 68.5252L139.179 56.2027C137.203 53.1552 133.237 52.347 130.343 54.361C127.423 56.3882 126.62 60.509 128.571 63.5432L141.321 83.4182C142.456 85.1805 144.317 86.267 146.357 86.373H146.625C148.55 86.373 150.386 85.472 151.61 83.882L177.11 50.757C179.303 47.895 178.87 43.7345 176.116 41.4422Z" fill="black"/>
</svg>
