<svg width="258" height="236" viewBox="0 0 258 236" fill="none" xmlns="http://www.w3.org/2000/svg">
<g clip-path="url(#clip0_398_8410)">
<path d="M129 0C57.8666 0 0 52.9322 0 118C0 183.068 57.8666 236 129 236C200.133 236 258 183.068 258 118C258 52.9322 200.133 0 129 0ZM185.438 127.833H139.749V169.625C139.749 175.053 134.935 179.458 129 179.458C123.065 179.458 118.251 175.053 118.251 169.625V127.833H72.5625C66.628 127.833 61.8132 123.428 61.8132 118C61.8132 112.572 66.628 108.167 72.5625 108.167H118.251V66.375C118.251 60.9465 123.065 56.5423 129 56.5423C134.935 56.5423 139.749 60.9465 139.749 66.375V108.167H185.438C191.372 108.167 196.187 112.572 196.187 118C196.187 123.428 191.372 127.833 185.438 127.833Z" fill="black"/>
</g>
<defs>
<clipPath id="clip0_398_8410">
<rect width="258" height="236" fill="white"/>
</clipPath>
</defs>
</svg>
