<svg width="225" height="213" viewBox="0 0 225 213" fill="none" xmlns="http://www.w3.org/2000/svg">
<g clip-path="url(#clip0_421_8425)">
<path d="M205.225 87.7793H132.275V18.7207C132.275 8.38147 123.422 0 112.5 0C101.578 0 92.7246 8.38147 92.7246 18.7207V87.7793H19.7754C8.85366 87.7793 0 96.1608 0 106.5C0 116.839 8.85366 125.221 19.7754 125.221H92.7246V194.279C92.7246 204.619 101.578 213 112.5 213C123.422 213 132.275 204.619 132.275 194.279V125.221H205.225C216.146 125.221 225 116.839 225 106.5C225 96.1608 216.146 87.7793 205.225 87.7793Z" fill="black"/>
</g>
<defs>
<clipPath id="clip0_421_8425">
<rect width="225" height="213" fill="white"/>
</clipPath>
</defs>
</svg>
