<svg width="191" height="190" viewBox="0 0 191 190" fill="none" xmlns="http://www.w3.org/2000/svg">
<path d="M95.0625 0C42.641 0 0 42.4588 0 94.6562C0 146.854 42.641 189.312 95.0625 189.312C147.484 189.312 190.125 146.854 190.125 94.6562C190.125 42.4588 147.484 0 95.0625 0ZM95.0625 174.75C50.7305 174.75 14.625 138.799 14.625 94.6562C14.625 50.5137 50.7305 14.5625 95.0625 14.5625C139.395 14.5625 175.5 50.5137 175.5 94.6562C175.5 138.799 139.395 174.75 95.0625 174.75Z" fill="black"/>
<path d="M95.0625 160.188C131.41 160.188 160.875 130.848 160.875 94.6562C160.875 58.4643 131.41 29.125 95.0625 29.125C58.7153 29.125 29.25 58.4643 29.25 94.6562C29.25 130.848 58.7153 160.188 95.0625 160.188Z" fill="black"/>
</svg>
