<svg width="198" height="202" viewBox="0 0 198 202" fill="none" xmlns="http://www.w3.org/2000/svg">
<path d="M192.892 173.689L139.392 119.189C149.486 103.24 153.432 84.0519 150.472 65.3167C147.512 46.5816 137.855 29.6235 123.359 17.7059C108.863 5.78829 90.552 -0.246757 71.9503 0.762125C53.3486 1.77101 35.7704 9.75253 22.5984 23.1708C9.42639 36.589 1.59132 54.4957 0.600949 73.4451C-0.389421 92.3945 5.53489 111.048 17.2338 125.815C28.9328 140.582 45.5797 150.42 63.9711 153.435C82.3624 156.45 101.199 152.43 116.855 142.147L170.355 196.647C171.835 198.153 173.591 199.346 175.524 200.16C177.457 200.974 179.528 201.392 181.619 201.39C183.71 201.389 185.78 200.967 187.712 200.151C189.643 199.334 191.398 198.138 192.875 196.63C194.353 195.123 195.525 193.334 196.323 191.365C197.122 189.396 197.533 187.287 197.531 185.156C197.529 183.026 197.116 180.917 196.314 178.949C195.513 176.982 194.338 175.195 192.859 173.689H192.892ZM29.6502 124.844C20.5175 115.507 14.3053 103.623 11.7982 90.6917C9.29106 77.7608 10.6013 64.3631 15.5635 52.1903C20.5258 40.0174 28.9174 29.6153 39.6789 22.2975C50.4404 14.9796 63.0891 11.0741 76.028 11.0741C88.9668 11.0741 101.616 14.9796 112.377 22.2975C123.139 29.6153 131.53 40.0174 136.492 52.1903C141.455 64.3631 142.765 77.7608 140.258 90.6917C137.751 103.623 131.538 115.507 122.406 124.844C116.319 131.054 109.089 135.981 101.131 139.343C93.1735 142.704 84.643 144.434 76.028 144.434C67.4129 144.434 58.8824 142.704 50.9245 139.343C42.9665 135.981 35.7372 131.054 29.6502 124.844Z" fill="black"/>
</svg>
