<svg width="235" height="221" viewBox="0 0 235 221" fill="none" xmlns="http://www.w3.org/2000/svg">
<path d="M235 166.181C235 142.288 218.659 121.92 195.937 114.431C196.885 108.225 197.361 101.964 197.363 95.6943V37.984C197.363 34.4083 194.281 31.5094 190.479 31.5094C159.548 31.5094 129.017 21.6896 103.072 1.48706C101.837 0.525602 100.285 -0.000488281 98.6814 -0.000488281C97.0783 -0.000488281 95.5254 0.525602 94.2905 1.48706C68.1059 21.8803 37.6523 31.5094 6.88477 31.5094C3.08254 31.5094 0 34.4083 0 37.984V95.6943C0 152.45 38.7162 203.005 96.5538 220.682C97.9358 221.105 99.4261 221.105 100.809 220.682C113.067 216.942 124.713 211.62 135.416 204.87C158.892 227.009 197.397 226.326 219.971 202.922L219.973 202.92C229.663 192.832 235 179.785 235 166.181ZM221.23 166.181C221.233 173.151 219.384 180.01 215.849 186.136C211.393 179.963 205.36 174.942 198.304 171.532C200.646 167.88 201.953 163.647 201.953 159.275C201.953 146.185 190.629 135.535 176.709 135.535C162.789 135.535 151.465 146.185 151.465 159.275C151.465 163.647 152.772 167.88 155.114 171.532C148.058 174.941 142.025 179.963 137.569 186.135C134.034 180.01 132.184 173.15 132.188 166.181C132.188 143.095 152.16 124.312 176.709 124.312C201.258 124.312 221.23 143.095 221.23 166.181ZM168.943 167.221C166.59 165.199 165.234 162.357 165.234 159.275C165.234 153.325 170.382 148.484 176.709 148.484C183.036 148.484 188.184 153.325 188.184 159.275C188.184 162.357 186.828 165.199 184.475 167.221C179.334 166.41 174.084 166.41 168.943 167.221ZM157.891 100.231C157.891 105.105 157.435 109.971 156.55 114.744C132.916 122.962 116.688 145.073 118.564 170.066C112.387 174.018 105.707 177.225 98.6812 179.615C63.2655 167.57 39.4727 135.942 39.4727 100.231V64.9659C60.9967 63.6399 81.7543 56.0374 98.6821 43.0558C115.52 55.964 136.214 63.6212 157.891 64.9641V100.231ZM98.6816 207.697C48.0414 191.299 13.7695 146.478 13.7695 95.6943V44.3106C43.7518 43.0195 73.6518 33.1488 98.6826 14.7997C123.028 32.6295 152.797 42.9634 183.594 44.3084V95.6943C183.591 101.024 183.208 106.347 182.447 111.628C178.621 111.273 174.767 111.274 170.942 111.631C171.967 103.43 171.66 100.707 171.66 58.7027C171.66 55.127 168.578 52.2281 164.775 52.2281C142.772 52.2295 121.517 44.7196 104.957 31.0937L103.218 29.6607C101.962 28.6265 100.35 28.0563 98.6814 28.0563C97.0125 28.0563 95.4004 28.6265 94.145 29.6607L92.4087 31.0907C75.851 44.7209 54.593 52.2323 32.5879 52.2281C28.7857 52.2281 25.7031 55.127 25.7031 58.7027V100.231C25.7031 141.841 53.8581 179.236 96.5038 192.611C97.9172 193.054 99.4455 193.054 100.859 192.611C108.055 190.358 114.965 187.367 121.465 183.692C122.837 187.523 124.657 191.199 126.891 194.652C118.106 200.095 108.629 204.477 98.6816 207.697ZM146.677 197.085C152.27 186.464 163.867 179.562 176.709 179.562C189.551 179.562 201.148 186.464 206.741 197.085C189.728 211.687 163.715 211.709 146.677 197.085Z" fill="black"/>
<path d="M88.8624 102.468C86.1741 99.9396 81.8147 99.9396 79.1259 102.468C76.4372 104.997 76.4372 109.096 79.1259 111.625L93.8134 125.437C96.5017 127.966 100.861 127.966 103.55 125.437L136.826 94.1431C139.515 91.6146 139.515 87.5153 136.826 84.9867C134.138 82.4582 129.779 82.4582 127.09 84.9867L98.6819 111.702L88.8624 102.468Z" fill="black"/>
</svg>
