<svg width="512" height="512" viewBox="0 0 512 512" fill="none" xmlns="http://www.w3.org/2000/svg">
<g clip-path="url(#clip0_1364_323)">
<path d="M506.252 12.1C500.627 4.297 491.611 0 480.863 0C475.817 0 470.407 0.951 464.786 2.826L29.3584 147.968C14.3184 152.981 3.95241 163.226 0.917412 176.078C-2.11759 188.931 2.57141 202.733 13.7824 213.947C14.8786 215.044 16.1382 215.964 17.5164 216.675L200.837 311.172L295.338 494.494C296.049 495.872 296.968 497.131 298.064 498.227C307.073 507.237 317.463 512 328.113 512.001H328.116C344.244 512.001 358.012 500.753 364.043 482.652L509.188 47.225C513.751 33.531 512.708 21.057 506.252 12.1ZM30.1144 182.973C30.6884 180.54 34.0344 178.033 38.8444 176.429L452.129 38.667L209.112 281.684L33.5724 191.199C30.9284 188.109 29.6214 185.061 30.1144 182.973ZM335.582 473.166C334.158 477.437 331.45 482 328.116 482C326.096 482 323.452 480.693 320.813 478.436L230.325 302.897L473.349 59.874L335.582 473.166Z" fill="black"/>
</g>
<defs>
<clipPath id="clip0_1364_323">
<rect width="512" height="512" fill="white"/>
</clipPath>
</defs>
</svg>
