<svg width="66" height="42" viewBox="0 0 66 42" fill="none" xmlns="http://www.w3.org/2000/svg">
<path d="M65.6689 29.0656C65.6689 22.1901 60.0767 16.5979 53.2011 16.5979H33.7645C31.4934 16.5979 29.6501 14.7545 29.6501 12.4834C29.6501 10.2123 31.4934 8.36898 33.7645 8.36898H61.1734C63.4834 8.36898 65.35 6.50231 65.35 4.19231C65.35 1.88231 63.4834 0.015625 61.1734 0.015625H33.7645C26.8889 0.015625 21.2967 5.60785 21.2967 12.4834C21.2967 19.359 26.8889 24.9512 33.7645 24.9512H53.2011C55.4723 24.9512 57.3156 26.7945 57.3156 29.0656C57.3156 31.3367 55.4723 33.1801 53.2011 33.1801H22.9534C21.9267 33.1801 21.0867 33.0945 20.4023 32.9234C21.39 36.5634 23.5134 41.5334 27.5967 41.5334H53.2089C60.0689 41.5334 65.6689 35.9412 65.6689 29.0656Z" fill="#2575FC"/>
<path d="M17.4456 30.5511L17.36 29.8978C17.29 29.6411 17.2278 29.3689 17.1811 29.0734L13.8211 3.92003L0 0.0078125V5.6778L5.84886 7.33447L8.49332 27.1367L8.9133 30.2711L8.93666 30.4345C9.65999 34.58 12.4367 41.5334 22.9522 41.5334H25.1844C20.0822 41.5334 18.0289 33.7711 17.4456 30.5511Z" fill="#2575FC"/>
</svg>
