<svg width="175" height="133" viewBox="0 0 175 133" fill="none" xmlns="http://www.w3.org/2000/svg">
<path fill-rule="evenodd" clip-rule="evenodd" d="M89.3742 88.4412C90.7337 87.1992 92.5775 86.5015 94.4999 86.5015C96.4224 86.5015 98.2661 87.1992 99.6257 88.4412L130.75 116.882L161.874 88.4412C163.242 87.2344 165.073 86.5666 166.974 86.5817C168.875 86.5968 170.693 87.2935 172.037 88.5219C173.382 89.7502 174.144 91.4118 174.161 93.1489C174.177 94.8859 173.446 96.5594 172.126 97.8089L135.876 130.934C134.516 132.176 132.672 132.874 130.75 132.874C128.827 132.874 126.984 132.176 125.624 130.934L89.3742 97.8089C88.015 96.5666 87.2515 94.8818 87.2515 93.125C87.2515 91.3683 88.015 89.6835 89.3742 88.4412Z" fill="black"/>
<path fill-rule="evenodd" clip-rule="evenodd" d="M130.75 40.125C132.673 40.125 134.517 40.823 135.877 42.0654C137.236 43.3078 138 44.9929 138 46.75V126.25C138 128.007 137.236 129.692 135.877 130.935C134.517 132.177 132.673 132.875 130.75 132.875C128.827 132.875 126.983 132.177 125.623 130.935C124.264 129.692 123.5 128.007 123.5 126.25V46.75C123.5 44.9929 124.264 43.3078 125.623 42.0654C126.983 40.823 128.827 40.125 130.75 40.125ZM0.25 60C0.25 58.2429 1.01384 56.5578 2.37348 55.3154C3.73312 54.073 5.57718 53.375 7.5 53.375H72.75C74.6728 53.375 76.5169 54.073 77.8765 55.3154C79.2362 56.5578 80 58.2429 80 60C80 61.7571 79.2362 63.4422 77.8765 64.6846C76.5169 65.927 74.6728 66.625 72.75 66.625H7.5C5.57718 66.625 3.73312 65.927 2.37348 64.6846C1.01384 63.4422 0.25 61.7571 0.25 60ZM0.25 7C0.25 5.24294 1.01384 3.55785 2.37348 2.31542C3.73312 1.07299 5.57718 0.375 7.5 0.375H130.75C132.673 0.375 134.517 1.07299 135.877 2.31542C137.236 3.55785 138 5.24294 138 7C138 8.75706 137.236 10.4422 135.877 11.6846C134.517 12.927 132.673 13.625 130.75 13.625H7.5C5.57718 13.625 3.73312 12.927 2.37348 11.6846C1.01384 10.4422 0.25 8.75706 0.25 7ZM0.25 113C0.25 111.243 1.01384 109.558 2.37348 108.315C3.73312 107.073 5.57718 106.375 7.5 106.375H58.25C60.1728 106.375 62.0169 107.073 63.3765 108.315C64.7362 109.558 65.5 111.243 65.5 113C65.5 114.757 64.7362 116.442 63.3765 117.685C62.0169 118.927 60.1728 119.625 58.25 119.625H7.5C5.57718 119.625 3.73312 118.927 2.37348 117.685C1.01384 116.442 0.25 114.757 0.25 113Z" fill="black"/>
</svg>
