<svg width="512" height="512" viewBox="0 0 512 512" fill="none" xmlns="http://www.w3.org/2000/svg">
<path d="M305.199 287C305.099 286.9 304.899 286.2 305.399 285.5C305.499 285.4 305.499 285.3 305.599 285.3C318.799 269.4 326.599 248.5 326.599 229.2C326.599 190.3 294.899 158.6 255.999 158.6C217.099 158.6 185.399 190.3 185.399 229.2C185.399 248.6 193.299 269.6 206.899 286.9C187.299 295.4 169.999 308.9 157.099 325.9C151.399 333.4 152.899 344.1 160.399 349.8C163.499 352.1 167.099 353.3 170.699 353.3C175.899 353.3 180.899 351 184.299 346.6C193.699 334.2 206.199 324.4 220.499 318.3C230.499 314 237.599 305.4 240.199 294.7C242.799 283.8 240.099 272.2 232.899 263.6C224.699 253.8 219.599 240.6 219.599 229.2C219.599 209.1 235.999 192.7 256.099 192.7C276.199 192.7 292.599 209.1 292.599 229.2C292.599 240.6 287.499 253.8 279.299 263.7C279.299 263.7 279.299 263.8 279.199 263.8C274.799 269 269.799 272.9 264.799 275.1C256.099 278.7 251.999 288.8 255.699 297.4C258.499 303.9 264.799 307.9 271.499 307.9C273.499 307.9 275.499 307.5 277.499 306.8C281.099 311.8 285.899 315.8 291.799 318.4C305.999 324.5 318.499 334.3 327.999 346.7C331.399 351.1 336.399 353.4 341.599 353.4C345.199 353.4 348.799 352.3 351.899 349.9C359.399 344.2 360.899 333.5 355.199 326C341.899 308.9 324.699 295.4 305.199 287Z" fill="#2B2B2B"/>
<path d="M297.1 426C268.9 432.9 239.1 432.5 210.8 424.9C117.7 400.1 62.0995 304 86.9995 210.8C89.5995 201.2 93.1995 192 97.2995 183.1C99.4995 189.3 105.3 194 112.3 194.4H113.4C122.3 194.4 129.8 187.5 130.4 178.4L133.9 124.6C134.3 118.8 131.7 113.1 126.9 109.7C122.2 106.3 116 105.5 110.6 107.7L60.4995 127.6C51.6995 131.1 47.4995 141 50.9995 149.8C54.1995 157.8 62.6995 161.7 70.6995 159.8C63.6995 173.2 57.9995 187.2 54.0995 201.9C24.2995 313.4 90.6995 428.2 202 457.9C219.7 462.6 237.9 465 256.1 465C272.6 465 289.1 463.1 305.1 459.1C314.2 456.9 319.9 447.6 317.6 438.5C315.3 429.4 306.2 423.8 297.1 426ZM441.3 352.1C448.3 338.7 454 324.7 457.9 310C487.7 198.6 421.3 83.8 310 54.1C276.4 45.1 240.9 44.7 207.2 52.7C198 54.9 192.4 64.1 194.6 73.3C196.8 82.5 206.1 88.1 215.2 85.9C243.3 79.1 273.1 79.5 301.2 87C346.3 99.1 384.1 128 407.4 168.4C430.7 208.8 437 256 425 301.2C422.4 310.8 418.8 320 414.7 328.9C412.5 322.7 406.7 318 399.7 317.5C390.8 317 382.2 324 381.6 333.4L378.1 387.2C377.7 393 380.3 398.7 385.1 402.1C388.1 404.2 391.6 405.3 395.1 405.3C397.2 405.3 399.4 404.9 401.4 404.1L451.5 384.2C460.3 380.7 464.5 370.8 461 362C457.8 354.1 449.3 350.2 441.3 352.1Z" fill="#2B2B2B"/>
</svg>
