<svg width="103" height="96" viewBox="0 0 103 96" fill="none" xmlns="http://www.w3.org/2000/svg">
<g clip-path="url(#clip0_223_8400)">
<path d="M51.5 96C79.9427 96 103 74.5097 103 48C103 21.4903 79.9427 0 51.5 0C23.0573 0 0 21.4903 0 48C0 74.5097 23.0573 96 51.5 96Z" fill="#03A9F4"/>
<path d="M84.8594 28.718C82.3501 29.7395 79.6958 30.418 76.9786 30.7328C79.843 29.1496 81.9842 26.6415 82.9959 23.6844C80.315 25.1675 77.3814 26.2121 74.3223 26.7728C72.4477 24.9043 70.0132 23.6047 67.3355 23.0432C64.6578 22.4817 61.8607 22.6843 59.3081 23.6244C56.7556 24.5646 54.5656 26.199 53.0231 28.3149C51.4807 30.4309 50.657 32.9304 50.6594 35.4886C50.6497 36.465 50.7566 37.4394 50.9779 38.3938C45.5363 38.1447 40.2123 36.8285 35.3537 34.5311C30.4951 32.2337 26.2111 29.0068 22.7816 25.0612C21.0188 27.868 20.4727 31.1963 21.2548 34.3659C22.037 37.5354 24.0884 40.3069 26.9897 42.1138C24.8241 42.0594 22.7045 41.52 20.8097 40.5412V40.6802C20.8158 43.6222 21.9084 46.4726 23.9038 48.7523C25.8993 51.0319 28.6759 52.6018 31.767 53.198C30.5972 53.4845 29.3918 53.6247 28.1823 53.6149C27.3115 53.6299 26.4414 53.5579 25.587 53.4002C26.4726 55.9304 28.1775 58.1427 30.4673 59.7329C32.7571 61.3231 35.5193 62.213 38.3739 62.2802C33.5365 65.8043 27.573 67.7185 21.4331 67.718C20.3391 67.7267 19.2457 67.6676 18.1602 67.5412C24.4206 71.3033 31.7179 73.291 39.1667 73.2633C64.3407 73.2633 78.1034 53.8296 78.1034 36.9854C78.1034 36.4233 78.1034 35.8802 78.056 35.337C80.7363 33.5341 83.0417 31.2912 84.8594 28.718Z" fill="white"/>
</g>
<defs>
<clipPath id="clip0_223_8400">
<rect width="103" height="96" fill="white"/>
</clipPath>
</defs>
</svg>
