<svg width="374" height="416" viewBox="0 0 374 416" fill="none" xmlns="http://www.w3.org/2000/svg">
<path d="M85.6663 101.333C85.6663 45.4613 131.128 0 187 0C242.872 0 288.333 45.4613 288.333 101.333C288.333 157.205 242.872 202.667 187 202.667C131.128 202.667 85.6663 157.205 85.6663 101.333ZM251 234.667H123C55.373 234.667 0.333008 289.707 0.333008 357.333C0.344309 372.889 6.52887 387.805 17.5286 398.804C28.5282 409.804 43.4438 415.989 58.9997 416H315C330.556 415.989 345.471 409.804 356.471 398.804C367.47 387.805 373.655 372.889 373.666 357.333C373.666 289.707 318.626 234.667 251 234.667Z" fill="black"/>
</svg>
