<svg width="201" height="101" viewBox="0 0 201 101" fill="none" xmlns="http://www.w3.org/2000/svg">
<path d="M100.5 0.130371C62.0968 0.130371 27.2708 17.7961 1.57272 46.49C-0.524241 48.8408 -0.524241 52.1251 1.57272 54.4759C27.2708 83.2043 62.0968 100.87 100.5 100.87C138.903 100.87 173.729 83.2043 199.427 54.5104C201.524 52.1596 201.524 48.8754 199.427 46.5246C173.729 17.7961 138.903 0.130371 100.5 0.130371ZM103.255 85.97C77.7623 87.3183 56.7105 69.6525 58.314 48.184C59.6298 30.4836 76.6933 16.1367 97.7452 15.0304C123.238 13.6822 144.289 31.3479 142.686 52.8165C141.329 70.4822 124.266 84.8291 103.255 85.97ZM101.98 69.5834C88.2472 70.3094 76.8989 60.8024 77.8035 49.2557C78.5025 39.7141 87.7126 32.0048 99.0609 31.3825C112.794 30.6565 124.142 40.1635 123.238 51.7102C122.498 61.2863 113.287 68.9957 101.98 69.5834Z" fill="black"/>
</svg>
