<svg width="223" height="183" viewBox="0 0 223 183" fill="none" xmlns="http://www.w3.org/2000/svg">
<path d="M50.75 55.6045C49.4073 55.6045 48.1197 56.1071 47.1703 57.0018C46.2209 57.8965 45.6875 59.11 45.6875 60.3753V70.7376C45.6875 72.0029 46.2209 73.2164 47.1703 74.1111C48.1197 75.0058 49.4073 75.5084 50.75 75.5084C52.0927 75.5084 53.3803 75.0058 54.3297 74.1111C55.2791 73.2164 55.8125 72.0029 55.8125 70.7376V60.3753C55.8125 59.11 55.2791 57.8965 54.3297 57.0018C53.3803 56.1071 52.0927 55.6045 50.75 55.6045ZM50.75 81.5197C49.4073 81.5197 48.1197 82.0223 47.1703 82.917C46.2209 83.8117 45.6875 85.0252 45.6875 86.2905V96.6527C45.6875 97.9181 46.2209 99.1315 47.1703 100.026C48.1197 100.921 49.4073 101.424 50.75 101.424C52.0927 101.424 53.3803 100.921 54.3297 100.026C55.2791 99.1315 55.8125 97.9181 55.8125 96.6527V86.2905C55.8125 85.0252 55.2791 83.8117 54.3297 82.917C53.3803 82.0223 52.0927 81.5197 50.75 81.5197ZM50.75 107.435C49.4073 107.435 48.1197 107.937 47.1703 108.832C46.2209 109.727 45.6875 110.94 45.6875 112.206V122.568C45.6875 123.833 46.2209 125.047 47.1703 125.941C48.1197 126.836 49.4073 127.339 50.75 127.339C52.0927 127.339 53.3803 126.836 54.3297 125.941C55.2791 125.047 55.8125 123.833 55.8125 122.568V112.206C55.8125 110.94 55.2791 109.727 54.3297 108.832C53.3803 107.937 52.0927 107.435 50.75 107.435Z" fill="black"/>
<path d="M34.8892 0.86377C31.9141 1.09488 29.076 2.14197 26.7252 3.87577C24.3744 5.60957 22.6139 7.95417 21.6609 10.6201L14.9176 29.8036C6.69612 30.4525 0.125 36.9599 0.125 44.8604V63.8435C0.12576 64.8522 0.465726 65.8347 1.09607 66.6498C1.72641 67.465 2.61468 68.0709 3.63331 68.3806C9.95131 70.3032 15.3125 77.7791 15.3125 86.9344C15.3125 96.0944 9.95131 103.575 3.63331 105.493C2.61386 105.803 1.72499 106.409 1.09457 107.226C0.464159 108.042 0.124689 109.025 0.125 110.035V138.545C0.14497 142.566 1.84856 146.416 4.86524 149.259C7.88193 152.102 11.9677 153.707 16.2339 153.726H96.1556L182.107 181.383C190.045 183.935 198.727 179.756 201.344 172.304L207.905 153.612C216.208 153.049 222.875 146.503 222.875 138.545V110.025C222.874 109.017 222.534 108.034 221.904 107.219C221.274 106.404 220.385 105.798 219.367 105.488C213.049 103.566 207.688 96.0896 207.688 86.9296C207.688 77.7744 213.049 70.2937 219.367 68.3711C220.385 68.0614 221.274 67.4555 221.904 66.6403C222.534 65.8251 222.874 64.8427 222.875 63.834V44.8604C222.854 40.8408 221.15 36.9917 218.133 34.1498C215.116 31.308 211.031 29.7032 206.766 29.6844H126.865L40.9288 1.54123C38.9392 0.887625 36.7674 0.968728 34.8943 0.86377H34.8892ZM35.6334 10.3291C36.2915 10.2862 36.9749 10.3673 37.6584 10.582L95.9986 29.6844H25.6299L31.2695 13.6067C31.5598 12.7086 32.1323 11.9145 32.9114 11.3294C33.6905 10.7442 34.6396 10.3955 35.6334 10.3291ZM16.2339 39.226H45.6875V43.7631C45.6875 45.0284 46.2209 46.2419 47.1703 47.1366C48.1197 48.0313 49.4073 48.5339 50.75 48.5339C52.0927 48.5339 53.3803 48.0313 54.3297 47.1366C55.2791 46.2419 55.8125 45.0284 55.8125 43.7631V39.226H206.766C210.168 39.226 212.75 41.6592 212.75 44.8604V61.1051C203.4 65.7471 197.562 75.7515 197.562 86.9344C197.562 98.1124 203.405 108.117 212.75 112.754V138.545C212.75 141.751 210.168 144.184 206.766 144.184H55.8024C55.8277 142.538 55.8125 140.845 55.8125 139.18C55.8125 137.914 55.2791 136.701 54.3297 135.806C53.3803 134.912 52.0927 134.409 50.75 134.409C49.4073 134.409 48.1197 134.912 47.1703 135.806C46.2209 136.701 45.6875 137.914 45.6875 139.18C45.6774 140.835 45.6875 142.548 45.6976 144.184H16.2339C12.8268 144.184 10.25 141.751 10.25 138.545V112.764C19.6004 108.122 25.4375 98.1172 25.4375 86.9344C25.4375 75.7515 19.5954 65.7519 10.25 61.1146V44.8604C10.25 41.6544 12.8319 39.226 16.2339 39.226ZM127.487 153.726H197.198L191.73 169.303C190.819 171.893 188.06 173.215 185.382 172.356L127.487 153.726Z" fill="black"/>
<path d="M155.857 98.9424C164.869 98.9424 172.28 105.922 172.28 114.414C172.28 122.906 164.869 129.9 155.857 129.9C146.846 129.9 139.425 122.906 139.425 114.414C139.425 105.922 146.846 98.9424 155.857 98.9424ZM155.857 108.484C152.314 108.484 149.55 111.079 149.55 114.414C149.55 117.749 152.319 120.359 155.857 120.359C159.396 120.359 162.155 117.754 162.155 114.414C162.155 111.075 159.396 108.484 155.857 108.484ZM107.652 53.5098C112.001 53.5298 116.166 55.1668 119.241 58.0649C122.317 60.963 124.054 64.8879 124.075 68.9863C124.075 77.4784 116.664 84.4629 107.647 84.4629C98.6309 84.4629 91.2144 77.4784 91.2144 68.9863C91.2357 64.8862 92.9742 60.9599 96.0516 58.0616C99.129 55.1632 103.302 53.5273 107.652 53.5098ZM107.652 63.0514C104.109 63.0514 101.339 65.6515 101.339 68.9863C101.339 72.3259 104.109 74.9213 107.647 74.9213C111.191 74.9213 113.95 72.3212 113.95 68.9863C113.95 65.6468 111.196 63.0514 107.652 63.0514ZM152.278 65.6134L104.063 111.051C103.141 111.951 102.631 113.156 102.642 114.407C102.654 115.657 103.186 116.854 104.125 117.739C105.063 118.623 106.333 119.125 107.66 119.136C108.988 119.147 110.267 118.666 111.221 117.797L159.437 72.3593C160.386 71.4647 160.919 70.2514 160.919 68.9863C160.919 67.7213 160.386 66.508 159.437 65.6134C157.366 63.8816 154.222 63.7003 152.278 65.6134Z" fill="black"/>
</svg>
